<?xml version="1.0" standalone="no"?>
 <!DOCTYPE svg PUBLIC "-//W3C//DTD SVG 1.1//EN" 
 "http://www.w3.org/Graphics/SVG/1.1/DTD/svg11.dtd"> 
<svg xmlns="http://www.w3.org/2000/svg" version="1.1" 
    width="29.7002cm" height="21.0007cm" viewBox="0 0 116930 82680 ">
<title>SVG Picture created as lets_split-Cmts.User.svg date 2017/10/09 00:41:47 </title>
  <desc>Picture generated by PCBNEW </desc>
<g style="fill:#000000; fill-opacity:1;stroke:#000000; stroke-opacity:1;
stroke-linecap:round; stroke-linejoin:round; "
 transform="translate(0 0) scale(1 1)">
</g>
<g style="fill:#000000; fill-opacity:0.0; 
stroke:#000000; stroke-width:-0.000393701; stroke-opacity:1; 
stroke-linecap:round; stroke-linejoin:round;">
</g>
<g style="fill:#000000; fill-opacity:0.0; 
stroke:#000000; stroke-width:118.11; stroke-opacity:1; 
stroke-linecap:round; stroke-linejoin:round;">
<path d="M14010 49745
L13953 49717
L13925 49689
L13897 49633
L13896 49605
L13924 49549
L13952 49521
L14008 49492
L14121 49491
L14177 49519
L14205 49547
L14234 49603
L14234 49631
L14206 49688
L14178 49716
L14122 49744
L14010 49745
L13954 49774
L13926 49802
L13898 49858
L13899 49971
L13927 50027
L13955 50055
L14012 50083
L14124 50082
L14180 50053
L14208 50025
L14236 49969
L14235 49856
L14207 49800
L14179 49772
L14122 49744
" />
<path d="M14518 50051
L14518 50079
L14490 50136
L14462 50164
" />
<path d="M14880 49487
L14936 49486
L14993 49514
L15021 49542
L15049 49598
L15078 49710
L15079 49851
L15052 49964
L15024 50020
L14996 50048
L14940 50077
L14884 50077
L14827 50049
L14799 50021
L14770 49965
L14742 49853
L14741 49712
L14768 49600
L14796 49543
L14824 49515
L14880 49487
" />
<path d="M15442 49483
L15499 49483
L15555 49511
L15583 49538
L15612 49595
L15641 49707
L15641 49847
L15614 49960
L15586 50017
L15558 50045
L15502 50073
L15446 50074
L15390 50046
L15361 50018
L15333 49962
L15304 49850
L15303 49709
L15331 49596
L15358 49540
L15386 49512
L15442 49483
" />
<path d="M16005 49480
L16061 49479
L16117 49507
L16146 49535
L16174 49591
L16203 49703
L16204 49844
L16176 49957
L16149 50013
L16121 50041
L16065 50070
L16008 50070
L15952 50042
L15924 50014
L15895 49958
L15866 49846
L15866 49705
L15893 49593
L15921 49536
L15949 49508
L16005 49480
" />
<path d="M16908 50065
L16906 49671
" />
<path d="M16906 49727
L16934 49699
L16990 49670
L17075 49670
L17131 49698
L17159 49754
L17161 50063
" />
<path d="M17159 49754
L17187 49697
L17243 49669
L17328 49668
L17384 49696
L17413 49752
L17415 50061
" />
<path d="M17696 50060
L17693 49666
" />
<path d="M17694 49722
L17722 49694
L17778 49665
L17862 49665
L17918 49693
L17947 49749
L17949 50058
" />
<path d="M17947 49749
L17975 49692
L18031 49664
L18115 49663
L18171 49691
L18200 49747
L18202 50056
" />
<path d="M14485 48038
L17635 48018
" />
<path d="M14409 35885
L14492 49101
" />
<path d="M17559 35866
L17641 49081
" />
<path d="M17635 48018
L17192 48252
" />
<path d="M17635 48018
L17190 47790
" />
<path d="M14485 48038
L14930 48266
" />
<path d="M14485 48038
L14927 47805
" />
<path d="M56780 29723
L56780 29441
L56498 29413
L56526 29441
L56555 29498
L56555 29638
L56526 29694
L56498 29723
L56442 29751
L56302 29751
L56245 29723
L56217 29694
L56189 29638
L56189 29498
L56217 29441
L56245 29413
" />
<path d="M56780 30285
L56780 30004
L56498 29976
L56526 30004
L56555 30060
L56555 30201
L56526 30257
L56498 30285
L56442 30313
L56302 30313
L56245 30285
L56217 30257
L56189 30201
L56189 30060
L56217 30004
L56245 29976
" />
<path d="M56217 30594
L56189 30594
L56133 30566
L56105 30538
" />
<path d="M56780 31129
L56780 30847
L56498 30819
L56526 30847
L56555 30904
L56555 31044
L56526 31100
L56498 31129
L56442 31157
L56302 31157
L56245 31129
L56217 31100
L56189 31044
L56189 30904
L56217 30847
L56245 30819
" />
<path d="M56780 31691
L56780 31410
L56498 31382
L56526 31410
L56555 31466
L56555 31607
L56526 31663
L56498 31691
L56442 31719
L56302 31719
L56245 31691
L56217 31663
L56189 31607
L56189 31466
L56217 31410
L56245 31382
" />
<path d="M56780 32085
L56780 32141
L56751 32197
L56723 32225
L56667 32253
L56555 32282
L56414 32282
L56302 32253
L56245 32225
L56217 32197
L56189 32141
L56189 32085
L56217 32028
L56245 32000
L56302 31972
L56414 31944
L56555 31944
L56667 31972
L56723 32000
L56751 32028
L56780 32085
" />
<path d="M56189 32985
L56583 32985
" />
<path d="M56526 32985
L56555 33013
L56583 33069
L56583 33153
L56555 33210
L56498 33238
L56189 33238
" />
<path d="M56498 33238
L56555 33266
L56583 33322
L56583 33406
L56555 33463
L56498 33491
L56189 33491
" />
<path d="M56189 33772
L56583 33772
" />
<path d="M56526 33772
L56555 33800
L56583 33856
L56583 33941
L56555 33997
L56498 34025
L56189 34025
" />
<path d="M56498 34025
L56555 34053
L56583 34109
L56583 34194
L56555 34250
L56498 34278
L56189 34278
" />
<path d="M55925 20925
L55925 42795
" />
<path d="M45984 20925
L56988 20925
" />
<path d="M45984 42795
L56988 42795
" />
<path d="M55925 42795
L55694 42351
" />
<path d="M55925 42795
L56156 42351
" />
<path d="M55925 20925
L55694 21368
" />
<path d="M55925 20925
L56156 21368
" />
<path d="M57232 37251
L57232 36913
" />
<path d="M57232 37082
L57823 37082
L57739 37026
L57682 36969
L57654 36913
" />
<path d="M57823 37447
L57823 37841
L57232 37588
" />
<path d="M57260 38094
L57232 38094
L57176 38066
L57148 38038
" />
<path d="M57626 38600
L57232 38600
" />
<path d="M57851 38460
L57429 38319
L57429 38685
" />
<path d="M57823 39191
L57823 38910
L57542 38882
L57570 38910
L57598 38966
L57598 39107
L57570 39163
L57542 39191
L57485 39219
L57345 39219
L57289 39191
L57260 39163
L57232 39107
L57232 38966
L57260 38910
L57289 38882
" />
<path d="M57823 39585
L57823 39641
L57795 39697
L57767 39725
L57710 39753
L57598 39782
L57457 39782
L57345 39753
L57289 39725
L57260 39697
L57232 39641
L57232 39585
L57260 39528
L57289 39500
L57345 39472
L57457 39444
L57598 39444
L57710 39472
L57767 39500
L57795 39528
L57823 39585
" />
<path d="M57232 40485
L57626 40485
" />
<path d="M57570 40485
L57598 40513
L57626 40569
L57626 40653
L57598 40710
L57542 40738
L57232 40738
" />
<path d="M57542 40738
L57598 40766
L57626 40822
L57626 40906
L57598 40963
L57542 40991
L57232 40991
" />
<path d="M57232 41272
L57626 41272
" />
<path d="M57570 41272
L57598 41300
L57626 41356
L57626 41441
L57598 41497
L57542 41525
L57232 41525
" />
<path d="M57542 41525
L57598 41553
L57626 41609
L57626 41694
L57598 41750
L57542 41778
L57232 41778
" />
<path d="M56968 35925
L56968 42795
" />
<path d="M46043 35925
L58031 35925
" />
<path d="M46043 42795
L58031 42795
" />
<path d="M56968 42795
L56737 42351
" />
<path d="M56968 42795
L57199 42351
" />
<path d="M56968 35925
L56737 36368
" />
<path d="M56968 35925
L57199 36368
" />
<path d="M3807 37241
L3807 36903
" />
<path d="M3807 37072
L4398 37072
L4313 37016
L4257 36960
L4229 36903
" />
<path d="M4398 37438
L4398 37831
L3807 37578
" />
<path d="M3835 38084
L3807 38084
L3751 38056
L3723 38028
" />
<path d="M4398 38619
L4398 38338
L4116 38309
L4145 38338
L4173 38394
L4173 38534
L4145 38591
L4116 38619
L4060 38647
L3920 38647
L3863 38619
L3835 38591
L3807 38534
L3807 38394
L3835 38338
L3863 38309
" />
<path d="M4398 39012
L4398 39069
L4370 39125
L4341 39153
L4285 39181
L4173 39209
L4032 39209
L3920 39181
L3863 39153
L3835 39125
L3807 39069
L3807 39012
L3835 38956
L3863 38928
L3920 38900
L4032 38872
L4173 38872
L4285 38900
L4341 38928
L4370 38956
L4398 39012
" />
<path d="M4398 39575
L4398 39631
L4370 39687
L4341 39715
L4285 39744
L4173 39772
L4032 39772
L3920 39744
L3863 39715
L3835 39687
L3807 39631
L3807 39575
L3835 39519
L3863 39491
L3920 39462
L4032 39434
L4173 39434
L4285 39462
L4341 39491
L4370 39519
L4398 39575
" />
<path d="M3807 40475
L4201 40475
" />
<path d="M4145 40475
L4173 40503
L4201 40559
L4201 40643
L4173 40700
L4116 40728
L3807 40728
" />
<path d="M4116 40728
L4173 40756
L4201 40812
L4201 40897
L4173 40953
L4116 40981
L3807 40981
" />
<path d="M3807 41262
L4201 41262
" />
<path d="M4145 41262
L4173 41290
L4201 41347
L4201 41431
L4173 41487
L4116 41515
L3807 41515
" />
<path d="M4116 41515
L4173 41543
L4201 41600
L4201 41684
L4173 41740
L4116 41768
L3807 41768
" />
<path d="M4606 35905
L4606 42795
" />
<path d="M15984 35905
L3543 35905
" />
<path d="M15984 42795
L3543 42795
" />
<path d="M4606 42795
L4375 42351
" />
<path d="M4606 42795
L4837 42351
" />
<path d="M4606 35905
L4375 36349
" />
<path d="M4606 35905
L4837 36349
" />
<path d="M1898 25615
L1898 26009
L1307 25756
" />
<path d="M1701 26487
L1307 26487
" />
<path d="M1926 26347
L1504 26206
L1504 26571
" />
<path d="M1335 26825
L1307 26825
L1251 26796
L1223 26768
" />
<path d="M1898 27021
L1898 27415
L1307 27162
" />
<path d="M1898 27753
L1898 27809
L1870 27865
L1841 27893
L1785 27921
L1673 27949
L1532 27949
L1420 27921
L1363 27893
L1335 27865
L1307 27809
L1307 27753
L1335 27696
L1363 27668
L1420 27640
L1532 27612
L1673 27612
L1785 27640
L1841 27668
L1870 27696
L1898 27753
" />
<path d="M1898 28315
L1898 28371
L1870 28428
L1841 28456
L1785 28484
L1673 28512
L1532 28512
L1420 28484
L1363 28456
L1335 28428
L1307 28371
L1307 28315
L1335 28259
L1363 28231
L1420 28203
L1532 28174
L1673 28174
L1785 28203
L1841 28231
L1870 28259
L1898 28315
" />
<path d="M1307 29215
L1701 29215
" />
<path d="M1645 29215
L1673 29243
L1701 29299
L1701 29384
L1673 29440
L1616 29468
L1307 29468
" />
<path d="M1616 29468
L1673 29496
L1701 29552
L1701 29637
L1673 29693
L1616 29721
L1307 29721
" />
<path d="M1307 30002
L1701 30002
" />
<path d="M1645 30002
L1673 30030
L1701 30087
L1701 30171
L1673 30227
L1616 30255
L1307 30255
" />
<path d="M1616 30255
L1673 30284
L1701 30340
L1701 30424
L1673 30480
L1616 30508
L1307 30508
" />
<path d="M2106 13385
L2106 42795
" />
<path d="M14744 13385
L1043 13385
" />
<path d="M14744 42795
L1043 42795
" />
<path d="M2106 42795
L1875 42351
" />
<path d="M2106 42795
L2337 42351
" />
<path d="M2106 13385
L1875 13829
" />
<path d="M2106 13385
L2337 13829
" />
<path d="M9711 6054
L9374 6054
" />
<path d="M9543 6054
L9543 5464
L9486 5548
L9430 5604
L9374 5632
" />
<path d="M10217 5660
L10217 6054
" />
<path d="M10077 5435
L9936 5857
L10302 5857
" />
<path d="M10555 6026
L10555 6054
L10527 6110
L10499 6138
" />
<path d="M10892 5717
L10836 5688
L10808 5660
L10780 5604
L10780 5576
L10808 5520
L10836 5492
L10892 5464
L11005 5464
L11061 5492
L11089 5520
L11117 5576
L11117 5604
L11089 5660
L11061 5688
L11005 5717
L10892 5717
L10836 5745
L10808 5773
L10780 5829
L10780 5942
L10808 5998
L10836 6026
L10892 6054
L11005 6054
L11061 6026
L11089 5998
L11117 5942
L11117 5829
L11089 5773
L11061 5745
L11005 5717
" />
<path d="M11652 5464
L11370 5464
L11342 5745
L11370 5717
L11427 5688
L11567 5688
L11624 5717
L11652 5745
L11680 5801
L11680 5942
L11652 5998
L11624 6026
L11567 6054
L11427 6054
L11370 6026
L11342 5998
" />
<path d="M12045 5464
L12102 5464
L12158 5492
L12186 5520
L12214 5576
L12242 5688
L12242 5829
L12214 5942
L12186 5998
L12158 6026
L12102 6054
L12045 6054
L11989 6026
L11961 5998
L11933 5942
L11905 5829
L11905 5688
L11933 5576
L11961 5520
L11989 5492
L12045 5464
" />
<path d="M12945 6054
L12945 5660
" />
<path d="M12945 5717
L12973 5688
L13030 5660
L13114 5660
L13170 5688
L13198 5745
L13198 6054
" />
<path d="M13198 5745
L13226 5688
L13283 5660
L13367 5660
L13423 5688
L13451 5745
L13451 6054
" />
<path d="M13733 6054
L13733 5660
" />
<path d="M13733 5717
L13761 5688
L13817 5660
L13901 5660
L13958 5688
L13986 5745
L13986 6054
" />
<path d="M13986 5745
L14014 5688
L14070 5660
L14154 5660
L14211 5688
L14239 5745
L14239 6054
" />
<path d="M14744 6318
L8897 6318
" />
<path d="M14744 13385
L14744 5255
" />
<path d="M8897 13385
L8897 5255
" />
<path d="M8897 6318
L9341 6088
" />
<path d="M8897 6318
L9341 6549
" />
<path d="M14744 6318
L14300 6088
" />
<path d="M14744 6318
L14300 6549
" />
<path d="M25050 3987
L25163 3987
L25219 3959
L25247 3931
L25303 3847
L25331 3734
L25331 3509
L25303 3453
L25275 3425
L25219 3397
L25106 3397
L25050 3425
L25022 3453
L24994 3509
L24994 3650
L25022 3706
L25050 3734
L25106 3762
L25219 3762
L25275 3734
L25303 3706
L25331 3650
" />
<path d="M25838 3593
L25838 3987
" />
<path d="M25697 3368
L25556 3790
L25922 3790
" />
<path d="M26175 3959
L26175 3987
L26147 4043
L26119 4071
" />
<path d="M26400 3453
L26428 3425
L26484 3397
L26625 3397
L26681 3425
L26709 3453
L26737 3509
L26737 3565
L26709 3650
L26372 3987
L26737 3987
" />
<path d="M27103 3397
L27159 3397
L27215 3425
L27244 3453
L27272 3509
L27300 3622
L27300 3762
L27272 3875
L27244 3931
L27215 3959
L27159 3987
L27103 3987
L27047 3959
L27019 3931
L26991 3875
L26962 3762
L26962 3622
L26991 3509
L27019 3453
L27047 3425
L27103 3397
" />
<path d="M27665 3397
L27722 3397
L27778 3425
L27806 3453
L27834 3509
L27862 3622
L27862 3762
L27834 3875
L27806 3931
L27778 3959
L27722 3987
L27665 3987
L27609 3959
L27581 3931
L27553 3875
L27525 3762
L27525 3622
L27553 3509
L27581 3453
L27609 3425
L27665 3397
" />
<path d="M28565 3987
L28565 3593
" />
<path d="M28565 3650
L28593 3622
L28650 3593
L28734 3593
L28790 3622
L28818 3678
L28818 3987
" />
<path d="M28818 3678
L28847 3622
L28903 3593
L28987 3593
L29043 3622
L29071 3678
L29071 3987
" />
<path d="M29353 3987
L29353 3593
" />
<path d="M29353 3650
L29381 3622
L29437 3593
L29521 3593
L29578 3622
L29606 3678
L29606 3987
" />
<path d="M29606 3678
L29634 3622
L29690 3593
L29775 3593
L29831 3622
L29859 3678
L29859 3987
" />
<path d="M45984 4251
L8897 4251
" />
<path d="M45984 20925
L45984 3188
" />
<path d="M8897 20925
L8897 3188
" />
<path d="M8897 4251
L9341 4021
" />
<path d="M8897 4251
L9341 4482
" />
<path d="M45984 4251
L45540 4021
" />
<path d="M45984 4251
L45540 4482
" />
<path d="M25080 46251
L25192 46251
L25248 46223
L25276 46195
L25333 46110
L25361 45998
L25361 45773
L25333 45717
L25305 45688
L25248 45660
L25136 45660
L25080 45688
L25052 45717
L25023 45773
L25023 45913
L25052 45970
L25080 45998
L25136 46026
L25248 46026
L25305 45998
L25333 45970
L25361 45913
" />
<path d="M25867 45857
L25867 46251
" />
<path d="M25726 45632
L25586 46054
L25951 46054
" />
<path d="M26205 46223
L26205 46251
L26176 46307
L26148 46335
" />
<path d="M26401 45660
L26767 45660
L26570 45885
L26654 45885
L26711 45913
L26739 45942
L26767 45998
L26767 46138
L26739 46195
L26711 46223
L26654 46251
L26486 46251
L26429 46223
L26401 46195
" />
<path d="M27301 45660
L27020 45660
L26992 45942
L27020 45913
L27076 45885
L27217 45885
L27273 45913
L27301 45942
L27329 45998
L27329 46138
L27301 46195
L27273 46223
L27217 46251
L27076 46251
L27020 46223
L26992 46195
" />
<path d="M27695 45660
L27751 45660
L27807 45688
L27836 45717
L27864 45773
L27892 45885
L27892 46026
L27864 46138
L27836 46195
L27807 46223
L27751 46251
L27695 46251
L27639 46223
L27611 46195
L27582 46138
L27554 46026
L27554 45885
L27582 45773
L27611 45717
L27639 45688
L27695 45660
" />
<path d="M28595 46251
L28595 45857
" />
<path d="M28595 45913
L28623 45885
L28679 45857
L28764 45857
L28820 45885
L28848 45942
L28848 46251
" />
<path d="M28848 45942
L28876 45885
L28932 45857
L29017 45857
L29073 45885
L29101 45942
L29101 46251
" />
<path d="M29382 46251
L29382 45857
" />
<path d="M29382 45913
L29410 45885
L29467 45857
L29551 45857
L29607 45885
L29635 45942
L29635 46251
" />
<path d="M29635 45942
L29663 45885
L29720 45857
L29804 45857
L29860 45885
L29888 45942
L29888 46251
" />
<path d="M46043 45452
L8897 45452
" />
<path d="M46043 35925
L46043 46515
" />
<path d="M8897 35925
L8897 46515
" />
<path d="M8897 45452
L9341 45221
" />
<path d="M8897 45452
L9341 45683
" />
<path d="M46043 45452
L45599 45221
" />
<path d="M46043 45452
L45599 45683
" />
<path d="M10331 46251
L9994 46251
" />
<path d="M10163 46251
L10163 45660
L10106 45745
L10050 45801
L9994 45829
" />
<path d="M10669 45913
L10613 45885
L10584 45857
L10556 45801
L10556 45773
L10584 45717
L10613 45688
L10669 45660
L10781 45660
L10838 45688
L10866 45717
L10894 45773
L10894 45801
L10866 45857
L10838 45885
L10781 45913
L10669 45913
L10613 45942
L10584 45970
L10556 46026
L10556 46138
L10584 46195
L10613 46223
L10669 46251
L10781 46251
L10838 46223
L10866 46195
L10894 46138
L10894 46026
L10866 45970
L10838 45942
L10781 45913
" />
<path d="M11175 46223
L11175 46251
L11147 46307
L11119 46335
" />
<path d="M11541 45660
L11597 45660
L11653 45688
L11681 45717
L11709 45773
L11737 45885
L11737 46026
L11709 46138
L11681 46195
L11653 46223
L11597 46251
L11541 46251
L11484 46223
L11456 46195
L11428 46138
L11400 46026
L11400 45885
L11428 45773
L11456 45717
L11484 45688
L11541 45660
" />
<path d="M12103 45660
L12159 45660
L12215 45688
L12244 45717
L12272 45773
L12300 45885
L12300 46026
L12272 46138
L12244 46195
L12215 46223
L12159 46251
L12103 46251
L12047 46223
L12019 46195
L11991 46138
L11962 46026
L11962 45885
L11991 45773
L12019 45717
L12047 45688
L12103 45660
" />
<path d="M12665 45660
L12722 45660
L12778 45688
L12806 45717
L12834 45773
L12862 45885
L12862 46026
L12834 46138
L12806 46195
L12778 46223
L12722 46251
L12665 46251
L12609 46223
L12581 46195
L12553 46138
L12525 46026
L12525 45885
L12553 45773
L12581 45717
L12609 45688
L12665 45660
" />
<path d="M13565 46251
L13565 45857
" />
<path d="M13565 45913
L13593 45885
L13650 45857
L13734 45857
L13790 45885
L13818 45942
L13818 46251
" />
<path d="M13818 45942
L13847 45885
L13903 45857
L13987 45857
L14043 45885
L14071 45942
L14071 46251
" />
<path d="M14353 46251
L14353 45857
" />
<path d="M14353 45913
L14381 45885
L14437 45857
L14521 45857
L14578 45885
L14606 45942
L14606 46251
" />
<path d="M14606 45942
L14634 45885
L14690 45857
L14775 45857
L14831 45885
L14859 45942
L14859 46251
" />
<path d="M15984 45452
L8897 45452
" />
<path d="M15984 35905
L15984 46515
" />
<path d="M8897 35905
L8897 46515
" />
<path d="M8897 45452
L9341 45221
" />
<path d="M8897 45452
L9341 45683
" />
<path d="M15984 45452
L15540 45221
" />
<path d="M15984 45452
L15540 45683
" />
<path d="M10084 7353
L9971 7353
L9915 7381
L9887 7410
L9831 7494
L9803 7606
L9803 7831
L9831 7888
L9859 7916
L9915 7944
L10028 7944
L10084 7916
L10112 7888
L10140 7831
L10140 7691
L10112 7634
L10084 7606
L10028 7578
L9915 7578
L9859 7606
L9831 7634
L9803 7691
" />
<path d="M10421 7916
L10421 7944
L10393 8000
L10365 8028
" />
<path d="M10787 7353
L10843 7353
L10899 7381
L10928 7410
L10956 7466
L10984 7578
L10984 7719
L10956 7831
L10928 7888
L10899 7916
L10843 7944
L10787 7944
L10731 7916
L10703 7888
L10674 7831
L10646 7719
L10646 7578
L10674 7466
L10703 7410
L10731 7381
L10787 7353
" />
<path d="M11349 7353
L11406 7353
L11462 7381
L11490 7410
L11518 7466
L11546 7578
L11546 7719
L11518 7831
L11490 7888
L11462 7916
L11406 7944
L11349 7944
L11293 7916
L11265 7888
L11237 7831
L11209 7719
L11209 7578
L11237 7466
L11265 7410
L11293 7381
L11349 7353
" />
<path d="M11912 7353
L11968 7353
L12024 7381
L12052 7410
L12080 7466
L12109 7578
L12109 7719
L12080 7831
L12052 7888
L12024 7916
L11968 7944
L11912 7944
L11856 7916
L11827 7888
L11799 7831
L11771 7719
L11771 7578
L11799 7466
L11827 7410
L11856 7381
L11912 7353
" />
<path d="M12812 7944
L12812 7550
" />
<path d="M12812 7606
L12840 7578
L12896 7550
L12980 7550
L13037 7578
L13065 7634
L13065 7944
" />
<path d="M13065 7634
L13093 7578
L13149 7550
L13233 7550
L13290 7578
L13318 7634
L13318 7944
" />
<path d="M13599 7944
L13599 7550
" />
<path d="M13599 7606
L13627 7578
L13683 7550
L13768 7550
L13824 7578
L13852 7634
L13852 7944
" />
<path d="M13852 7634
L13880 7578
L13937 7550
L14021 7550
L14077 7578
L14105 7634
L14105 7944
" />
<path d="M14015 8937
L11653 8937
" />
<path d="M14015 11692
L14015 7874
" />
<path d="M11653 11692
L11653 7874
" />
<path d="M11653 8937
L12097 8706
" />
<path d="M11653 8937
L12097 9167
" />
<path d="M14015 8937
L13572 8706
" />
<path d="M14015 8937
L13572 9167
" />
<path d="M28554 44676
L28217 44676
" />
<path d="M28385 44676
L28385 44086
L28329 44170
L28273 44226
L28217 44254
" />
<path d="M29116 44676
L28779 44676
" />
<path d="M28948 44676
L28948 44086
L28892 44170
L28835 44226
L28779 44254
" />
<path d="M29341 44142
L29370 44114
L29426 44086
L29566 44086
L29623 44114
L29651 44142
L29679 44198
L29679 44254
L29651 44339
L29313 44676
L29679 44676
" />
<path d="M29960 44648
L29960 44676
L29932 44732
L29904 44760
" />
<path d="M30326 44086
L30382 44086
L30438 44114
L30466 44142
L30494 44198
L30523 44311
L30523 44451
L30494 44564
L30466 44620
L30438 44648
L30382 44676
L30326 44676
L30269 44648
L30241 44620
L30213 44564
L30185 44451
L30185 44311
L30213 44198
L30241 44142
L30269 44114
L30326 44086
" />
<path d="M30888 44086
L30944 44086
L31001 44114
L31029 44142
L31057 44198
L31085 44311
L31085 44451
L31057 44564
L31029 44620
L31001 44648
L30944 44676
L30888 44676
L30832 44648
L30804 44620
L30776 44564
L30748 44451
L30748 44311
L30776 44198
L30804 44142
L30832 44114
L30888 44086
" />
<path d="M31451 44086
L31507 44086
L31563 44114
L31591 44142
L31619 44198
L31647 44311
L31647 44451
L31619 44564
L31591 44620
L31563 44648
L31507 44676
L31451 44676
L31394 44648
L31366 44620
L31338 44564
L31310 44451
L31310 44311
L31338 44198
L31366 44142
L31394 44114
L31451 44086
" />
<path d="M32350 44676
L32350 44282
" />
<path d="M32350 44339
L32379 44311
L32435 44282
L32519 44282
L32575 44311
L32604 44367
L32604 44676
" />
<path d="M32604 44367
L32632 44311
L32688 44282
L32772 44282
L32829 44311
L32857 44367
L32857 44676
" />
<path d="M33138 44676
L33138 44282
" />
<path d="M33138 44339
L33166 44311
L33222 44282
L33307 44282
L33363 44311
L33391 44367
L33391 44676
" />
<path d="M33391 44367
L33419 44311
L33475 44282
L33560 44282
L33616 44311
L33644 44367
L33644 44676
" />
<path d="M8897 43877
L52992 43877
" />
<path d="M8897 42795
L8897 44940
" />
<path d="M52992 42795
L52992 44940
" />
<path d="M52992 43877
L52548 44108
" />
<path d="M52992 43877
L52548 43647
" />
<path d="M8897 43877
L9341 44108
" />
<path d="M8897 43877
L9341 43647
" />
<path d="M55520 25950
L55520 26344
L54929 26091
" />
<path d="M55520 26512
L55520 26878
L55295 26681
L55295 26766
L55267 26822
L55239 26850
L55182 26878
L55042 26878
L54985 26850
L54957 26822
L54929 26766
L54929 26597
L54957 26541
L54985 26512
" />
<path d="M54957 27159
L54929 27159
L54873 27131
L54845 27103
" />
<path d="M55520 27525
L55520 27581
L55492 27637
L55464 27665
L55407 27694
L55295 27722
L55154 27722
L55042 27694
L54985 27665
L54957 27637
L54929 27581
L54929 27525
L54957 27469
L54985 27440
L55042 27412
L55154 27384
L55295 27384
L55407 27412
L55464 27440
L55492 27469
L55520 27525
" />
<path d="M55520 28087
L55520 28143
L55492 28200
L55464 28228
L55407 28256
L55295 28284
L55154 28284
L55042 28256
L54985 28228
L54957 28200
L54929 28143
L54929 28087
L54957 28031
L54985 28003
L55042 27975
L55154 27947
L55295 27947
L55407 27975
L55464 28003
L55492 28031
L55520 28087
" />
<path d="M55520 28650
L55520 28706
L55492 28762
L55464 28790
L55407 28818
L55295 28847
L55154 28847
L55042 28818
L54985 28790
L54957 28762
L54929 28706
L54929 28650
L54957 28593
L54985 28565
L55042 28537
L55154 28509
L55295 28509
L55407 28537
L55464 28565
L55492 28593
L55520 28650
" />
<path d="M54929 29550
L55323 29550
" />
<path d="M55267 29550
L55295 29578
L55323 29634
L55323 29718
L55295 29775
L55239 29803
L54929 29803
" />
<path d="M55239 29803
L55295 29831
L55323 29887
L55323 29971
L55295 30028
L55239 30056
L54929 30056
" />
<path d="M54929 30337
L55323 30337
" />
<path d="M55267 30337
L55295 30365
L55323 30421
L55323 30506
L55295 30562
L55239 30590
L54929 30590
" />
<path d="M55239 30590
L55295 30618
L55323 30674
L55323 30759
L55295 30815
L55239 30843
L54929 30843
" />
<path d="M54665 14055
L54665 42795
" />
<path d="M52992 14055
L55728 14055
" />
<path d="M52992 42795
L55728 42795
" />
<path d="M54665 42795
L54434 42351
" />
<path d="M54665 42795
L54896 42351
" />
<path d="M54665 14055
L54434 14498
" />
<path d="M54665 14055
L54896 14498
" />
<path d="M53785 8534
L53672 8534
L53616 8562
L53588 8591
L53532 8675
L53503 8787
L53503 9012
L53532 9069
L53560 9097
L53616 9125
L53728 9125
L53785 9097
L53813 9069
L53841 9012
L53841 8872
L53813 8816
L53785 8787
L53728 8759
L53616 8759
L53560 8787
L53532 8816
L53503 8872
" />
<path d="M54122 9097
L54122 9125
L54094 9181
L54066 9209
" />
<path d="M54347 8591
L54375 8562
L54431 8534
L54572 8534
L54628 8562
L54656 8591
L54685 8647
L54685 8703
L54656 8787
L54319 9125
L54685 9125
" />
<path d="M55219 8534
L54938 8534
L54910 8816
L54938 8787
L54994 8759
L55134 8759
L55191 8787
L55219 8816
L55247 8872
L55247 9012
L55219 9069
L55191 9097
L55134 9125
L54994 9125
L54938 9097
L54910 9069
" />
<path d="M55613 8534
L55669 8534
L55725 8562
L55753 8591
L55781 8647
L55809 8759
L55809 8900
L55781 9012
L55753 9069
L55725 9097
L55669 9125
L55613 9125
L55556 9097
L55528 9069
L55500 9012
L55472 8900
L55472 8759
L55500 8647
L55528 8591
L55556 8562
L55613 8534
" />
<path d="M56512 9125
L56512 8731
" />
<path d="M56512 8787
L56541 8759
L56597 8731
L56681 8731
L56737 8759
L56766 8816
L56766 9125
" />
<path d="M56766 8816
L56794 8759
L56850 8731
L56934 8731
L56991 8759
L57019 8816
L57019 9125
" />
<path d="M57300 9125
L57300 8731
" />
<path d="M57300 8787
L57328 8759
L57384 8731
L57469 8731
L57525 8759
L57553 8816
L57553 9125
" />
<path d="M57553 8816
L57581 8759
L57637 8731
L57722 8731
L57778 8759
L57806 8816
L57806 9125
" />
<path d="M52992 8937
L50531 8937
" />
<path d="M52992 14055
L52992 7874
" />
<path d="M50531 14055
L50531 7874
" />
<path d="M50531 8937
L50975 8706
" />
<path d="M50531 8937
L50975 9167
" />
<path d="M52992 8937
L52548 8706
" />
<path d="M52992 8937
L52548 9167
" />
<path d="M51029 6369
L51029 6763
" />
<path d="M50888 6144
L50748 6566
L51113 6566
" />
<path d="M51366 6735
L51366 6763
L51338 6819
L51310 6847
" />
<path d="M51563 6172
L51957 6172
L51704 6763
" />
<path d="M52463 6172
L52182 6172
L52154 6453
L52182 6425
L52238 6397
L52379 6397
L52435 6425
L52463 6453
L52491 6510
L52491 6650
L52463 6706
L52435 6735
L52379 6763
L52238 6763
L52182 6735
L52154 6706
" />
<path d="M52857 6172
L52913 6172
L52969 6200
L52997 6228
L53025 6285
L53053 6397
L53053 6538
L53025 6650
L52997 6706
L52969 6735
L52913 6763
L52857 6763
L52800 6735
L52772 6706
L52744 6650
L52716 6538
L52716 6397
L52744 6285
L52772 6228
L52800 6200
L52857 6172
" />
<path d="M53757 6763
L53757 6369
" />
<path d="M53757 6425
L53785 6397
L53841 6369
L53925 6369
L53982 6397
L54010 6453
L54010 6763
" />
<path d="M54010 6453
L54038 6397
L54094 6369
L54178 6369
L54235 6397
L54263 6453
L54263 6763
" />
<path d="M54544 6763
L54544 6369
" />
<path d="M54544 6425
L54572 6397
L54628 6369
L54713 6369
L54769 6397
L54797 6453
L54797 6763
" />
<path d="M54797 6453
L54825 6397
L54881 6369
L54966 6369
L55022 6397
L55050 6453
L55050 6763
" />
<path d="M48661 6397
L50531 6397
" />
<path d="M48661 12185
L48661 5334
" />
<path d="M50531 12185
L50531 5334
" />
<path d="M50531 6397
L50087 6628
" />
<path d="M50531 6397
L50087 6166
" />
<path d="M48661 6397
L49104 6628
" />
<path d="M48661 6397
L49104 6166
" />
<path d="M44140 1251
L43803 1251
" />
<path d="M43972 1251
L43972 660
L43915 745
L43859 801
L43803 829
" />
<path d="M44365 717
L44393 688
L44450 660
L44590 660
L44647 688
L44675 717
L44703 773
L44703 829
L44675 913
L44337 1251
L44703 1251
" />
<path d="M44984 1223
L44984 1251
L44956 1307
L44928 1335
" />
<path d="M45209 717
L45237 688
L45293 660
L45434 660
L45490 688
L45518 717
L45546 773
L45546 829
L45518 913
L45181 1251
L45546 1251
" />
<path d="M46081 660
L45800 660
L45771 942
L45800 913
L45856 885
L45996 885
L46053 913
L46081 942
L46109 998
L46109 1138
L46081 1195
L46053 1223
L45996 1251
L45856 1251
L45800 1223
L45771 1195
" />
<path d="M46474 660
L46531 660
L46587 688
L46615 717
L46643 773
L46671 885
L46671 1026
L46643 1138
L46615 1195
L46587 1223
L46531 1251
L46474 1251
L46418 1223
L46390 1195
L46362 1138
L46334 1026
L46334 885
L46362 773
L46390 717
L46418 688
L46474 660
" />
<path d="M47374 1251
L47374 857
" />
<path d="M47374 913
L47402 885
L47459 857
L47543 857
L47599 885
L47627 942
L47627 1251
" />
<path d="M47627 942
L47656 885
L47712 857
L47796 857
L47852 885
L47881 942
L47881 1251
" />
<path d="M48162 1251
L48162 857
" />
<path d="M48162 913
L48190 885
L48246 857
L48330 857
L48387 885
L48415 942
L48415 1251
" />
<path d="M48415 942
L48443 885
L48499 857
L48584 857
L48640 885
L48668 942
L48668 1251
" />
<path d="M43838 2559
L48661 2559
" />
<path d="M43838 12185
L43838 1496
" />
<path d="M48661 12185
L48661 1496
" />
<path d="M48661 2559
L48217 2789
" />
<path d="M48661 2559
L48217 2328
" />
<path d="M43838 2559
L44282 2789
" />
<path d="M43838 2559
L44282 2328
" />
<path d="M47075 25015
L47075 25409
L46484 25156
" />
<path d="M47075 25577
L47075 25971
L46484 25718
" />
<path d="M46512 26224
L46484 26224
L46428 26196
L46400 26168
" />
<path d="M47075 26421
L47075 26815
L46484 26562
" />
<path d="M47075 27321
L47075 27040
L46794 27012
L46822 27040
L46850 27096
L46850 27237
L46822 27293
L46794 27321
L46737 27349
L46597 27349
L46541 27321
L46512 27293
L46484 27237
L46484 27096
L46512 27040
L46541 27012
" />
<path d="M47075 27715
L47075 27771
L47047 27827
L47019 27855
L46962 27883
L46850 27911
L46709 27911
L46597 27883
L46541 27855
L46512 27827
L46484 27771
L46484 27715
L46512 27658
L46541 27630
L46597 27602
L46709 27574
L46850 27574
L46962 27602
L47019 27630
L47047 27658
L47075 27715
" />
<path d="M46484 28615
L46878 28615
" />
<path d="M46822 28615
L46850 28643
L46878 28699
L46878 28783
L46850 28839
L46794 28868
L46484 28868
" />
<path d="M46794 28868
L46850 28896
L46878 28952
L46878 29036
L46850 29093
L46794 29121
L46484 29121
" />
<path d="M46484 29402
L46878 29402
" />
<path d="M46822 29402
L46850 29430
L46878 29486
L46878 29571
L46850 29627
L46794 29655
L46484 29655
" />
<path d="M46794 29655
L46850 29683
L46878 29739
L46878 29824
L46850 29880
L46794 29908
L46484 29908
" />
<path d="M47283 12185
L47283 42795
" />
<path d="M47381 12185
L46220 12185
" />
<path d="M47381 42795
L46220 42795
" />
<path d="M47283 42795
L47052 42351
" />
<path d="M47283 42795
L47514 42351
" />
<path d="M47283 12185
L47052 12628
" />
<path d="M47283 12185
L47514 12628
" />
<path d="M15953 24769
L15953 25163
L15362 24910
" />
<path d="M15362 25416
L15362 25528
L15390 25584
L15419 25613
L15503 25669
L15615 25697
L15840 25697
L15897 25669
L15925 25641
L15953 25584
L15953 25472
L15925 25416
L15897 25388
L15840 25359
L15700 25359
L15643 25388
L15615 25416
L15587 25472
L15587 25584
L15615 25641
L15643 25669
L15700 25697
" />
<path d="M15390 25978
L15362 25978
L15306 25950
L15278 25922
" />
<path d="M15953 26344
L15953 26400
L15925 26456
L15897 26484
L15840 26512
L15728 26541
L15587 26541
L15475 26512
L15419 26484
L15390 26456
L15362 26400
L15362 26344
L15390 26287
L15419 26259
L15475 26231
L15587 26203
L15728 26203
L15840 26231
L15897 26259
L15925 26287
L15953 26344
" />
<path d="M15953 26906
L15953 26962
L15925 27019
L15897 27047
L15840 27075
L15728 27103
L15587 27103
L15475 27075
L15419 27047
L15390 27019
L15362 26962
L15362 26906
L15390 26850
L15419 26822
L15475 26794
L15587 26766
L15728 26766
L15840 26794
L15897 26822
L15925 26850
L15953 26906
" />
<path d="M15953 27469
L15953 27525
L15925 27581
L15897 27609
L15840 27637
L15728 27665
L15587 27665
L15475 27637
L15419 27609
L15390 27581
L15362 27525
L15362 27469
L15390 27412
L15419 27384
L15475 27356
L15587 27328
L15728 27328
L15840 27356
L15897 27384
L15925 27412
L15953 27469
" />
<path d="M15362 28368
L15756 28368
" />
<path d="M15700 28368
L15728 28397
L15756 28453
L15756 28537
L15728 28593
L15672 28622
L15362 28622
" />
<path d="M15672 28622
L15728 28650
L15756 28706
L15756 28790
L15728 28847
L15672 28875
L15362 28875
" />
<path d="M15362 29156
L15756 29156
" />
<path d="M15700 29156
L15728 29184
L15756 29240
L15756 29325
L15728 29381
L15672 29409
L15362 29409
" />
<path d="M15672 29409
L15728 29437
L15756 29493
L15756 29578
L15728 29634
L15672 29662
L15362 29662
" />
<path d="M15098 11692
L15098 42795
" />
<path d="M14901 11692
L16161 11692
" />
<path d="M14901 42795
L16161 42795
" />
<path d="M15098 42795
L14867 42351
" />
<path d="M15098 42795
L15329 42351
" />
<path d="M15098 11692
L14867 12136
" />
<path d="M15098 11692
L15329 12136
" />
<path d="M30224 25852
L30224 26245
L29634 25992
" />
<path d="M30224 26414
L30224 26780
L30000 26583
L30000 26667
L29971 26723
L29943 26751
L29887 26780
L29746 26780
L29690 26751
L29662 26723
L29634 26667
L29634 26498
L29662 26442
L29690 26414
" />
<path d="M29662 27061
L29634 27061
L29578 27033
L29550 27005
" />
<path d="M30224 27595
L30224 27314
L29943 27286
L29971 27314
L30000 27370
L30000 27511
L29971 27567
L29943 27595
L29887 27623
L29746 27623
L29690 27595
L29662 27567
L29634 27511
L29634 27370
L29662 27314
L29690 27286
" />
<path d="M30224 27989
L30224 28045
L30196 28101
L30168 28129
L30112 28158
L30000 28186
L29859 28186
L29746 28158
L29690 28129
L29662 28101
L29634 28045
L29634 27989
L29662 27933
L29690 27904
L29746 27876
L29859 27848
L30000 27848
L30112 27876
L30168 27904
L30196 27933
L30224 27989
" />
<path d="M30224 28551
L30224 28607
L30196 28664
L30168 28692
L30112 28720
L30000 28748
L29859 28748
L29746 28720
L29690 28692
L29662 28664
L29634 28607
L29634 28551
L29662 28495
L29690 28467
L29746 28439
L29859 28411
L30000 28411
L30112 28439
L30168 28467
L30196 28495
L30224 28551
" />
<path d="M29634 29451
L30028 29451
" />
<path d="M29971 29451
L30000 29479
L30028 29535
L30028 29620
L30000 29676
L29943 29704
L29634 29704
" />
<path d="M29943 29704
L30000 29732
L30028 29789
L30028 29873
L30000 29929
L29943 29957
L29634 29957
" />
<path d="M29634 30239
L30028 30239
" />
<path d="M29971 30239
L30000 30267
L30028 30323
L30028 30407
L30000 30464
L29943 30492
L29634 30492
" />
<path d="M29943 30492
L30000 30520
L30028 30576
L30028 30660
L30000 30717
L29943 30745
L29634 30745
" />
<path d="M29370 13858
L29370 42795
" />
<path d="M26023 13858
L30433 13858
" />
<path d="M26023 42795
L30433 42795
" />
<path d="M29370 42795
L29139 42351
" />
<path d="M29370 42795
L29600 42351
" />
<path d="M29370 13858
L29139 14301
" />
<path d="M29370 13858
L29600 14301
" />
<path d="M37643 6566
L37643 6960
" />
<path d="M37502 6341
L37362 6763
L37727 6763
" />
<path d="M37980 6931
L37980 6960
L37952 7016
L37924 7044
" />
<path d="M38205 6425
L38233 6397
L38290 6369
L38430 6369
L38487 6397
L38515 6425
L38543 6482
L38543 6538
L38515 6622
L38177 6960
L38543 6960
" />
<path d="M39077 6369
L38796 6369
L38768 6650
L38796 6622
L38852 6594
L38993 6594
L39049 6622
L39077 6650
L39105 6706
L39105 6847
L39077 6903
L39049 6931
L38993 6960
L38852 6960
L38796 6931
L38768 6903
" />
<path d="M39471 6369
L39527 6369
L39583 6397
L39611 6425
L39640 6482
L39668 6594
L39668 6735
L39640 6847
L39611 6903
L39583 6931
L39527 6960
L39471 6960
L39415 6931
L39386 6903
L39358 6847
L39330 6735
L39330 6594
L39358 6482
L39386 6425
L39415 6397
L39471 6369
" />
<path d="M40371 6960
L40371 6566
" />
<path d="M40371 6622
L40399 6594
L40455 6566
L40539 6566
L40596 6594
L40624 6650
L40624 6960
" />
<path d="M40624 6650
L40652 6594
L40708 6566
L40793 6566
L40849 6594
L40877 6650
L40877 6960
" />
<path d="M41158 6960
L41158 6566
" />
<path d="M41158 6622
L41186 6594
L41242 6566
L41327 6566
L41383 6594
L41411 6650
L41411 6960
" />
<path d="M41411 6650
L41439 6594
L41496 6566
L41580 6566
L41636 6594
L41664 6650
L41664 6960
" />
<path d="M43838 6712
L42165 6712
" />
<path d="M43838 12185
L43838 5649
" />
<path d="M42165 12185
L42165 5649
" />
<path d="M42165 6712
L42608 6481
" />
<path d="M42165 6712
L42608 6943
" />
<path d="M43838 6712
L43395 6481
" />
<path d="M43838 6712
L43395 6943
" />
<path d="M31929 8082
L31929 8475
" />
<path d="M31788 7857
L31647 8278
L32013 8278
" />
<path d="M32547 8475
L32210 8475
" />
<path d="M32379 8475
L32379 7885
L32322 7969
L32266 8025
L32210 8053
" />
<path d="M32829 8447
L32829 8475
L32800 8532
L32772 8560
" />
<path d="M33194 7885
L33250 7885
L33307 7913
L33335 7941
L33363 7997
L33391 8110
L33391 8250
L33363 8363
L33335 8419
L33307 8447
L33250 8475
L33194 8475
L33138 8447
L33110 8419
L33082 8363
L33053 8250
L33053 8110
L33082 7997
L33110 7941
L33138 7913
L33194 7885
" />
<path d="M33757 7885
L33813 7885
L33869 7913
L33897 7941
L33925 7997
L33953 8110
L33953 8250
L33925 8363
L33897 8419
L33869 8447
L33813 8475
L33757 8475
L33700 8447
L33672 8419
L33644 8363
L33616 8250
L33616 8110
L33644 7997
L33672 7941
L33700 7913
L33757 7885
" />
<path d="M34319 7885
L34375 7885
L34431 7913
L34460 7941
L34488 7997
L34516 8110
L34516 8250
L34488 8363
L34460 8419
L34431 8447
L34375 8475
L34319 8475
L34263 8447
L34235 8419
L34206 8363
L34178 8250
L34178 8110
L34206 7997
L34235 7941
L34263 7913
L34319 7885
" />
<path d="M35219 8475
L35219 8082
" />
<path d="M35219 8138
L35247 8110
L35303 8082
L35388 8082
L35444 8110
L35472 8166
L35472 8475
" />
<path d="M35472 8166
L35500 8110
L35556 8082
L35641 8082
L35697 8110
L35725 8166
L35725 8475
" />
<path d="M36006 8475
L36006 8082
" />
<path d="M36006 8138
L36034 8110
L36091 8082
L36175 8082
L36231 8110
L36259 8166
L36259 8475
" />
<path d="M36259 8166
L36287 8110
L36344 8082
L36428 8082
L36484 8110
L36512 8166
L36512 8475
" />
<path d="M26023 8740
L42165 8740
" />
<path d="M26023 13858
L26023 7677
" />
<path d="M42165 13858
L42165 7677
" />
<path d="M42165 8740
L41721 8971
" />
<path d="M42165 8740
L41721 8509
" />
<path d="M26023 8740
L26467 8971
" />
<path d="M26023 8740
L26467 8509
" />
<path d="M26647 6369
L26366 6369
L26338 6650
L26366 6622
L26422 6594
L26563 6594
L26619 6622
L26647 6650
L26676 6706
L26676 6847
L26647 6903
L26619 6931
L26563 6960
L26422 6960
L26366 6931
L26338 6903
" />
<path d="M26957 6931
L26957 6960
L26929 7016
L26901 7044
" />
<path d="M27491 6369
L27210 6369
L27182 6650
L27210 6622
L27266 6594
L27407 6594
L27463 6622
L27491 6650
L27519 6706
L27519 6847
L27491 6903
L27463 6931
L27407 6960
L27266 6960
L27210 6931
L27182 6903
" />
<path d="M27885 6369
L27941 6369
L27997 6397
L28025 6425
L28053 6482
L28082 6594
L28082 6735
L28053 6847
L28025 6903
L27997 6931
L27941 6960
L27885 6960
L27829 6931
L27800 6903
L27772 6847
L27744 6735
L27744 6594
L27772 6482
L27800 6425
L27829 6397
L27885 6369
" />
<path d="M28447 6369
L28503 6369
L28560 6397
L28588 6425
L28616 6482
L28644 6594
L28644 6735
L28616 6847
L28588 6903
L28560 6931
L28503 6960
L28447 6960
L28391 6931
L28363 6903
L28335 6847
L28307 6735
L28307 6594
L28335 6482
L28363 6425
L28391 6397
L28447 6369
" />
<path d="M29347 6960
L29347 6566
" />
<path d="M29347 6622
L29375 6594
L29431 6566
L29516 6566
L29572 6594
L29600 6650
L29600 6960
" />
<path d="M29600 6650
L29628 6594
L29685 6566
L29769 6566
L29825 6594
L29853 6650
L29853 6960
" />
<path d="M30134 6960
L30134 6566
" />
<path d="M30134 6622
L30163 6594
L30219 6566
L30303 6566
L30359 6594
L30388 6650
L30388 6960
" />
<path d="M30388 6650
L30416 6594
L30472 6566
L30556 6566
L30613 6594
L30641 6650
L30641 6960
" />
<path d="M23858 6712
L26023 6712
" />
<path d="M23858 11692
L23858 5649
" />
<path d="M26023 11692
L26023 5649
" />
<path d="M26023 6712
L25580 6943
" />
<path d="M26023 6712
L25580 6481
" />
<path d="M23858 6712
L24301 6943
" />
<path d="M23858 6712
L24301 6481
" />
<path d="M16490 8138
L16518 8110
L16574 8082
L16715 8082
L16771 8110
L16799 8138
L16827 8194
L16827 8250
L16799 8335
L16462 8672
L16827 8672
" />
<path d="M17362 8082
L17080 8082
L17052 8363
L17080 8335
L17137 8307
L17277 8307
L17334 8335
L17362 8363
L17390 8419
L17390 8560
L17362 8616
L17334 8644
L17277 8672
L17137 8672
L17080 8644
L17052 8616
" />
<path d="M17671 8644
L17671 8672
L17643 8728
L17615 8757
" />
<path d="M18037 8082
L18093 8082
L18149 8110
L18177 8138
L18205 8194
L18233 8307
L18233 8447
L18205 8560
L18177 8616
L18149 8644
L18093 8672
L18037 8672
L17980 8644
L17952 8616
L17924 8560
L17896 8447
L17896 8307
L17924 8194
L17952 8138
L17980 8110
L18037 8082
" />
<path d="M18599 8082
L18655 8082
L18712 8110
L18740 8138
L18768 8194
L18796 8307
L18796 8447
L18768 8560
L18740 8616
L18712 8644
L18655 8672
L18599 8672
L18543 8644
L18515 8616
L18487 8560
L18458 8447
L18458 8307
L18487 8194
L18515 8138
L18543 8110
L18599 8082
" />
<path d="M19161 8082
L19218 8082
L19274 8110
L19302 8138
L19330 8194
L19358 8307
L19358 8447
L19330 8560
L19302 8616
L19274 8644
L19218 8672
L19161 8672
L19105 8644
L19077 8616
L19049 8560
L19021 8447
L19021 8307
L19049 8194
L19077 8138
L19105 8110
L19161 8082
" />
<path d="M20061 8672
L20061 8278
" />
<path d="M20061 8335
L20089 8307
L20146 8278
L20230 8278
L20286 8307
L20314 8363
L20314 8672
" />
<path d="M20314 8363
L20343 8307
L20399 8278
L20483 8278
L20539 8307
L20568 8363
L20568 8672
" />
<path d="M20849 8672
L20849 8278
" />
<path d="M20849 8335
L20877 8307
L20933 8278
L21017 8278
L21074 8307
L21102 8363
L21102 8672
" />
<path d="M21102 8363
L21130 8307
L21186 8278
L21271 8278
L21327 8307
L21355 8363
L21355 8672
" />
<path d="M14015 8937
L23858 8937
" />
<path d="M14015 11692
L14015 7874
" />
<path d="M23858 11692
L23858 7874
" />
<path d="M23858 8937
L23414 9167
" />
<path d="M23858 8937
L23414 8706
" />
<path d="M14015 8937
L14459 9167
" />
<path d="M14015 8937
L14459 8706
" />
<path d="M3869 10503
L4263 10503
L4010 11093
" />
<path d="M4516 11065
L4516 11093
L4488 11150
L4460 11178
" />
<path d="M4881 10503
L4938 10503
L4994 10531
L5022 10559
L5050 10615
L5078 10728
L5078 10868
L5050 10981
L5022 11037
L4994 11065
L4938 11093
L4881 11093
L4825 11065
L4797 11037
L4769 10981
L4741 10868
L4741 10728
L4769 10615
L4797 10559
L4825 10531
L4881 10503
" />
<path d="M5444 10503
L5500 10503
L5556 10531
L5584 10559
L5613 10615
L5641 10728
L5641 10868
L5613 10981
L5584 11037
L5556 11065
L5500 11093
L5444 11093
L5388 11065
L5359 11037
L5331 10981
L5303 10868
L5303 10728
L5331 10615
L5359 10559
L5388 10531
L5444 10503
" />
<path d="M6006 10503
L6062 10503
L6119 10531
L6147 10559
L6175 10615
L6203 10728
L6203 10868
L6175 10981
L6147 11037
L6119 11065
L6062 11093
L6006 11093
L5950 11065
L5922 11037
L5894 10981
L5866 10868
L5866 10728
L5894 10615
L5922 10559
L5950 10531
L6006 10503
" />
<path d="M6906 11093
L6906 10700
" />
<path d="M6906 10756
L6934 10728
L6991 10700
L7075 10700
L7131 10728
L7159 10784
L7159 11093
" />
<path d="M7159 10784
L7187 10728
L7244 10700
L7328 10700
L7384 10728
L7412 10784
L7412 11093
" />
<path d="M7694 11093
L7694 10700
" />
<path d="M7694 10756
L7722 10728
L7778 10700
L7862 10700
L7919 10728
L7947 10784
L7947 11093
" />
<path d="M7947 10784
L7975 10728
L8031 10700
L8115 10700
L8172 10728
L8200 10784
L8200 11093
" />
<path d="M8897 10905
L11653 10905
" />
<path d="M8897 14055
L8897 9842
" />
<path d="M11653 14055
L11653 9842
" />
<path d="M11653 10905
L11210 11136
" />
<path d="M11653 10905
L11210 10674
" />
<path d="M8897 10905
L9341 11136
" />
<path d="M8897 10905
L9341 10674
" />
<path d="M7114 25950
L7114 26344
L6524 26091
" />
<path d="M7114 26512
L7114 26878
L6889 26681
L6889 26766
L6861 26822
L6833 26850
L6777 26878
L6636 26878
L6580 26850
L6552 26822
L6524 26766
L6524 26597
L6552 26541
L6580 26512
" />
<path d="M6552 27159
L6524 27159
L6467 27131
L6439 27103
" />
<path d="M7114 27525
L7114 27581
L7086 27637
L7058 27665
L7002 27694
L6889 27722
L6749 27722
L6636 27694
L6580 27665
L6552 27637
L6524 27581
L6524 27525
L6552 27469
L6580 27440
L6636 27412
L6749 27384
L6889 27384
L7002 27412
L7058 27440
L7086 27469
L7114 27525
" />
<path d="M7114 28087
L7114 28143
L7086 28200
L7058 28228
L7002 28256
L6889 28284
L6749 28284
L6636 28256
L6580 28228
L6552 28200
L6524 28143
L6524 28087
L6552 28031
L6580 28003
L6636 27975
L6749 27947
L6889 27947
L7002 27975
L7058 28003
L7086 28031
L7114 28087
" />
<path d="M7114 28650
L7114 28706
L7086 28762
L7058 28790
L7002 28818
L6889 28847
L6749 28847
L6636 28818
L6580 28790
L6552 28762
L6524 28706
L6524 28650
L6552 28593
L6580 28565
L6636 28537
L6749 28509
L6889 28509
L7002 28537
L7058 28565
L7086 28593
L7114 28650
" />
<path d="M6524 29550
L6917 29550
" />
<path d="M6861 29550
L6889 29578
L6917 29634
L6917 29718
L6889 29775
L6833 29803
L6524 29803
" />
<path d="M6833 29803
L6889 29831
L6917 29887
L6917 29971
L6889 30028
L6833 30056
L6524 30056
" />
<path d="M6524 30337
L6917 30337
" />
<path d="M6861 30337
L6889 30365
L6917 30421
L6917 30506
L6889 30562
L6833 30590
L6524 30590
" />
<path d="M6833 30590
L6889 30618
L6917 30674
L6917 30759
L6889 30815
L6833 30843
L6524 30843
" />
<path d="M7322 14055
L7322 42795
" />
<path d="M8897 14055
L6259 14055
" />
<path d="M8897 42795
L6259 42795
" />
<path d="M7322 42795
L7091 42351
" />
<path d="M7322 42795
L7553 42351
" />
<path d="M7322 14055
L7091 14498
" />
<path d="M7322 14055
L7553 14498
" />
</g>
<g style="fill:#000000; fill-opacity:0.0; 
stroke:#000000; stroke-width:59.0551; stroke-opacity:1; 
stroke-linecap:round; stroke-linejoin:round;">
<path d="M52992 42795
L8897 42795
" />
<path d="M52992 42696
L52992 42795
" />
<path d="M52992 14055
L52992 42696
" />
<path d="M50531 14055
L52992 14055
" />
<path d="M48661 12185
L50531 14055
" />
<path d="M43838 12185
L48661 12185
" />
<path d="M42165 13858
L43838 12185
" />
<path d="M26023 13858
L42165 13858
" />
<path d="M23858 11692
L26023 13858
" />
<path d="M14015 11692
L23858 11692
" />
<path d="M11653 14055
L14015 11692
" />
<path d="M8897 14055
L11653 14055
" />
<path d="M8897 42795
L8897 14055
" />
<circle cx="15984.3" cy="35905.5" r="1431.45" /> 
<circle cx="14744.1" cy="13385.8" r="1431.45" /> 
<circle cx="45984.3" cy="20925.2" r="1431.45" /> 
<circle cx="46043.3" cy="35925.2" r="1431.45" /> 
</g>
<g style="fill:#000000; fill-opacity:0.0; 
stroke:#000000; stroke-width:150; stroke-opacity:1; 
stroke-linecap:round; stroke-linejoin:round;">
<path d="M47046 11633
L47046 12143
" />
<path d="M47046 12143
L45276 12143
" />
<path d="M45276 12143
L45276 11633
" />
<path d="M44271 11633
L45276 11633
" />
<path d="M47046 11633
L48051 11633
" />
<path d="M33533 20366
L31033 20366
" />
<path d="M31033 20366
L31033 21366
" />
<path d="M31033 21366
L33533 21366
" />
<path d="M33533 21366
L33533 20366
" />
<path d="M36013 21366
L38513 21366
" />
<path d="M38513 21366
L38513 20366
" />
<path d="M38513 20366
L36013 20366
" />
<path d="M36013 20366
L36013 21366
" />
<path d="M16244 12287
L23244 12287
" />
<path d="M23244 12287
L23244 24287
" />
<path d="M23244 24287
L16244 24287
" />
<path d="M16244 24287
L16244 12287
" />
</g> 
</svg>
