G04 #@! TF.FileFunction,Legend,Bot*
%FSLAX46Y46*%
G04 Gerber Fmt 4.6, Leading zero omitted, Abs format (unit mm)*
G04 Created by KiCad (PCBNEW 4.0.2-stable) date 10/9/2016 9:16:27 PM*
%MOMM*%
G01*
G04 APERTURE LIST*
%ADD10C,0.100000*%
%ADD11C,0.300000*%
%ADD12C,0.250000*%
%ADD13C,0.010000*%
%ADD14C,0.381000*%
%ADD15C,0.150000*%
%ADD16C,0.304800*%
%ADD17C,0.203200*%
%ADD18C,0.457200*%
G04 APERTURE END LIST*
D10*
D11*
X108845238Y-77761905D02*
X111226191Y-77761905D01*
X111226191Y-72761905D01*
X107178572Y-75142857D02*
X105511905Y-75142857D01*
X104797619Y-77761905D02*
X107178572Y-77761905D01*
X107178572Y-72761905D01*
X104797619Y-72761905D01*
X103369048Y-72761905D02*
X100511905Y-72761905D01*
X101940476Y-77761905D02*
X101940476Y-72761905D01*
X98607143Y-72761905D02*
X99083333Y-73714286D01*
X96702381Y-77523810D02*
X95988095Y-77761905D01*
X94797619Y-77761905D01*
X94321429Y-77523810D01*
X94083333Y-77285714D01*
X93845238Y-76809524D01*
X93845238Y-76333333D01*
X94083333Y-75857143D01*
X94321429Y-75619048D01*
X94797619Y-75380952D01*
X95750000Y-75142857D01*
X96226191Y-74904762D01*
X96464286Y-74666667D01*
X96702381Y-74190476D01*
X96702381Y-73714286D01*
X96464286Y-73238095D01*
X96226191Y-73000000D01*
X95750000Y-72761905D01*
X94559524Y-72761905D01*
X93845238Y-73000000D01*
X88130952Y-77523810D02*
X87416666Y-77761905D01*
X86226190Y-77761905D01*
X85750000Y-77523810D01*
X85511904Y-77285714D01*
X85273809Y-76809524D01*
X85273809Y-76333333D01*
X85511904Y-75857143D01*
X85750000Y-75619048D01*
X86226190Y-75380952D01*
X87178571Y-75142857D01*
X87654762Y-74904762D01*
X87892857Y-74666667D01*
X88130952Y-74190476D01*
X88130952Y-73714286D01*
X87892857Y-73238095D01*
X87654762Y-73000000D01*
X87178571Y-72761905D01*
X85988095Y-72761905D01*
X85273809Y-73000000D01*
X83130952Y-77761905D02*
X83130952Y-72761905D01*
X81226190Y-72761905D01*
X80749999Y-73000000D01*
X80511904Y-73238095D01*
X80273809Y-73714286D01*
X80273809Y-74428571D01*
X80511904Y-74904762D01*
X80749999Y-75142857D01*
X81226190Y-75380952D01*
X83130952Y-75380952D01*
X75749999Y-77761905D02*
X78130952Y-77761905D01*
X78130952Y-72761905D01*
X74083333Y-77761905D02*
X74083333Y-72761905D01*
X72416667Y-72761905D02*
X69559524Y-72761905D01*
X70988095Y-77761905D02*
X70988095Y-72761905D01*
X74250000Y-95642857D02*
X74035714Y-95714286D01*
X73964286Y-95785714D01*
X73892857Y-95928571D01*
X73892857Y-96142857D01*
X73964286Y-96285714D01*
X74035714Y-96357143D01*
X74178572Y-96428571D01*
X74750000Y-96428571D01*
X74750000Y-94928571D01*
X74250000Y-94928571D01*
X74107143Y-95000000D01*
X74035714Y-95071429D01*
X73964286Y-95214286D01*
X73964286Y-95357143D01*
X74035714Y-95500000D01*
X74107143Y-95571429D01*
X74250000Y-95642857D01*
X74750000Y-95642857D01*
X73392857Y-95428571D02*
X73035714Y-96428571D01*
X72678572Y-95428571D02*
X73035714Y-96428571D01*
X73178572Y-96785714D01*
X73250000Y-96857143D01*
X73392857Y-96928571D01*
X71107143Y-94928571D02*
X70750000Y-96428571D01*
X70464286Y-95357143D01*
X70178572Y-96428571D01*
X69821429Y-94928571D01*
X69035714Y-96428571D02*
X69178572Y-96357143D01*
X69250000Y-96285714D01*
X69321429Y-96142857D01*
X69321429Y-95714286D01*
X69250000Y-95571429D01*
X69178572Y-95500000D01*
X69035714Y-95428571D01*
X68821429Y-95428571D01*
X68678572Y-95500000D01*
X68607143Y-95571429D01*
X68535714Y-95714286D01*
X68535714Y-96142857D01*
X68607143Y-96285714D01*
X68678572Y-96357143D01*
X68821429Y-96428571D01*
X69035714Y-96428571D01*
X67678571Y-96428571D02*
X67821429Y-96357143D01*
X67892857Y-96285714D01*
X67964286Y-96142857D01*
X67964286Y-95714286D01*
X67892857Y-95571429D01*
X67821429Y-95500000D01*
X67678571Y-95428571D01*
X67464286Y-95428571D01*
X67321429Y-95500000D01*
X67250000Y-95571429D01*
X67178571Y-95714286D01*
X67178571Y-96142857D01*
X67250000Y-96285714D01*
X67321429Y-96357143D01*
X67464286Y-96428571D01*
X67678571Y-96428571D01*
X66750000Y-95428571D02*
X66178571Y-95428571D01*
X66535714Y-94928571D02*
X66535714Y-96214286D01*
X66464286Y-96357143D01*
X66321428Y-96428571D01*
X66178571Y-96428571D01*
X65678571Y-95428571D02*
X65678571Y-96928571D01*
X65678571Y-95500000D02*
X65535714Y-95428571D01*
X65250000Y-95428571D01*
X65107143Y-95500000D01*
X65035714Y-95571429D01*
X64964285Y-95714286D01*
X64964285Y-96142857D01*
X65035714Y-96285714D01*
X65107143Y-96357143D01*
X65250000Y-96428571D01*
X65535714Y-96428571D01*
X65678571Y-96357143D01*
X63678571Y-96428571D02*
X63678571Y-95642857D01*
X63750000Y-95500000D01*
X63892857Y-95428571D01*
X64178571Y-95428571D01*
X64321428Y-95500000D01*
X63678571Y-96357143D02*
X63821428Y-96428571D01*
X64178571Y-96428571D01*
X64321428Y-96357143D01*
X64392857Y-96214286D01*
X64392857Y-96071429D01*
X64321428Y-95928571D01*
X64178571Y-95857143D01*
X63821428Y-95857143D01*
X63678571Y-95785714D01*
X63178571Y-95428571D02*
X62607142Y-95428571D01*
X62964285Y-94928571D02*
X62964285Y-96214286D01*
X62892857Y-96357143D01*
X62749999Y-96428571D01*
X62607142Y-96428571D01*
X61892856Y-96428571D02*
X62035714Y-96357143D01*
X62107142Y-96285714D01*
X62178571Y-96142857D01*
X62178571Y-95714286D01*
X62107142Y-95571429D01*
X62035714Y-95500000D01*
X61892856Y-95428571D01*
X61678571Y-95428571D01*
X61535714Y-95500000D01*
X61464285Y-95571429D01*
X61392856Y-95714286D01*
X61392856Y-96142857D01*
X61464285Y-96285714D01*
X61535714Y-96357143D01*
X61678571Y-96428571D01*
X61892856Y-96428571D01*
X60535713Y-96428571D02*
X60678571Y-96357143D01*
X60749999Y-96285714D01*
X60821428Y-96142857D01*
X60821428Y-95714286D01*
X60749999Y-95571429D01*
X60678571Y-95500000D01*
X60535713Y-95428571D01*
X60321428Y-95428571D01*
X60178571Y-95500000D01*
X60107142Y-95571429D01*
X60035713Y-95714286D01*
X60035713Y-96142857D01*
X60107142Y-96285714D01*
X60178571Y-96357143D01*
X60321428Y-96428571D01*
X60535713Y-96428571D01*
X59607142Y-95428571D02*
X59035713Y-95428571D01*
X59392856Y-94928571D02*
X59392856Y-96214286D01*
X59321428Y-96357143D01*
X59178570Y-96428571D01*
X59035713Y-96428571D01*
X66214286Y-51478571D02*
X65642857Y-51478571D01*
X66000000Y-50978571D02*
X66000000Y-52264286D01*
X65928572Y-52407143D01*
X65785714Y-52478571D01*
X65642857Y-52478571D01*
X64928571Y-52478571D02*
X65071429Y-52407143D01*
X65142857Y-52335714D01*
X65214286Y-52192857D01*
X65214286Y-51764286D01*
X65142857Y-51621429D01*
X65071429Y-51550000D01*
X64928571Y-51478571D01*
X64714286Y-51478571D01*
X64571429Y-51550000D01*
X64500000Y-51621429D01*
X64428571Y-51764286D01*
X64428571Y-52192857D01*
X64500000Y-52335714D01*
X64571429Y-52407143D01*
X64714286Y-52478571D01*
X64928571Y-52478571D01*
X63785714Y-51478571D02*
X63785714Y-52978571D01*
X63785714Y-51550000D02*
X63642857Y-51478571D01*
X63357143Y-51478571D01*
X63214286Y-51550000D01*
X63142857Y-51621429D01*
X63071428Y-51764286D01*
X63071428Y-52192857D01*
X63142857Y-52335714D01*
X63214286Y-52407143D01*
X63357143Y-52478571D01*
X63642857Y-52478571D01*
X63785714Y-52407143D01*
X64357143Y-53878571D02*
X64357143Y-54878571D01*
X65000000Y-53878571D02*
X65000000Y-54664286D01*
X64928572Y-54807143D01*
X64785714Y-54878571D01*
X64571429Y-54878571D01*
X64428572Y-54807143D01*
X64357143Y-54735714D01*
X63642857Y-53878571D02*
X63642857Y-55378571D01*
X63642857Y-53950000D02*
X63500000Y-53878571D01*
X63214286Y-53878571D01*
X63071429Y-53950000D01*
X63000000Y-54021429D01*
X62928571Y-54164286D01*
X62928571Y-54592857D01*
X63000000Y-54735714D01*
X63071429Y-54807143D01*
X63214286Y-54878571D01*
X63500000Y-54878571D01*
X63642857Y-54807143D01*
D12*
X128976190Y-61202381D02*
X128976190Y-60202381D01*
X128547619Y-60297619D02*
X128500000Y-60250000D01*
X128404762Y-60202381D01*
X128166666Y-60202381D01*
X128071428Y-60250000D01*
X128023809Y-60297619D01*
X127976190Y-60392857D01*
X127976190Y-60488095D01*
X128023809Y-60630952D01*
X128595238Y-61202381D01*
X127976190Y-61202381D01*
X126976190Y-61107143D02*
X127023809Y-61154762D01*
X127166666Y-61202381D01*
X127261904Y-61202381D01*
X127404762Y-61154762D01*
X127500000Y-61059524D01*
X127547619Y-60964286D01*
X127595238Y-60773810D01*
X127595238Y-60630952D01*
X127547619Y-60440476D01*
X127500000Y-60345238D01*
X127404762Y-60250000D01*
X127261904Y-60202381D01*
X127166666Y-60202381D01*
X127023809Y-60250000D01*
X126976190Y-60297619D01*
X134535715Y-45904762D02*
X134630953Y-45952381D01*
X134821430Y-45952381D01*
X134916668Y-45904762D01*
X134964287Y-45809524D01*
X134964287Y-45428571D01*
X134916668Y-45333333D01*
X134821430Y-45285714D01*
X134630953Y-45285714D01*
X134535715Y-45333333D01*
X134488096Y-45428571D01*
X134488096Y-45523810D01*
X134964287Y-45619048D01*
X134154763Y-45952381D02*
X133630953Y-45285714D01*
X134154763Y-45285714D02*
X133630953Y-45952381D01*
X133392858Y-45285714D02*
X133011906Y-45285714D01*
X133250001Y-44952381D02*
X133250001Y-45809524D01*
X133202382Y-45904762D01*
X133107144Y-45952381D01*
X133011906Y-45952381D01*
X132678572Y-45952381D02*
X132678572Y-45285714D01*
X132678572Y-45476190D02*
X132630953Y-45380952D01*
X132583334Y-45333333D01*
X132488096Y-45285714D01*
X132392857Y-45285714D01*
X131630952Y-45952381D02*
X131630952Y-45428571D01*
X131678571Y-45333333D01*
X131773809Y-45285714D01*
X131964286Y-45285714D01*
X132059524Y-45333333D01*
X131630952Y-45904762D02*
X131726190Y-45952381D01*
X131964286Y-45952381D01*
X132059524Y-45904762D01*
X132107143Y-45809524D01*
X132107143Y-45714286D01*
X132059524Y-45619048D01*
X131964286Y-45571429D01*
X131726190Y-45571429D01*
X131630952Y-45523810D01*
X129964285Y-45952381D02*
X129964285Y-44952381D01*
X129964285Y-45904762D02*
X130059523Y-45952381D01*
X130250000Y-45952381D01*
X130345238Y-45904762D01*
X130392857Y-45857143D01*
X130440476Y-45761905D01*
X130440476Y-45476190D01*
X130392857Y-45380952D01*
X130345238Y-45333333D01*
X130250000Y-45285714D01*
X130059523Y-45285714D01*
X129964285Y-45333333D01*
X129059523Y-45952381D02*
X129059523Y-45428571D01*
X129107142Y-45333333D01*
X129202380Y-45285714D01*
X129392857Y-45285714D01*
X129488095Y-45333333D01*
X129059523Y-45904762D02*
X129154761Y-45952381D01*
X129392857Y-45952381D01*
X129488095Y-45904762D01*
X129535714Y-45809524D01*
X129535714Y-45714286D01*
X129488095Y-45619048D01*
X129392857Y-45571429D01*
X129154761Y-45571429D01*
X129059523Y-45523810D01*
X128726190Y-45285714D02*
X128345238Y-45285714D01*
X128583333Y-44952381D02*
X128583333Y-45809524D01*
X128535714Y-45904762D01*
X128440476Y-45952381D01*
X128345238Y-45952381D01*
X127583332Y-45952381D02*
X127583332Y-45428571D01*
X127630951Y-45333333D01*
X127726189Y-45285714D01*
X127916666Y-45285714D01*
X128011904Y-45333333D01*
X127583332Y-45904762D02*
X127678570Y-45952381D01*
X127916666Y-45952381D01*
X128011904Y-45904762D01*
X128059523Y-45809524D01*
X128059523Y-45714286D01*
X128011904Y-45619048D01*
X127916666Y-45571429D01*
X127678570Y-45571429D01*
X127583332Y-45523810D01*
X128761904Y-52750000D02*
X128857142Y-52702381D01*
X128999999Y-52702381D01*
X129142857Y-52750000D01*
X129238095Y-52845238D01*
X129285714Y-52940476D01*
X129333333Y-53130952D01*
X129333333Y-53273810D01*
X129285714Y-53464286D01*
X129238095Y-53559524D01*
X129142857Y-53654762D01*
X128999999Y-53702381D01*
X128904761Y-53702381D01*
X128761904Y-53654762D01*
X128714285Y-53607143D01*
X128714285Y-53273810D01*
X128904761Y-53273810D01*
X128285714Y-53702381D02*
X128285714Y-52702381D01*
X127714285Y-53702381D01*
X127714285Y-52702381D01*
X127238095Y-53702381D02*
X127238095Y-52702381D01*
X127000000Y-52702381D01*
X126857142Y-52750000D01*
X126761904Y-52845238D01*
X126714285Y-52940476D01*
X126666666Y-53130952D01*
X126666666Y-53273810D01*
X126714285Y-53464286D01*
X126761904Y-53559524D01*
X126857142Y-53654762D01*
X127000000Y-53702381D01*
X127238095Y-53702381D01*
X129083333Y-48452381D02*
X128750000Y-49452381D01*
X128416666Y-48452381D01*
X127511904Y-49357143D02*
X127559523Y-49404762D01*
X127702380Y-49452381D01*
X127797618Y-49452381D01*
X127940476Y-49404762D01*
X128035714Y-49309524D01*
X128083333Y-49214286D01*
X128130952Y-49023810D01*
X128130952Y-48880952D01*
X128083333Y-48690476D01*
X128035714Y-48595238D01*
X127940476Y-48500000D01*
X127797618Y-48452381D01*
X127702380Y-48452381D01*
X127559523Y-48500000D01*
X127511904Y-48547619D01*
X126511904Y-49357143D02*
X126559523Y-49404762D01*
X126702380Y-49452381D01*
X126797618Y-49452381D01*
X126940476Y-49404762D01*
X127035714Y-49309524D01*
X127083333Y-49214286D01*
X127130952Y-49023810D01*
X127130952Y-48880952D01*
X127083333Y-48690476D01*
X127035714Y-48595238D01*
X126940476Y-48500000D01*
X126797618Y-48452381D01*
X126702380Y-48452381D01*
X126559523Y-48500000D01*
X126511904Y-48547619D01*
X135833333Y-48452381D02*
X135500000Y-49452381D01*
X135166666Y-48452381D01*
X134261904Y-49357143D02*
X134309523Y-49404762D01*
X134452380Y-49452381D01*
X134547618Y-49452381D01*
X134690476Y-49404762D01*
X134785714Y-49309524D01*
X134833333Y-49214286D01*
X134880952Y-49023810D01*
X134880952Y-48880952D01*
X134833333Y-48690476D01*
X134785714Y-48595238D01*
X134690476Y-48500000D01*
X134547618Y-48452381D01*
X134452380Y-48452381D01*
X134309523Y-48500000D01*
X134261904Y-48547619D01*
X133261904Y-49357143D02*
X133309523Y-49404762D01*
X133452380Y-49452381D01*
X133547618Y-49452381D01*
X133690476Y-49404762D01*
X133785714Y-49309524D01*
X133833333Y-49214286D01*
X133880952Y-49023810D01*
X133880952Y-48880952D01*
X133833333Y-48690476D01*
X133785714Y-48595238D01*
X133690476Y-48500000D01*
X133547618Y-48452381D01*
X133452380Y-48452381D01*
X133309523Y-48500000D01*
X133261904Y-48547619D01*
X135511904Y-52750000D02*
X135607142Y-52702381D01*
X135749999Y-52702381D01*
X135892857Y-52750000D01*
X135988095Y-52845238D01*
X136035714Y-52940476D01*
X136083333Y-53130952D01*
X136083333Y-53273810D01*
X136035714Y-53464286D01*
X135988095Y-53559524D01*
X135892857Y-53654762D01*
X135749999Y-53702381D01*
X135654761Y-53702381D01*
X135511904Y-53654762D01*
X135464285Y-53607143D01*
X135464285Y-53273810D01*
X135654761Y-53273810D01*
X135035714Y-53702381D02*
X135035714Y-52702381D01*
X134464285Y-53702381D01*
X134464285Y-52702381D01*
X133988095Y-53702381D02*
X133988095Y-52702381D01*
X133750000Y-52702381D01*
X133607142Y-52750000D01*
X133511904Y-52845238D01*
X133464285Y-52940476D01*
X133416666Y-53130952D01*
X133416666Y-53273810D01*
X133464285Y-53464286D01*
X133511904Y-53559524D01*
X133607142Y-53654762D01*
X133750000Y-53702381D01*
X133988095Y-53702381D01*
D13*
G36*
X122294901Y-66569754D02*
X122136107Y-66573884D01*
X121992855Y-66581281D01*
X121878300Y-66591839D01*
X121805596Y-66605455D01*
X121793692Y-66610237D01*
X121679086Y-66678529D01*
X121585470Y-66753944D01*
X121497879Y-66851481D01*
X121401350Y-66986139D01*
X121367500Y-67037413D01*
X121227016Y-67236948D01*
X121083678Y-67402780D01*
X120922356Y-67548959D01*
X120727917Y-67689534D01*
X120538090Y-67807558D01*
X120406322Y-67886399D01*
X120295307Y-67954319D01*
X120216056Y-68004476D01*
X120179576Y-68030026D01*
X120178750Y-68030905D01*
X120146943Y-68058107D01*
X120077704Y-68111459D01*
X119985193Y-68180087D01*
X119972375Y-68189433D01*
X119853075Y-68278598D01*
X119703927Y-68393550D01*
X119539086Y-68523023D01*
X119372707Y-68655754D01*
X119218941Y-68780479D01*
X119091943Y-68885932D01*
X119027471Y-68941438D01*
X118908066Y-69046953D01*
X118694096Y-68940444D01*
X118577391Y-68885488D01*
X118422520Y-68816912D01*
X118250587Y-68743882D01*
X118099125Y-68682089D01*
X117951259Y-68621631D01*
X117822289Y-68566063D01*
X117725190Y-68521173D01*
X117672936Y-68492747D01*
X117670500Y-68490889D01*
X117613172Y-68464148D01*
X117585081Y-68465282D01*
X117532243Y-68465653D01*
X117448650Y-68449330D01*
X117426331Y-68443106D01*
X117076117Y-68345296D01*
X116745140Y-68264975D01*
X116443986Y-68204353D01*
X116183245Y-68165640D01*
X116036146Y-68153044D01*
X115916782Y-68149270D01*
X115847093Y-68154824D01*
X115813643Y-68172017D01*
X115804449Y-68192939D01*
X115817259Y-68233509D01*
X115858123Y-68318620D01*
X115921639Y-68438839D01*
X116002404Y-68584737D01*
X116095017Y-68746883D01*
X116194076Y-68915844D01*
X116294176Y-69082190D01*
X116389918Y-69236491D01*
X116475897Y-69369315D01*
X116492236Y-69393640D01*
X116542833Y-69476291D01*
X116570852Y-69538033D01*
X116572585Y-69558609D01*
X116538558Y-69559212D01*
X116467138Y-69534854D01*
X116407626Y-69507474D01*
X116280679Y-69449530D01*
X116142242Y-69394582D01*
X116098875Y-69379400D01*
X115978792Y-69334479D01*
X115840586Y-69275645D01*
X115757563Y-69236742D01*
X115646732Y-69189621D01*
X115585863Y-69180120D01*
X115576592Y-69206148D01*
X115620556Y-69265615D01*
X115686125Y-69327990D01*
X115764634Y-69402040D01*
X115791906Y-69443416D01*
X115768700Y-69455897D01*
X115709938Y-69446628D01*
X115570286Y-69417888D01*
X115423449Y-69393055D01*
X115283850Y-69373906D01*
X115165915Y-69362217D01*
X115084065Y-69359765D01*
X115054059Y-69365831D01*
X115047689Y-69406893D01*
X115078265Y-69455701D01*
X115127862Y-69488047D01*
X115146746Y-69491000D01*
X115198973Y-69509631D01*
X115260116Y-69550233D01*
X115292684Y-69578467D01*
X115299765Y-69597003D01*
X115272307Y-69609334D01*
X115201256Y-69618950D01*
X115077558Y-69629345D01*
X115049321Y-69631543D01*
X114751514Y-69669210D01*
X114482737Y-69732054D01*
X114254896Y-69816761D01*
X114122926Y-69889397D01*
X114033098Y-69946600D01*
X113964922Y-69986257D01*
X113935865Y-69999000D01*
X113901928Y-70014951D01*
X113826756Y-70058029D01*
X113722555Y-70121065D01*
X113636213Y-70174910D01*
X113475910Y-70285630D01*
X113312309Y-70419471D01*
X113133072Y-70587066D01*
X112991090Y-70730787D01*
X112780257Y-70959590D01*
X112612444Y-71166520D01*
X112478068Y-71365270D01*
X112367543Y-71569531D01*
X112303222Y-71713500D01*
X112257104Y-71816612D01*
X112214030Y-71900111D01*
X112190984Y-71935750D01*
X112159391Y-71997346D01*
X112132249Y-72088197D01*
X112128439Y-72106911D01*
X112102118Y-72210638D01*
X112061247Y-72334170D01*
X112038607Y-72392661D01*
X111997398Y-72542733D01*
X111973793Y-72739437D01*
X111966804Y-72968686D01*
X111975446Y-73216393D01*
X111998733Y-73468473D01*
X112035679Y-73710838D01*
X112085296Y-73929403D01*
X112146601Y-74110080D01*
X112161096Y-74142375D01*
X112192571Y-74217694D01*
X112235330Y-74331596D01*
X112281229Y-74462208D01*
X112291144Y-74491625D01*
X112424698Y-74840682D01*
X112594131Y-75203294D01*
X112790798Y-75564835D01*
X113006054Y-75910678D01*
X113231254Y-76226198D01*
X113457753Y-76496768D01*
X113507311Y-76549234D01*
X113654016Y-76684774D01*
X113832409Y-76825722D01*
X114020231Y-76955916D01*
X114195225Y-77059196D01*
X114241500Y-77082329D01*
X114323587Y-77116712D01*
X114444115Y-77161851D01*
X114580921Y-77209542D01*
X114622500Y-77223342D01*
X114758200Y-77267855D01*
X114883126Y-77308953D01*
X114975939Y-77339612D01*
X114995563Y-77346135D01*
X115071987Y-77381137D01*
X115092789Y-77423293D01*
X115058742Y-77482843D01*
X115009701Y-77533684D01*
X114938051Y-77588790D01*
X114857113Y-77613877D01*
X114761015Y-77619000D01*
X114660543Y-77623680D01*
X114595097Y-77646592D01*
X114536392Y-77701042D01*
X114504336Y-77739755D01*
X114373264Y-77856330D01*
X114268835Y-77904224D01*
X114176928Y-77936477D01*
X114108966Y-77966076D01*
X114094330Y-77974834D01*
X114037486Y-77993822D01*
X113927993Y-78010332D01*
X113776669Y-78023929D01*
X113594332Y-78034178D01*
X113391800Y-78040646D01*
X113179890Y-78042896D01*
X112969422Y-78040495D01*
X112771212Y-78033007D01*
X112720850Y-78030034D01*
X112547856Y-78018206D01*
X112395943Y-78006502D01*
X112277019Y-77995942D01*
X112202992Y-77987545D01*
X112185688Y-77984203D01*
X112157600Y-77945907D01*
X112148401Y-77888875D01*
X111923750Y-77888875D01*
X111907875Y-77904750D01*
X111892000Y-77888875D01*
X111907875Y-77873000D01*
X111923750Y-77888875D01*
X112148401Y-77888875D01*
X112146000Y-77873996D01*
X112146000Y-77777750D01*
X111939625Y-77777750D01*
X111823867Y-77780929D01*
X111759527Y-77792290D01*
X111734762Y-77814566D01*
X111733250Y-77825375D01*
X111705675Y-77863694D01*
X111654340Y-77873000D01*
X111549863Y-77894918D01*
X111419329Y-77953973D01*
X111279172Y-78040117D01*
X111145828Y-78143300D01*
X111039699Y-78248806D01*
X110914767Y-78387279D01*
X110774423Y-78530804D01*
X110627209Y-78671901D01*
X110481665Y-78803091D01*
X110346332Y-78916892D01*
X110229751Y-79005824D01*
X110140461Y-79062406D01*
X110091272Y-79079500D01*
X110063013Y-79107017D01*
X110039638Y-79173626D01*
X110038839Y-79177496D01*
X110005926Y-79254720D01*
X109942626Y-79346611D01*
X109863321Y-79437347D01*
X109782395Y-79511108D01*
X109714234Y-79552073D01*
X109694944Y-79555750D01*
X109657820Y-79568397D01*
X109640731Y-79616526D01*
X109637084Y-79690687D01*
X109627261Y-79784514D01*
X109601750Y-79914396D01*
X109565482Y-80056329D01*
X109553906Y-80095500D01*
X109508275Y-80253905D01*
X109463851Y-80423372D01*
X109429321Y-80570556D01*
X109425742Y-80587625D01*
X109394130Y-80725379D01*
X109357575Y-80861327D01*
X109328520Y-80952750D01*
X109311237Y-81013419D01*
X109297426Y-81094375D01*
X109286531Y-81203668D01*
X109277995Y-81349350D01*
X109271260Y-81539473D01*
X109265769Y-81782090D01*
X109263957Y-81885838D01*
X109260303Y-82152550D01*
X109259698Y-82365842D01*
X109263036Y-82535759D01*
X109271212Y-82672344D01*
X109285119Y-82785642D01*
X109305651Y-82885696D01*
X109333704Y-82982550D01*
X109370170Y-83086250D01*
X109371035Y-83088580D01*
X109395291Y-83196790D01*
X109410238Y-83363587D01*
X109415496Y-83584686D01*
X109415500Y-83591781D01*
X109419255Y-83798176D01*
X109430943Y-83948202D01*
X109451201Y-84048570D01*
X109461389Y-84075326D01*
X109495801Y-84166395D01*
X109523042Y-84277879D01*
X109543783Y-84417189D01*
X109558695Y-84591735D01*
X109568449Y-84808924D01*
X109573714Y-85076166D01*
X109575147Y-85332143D01*
X109576161Y-85592187D01*
X109579117Y-85802142D01*
X109584882Y-85975412D01*
X109594326Y-86125400D01*
X109608317Y-86265509D01*
X109627723Y-86409141D01*
X109653414Y-86569699D01*
X109656561Y-86588375D01*
X109689739Y-86803512D01*
X109721539Y-87043118D01*
X109748473Y-87278841D01*
X109767053Y-87482330D01*
X109767852Y-87493250D01*
X109781955Y-87666187D01*
X109798285Y-87829464D01*
X109814921Y-87965813D01*
X109829941Y-88057966D01*
X109831432Y-88064750D01*
X109851490Y-88177074D01*
X109867678Y-88314735D01*
X109879393Y-88463450D01*
X109886028Y-88608940D01*
X109886978Y-88736924D01*
X109881638Y-88833121D01*
X109869401Y-88883251D01*
X109866271Y-88886374D01*
X109847422Y-88926258D01*
X109828466Y-89013052D01*
X109812737Y-89130262D01*
X109809127Y-89169122D01*
X109787371Y-89430000D01*
X115983186Y-89430000D01*
X116605474Y-89429888D01*
X117210609Y-89429561D01*
X117795547Y-89429030D01*
X118357245Y-89428304D01*
X118892660Y-89427396D01*
X119398750Y-89426316D01*
X119872472Y-89425074D01*
X120310782Y-89423682D01*
X120710638Y-89422150D01*
X121068997Y-89420489D01*
X121382816Y-89418711D01*
X121649053Y-89416826D01*
X121864664Y-89414844D01*
X122026606Y-89412777D01*
X122131837Y-89410636D01*
X122177313Y-89408430D01*
X122179000Y-89407913D01*
X122167300Y-89361215D01*
X122134616Y-89265175D01*
X122084570Y-89128987D01*
X122020786Y-88961848D01*
X121946887Y-88772952D01*
X121866498Y-88571495D01*
X121783240Y-88366673D01*
X121700739Y-88167681D01*
X121622616Y-87983715D01*
X121572924Y-87869814D01*
X121495606Y-87694433D01*
X121427936Y-87539737D01*
X121373829Y-87414772D01*
X121337197Y-87328587D01*
X121321957Y-87290229D01*
X121321750Y-87289240D01*
X121306304Y-87248700D01*
X121262870Y-87161211D01*
X121195808Y-87034467D01*
X121109479Y-86876163D01*
X121008242Y-86693993D01*
X120896456Y-86495652D01*
X120778482Y-86288834D01*
X120658679Y-86081234D01*
X120541407Y-85880546D01*
X120431026Y-85694465D01*
X120331895Y-85530686D01*
X120259019Y-85413625D01*
X120111197Y-85181705D01*
X119951198Y-84932679D01*
X119785984Y-84677225D01*
X119622520Y-84426022D01*
X119467766Y-84189748D01*
X119328685Y-83979081D01*
X119212240Y-83804702D01*
X119153925Y-83718701D01*
X119065412Y-83586712D01*
X118993224Y-83474008D01*
X118943435Y-83390473D01*
X118922117Y-83345991D01*
X118922244Y-83341672D01*
X118954635Y-83349510D01*
X119023751Y-83385367D01*
X119105863Y-83435889D01*
X119363824Y-83603419D01*
X119587793Y-83746644D01*
X119774194Y-83863362D01*
X119919446Y-83951370D01*
X120019974Y-84008466D01*
X120072197Y-84032448D01*
X120076122Y-84033076D01*
X120111962Y-84047971D01*
X120190114Y-84087688D01*
X120297751Y-84145551D01*
X120382016Y-84192290D01*
X120501051Y-84257070D01*
X120598280Y-84306160D01*
X120661452Y-84333600D01*
X120678883Y-84336701D01*
X120684503Y-84316119D01*
X120663532Y-84284849D01*
X120609902Y-84237918D01*
X120517549Y-84170355D01*
X120380405Y-84077187D01*
X120286416Y-84015024D01*
X120085006Y-83880943D01*
X119927594Y-83771239D01*
X119803934Y-83677280D01*
X119703780Y-83590432D01*
X119616883Y-83502062D01*
X119532999Y-83403538D01*
X119478773Y-83334559D01*
X119408630Y-83245949D01*
X119347068Y-83172287D01*
X119320373Y-83142931D01*
X119272364Y-83088238D01*
X119207327Y-83006952D01*
X119177498Y-82967773D01*
X119108906Y-82878742D01*
X119046009Y-82801406D01*
X119026426Y-82778863D01*
X118993854Y-82727564D01*
X119003702Y-82704391D01*
X119041892Y-82718393D01*
X119114664Y-82765542D01*
X119208953Y-82837010D01*
X119251151Y-82871588D01*
X119385722Y-82980318D01*
X119539454Y-83098018D01*
X119703281Y-83218450D01*
X119868142Y-83335380D01*
X120024972Y-83442570D01*
X120164707Y-83533785D01*
X120278286Y-83602789D01*
X120356643Y-83643345D01*
X120384666Y-83651500D01*
X120397904Y-83634157D01*
X120368123Y-83587875D01*
X120303506Y-83521269D01*
X120212235Y-83442957D01*
X120122770Y-83375715D01*
X119858799Y-83185471D01*
X119616655Y-83004272D01*
X119400907Y-82835960D01*
X119216128Y-82684375D01*
X119066889Y-82553360D01*
X118957760Y-82446756D01*
X118893314Y-82368405D01*
X118877000Y-82328842D01*
X118882442Y-82297998D01*
X118908075Y-82289316D01*
X118967865Y-82302903D01*
X119050564Y-82330185D01*
X119157154Y-82361485D01*
X119288798Y-82393185D01*
X119363264Y-82408319D01*
X119516515Y-82454404D01*
X119677230Y-82531791D01*
X119826720Y-82628798D01*
X119946296Y-82733743D01*
X120004125Y-82808934D01*
X120041892Y-82872043D01*
X120106125Y-82977545D01*
X120189758Y-83113909D01*
X120285724Y-83269604D01*
X120358926Y-83387904D01*
X120478933Y-83585444D01*
X120609149Y-83806312D01*
X120736296Y-84027594D01*
X120847097Y-84226375D01*
X120879616Y-84286500D01*
X120986840Y-84484344D01*
X121110208Y-84708030D01*
X121234624Y-84930385D01*
X121344993Y-85124242D01*
X121347087Y-85127875D01*
X121452291Y-85310607D01*
X121566453Y-85509468D01*
X121676335Y-85701366D01*
X121768698Y-85863209D01*
X121774838Y-85874000D01*
X121865238Y-86032321D01*
X121959749Y-86196899D01*
X122045383Y-86345160D01*
X122094539Y-86429625D01*
X122249022Y-86709663D01*
X122413478Y-87036120D01*
X122581471Y-87394070D01*
X122746568Y-87768587D01*
X122902334Y-88144747D01*
X123042334Y-88507624D01*
X123160133Y-88842293D01*
X123227934Y-89058583D01*
X123300478Y-89306291D01*
X123462052Y-89288125D01*
X123541824Y-89279773D01*
X123672815Y-89266770D01*
X123843009Y-89250277D01*
X124040392Y-89231455D01*
X124252949Y-89211465D01*
X124321158Y-89205109D01*
X124538524Y-89183644D01*
X124746777Y-89160772D01*
X124933279Y-89138056D01*
X125085396Y-89117060D01*
X125190490Y-89099349D01*
X125210158Y-89095099D01*
X125339979Y-89069841D01*
X125468779Y-89053240D01*
X125536563Y-89049469D01*
X125618995Y-89043691D01*
X125666733Y-89029716D01*
X125671500Y-89022811D01*
X125657883Y-88955344D01*
X125619743Y-88841118D01*
X125561146Y-88690073D01*
X125486159Y-88512147D01*
X125398849Y-88317282D01*
X125303282Y-88115417D01*
X125284964Y-88077981D01*
X125184559Y-87886784D01*
X125053335Y-87656543D01*
X124897727Y-87397071D01*
X124724172Y-87118179D01*
X124539109Y-86829679D01*
X124348974Y-86541382D01*
X124160205Y-86263099D01*
X123979239Y-86004642D01*
X123812513Y-85775823D01*
X123666464Y-85586453D01*
X123588984Y-85493000D01*
X123420060Y-85296820D01*
X123284220Y-85138163D01*
X123172784Y-85006719D01*
X123077072Y-84892177D01*
X122988401Y-84784228D01*
X122898091Y-84672562D01*
X122896370Y-84670421D01*
X122747337Y-84488897D01*
X122583208Y-84296955D01*
X122397184Y-84086974D01*
X122182463Y-83851331D01*
X121932244Y-83582403D01*
X121804222Y-83446345D01*
X121652976Y-83283502D01*
X121543671Y-83159412D01*
X121472300Y-83068998D01*
X121434856Y-83007184D01*
X121427332Y-82968892D01*
X121427336Y-82968875D01*
X121442907Y-82904672D01*
X121469007Y-82804011D01*
X121492486Y-82716396D01*
X121520437Y-82588222D01*
X121520890Y-82512012D01*
X121512713Y-82496262D01*
X121484360Y-82478158D01*
X121460526Y-82493887D01*
X121436570Y-82552034D01*
X121407850Y-82661182D01*
X121396026Y-82712090D01*
X121367594Y-82817147D01*
X121338743Y-82892236D01*
X121315677Y-82921247D01*
X121315503Y-82921250D01*
X121276670Y-82899548D01*
X121214138Y-82844219D01*
X121175220Y-82803920D01*
X121124337Y-82745789D01*
X121092794Y-82695385D01*
X121076033Y-82635388D01*
X121069497Y-82548478D01*
X121068878Y-82455265D01*
X120970269Y-82455265D01*
X120962029Y-82520200D01*
X120927904Y-82535807D01*
X120920341Y-82534640D01*
X120859720Y-82500519D01*
X120835321Y-82472189D01*
X120822275Y-82416171D01*
X120855731Y-82366734D01*
X120898687Y-82310095D01*
X120911232Y-82276044D01*
X120919497Y-82259480D01*
X120935178Y-82287866D01*
X120952612Y-82344014D01*
X120966139Y-82410736D01*
X120970269Y-82455265D01*
X121068878Y-82455265D01*
X121068626Y-82417333D01*
X121068681Y-82399108D01*
X121070340Y-82260872D01*
X121073182Y-82221886D01*
X118713755Y-82221886D01*
X118706387Y-82280871D01*
X118652981Y-82375652D01*
X118583110Y-82468736D01*
X118514447Y-82552399D01*
X118463417Y-82612235D01*
X118440959Y-82635420D01*
X118440911Y-82635424D01*
X118421457Y-82610723D01*
X118374080Y-82543462D01*
X118305956Y-82443997D01*
X118226599Y-82326179D01*
X118145122Y-82201093D01*
X118078759Y-82093028D01*
X118034621Y-82013994D01*
X118019750Y-81976929D01*
X118039117Y-81940434D01*
X118088925Y-81947537D01*
X118156735Y-81995004D01*
X118180805Y-82018828D01*
X118260341Y-82079231D01*
X118345090Y-82087826D01*
X118408090Y-82085491D01*
X118432500Y-82097396D01*
X118459052Y-82123492D01*
X118522654Y-82156396D01*
X118599230Y-82185725D01*
X118664701Y-82201097D01*
X118674101Y-82201583D01*
X118713755Y-82221886D01*
X121073182Y-82221886D01*
X121076592Y-82175125D01*
X119067500Y-82175125D01*
X119051625Y-82191000D01*
X119035750Y-82175125D01*
X119051625Y-82159250D01*
X119067500Y-82175125D01*
X121076592Y-82175125D01*
X121077033Y-82169090D01*
X121092955Y-82106718D01*
X121122302Y-82056716D01*
X121165408Y-82006283D01*
X121229384Y-81944907D01*
X121266195Y-81921125D01*
X120496250Y-81921125D01*
X120480375Y-81937000D01*
X120464500Y-81921125D01*
X120480375Y-81905250D01*
X120496250Y-81921125D01*
X121266195Y-81921125D01*
X121279312Y-81912651D01*
X121292022Y-81911215D01*
X121321648Y-81938665D01*
X121382308Y-82007222D01*
X121466247Y-82107719D01*
X121565707Y-82230989D01*
X121609522Y-82286431D01*
X121738065Y-82450073D01*
X121888919Y-82642127D01*
X122045174Y-82841067D01*
X122189921Y-83025365D01*
X122220164Y-83063873D01*
X122361832Y-83247239D01*
X122519754Y-83456479D01*
X122676310Y-83667974D01*
X122813878Y-83858106D01*
X122836065Y-83889373D01*
X122966003Y-84073114D01*
X123111655Y-84278946D01*
X123256318Y-84483273D01*
X123383291Y-84662498D01*
X123398088Y-84683375D01*
X123517581Y-84852824D01*
X123646011Y-85036405D01*
X123768346Y-85212553D01*
X123869556Y-85359698D01*
X123873855Y-85366000D01*
X123965175Y-85499873D01*
X124080333Y-85668626D01*
X124207347Y-85854704D01*
X124334235Y-86040554D01*
X124393951Y-86128000D01*
X124632367Y-86482684D01*
X124837694Y-86802024D01*
X125017261Y-87099647D01*
X125178401Y-87389181D01*
X125328442Y-87684257D01*
X125474716Y-87998503D01*
X125624554Y-88345547D01*
X125746677Y-88642973D01*
X125909625Y-89046572D01*
X126157222Y-89047786D01*
X126326748Y-89055927D01*
X126454873Y-89080776D01*
X126536248Y-89112500D01*
X126617260Y-89150345D01*
X126671073Y-89173067D01*
X126681194Y-89176000D01*
X126686736Y-89146944D01*
X126678503Y-89066680D01*
X126658282Y-88945561D01*
X126627864Y-88793942D01*
X126589038Y-88622177D01*
X126576534Y-88570373D01*
X126515668Y-88340561D01*
X126435531Y-88066948D01*
X126340764Y-87764559D01*
X126236005Y-87448421D01*
X126180272Y-87286875D01*
X126130100Y-87140948D01*
X126080270Y-86991902D01*
X126040704Y-86869461D01*
X126037205Y-86858250D01*
X126004666Y-86759486D01*
X125956233Y-86619939D01*
X125898467Y-86458221D01*
X125838372Y-86294145D01*
X125785550Y-86148515D01*
X125743360Y-86025663D01*
X125715556Y-85937030D01*
X125705892Y-85894059D01*
X125706439Y-85891977D01*
X125743693Y-85892138D01*
X125831989Y-85907783D01*
X125961510Y-85936282D01*
X126122437Y-85975001D01*
X126304953Y-86021310D01*
X126499239Y-86072576D01*
X126695478Y-86126168D01*
X126883851Y-86179452D01*
X127054540Y-86229797D01*
X127197728Y-86274572D01*
X127303595Y-86311144D01*
X127359149Y-86335034D01*
X127443104Y-86369682D01*
X127510104Y-86382000D01*
X127568340Y-86390036D01*
X127670858Y-86411659D01*
X127800845Y-86443133D01*
X127886205Y-86465512D01*
X128036664Y-86506006D01*
X128181279Y-86544731D01*
X128297848Y-86575750D01*
X128338500Y-86586468D01*
X128426448Y-86613621D01*
X128470067Y-86646282D01*
X128487279Y-86702516D01*
X128491189Y-86740407D01*
X128501918Y-86811332D01*
X128530111Y-86853264D01*
X128592791Y-86883150D01*
X128653807Y-86902282D01*
X128767470Y-86940535D01*
X128872971Y-86983182D01*
X128904354Y-86998205D01*
X128974654Y-87032198D01*
X129017346Y-87048503D01*
X129019549Y-87048750D01*
X129029960Y-87020349D01*
X129036203Y-86948499D01*
X129037000Y-86905875D01*
X129040250Y-86817743D01*
X129056390Y-86775987D01*
X129095004Y-86763570D01*
X129117377Y-86763000D01*
X129191391Y-86772829D01*
X129297788Y-86798177D01*
X129379315Y-86822612D01*
X129541441Y-86860362D01*
X129765338Y-86887367D01*
X129979322Y-86900843D01*
X130268461Y-86922586D01*
X130516482Y-86962286D01*
X130744206Y-87023921D01*
X130878500Y-87072589D01*
X131011852Y-87116160D01*
X131185195Y-87160261D01*
X131375268Y-87199800D01*
X131558813Y-87229686D01*
X131640500Y-87239381D01*
X131803730Y-87257751D01*
X131993887Y-87282330D01*
X132175338Y-87308455D01*
X132212000Y-87314177D01*
X132386327Y-87339172D01*
X132577536Y-87362352D01*
X132750050Y-87379487D01*
X132783500Y-87382140D01*
X132921291Y-87392989D01*
X133046076Y-87403925D01*
X133135519Y-87412964D01*
X133149932Y-87414719D01*
X133299372Y-87429777D01*
X133503874Y-87443758D01*
X133755004Y-87456414D01*
X134044332Y-87467498D01*
X134363423Y-87476761D01*
X134703845Y-87483956D01*
X135057165Y-87488833D01*
X135414951Y-87491145D01*
X135736250Y-87490816D01*
X136059328Y-87489589D01*
X136326074Y-87489513D01*
X136543651Y-87490820D01*
X136719222Y-87493744D01*
X136859949Y-87498516D01*
X136972995Y-87505371D01*
X137065522Y-87514540D01*
X137144692Y-87526257D01*
X137208197Y-87538688D01*
X137457768Y-87592518D01*
X137630210Y-87508150D01*
X137797723Y-87398768D01*
X137959892Y-87234814D01*
X137964616Y-87229162D01*
X138126581Y-87034542D01*
X138105996Y-86551141D01*
X138096967Y-86376657D01*
X138085891Y-86219939D01*
X138073926Y-86094208D01*
X138062224Y-86012684D01*
X138057281Y-85993753D01*
X138024758Y-85936640D01*
X137961906Y-85847265D01*
X137880016Y-85741320D01*
X137843138Y-85696228D01*
X137669165Y-85480444D01*
X137486661Y-85242202D01*
X137304334Y-84993796D01*
X137130890Y-84747522D01*
X136975037Y-84515675D01*
X136845481Y-84310549D01*
X136771696Y-84183255D01*
X136646745Y-83960149D01*
X136535450Y-83775023D01*
X136427415Y-83614198D01*
X136381814Y-83554727D01*
X131450000Y-83554727D01*
X131450000Y-83715000D01*
X131273159Y-83715000D01*
X131148637Y-83707002D01*
X131051132Y-83675911D01*
X130957875Y-83619750D01*
X130829047Y-83549423D01*
X130704662Y-83524831D01*
X130686482Y-83524500D01*
X130599069Y-83517007D01*
X130528561Y-83486465D01*
X130450194Y-83420774D01*
X130426530Y-83397500D01*
X130338034Y-83321974D01*
X130259184Y-83277382D01*
X130227536Y-83270500D01*
X130109315Y-83255032D01*
X129981465Y-83214040D01*
X129858970Y-83155645D01*
X129756813Y-83087964D01*
X129689976Y-83019118D01*
X129672000Y-82969463D01*
X129649010Y-82913926D01*
X129635620Y-82902513D01*
X129612809Y-82904265D01*
X129619031Y-82958867D01*
X129619519Y-82960829D01*
X129624383Y-83020924D01*
X129596206Y-83054700D01*
X129526650Y-83064780D01*
X129407377Y-83053786D01*
X129351071Y-83045240D01*
X129260819Y-83031990D01*
X129189630Y-83019938D01*
X129135260Y-83002061D01*
X129095463Y-82971336D01*
X129067994Y-82920740D01*
X129050606Y-82843249D01*
X129041055Y-82731840D01*
X129037096Y-82579489D01*
X129036482Y-82379175D01*
X129036969Y-82123873D01*
X129037000Y-82062882D01*
X129037608Y-81832846D01*
X129039323Y-81624958D01*
X129041986Y-81447257D01*
X129045436Y-81307781D01*
X129049511Y-81214568D01*
X129054053Y-81175657D01*
X129054737Y-81175000D01*
X129094531Y-81195226D01*
X129168518Y-81249394D01*
X129264827Y-81327735D01*
X129371590Y-81420481D01*
X129476936Y-81517863D01*
X129508056Y-81548062D01*
X129590819Y-81628087D01*
X129654577Y-81687118D01*
X129687367Y-81714133D01*
X129688983Y-81714750D01*
X129737326Y-81741854D01*
X129810571Y-81819216D01*
X129904026Y-81940914D01*
X130013001Y-82101024D01*
X130084750Y-82214469D01*
X130164625Y-82315143D01*
X130264741Y-82405801D01*
X130291125Y-82424136D01*
X130382740Y-82483990D01*
X130461326Y-82540075D01*
X130538257Y-82602137D01*
X130624906Y-82679924D01*
X130732647Y-82783183D01*
X130872852Y-82921663D01*
X130880416Y-82929187D01*
X130996612Y-83041976D01*
X131099393Y-83136527D01*
X131179348Y-83204562D01*
X131227066Y-83237804D01*
X131233481Y-83239753D01*
X131283678Y-83260052D01*
X131352109Y-83308543D01*
X131362688Y-83317605D01*
X131417336Y-83376791D01*
X131443199Y-83444699D01*
X131449988Y-83547701D01*
X131450000Y-83554727D01*
X136381814Y-83554727D01*
X136312242Y-83463994D01*
X136179532Y-83310733D01*
X136018888Y-83140736D01*
X135848610Y-82968875D01*
X135572810Y-82699062D01*
X135290852Y-82433738D01*
X134992534Y-82163755D01*
X134667653Y-81879961D01*
X134306010Y-81573209D01*
X134113954Y-81413125D01*
X133762689Y-81117077D01*
X133426702Y-80824750D01*
X133134209Y-80561625D01*
X128500943Y-80561625D01*
X128500868Y-80889458D01*
X128500507Y-81218528D01*
X128500226Y-81374876D01*
X128497250Y-82828877D01*
X128378188Y-82808056D01*
X128283535Y-82784672D01*
X128208878Y-82754898D01*
X128202392Y-82751055D01*
X128191149Y-82741138D01*
X128181498Y-82723756D01*
X128173320Y-82694354D01*
X128166498Y-82648379D01*
X128160911Y-82581276D01*
X128156443Y-82488492D01*
X128152975Y-82365473D01*
X128150388Y-82207663D01*
X128148565Y-82010511D01*
X128147387Y-81769460D01*
X128146735Y-81479958D01*
X128146491Y-81137450D01*
X128146538Y-80737383D01*
X128146591Y-80603500D01*
X128146386Y-80242457D01*
X128145483Y-79899755D01*
X128143942Y-79580734D01*
X128141823Y-79290735D01*
X128139184Y-79035098D01*
X128136086Y-78819164D01*
X128132587Y-78648274D01*
X128128748Y-78527769D01*
X128124627Y-78462989D01*
X128122673Y-78453402D01*
X128072563Y-78429808D01*
X128003848Y-78439816D01*
X127909875Y-78464954D01*
X127903263Y-80558164D01*
X127896651Y-82651375D01*
X127828064Y-82662013D01*
X127764085Y-82659459D01*
X127652449Y-82642648D01*
X127506645Y-82614449D01*
X127340163Y-82577733D01*
X127166492Y-82535368D01*
X126999123Y-82490225D01*
X126941890Y-82473510D01*
X126791417Y-82417047D01*
X126670167Y-82339817D01*
X126584147Y-82262393D01*
X126501051Y-82183490D01*
X126446924Y-82143768D01*
X126407287Y-82136098D01*
X126367659Y-82153354D01*
X126365423Y-82154740D01*
X126314986Y-82176196D01*
X126272441Y-82164263D01*
X126230106Y-82111175D01*
X126180301Y-82009168D01*
X126150035Y-81937000D01*
X126090822Y-81805664D01*
X126018285Y-81663072D01*
X125978327Y-81591751D01*
X125947934Y-81540125D01*
X120432750Y-81540125D01*
X120416875Y-81556000D01*
X120401000Y-81540125D01*
X120416875Y-81524250D01*
X120432750Y-81540125D01*
X125947934Y-81540125D01*
X125877875Y-81421127D01*
X125113351Y-81456223D01*
X124947926Y-81113507D01*
X124782500Y-80770792D01*
X124782500Y-79946052D01*
X124695711Y-79946052D01*
X124695487Y-80076909D01*
X124693266Y-80174812D01*
X124688462Y-80318568D01*
X124682791Y-80435686D01*
X124676983Y-80513636D01*
X124672043Y-80540000D01*
X124650056Y-80515688D01*
X124608287Y-80454599D01*
X124589490Y-80424812D01*
X124546125Y-80343788D01*
X124538901Y-80289018D01*
X124556226Y-80248895D01*
X124578110Y-80183259D01*
X124559203Y-80141485D01*
X124507651Y-80140640D01*
X124456857Y-80131281D01*
X124392528Y-80087147D01*
X124335555Y-80026820D01*
X124306831Y-79968881D01*
X124306250Y-79961520D01*
X124333521Y-79931019D01*
X124402065Y-79892043D01*
X124491980Y-79853139D01*
X124575008Y-79825625D01*
X119639000Y-79825625D01*
X119623125Y-79841500D01*
X119607250Y-79825625D01*
X119623125Y-79809750D01*
X119639000Y-79825625D01*
X124575008Y-79825625D01*
X124583364Y-79822856D01*
X124656314Y-79809742D01*
X124659762Y-79809687D01*
X124678700Y-79821723D01*
X124690400Y-79864083D01*
X124695711Y-79946052D01*
X124782500Y-79946052D01*
X124782500Y-79718090D01*
X124877750Y-79661824D01*
X124941500Y-79617726D01*
X124972444Y-79583673D01*
X124973000Y-79580654D01*
X124945384Y-79563161D01*
X124878854Y-79555751D01*
X124877750Y-79555750D01*
X124809678Y-79547207D01*
X124784775Y-79510892D01*
X124782500Y-79476375D01*
X124765940Y-79412535D01*
X124734875Y-79397000D01*
X124697205Y-79425156D01*
X124687250Y-79493035D01*
X124680963Y-79548707D01*
X124654976Y-79589675D01*
X124598597Y-79622002D01*
X124501137Y-79651751D01*
X124351907Y-79684984D01*
X124347004Y-79685998D01*
X124189488Y-79706835D01*
X124067033Y-79699119D01*
X123988791Y-79664080D01*
X123968466Y-79635082D01*
X123982501Y-79592096D01*
X124039017Y-79510596D01*
X124134218Y-79395553D01*
X124246003Y-79271570D01*
X124378859Y-79127502D01*
X124473597Y-79021307D01*
X124536042Y-78945022D01*
X124572021Y-78890681D01*
X124587358Y-78850319D01*
X124587882Y-78815973D01*
X124586199Y-78806504D01*
X124568549Y-78787019D01*
X124525097Y-78806084D01*
X124449125Y-78865650D01*
X124364322Y-78931474D01*
X124256455Y-79006468D01*
X124137938Y-79083119D01*
X124021183Y-79153915D01*
X123918600Y-79211344D01*
X123842603Y-79247894D01*
X123805603Y-79256053D01*
X123804947Y-79255530D01*
X123802197Y-79216197D01*
X123819849Y-79143871D01*
X123824830Y-79129467D01*
X123855449Y-79035829D01*
X123893172Y-78907436D01*
X123934045Y-78759443D01*
X123974116Y-78607005D01*
X124009431Y-78465276D01*
X124036037Y-78349413D01*
X124049982Y-78274571D01*
X124051120Y-78261937D01*
X124042769Y-78221210D01*
X124014561Y-78238639D01*
X123967782Y-78312503D01*
X123903714Y-78441083D01*
X123881993Y-78488561D01*
X123770440Y-78700156D01*
X123643252Y-78881155D01*
X123604988Y-78925123D01*
X123447923Y-79095375D01*
X123466519Y-78936625D01*
X123485143Y-78804685D01*
X123509993Y-78660557D01*
X123519779Y-78610991D01*
X123535892Y-78514627D01*
X123540172Y-78445747D01*
X123535584Y-78425250D01*
X123496237Y-78419915D01*
X123453160Y-78471897D01*
X123414916Y-78564004D01*
X123374833Y-78657847D01*
X123311273Y-78777534D01*
X123237113Y-78901400D01*
X123165225Y-79007776D01*
X123114962Y-79068824D01*
X123071719Y-79101635D01*
X123021691Y-79106861D01*
X122945455Y-79083672D01*
X122886515Y-79059025D01*
X122700515Y-78972798D01*
X122566668Y-78895809D01*
X122475996Y-78820121D01*
X122419518Y-78737797D01*
X122388256Y-78640901D01*
X122383480Y-78614424D01*
X122373776Y-78529859D01*
X122385307Y-78486903D01*
X122425243Y-78465242D01*
X122437402Y-78461641D01*
X122569226Y-78412873D01*
X122672290Y-78352599D01*
X122709803Y-78317500D01*
X122737418Y-78253882D01*
X122748463Y-78169119D01*
X122742021Y-78090853D01*
X122718750Y-78047625D01*
X122687878Y-78001195D01*
X122692918Y-77944507D01*
X122728375Y-77907527D01*
X122744966Y-77904750D01*
X122829227Y-77874801D01*
X122895172Y-77788503D01*
X122939620Y-77651175D01*
X122953783Y-77555500D01*
X122971434Y-77416181D01*
X122995136Y-77275083D01*
X123012216Y-77194867D01*
X123037656Y-77106642D01*
X123071293Y-77050641D01*
X123130411Y-77008103D01*
X123225698Y-76963175D01*
X123403756Y-76873500D01*
X123562254Y-76772523D01*
X123691821Y-76668063D01*
X123783090Y-76567943D01*
X123826689Y-76479982D01*
X123827809Y-76470367D01*
X123721306Y-76470367D01*
X123693017Y-76518150D01*
X123609271Y-76547849D01*
X123548665Y-76557786D01*
X123427415Y-76585185D01*
X123291525Y-76632101D01*
X123221735Y-76663184D01*
X123138011Y-76707198D01*
X123081993Y-76748626D01*
X123041288Y-76803618D01*
X123003504Y-76888320D01*
X122962639Y-77000794D01*
X122909233Y-77182329D01*
X122868244Y-77379145D01*
X122851514Y-77507503D01*
X122838596Y-77635901D01*
X122823988Y-77713944D01*
X122803486Y-77754730D01*
X122772887Y-77771353D01*
X122766375Y-77772719D01*
X122691661Y-77803043D01*
X122644691Y-77835946D01*
X122611397Y-77879646D01*
X122600246Y-77941401D01*
X122611029Y-78035509D01*
X122639954Y-78162199D01*
X122644716Y-78229759D01*
X122612207Y-78258971D01*
X122538225Y-78250103D01*
X122418566Y-78203424D01*
X122367898Y-78179555D01*
X122210104Y-78114006D01*
X122058463Y-78079552D01*
X121932938Y-78068387D01*
X121810903Y-78064425D01*
X121739979Y-78069340D01*
X121708170Y-78084970D01*
X121702750Y-78103614D01*
X121728280Y-78155032D01*
X121797610Y-78228954D01*
X121899855Y-78315613D01*
X122024131Y-78405238D01*
X122076598Y-78439122D01*
X122146803Y-78486802D01*
X122187022Y-78532430D01*
X122200448Y-78591495D01*
X122190279Y-78679484D01*
X122159709Y-78811885D01*
X122156319Y-78825500D01*
X122135487Y-78892376D01*
X122118312Y-78901920D01*
X122107166Y-78881062D01*
X122066070Y-78831976D01*
X122015273Y-78835410D01*
X121975022Y-78887889D01*
X121969850Y-78904631D01*
X121943541Y-78961433D01*
X121893063Y-78968893D01*
X121875002Y-78964942D01*
X121820902Y-78962196D01*
X121780554Y-78996313D01*
X121745502Y-79060435D01*
X121708764Y-79132384D01*
X121683791Y-79172049D01*
X121680167Y-79174750D01*
X121650884Y-79158232D01*
X121581164Y-79113877D01*
X121483129Y-79049485D01*
X121421098Y-79008062D01*
X121129372Y-78797261D01*
X120893727Y-78592637D01*
X120708037Y-78387617D01*
X120566174Y-78175629D01*
X120481508Y-78000000D01*
X120431672Y-77879588D01*
X120384998Y-77769059D01*
X120354254Y-77698375D01*
X120330899Y-77617447D01*
X120308674Y-77489285D01*
X120289418Y-77330151D01*
X120274969Y-77156308D01*
X120267165Y-76984018D01*
X120266319Y-76920500D01*
X120269091Y-76770876D01*
X120277222Y-76596989D01*
X120289410Y-76415013D01*
X120304358Y-76241123D01*
X120320766Y-76091495D01*
X120337334Y-75982302D01*
X120344100Y-75952125D01*
X120366777Y-75846894D01*
X120387863Y-75714972D01*
X120397557Y-75634625D01*
X120416875Y-75444125D01*
X120587166Y-75659334D01*
X120685805Y-75776393D01*
X120755098Y-75837773D01*
X120798185Y-75842358D01*
X120818206Y-75789031D01*
X120818302Y-75676673D01*
X120810058Y-75580025D01*
X120780823Y-75287487D01*
X120757567Y-75037787D01*
X120740603Y-74834974D01*
X120731054Y-74694974D01*
X119411919Y-74694974D01*
X119411409Y-74770891D01*
X119403116Y-74878617D01*
X119388542Y-75002768D01*
X119369191Y-75127960D01*
X119347614Y-75234432D01*
X119310962Y-75378301D01*
X119277848Y-75472490D01*
X119240467Y-75529797D01*
X119191014Y-75563020D01*
X119136116Y-75581231D01*
X118991462Y-75612675D01*
X118886908Y-75613502D01*
X118804904Y-75579718D01*
X118727900Y-75507326D01*
X118708252Y-75483812D01*
X118626314Y-75370375D01*
X118546859Y-75241004D01*
X118519784Y-75190125D01*
X118471275Y-75086938D01*
X118416002Y-74960564D01*
X118359060Y-74823872D01*
X118305548Y-74689733D01*
X118260562Y-74571017D01*
X118229199Y-74480594D01*
X118216557Y-74431336D01*
X118217308Y-74426358D01*
X118239327Y-74444641D01*
X118286304Y-74504269D01*
X118348860Y-74593170D01*
X118361190Y-74611557D01*
X118516164Y-74824391D01*
X118657870Y-74977826D01*
X118785591Y-75071526D01*
X118898611Y-75105154D01*
X118996213Y-75078374D01*
X119077683Y-74990851D01*
X119096774Y-74956855D01*
X119149046Y-74878935D01*
X119223421Y-74795686D01*
X119303447Y-74722711D01*
X119372676Y-74675612D01*
X119403142Y-74666250D01*
X119411919Y-74694974D01*
X120731054Y-74694974D01*
X120730243Y-74683095D01*
X120726799Y-74586199D01*
X120730530Y-74548387D01*
X120758507Y-74562070D01*
X120820325Y-74612282D01*
X120905482Y-74690098D01*
X120962934Y-74745855D01*
X121106737Y-74883567D01*
X121238156Y-74995625D01*
X121366820Y-75085754D01*
X121502357Y-75157677D01*
X121654396Y-75215117D01*
X121832566Y-75261799D01*
X122046495Y-75301445D01*
X122305812Y-75337779D01*
X122575875Y-75369598D01*
X122751824Y-75392251D01*
X122870522Y-75415372D01*
X122938196Y-75441082D01*
X122961074Y-75471506D01*
X122952907Y-75498171D01*
X122960730Y-75522095D01*
X122970877Y-75523500D01*
X122996148Y-75550659D01*
X123004500Y-75602875D01*
X123015369Y-75662543D01*
X123036250Y-75682250D01*
X123060948Y-75671465D01*
X123074381Y-75629160D01*
X123080792Y-75540402D01*
X123081369Y-75523500D01*
X123100053Y-75459887D01*
X123143635Y-75444125D01*
X123184665Y-75461292D01*
X123222001Y-75519925D01*
X123261904Y-75628869D01*
X123386974Y-75934142D01*
X123556956Y-76212306D01*
X123619039Y-76292155D01*
X123696020Y-76397402D01*
X123721306Y-76470367D01*
X123827809Y-76470367D01*
X123829070Y-76459542D01*
X123810150Y-76402515D01*
X123759970Y-76318186D01*
X123699690Y-76237767D01*
X123526572Y-75985041D01*
X123382004Y-75682652D01*
X123325022Y-75525147D01*
X123282747Y-75389689D01*
X123264934Y-75300567D01*
X123277732Y-75254301D01*
X123327293Y-75247408D01*
X123419769Y-75276409D01*
X123561309Y-75337824D01*
X123613704Y-75361793D01*
X123851764Y-75462939D01*
X124090220Y-75549325D01*
X124313364Y-75616002D01*
X124505485Y-75658018D01*
X124586644Y-75668372D01*
X124719868Y-75679682D01*
X124848194Y-75690715D01*
X124925375Y-75697459D01*
X125039685Y-75705120D01*
X125169919Y-75710504D01*
X125206721Y-75711354D01*
X125361067Y-75714000D01*
X125339728Y-75827750D01*
X125338820Y-75944012D01*
X125386406Y-76042131D01*
X125486652Y-76126174D01*
X125643723Y-76200207D01*
X125762067Y-76240029D01*
X125878833Y-76267912D01*
X125993475Y-76283788D01*
X126025171Y-76285156D01*
X126122359Y-76300585D01*
X126202231Y-76337613D01*
X126206538Y-76341062D01*
X126238589Y-76387641D01*
X126288790Y-76485032D01*
X126353157Y-76624530D01*
X126427703Y-76797430D01*
X126508443Y-76995027D01*
X126524325Y-77035075D01*
X126603587Y-77232388D01*
X126680460Y-77417318D01*
X126750178Y-77578882D01*
X126807974Y-77706101D01*
X126849082Y-77787993D01*
X126856735Y-77800960D01*
X126932735Y-77893246D01*
X127035474Y-77984523D01*
X127090153Y-78022498D01*
X127199982Y-78081739D01*
X127333231Y-78141693D01*
X127470951Y-78195118D01*
X127594188Y-78234776D01*
X127683992Y-78253427D01*
X127696160Y-78254000D01*
X127758571Y-78268465D01*
X127845072Y-78304485D01*
X127870543Y-78317500D01*
X127979591Y-78359488D01*
X128094212Y-78380457D01*
X128111165Y-78381000D01*
X128185187Y-78387243D01*
X128244565Y-78413851D01*
X128308681Y-78472641D01*
X128362548Y-78534267D01*
X128491785Y-78687535D01*
X128497493Y-79304205D01*
X128498647Y-79470199D01*
X128499583Y-79689314D01*
X128500286Y-79951176D01*
X128500744Y-80245405D01*
X128500943Y-80561625D01*
X133134209Y-80561625D01*
X133113524Y-80543017D01*
X132830683Y-80278756D01*
X132585711Y-80038842D01*
X132416387Y-79862969D01*
X132248954Y-79663671D01*
X132114416Y-79464253D01*
X132018273Y-79274796D01*
X131966030Y-79105382D01*
X131958000Y-79023202D01*
X131951924Y-78902737D01*
X131928418Y-78832641D01*
X131879569Y-78800500D01*
X131811729Y-78793750D01*
X131712289Y-78772618D01*
X131628909Y-78719083D01*
X131581469Y-78647934D01*
X131577000Y-78619125D01*
X131555577Y-78585688D01*
X131484932Y-78572202D01*
X131452646Y-78571500D01*
X131370650Y-78563191D01*
X131321045Y-78542534D01*
X131316287Y-78535485D01*
X131287444Y-78518759D01*
X131211465Y-78512604D01*
X131082085Y-78516762D01*
X130998002Y-78522434D01*
X130691721Y-78545397D01*
X130744547Y-78661636D01*
X130820376Y-78801791D01*
X130929348Y-78967055D01*
X131043667Y-79119250D01*
X131113243Y-79206625D01*
X131056741Y-79484375D01*
X131027044Y-79629989D01*
X130998341Y-79770114D01*
X130975748Y-79879784D01*
X130971321Y-79901120D01*
X130911313Y-80093963D01*
X130821164Y-80259214D01*
X130710064Y-80380753D01*
X130688923Y-80396485D01*
X130612072Y-80445368D01*
X130555347Y-80473674D01*
X130543351Y-80476500D01*
X130500061Y-80454091D01*
X130426932Y-80394119D01*
X130335179Y-80307464D01*
X130236018Y-80205009D01*
X130140661Y-80097633D01*
X130093890Y-80040408D01*
X130000452Y-79903499D01*
X129945855Y-79782846D01*
X129933458Y-79687867D01*
X129951641Y-79641762D01*
X129980786Y-79586400D01*
X130008323Y-79508125D01*
X129132250Y-79508125D01*
X129116375Y-79524000D01*
X129100500Y-79508125D01*
X129116375Y-79492250D01*
X129132250Y-79508125D01*
X130008323Y-79508125D01*
X130010382Y-79502273D01*
X130013228Y-79492142D01*
X130043381Y-79420903D01*
X130101657Y-79313742D01*
X130137884Y-79254125D01*
X128910000Y-79254125D01*
X128894125Y-79270000D01*
X128878250Y-79254125D01*
X128894125Y-79238250D01*
X128910000Y-79254125D01*
X130137884Y-79254125D01*
X130179108Y-79186287D01*
X130250496Y-79077816D01*
X130356161Y-78920825D01*
X130427573Y-78806909D01*
X130462069Y-78738870D01*
X130338750Y-78738870D01*
X130322871Y-78784033D01*
X130283468Y-78856530D01*
X130232900Y-78937053D01*
X130183522Y-79006293D01*
X130147691Y-79044941D01*
X130141128Y-79047693D01*
X130113035Y-79022316D01*
X130073256Y-78959682D01*
X130065261Y-78944562D01*
X130025365Y-78872235D01*
X129995924Y-78828380D01*
X129993008Y-78825500D01*
X129964819Y-78787926D01*
X129924599Y-78720684D01*
X129886331Y-78648964D01*
X129864001Y-78597957D01*
X129862500Y-78590413D01*
X129887828Y-78572337D01*
X129902188Y-78570794D01*
X129953753Y-78552139D01*
X130021250Y-78508668D01*
X130100625Y-78447249D01*
X130219688Y-78576887D01*
X130285540Y-78654023D01*
X130328779Y-78715092D01*
X130338750Y-78738870D01*
X130462069Y-78738870D01*
X130467725Y-78727716D01*
X130479615Y-78674896D01*
X130466237Y-78640097D01*
X130430587Y-78614968D01*
X130418582Y-78609234D01*
X130348951Y-78561970D01*
X130339077Y-78518000D01*
X130385485Y-78486463D01*
X130469147Y-78476250D01*
X130550715Y-78472440D01*
X130582402Y-78456426D01*
X130577603Y-78421328D01*
X130577348Y-78420687D01*
X130546015Y-78302389D01*
X130523646Y-78136911D01*
X130510457Y-77939969D01*
X130506665Y-77727277D01*
X130512487Y-77514552D01*
X130528140Y-77317508D01*
X130553842Y-77151860D01*
X130559484Y-77126875D01*
X130570779Y-77053377D01*
X130582848Y-76929550D01*
X130595225Y-76765847D01*
X130607441Y-76572724D01*
X130613665Y-76458823D01*
X130505642Y-76458823D01*
X130493792Y-76729195D01*
X130467497Y-77039149D01*
X130437692Y-77296340D01*
X130402005Y-77511494D01*
X130358065Y-77695338D01*
X130303497Y-77858598D01*
X130235931Y-78012001D01*
X130190883Y-78098792D01*
X130081823Y-78266776D01*
X129966468Y-78376546D01*
X129837868Y-78433381D01*
X129736012Y-78444500D01*
X129635982Y-78439346D01*
X129572226Y-78415958D01*
X129517831Y-78362443D01*
X129500657Y-78340499D01*
X129446587Y-78258090D01*
X129381521Y-78142607D01*
X129320460Y-78020939D01*
X129219587Y-77805380D01*
X129242220Y-77418502D01*
X129257805Y-77187740D01*
X129275913Y-77008486D01*
X129299291Y-76868749D01*
X129330685Y-76756539D01*
X129372843Y-76659863D01*
X129428513Y-76566731D01*
X129441897Y-76546909D01*
X129508422Y-76449063D01*
X129563593Y-76366463D01*
X129592625Y-76321499D01*
X129630289Y-76266271D01*
X129689715Y-76185179D01*
X129722019Y-76142625D01*
X129794555Y-76042971D01*
X129860895Y-75943345D01*
X129879677Y-75912437D01*
X129939128Y-75836888D01*
X130009337Y-75810025D01*
X130028096Y-75809250D01*
X130096313Y-75789269D01*
X130119792Y-75742448D01*
X130097019Y-75688467D01*
X130040238Y-75651683D01*
X129997429Y-75627217D01*
X129962217Y-75582946D01*
X129929123Y-75507317D01*
X129892668Y-75388775D01*
X129863451Y-75278881D01*
X129823929Y-75174981D01*
X129765208Y-75074980D01*
X129699660Y-74995833D01*
X129639657Y-74954495D01*
X129624911Y-74952000D01*
X129576777Y-74972220D01*
X129508673Y-75022465D01*
X129489825Y-75039312D01*
X129374107Y-75144332D01*
X129258542Y-75244292D01*
X129153896Y-75330415D01*
X129070936Y-75393922D01*
X129020426Y-75426036D01*
X129012804Y-75428250D01*
X128974881Y-75405655D01*
X128910162Y-75347081D01*
X128849855Y-75285375D01*
X127204738Y-75285375D01*
X127181585Y-75444125D01*
X127163106Y-75539455D01*
X127133105Y-75663102D01*
X127097084Y-75795441D01*
X127060543Y-75916849D01*
X127028985Y-76007701D01*
X127014699Y-76039437D01*
X126996842Y-76057776D01*
X126968790Y-76053144D01*
X126921701Y-76019513D01*
X126846732Y-75950860D01*
X126759792Y-75865729D01*
X126647994Y-75749389D01*
X126584136Y-75667859D01*
X126566225Y-75616717D01*
X126592270Y-75591542D01*
X126634220Y-75587000D01*
X126765248Y-75565903D01*
X126911330Y-75510748D01*
X127044016Y-75433732D01*
X127100303Y-75387133D01*
X127204738Y-75285375D01*
X128849855Y-75285375D01*
X128831257Y-75266346D01*
X128750775Y-75177263D01*
X128681325Y-75093651D01*
X128635517Y-75029325D01*
X128624250Y-75002503D01*
X128650357Y-74941627D01*
X128723929Y-74855584D01*
X128837849Y-74751649D01*
X128973538Y-74645477D01*
X129098288Y-74550614D01*
X129174119Y-74483772D01*
X129205879Y-74439184D01*
X129198412Y-74411081D01*
X129179312Y-74400552D01*
X129114835Y-74406194D01*
X129021853Y-74452820D01*
X128910573Y-74531081D01*
X128791200Y-74631625D01*
X128673941Y-74745103D01*
X128569003Y-74862162D01*
X128486593Y-74973454D01*
X128436918Y-75069628D01*
X128432114Y-75085075D01*
X128398588Y-75209582D01*
X128339366Y-75158375D01*
X127168744Y-75158375D01*
X126928122Y-75147929D01*
X126813641Y-75140265D01*
X126728701Y-75129447D01*
X126688738Y-75117569D01*
X126687500Y-75115261D01*
X126708131Y-75083722D01*
X126761973Y-75023220D01*
X126836952Y-74945580D01*
X126920992Y-74862630D01*
X127002019Y-74786197D01*
X127067959Y-74728107D01*
X127106735Y-74700187D01*
X127111699Y-74699777D01*
X127121126Y-74736122D01*
X127133460Y-74818375D01*
X127146123Y-74929179D01*
X127146814Y-74936125D01*
X127168744Y-75158375D01*
X128339366Y-75158375D01*
X128281232Y-75108109D01*
X128191618Y-75022947D01*
X128092722Y-74917844D01*
X128043063Y-74860255D01*
X127968492Y-74769866D01*
X127903783Y-74691368D01*
X127873613Y-74654724D01*
X127847693Y-74616271D01*
X127848461Y-74585105D01*
X127884147Y-74554269D01*
X127962980Y-74516806D01*
X128093192Y-74465759D01*
X128100375Y-74463037D01*
X128237616Y-74410355D01*
X128350620Y-74364654D01*
X128460596Y-74316754D01*
X128588750Y-74257478D01*
X128723551Y-74193335D01*
X128902496Y-74119566D01*
X129053483Y-74089414D01*
X129195294Y-74103513D01*
X129346713Y-74162496D01*
X129446699Y-74217736D01*
X129551598Y-74278714D01*
X129634784Y-74324572D01*
X129681952Y-74347501D01*
X129686741Y-74348749D01*
X129737961Y-74369053D01*
X129818705Y-74421737D01*
X129913416Y-74494458D01*
X130006539Y-74574874D01*
X130082516Y-74650644D01*
X130110969Y-74685325D01*
X130227743Y-74886985D01*
X130326676Y-75139873D01*
X130405852Y-75433744D01*
X130463350Y-75758356D01*
X130497253Y-76103464D01*
X130505642Y-76458823D01*
X130613665Y-76458823D01*
X130619031Y-76360636D01*
X130629526Y-76140037D01*
X130638462Y-75921383D01*
X130645369Y-75715129D01*
X130649782Y-75531729D01*
X130651233Y-75381638D01*
X130649257Y-75275312D01*
X130644357Y-75226435D01*
X130612621Y-75163193D01*
X130550195Y-75077792D01*
X130492301Y-75012036D01*
X130426908Y-74932121D01*
X130351147Y-74822309D01*
X130273773Y-74697666D01*
X130203540Y-74573256D01*
X130149202Y-74464144D01*
X130119514Y-74385395D01*
X130116500Y-74365369D01*
X130091012Y-74334616D01*
X130025450Y-74284820D01*
X129936174Y-74226054D01*
X129839539Y-74168394D01*
X129751904Y-74121916D01*
X129689626Y-74096693D01*
X129677133Y-74094749D01*
X129642296Y-74115785D01*
X129640250Y-74126036D01*
X129614496Y-74131124D01*
X129549620Y-74116286D01*
X129464202Y-74088105D01*
X129376822Y-74053164D01*
X129306061Y-74018047D01*
X129276713Y-73997229D01*
X129223303Y-73973799D01*
X129172009Y-73967750D01*
X129098277Y-73945221D01*
X129027067Y-73891785D01*
X128981613Y-73849738D01*
X128932641Y-73830092D01*
X128859116Y-73828452D01*
X128766645Y-73837357D01*
X128576625Y-73858894D01*
X128697332Y-73900452D01*
X128770469Y-73933335D01*
X128806811Y-73965103D01*
X128807606Y-73973307D01*
X128775446Y-73998583D01*
X128698011Y-74040111D01*
X128589086Y-74090806D01*
X128528150Y-74116949D01*
X128292188Y-74215783D01*
X128107150Y-74294729D01*
X127965295Y-74358198D01*
X127858880Y-74410601D01*
X127780162Y-74456348D01*
X127721399Y-74499850D01*
X127674848Y-74545518D01*
X127632768Y-74597763D01*
X127597025Y-74647390D01*
X127573814Y-74672676D01*
X127549058Y-74671943D01*
X127514181Y-74637638D01*
X127460604Y-74562208D01*
X127406618Y-74479712D01*
X127339548Y-74373042D01*
X127288406Y-74286008D01*
X127261308Y-74232654D01*
X127259000Y-74224293D01*
X127286793Y-74201382D01*
X127355484Y-74179322D01*
X127374034Y-74175486D01*
X127465710Y-74153189D01*
X127535928Y-74127577D01*
X127540722Y-74125052D01*
X127594661Y-74101700D01*
X127690220Y-74066249D01*
X127808449Y-74025671D01*
X127830500Y-74018417D01*
X127972685Y-73969185D01*
X128107057Y-73917755D01*
X128223668Y-73868619D01*
X128312570Y-73826269D01*
X128363815Y-73795196D01*
X128367453Y-73779893D01*
X128360571Y-73779078D01*
X128298889Y-73765268D01*
X128207346Y-73732290D01*
X128158347Y-73711231D01*
X128040987Y-73668467D01*
X127919599Y-73640013D01*
X127882276Y-73635494D01*
X127766677Y-73617772D01*
X127640401Y-73585617D01*
X127608250Y-73574974D01*
X127505122Y-73539864D01*
X127447915Y-73527178D01*
X127423255Y-73536628D01*
X127417763Y-73567927D01*
X127417750Y-73570875D01*
X127390814Y-73609523D01*
X127348959Y-73618500D01*
X127298328Y-73624033D01*
X127303792Y-73637057D01*
X127359260Y-73652208D01*
X127393311Y-73657560D01*
X127464835Y-73673683D01*
X127501217Y-73691382D01*
X127547858Y-73709226D01*
X127595793Y-73713750D01*
X127660910Y-73726278D01*
X127687626Y-73745500D01*
X127729845Y-73766971D01*
X127806785Y-73777126D01*
X127816499Y-73777250D01*
X127889219Y-73784099D01*
X127924985Y-73800904D01*
X127925750Y-73804078D01*
X127897535Y-73824250D01*
X127820793Y-73859098D01*
X127707387Y-73903657D01*
X127575030Y-73950957D01*
X127423119Y-74006188D01*
X127282545Y-74063059D01*
X127170793Y-74114170D01*
X127113245Y-74146379D01*
X127037377Y-74193348D01*
X126981913Y-74219689D01*
X126971841Y-74221749D01*
X126942139Y-74241945D01*
X126941500Y-74247121D01*
X126914698Y-74273204D01*
X126848334Y-74305805D01*
X126828989Y-74313178D01*
X126742823Y-74331761D01*
X126643665Y-74335778D01*
X126551297Y-74326898D01*
X126485505Y-74306793D01*
X126465250Y-74282459D01*
X126438634Y-74258922D01*
X126401750Y-74253500D01*
X126353665Y-74245569D01*
X126343956Y-74215767D01*
X126374036Y-74155082D01*
X126429565Y-74075701D01*
X126538060Y-73944871D01*
X126661671Y-73821380D01*
X126785266Y-73718608D01*
X126893716Y-73649936D01*
X126926843Y-73635895D01*
X126996531Y-73607535D01*
X127015282Y-73580449D01*
X126994417Y-73540992D01*
X126933062Y-73499773D01*
X126891456Y-73503391D01*
X126832440Y-73538516D01*
X126743669Y-73610503D01*
X126636877Y-73708141D01*
X126523797Y-73820218D01*
X126416163Y-73935525D01*
X126325707Y-74042851D01*
X126322375Y-74047125D01*
X126227869Y-74162870D01*
X126118824Y-74288038D01*
X126055550Y-74356687D01*
X125971426Y-74440078D01*
X125907110Y-74485600D01*
X125841969Y-74504340D01*
X125774880Y-74507500D01*
X125668235Y-74518169D01*
X125536694Y-74545703D01*
X125444362Y-74572646D01*
X125250976Y-74637793D01*
X125132836Y-74559611D01*
X125043329Y-74481303D01*
X124944431Y-74365755D01*
X124851852Y-74234058D01*
X124781304Y-74107300D01*
X124762879Y-74063000D01*
X124723355Y-73978005D01*
X124662016Y-73872223D01*
X124589175Y-73760612D01*
X124515148Y-73658132D01*
X124450252Y-73579743D01*
X124404800Y-73540405D01*
X124401681Y-73539182D01*
X124345562Y-73505259D01*
X124329289Y-73482353D01*
X124338589Y-73441107D01*
X124374287Y-73358568D01*
X124429518Y-73247533D01*
X124497416Y-73120801D01*
X124571116Y-72991167D01*
X124643750Y-72871430D01*
X124708454Y-72774387D01*
X124711063Y-72770767D01*
X124757257Y-72700408D01*
X124781228Y-72651113D01*
X124782184Y-72645223D01*
X124793189Y-72607486D01*
X124823638Y-72522167D01*
X124869319Y-72400612D01*
X124926020Y-72254170D01*
X124948244Y-72197737D01*
X125014631Y-72029226D01*
X125066474Y-71908695D01*
X125115165Y-71826163D01*
X125172093Y-71771648D01*
X125248651Y-71735167D01*
X125356230Y-71706740D01*
X125506220Y-71676385D01*
X125554105Y-71666837D01*
X125815571Y-71598832D01*
X126019833Y-71511799D01*
X126165102Y-71406534D01*
X126184716Y-71385859D01*
X126235897Y-71314006D01*
X126267956Y-71226034D01*
X126288306Y-71100163D01*
X126291170Y-71073077D01*
X126301821Y-70862212D01*
X126295472Y-70635231D01*
X126274115Y-70408628D01*
X126239745Y-70198899D01*
X126194354Y-70022536D01*
X126151418Y-69916502D01*
X126074597Y-69809157D01*
X125947470Y-69687151D01*
X125767599Y-69548574D01*
X125532546Y-69391516D01*
X125300370Y-69249642D01*
X125142827Y-69154936D01*
X125002795Y-69068069D01*
X124890223Y-68995426D01*
X124815064Y-68943393D01*
X124789076Y-68921548D01*
X124724735Y-68878217D01*
X124677951Y-68866380D01*
X124620329Y-68850311D01*
X124522411Y-68811567D01*
X124400231Y-68756786D01*
X124322125Y-68719069D01*
X124193438Y-68656448D01*
X124080210Y-68603606D01*
X123998308Y-68567835D01*
X123970935Y-68557640D01*
X123935529Y-68529562D01*
X123886317Y-68459900D01*
X123820674Y-68344092D01*
X123735972Y-68177578D01*
X123653510Y-68006451D01*
X123510417Y-67707341D01*
X123389089Y-67460883D01*
X123285999Y-67261481D01*
X123197620Y-67103541D01*
X123120426Y-66981468D01*
X123050888Y-66889668D01*
X122985480Y-66822546D01*
X122920675Y-66774508D01*
X122855859Y-66741195D01*
X122769634Y-66696224D01*
X122735239Y-66660017D01*
X122755511Y-66637862D01*
X122798125Y-66633500D01*
X122853302Y-66623624D01*
X122861625Y-66601750D01*
X122822426Y-66587982D01*
X122733000Y-66578003D01*
X122606501Y-66571708D01*
X122456084Y-66568994D01*
X122294901Y-66569754D01*
X122294901Y-66569754D01*
G37*
X122294901Y-66569754D02*
X122136107Y-66573884D01*
X121992855Y-66581281D01*
X121878300Y-66591839D01*
X121805596Y-66605455D01*
X121793692Y-66610237D01*
X121679086Y-66678529D01*
X121585470Y-66753944D01*
X121497879Y-66851481D01*
X121401350Y-66986139D01*
X121367500Y-67037413D01*
X121227016Y-67236948D01*
X121083678Y-67402780D01*
X120922356Y-67548959D01*
X120727917Y-67689534D01*
X120538090Y-67807558D01*
X120406322Y-67886399D01*
X120295307Y-67954319D01*
X120216056Y-68004476D01*
X120179576Y-68030026D01*
X120178750Y-68030905D01*
X120146943Y-68058107D01*
X120077704Y-68111459D01*
X119985193Y-68180087D01*
X119972375Y-68189433D01*
X119853075Y-68278598D01*
X119703927Y-68393550D01*
X119539086Y-68523023D01*
X119372707Y-68655754D01*
X119218941Y-68780479D01*
X119091943Y-68885932D01*
X119027471Y-68941438D01*
X118908066Y-69046953D01*
X118694096Y-68940444D01*
X118577391Y-68885488D01*
X118422520Y-68816912D01*
X118250587Y-68743882D01*
X118099125Y-68682089D01*
X117951259Y-68621631D01*
X117822289Y-68566063D01*
X117725190Y-68521173D01*
X117672936Y-68492747D01*
X117670500Y-68490889D01*
X117613172Y-68464148D01*
X117585081Y-68465282D01*
X117532243Y-68465653D01*
X117448650Y-68449330D01*
X117426331Y-68443106D01*
X117076117Y-68345296D01*
X116745140Y-68264975D01*
X116443986Y-68204353D01*
X116183245Y-68165640D01*
X116036146Y-68153044D01*
X115916782Y-68149270D01*
X115847093Y-68154824D01*
X115813643Y-68172017D01*
X115804449Y-68192939D01*
X115817259Y-68233509D01*
X115858123Y-68318620D01*
X115921639Y-68438839D01*
X116002404Y-68584737D01*
X116095017Y-68746883D01*
X116194076Y-68915844D01*
X116294176Y-69082190D01*
X116389918Y-69236491D01*
X116475897Y-69369315D01*
X116492236Y-69393640D01*
X116542833Y-69476291D01*
X116570852Y-69538033D01*
X116572585Y-69558609D01*
X116538558Y-69559212D01*
X116467138Y-69534854D01*
X116407626Y-69507474D01*
X116280679Y-69449530D01*
X116142242Y-69394582D01*
X116098875Y-69379400D01*
X115978792Y-69334479D01*
X115840586Y-69275645D01*
X115757563Y-69236742D01*
X115646732Y-69189621D01*
X115585863Y-69180120D01*
X115576592Y-69206148D01*
X115620556Y-69265615D01*
X115686125Y-69327990D01*
X115764634Y-69402040D01*
X115791906Y-69443416D01*
X115768700Y-69455897D01*
X115709938Y-69446628D01*
X115570286Y-69417888D01*
X115423449Y-69393055D01*
X115283850Y-69373906D01*
X115165915Y-69362217D01*
X115084065Y-69359765D01*
X115054059Y-69365831D01*
X115047689Y-69406893D01*
X115078265Y-69455701D01*
X115127862Y-69488047D01*
X115146746Y-69491000D01*
X115198973Y-69509631D01*
X115260116Y-69550233D01*
X115292684Y-69578467D01*
X115299765Y-69597003D01*
X115272307Y-69609334D01*
X115201256Y-69618950D01*
X115077558Y-69629345D01*
X115049321Y-69631543D01*
X114751514Y-69669210D01*
X114482737Y-69732054D01*
X114254896Y-69816761D01*
X114122926Y-69889397D01*
X114033098Y-69946600D01*
X113964922Y-69986257D01*
X113935865Y-69999000D01*
X113901928Y-70014951D01*
X113826756Y-70058029D01*
X113722555Y-70121065D01*
X113636213Y-70174910D01*
X113475910Y-70285630D01*
X113312309Y-70419471D01*
X113133072Y-70587066D01*
X112991090Y-70730787D01*
X112780257Y-70959590D01*
X112612444Y-71166520D01*
X112478068Y-71365270D01*
X112367543Y-71569531D01*
X112303222Y-71713500D01*
X112257104Y-71816612D01*
X112214030Y-71900111D01*
X112190984Y-71935750D01*
X112159391Y-71997346D01*
X112132249Y-72088197D01*
X112128439Y-72106911D01*
X112102118Y-72210638D01*
X112061247Y-72334170D01*
X112038607Y-72392661D01*
X111997398Y-72542733D01*
X111973793Y-72739437D01*
X111966804Y-72968686D01*
X111975446Y-73216393D01*
X111998733Y-73468473D01*
X112035679Y-73710838D01*
X112085296Y-73929403D01*
X112146601Y-74110080D01*
X112161096Y-74142375D01*
X112192571Y-74217694D01*
X112235330Y-74331596D01*
X112281229Y-74462208D01*
X112291144Y-74491625D01*
X112424698Y-74840682D01*
X112594131Y-75203294D01*
X112790798Y-75564835D01*
X113006054Y-75910678D01*
X113231254Y-76226198D01*
X113457753Y-76496768D01*
X113507311Y-76549234D01*
X113654016Y-76684774D01*
X113832409Y-76825722D01*
X114020231Y-76955916D01*
X114195225Y-77059196D01*
X114241500Y-77082329D01*
X114323587Y-77116712D01*
X114444115Y-77161851D01*
X114580921Y-77209542D01*
X114622500Y-77223342D01*
X114758200Y-77267855D01*
X114883126Y-77308953D01*
X114975939Y-77339612D01*
X114995563Y-77346135D01*
X115071987Y-77381137D01*
X115092789Y-77423293D01*
X115058742Y-77482843D01*
X115009701Y-77533684D01*
X114938051Y-77588790D01*
X114857113Y-77613877D01*
X114761015Y-77619000D01*
X114660543Y-77623680D01*
X114595097Y-77646592D01*
X114536392Y-77701042D01*
X114504336Y-77739755D01*
X114373264Y-77856330D01*
X114268835Y-77904224D01*
X114176928Y-77936477D01*
X114108966Y-77966076D01*
X114094330Y-77974834D01*
X114037486Y-77993822D01*
X113927993Y-78010332D01*
X113776669Y-78023929D01*
X113594332Y-78034178D01*
X113391800Y-78040646D01*
X113179890Y-78042896D01*
X112969422Y-78040495D01*
X112771212Y-78033007D01*
X112720850Y-78030034D01*
X112547856Y-78018206D01*
X112395943Y-78006502D01*
X112277019Y-77995942D01*
X112202992Y-77987545D01*
X112185688Y-77984203D01*
X112157600Y-77945907D01*
X112148401Y-77888875D01*
X111923750Y-77888875D01*
X111907875Y-77904750D01*
X111892000Y-77888875D01*
X111907875Y-77873000D01*
X111923750Y-77888875D01*
X112148401Y-77888875D01*
X112146000Y-77873996D01*
X112146000Y-77777750D01*
X111939625Y-77777750D01*
X111823867Y-77780929D01*
X111759527Y-77792290D01*
X111734762Y-77814566D01*
X111733250Y-77825375D01*
X111705675Y-77863694D01*
X111654340Y-77873000D01*
X111549863Y-77894918D01*
X111419329Y-77953973D01*
X111279172Y-78040117D01*
X111145828Y-78143300D01*
X111039699Y-78248806D01*
X110914767Y-78387279D01*
X110774423Y-78530804D01*
X110627209Y-78671901D01*
X110481665Y-78803091D01*
X110346332Y-78916892D01*
X110229751Y-79005824D01*
X110140461Y-79062406D01*
X110091272Y-79079500D01*
X110063013Y-79107017D01*
X110039638Y-79173626D01*
X110038839Y-79177496D01*
X110005926Y-79254720D01*
X109942626Y-79346611D01*
X109863321Y-79437347D01*
X109782395Y-79511108D01*
X109714234Y-79552073D01*
X109694944Y-79555750D01*
X109657820Y-79568397D01*
X109640731Y-79616526D01*
X109637084Y-79690687D01*
X109627261Y-79784514D01*
X109601750Y-79914396D01*
X109565482Y-80056329D01*
X109553906Y-80095500D01*
X109508275Y-80253905D01*
X109463851Y-80423372D01*
X109429321Y-80570556D01*
X109425742Y-80587625D01*
X109394130Y-80725379D01*
X109357575Y-80861327D01*
X109328520Y-80952750D01*
X109311237Y-81013419D01*
X109297426Y-81094375D01*
X109286531Y-81203668D01*
X109277995Y-81349350D01*
X109271260Y-81539473D01*
X109265769Y-81782090D01*
X109263957Y-81885838D01*
X109260303Y-82152550D01*
X109259698Y-82365842D01*
X109263036Y-82535759D01*
X109271212Y-82672344D01*
X109285119Y-82785642D01*
X109305651Y-82885696D01*
X109333704Y-82982550D01*
X109370170Y-83086250D01*
X109371035Y-83088580D01*
X109395291Y-83196790D01*
X109410238Y-83363587D01*
X109415496Y-83584686D01*
X109415500Y-83591781D01*
X109419255Y-83798176D01*
X109430943Y-83948202D01*
X109451201Y-84048570D01*
X109461389Y-84075326D01*
X109495801Y-84166395D01*
X109523042Y-84277879D01*
X109543783Y-84417189D01*
X109558695Y-84591735D01*
X109568449Y-84808924D01*
X109573714Y-85076166D01*
X109575147Y-85332143D01*
X109576161Y-85592187D01*
X109579117Y-85802142D01*
X109584882Y-85975412D01*
X109594326Y-86125400D01*
X109608317Y-86265509D01*
X109627723Y-86409141D01*
X109653414Y-86569699D01*
X109656561Y-86588375D01*
X109689739Y-86803512D01*
X109721539Y-87043118D01*
X109748473Y-87278841D01*
X109767053Y-87482330D01*
X109767852Y-87493250D01*
X109781955Y-87666187D01*
X109798285Y-87829464D01*
X109814921Y-87965813D01*
X109829941Y-88057966D01*
X109831432Y-88064750D01*
X109851490Y-88177074D01*
X109867678Y-88314735D01*
X109879393Y-88463450D01*
X109886028Y-88608940D01*
X109886978Y-88736924D01*
X109881638Y-88833121D01*
X109869401Y-88883251D01*
X109866271Y-88886374D01*
X109847422Y-88926258D01*
X109828466Y-89013052D01*
X109812737Y-89130262D01*
X109809127Y-89169122D01*
X109787371Y-89430000D01*
X115983186Y-89430000D01*
X116605474Y-89429888D01*
X117210609Y-89429561D01*
X117795547Y-89429030D01*
X118357245Y-89428304D01*
X118892660Y-89427396D01*
X119398750Y-89426316D01*
X119872472Y-89425074D01*
X120310782Y-89423682D01*
X120710638Y-89422150D01*
X121068997Y-89420489D01*
X121382816Y-89418711D01*
X121649053Y-89416826D01*
X121864664Y-89414844D01*
X122026606Y-89412777D01*
X122131837Y-89410636D01*
X122177313Y-89408430D01*
X122179000Y-89407913D01*
X122167300Y-89361215D01*
X122134616Y-89265175D01*
X122084570Y-89128987D01*
X122020786Y-88961848D01*
X121946887Y-88772952D01*
X121866498Y-88571495D01*
X121783240Y-88366673D01*
X121700739Y-88167681D01*
X121622616Y-87983715D01*
X121572924Y-87869814D01*
X121495606Y-87694433D01*
X121427936Y-87539737D01*
X121373829Y-87414772D01*
X121337197Y-87328587D01*
X121321957Y-87290229D01*
X121321750Y-87289240D01*
X121306304Y-87248700D01*
X121262870Y-87161211D01*
X121195808Y-87034467D01*
X121109479Y-86876163D01*
X121008242Y-86693993D01*
X120896456Y-86495652D01*
X120778482Y-86288834D01*
X120658679Y-86081234D01*
X120541407Y-85880546D01*
X120431026Y-85694465D01*
X120331895Y-85530686D01*
X120259019Y-85413625D01*
X120111197Y-85181705D01*
X119951198Y-84932679D01*
X119785984Y-84677225D01*
X119622520Y-84426022D01*
X119467766Y-84189748D01*
X119328685Y-83979081D01*
X119212240Y-83804702D01*
X119153925Y-83718701D01*
X119065412Y-83586712D01*
X118993224Y-83474008D01*
X118943435Y-83390473D01*
X118922117Y-83345991D01*
X118922244Y-83341672D01*
X118954635Y-83349510D01*
X119023751Y-83385367D01*
X119105863Y-83435889D01*
X119363824Y-83603419D01*
X119587793Y-83746644D01*
X119774194Y-83863362D01*
X119919446Y-83951370D01*
X120019974Y-84008466D01*
X120072197Y-84032448D01*
X120076122Y-84033076D01*
X120111962Y-84047971D01*
X120190114Y-84087688D01*
X120297751Y-84145551D01*
X120382016Y-84192290D01*
X120501051Y-84257070D01*
X120598280Y-84306160D01*
X120661452Y-84333600D01*
X120678883Y-84336701D01*
X120684503Y-84316119D01*
X120663532Y-84284849D01*
X120609902Y-84237918D01*
X120517549Y-84170355D01*
X120380405Y-84077187D01*
X120286416Y-84015024D01*
X120085006Y-83880943D01*
X119927594Y-83771239D01*
X119803934Y-83677280D01*
X119703780Y-83590432D01*
X119616883Y-83502062D01*
X119532999Y-83403538D01*
X119478773Y-83334559D01*
X119408630Y-83245949D01*
X119347068Y-83172287D01*
X119320373Y-83142931D01*
X119272364Y-83088238D01*
X119207327Y-83006952D01*
X119177498Y-82967773D01*
X119108906Y-82878742D01*
X119046009Y-82801406D01*
X119026426Y-82778863D01*
X118993854Y-82727564D01*
X119003702Y-82704391D01*
X119041892Y-82718393D01*
X119114664Y-82765542D01*
X119208953Y-82837010D01*
X119251151Y-82871588D01*
X119385722Y-82980318D01*
X119539454Y-83098018D01*
X119703281Y-83218450D01*
X119868142Y-83335380D01*
X120024972Y-83442570D01*
X120164707Y-83533785D01*
X120278286Y-83602789D01*
X120356643Y-83643345D01*
X120384666Y-83651500D01*
X120397904Y-83634157D01*
X120368123Y-83587875D01*
X120303506Y-83521269D01*
X120212235Y-83442957D01*
X120122770Y-83375715D01*
X119858799Y-83185471D01*
X119616655Y-83004272D01*
X119400907Y-82835960D01*
X119216128Y-82684375D01*
X119066889Y-82553360D01*
X118957760Y-82446756D01*
X118893314Y-82368405D01*
X118877000Y-82328842D01*
X118882442Y-82297998D01*
X118908075Y-82289316D01*
X118967865Y-82302903D01*
X119050564Y-82330185D01*
X119157154Y-82361485D01*
X119288798Y-82393185D01*
X119363264Y-82408319D01*
X119516515Y-82454404D01*
X119677230Y-82531791D01*
X119826720Y-82628798D01*
X119946296Y-82733743D01*
X120004125Y-82808934D01*
X120041892Y-82872043D01*
X120106125Y-82977545D01*
X120189758Y-83113909D01*
X120285724Y-83269604D01*
X120358926Y-83387904D01*
X120478933Y-83585444D01*
X120609149Y-83806312D01*
X120736296Y-84027594D01*
X120847097Y-84226375D01*
X120879616Y-84286500D01*
X120986840Y-84484344D01*
X121110208Y-84708030D01*
X121234624Y-84930385D01*
X121344993Y-85124242D01*
X121347087Y-85127875D01*
X121452291Y-85310607D01*
X121566453Y-85509468D01*
X121676335Y-85701366D01*
X121768698Y-85863209D01*
X121774838Y-85874000D01*
X121865238Y-86032321D01*
X121959749Y-86196899D01*
X122045383Y-86345160D01*
X122094539Y-86429625D01*
X122249022Y-86709663D01*
X122413478Y-87036120D01*
X122581471Y-87394070D01*
X122746568Y-87768587D01*
X122902334Y-88144747D01*
X123042334Y-88507624D01*
X123160133Y-88842293D01*
X123227934Y-89058583D01*
X123300478Y-89306291D01*
X123462052Y-89288125D01*
X123541824Y-89279773D01*
X123672815Y-89266770D01*
X123843009Y-89250277D01*
X124040392Y-89231455D01*
X124252949Y-89211465D01*
X124321158Y-89205109D01*
X124538524Y-89183644D01*
X124746777Y-89160772D01*
X124933279Y-89138056D01*
X125085396Y-89117060D01*
X125190490Y-89099349D01*
X125210158Y-89095099D01*
X125339979Y-89069841D01*
X125468779Y-89053240D01*
X125536563Y-89049469D01*
X125618995Y-89043691D01*
X125666733Y-89029716D01*
X125671500Y-89022811D01*
X125657883Y-88955344D01*
X125619743Y-88841118D01*
X125561146Y-88690073D01*
X125486159Y-88512147D01*
X125398849Y-88317282D01*
X125303282Y-88115417D01*
X125284964Y-88077981D01*
X125184559Y-87886784D01*
X125053335Y-87656543D01*
X124897727Y-87397071D01*
X124724172Y-87118179D01*
X124539109Y-86829679D01*
X124348974Y-86541382D01*
X124160205Y-86263099D01*
X123979239Y-86004642D01*
X123812513Y-85775823D01*
X123666464Y-85586453D01*
X123588984Y-85493000D01*
X123420060Y-85296820D01*
X123284220Y-85138163D01*
X123172784Y-85006719D01*
X123077072Y-84892177D01*
X122988401Y-84784228D01*
X122898091Y-84672562D01*
X122896370Y-84670421D01*
X122747337Y-84488897D01*
X122583208Y-84296955D01*
X122397184Y-84086974D01*
X122182463Y-83851331D01*
X121932244Y-83582403D01*
X121804222Y-83446345D01*
X121652976Y-83283502D01*
X121543671Y-83159412D01*
X121472300Y-83068998D01*
X121434856Y-83007184D01*
X121427332Y-82968892D01*
X121427336Y-82968875D01*
X121442907Y-82904672D01*
X121469007Y-82804011D01*
X121492486Y-82716396D01*
X121520437Y-82588222D01*
X121520890Y-82512012D01*
X121512713Y-82496262D01*
X121484360Y-82478158D01*
X121460526Y-82493887D01*
X121436570Y-82552034D01*
X121407850Y-82661182D01*
X121396026Y-82712090D01*
X121367594Y-82817147D01*
X121338743Y-82892236D01*
X121315677Y-82921247D01*
X121315503Y-82921250D01*
X121276670Y-82899548D01*
X121214138Y-82844219D01*
X121175220Y-82803920D01*
X121124337Y-82745789D01*
X121092794Y-82695385D01*
X121076033Y-82635388D01*
X121069497Y-82548478D01*
X121068878Y-82455265D01*
X120970269Y-82455265D01*
X120962029Y-82520200D01*
X120927904Y-82535807D01*
X120920341Y-82534640D01*
X120859720Y-82500519D01*
X120835321Y-82472189D01*
X120822275Y-82416171D01*
X120855731Y-82366734D01*
X120898687Y-82310095D01*
X120911232Y-82276044D01*
X120919497Y-82259480D01*
X120935178Y-82287866D01*
X120952612Y-82344014D01*
X120966139Y-82410736D01*
X120970269Y-82455265D01*
X121068878Y-82455265D01*
X121068626Y-82417333D01*
X121068681Y-82399108D01*
X121070340Y-82260872D01*
X121073182Y-82221886D01*
X118713755Y-82221886D01*
X118706387Y-82280871D01*
X118652981Y-82375652D01*
X118583110Y-82468736D01*
X118514447Y-82552399D01*
X118463417Y-82612235D01*
X118440959Y-82635420D01*
X118440911Y-82635424D01*
X118421457Y-82610723D01*
X118374080Y-82543462D01*
X118305956Y-82443997D01*
X118226599Y-82326179D01*
X118145122Y-82201093D01*
X118078759Y-82093028D01*
X118034621Y-82013994D01*
X118019750Y-81976929D01*
X118039117Y-81940434D01*
X118088925Y-81947537D01*
X118156735Y-81995004D01*
X118180805Y-82018828D01*
X118260341Y-82079231D01*
X118345090Y-82087826D01*
X118408090Y-82085491D01*
X118432500Y-82097396D01*
X118459052Y-82123492D01*
X118522654Y-82156396D01*
X118599230Y-82185725D01*
X118664701Y-82201097D01*
X118674101Y-82201583D01*
X118713755Y-82221886D01*
X121073182Y-82221886D01*
X121076592Y-82175125D01*
X119067500Y-82175125D01*
X119051625Y-82191000D01*
X119035750Y-82175125D01*
X119051625Y-82159250D01*
X119067500Y-82175125D01*
X121076592Y-82175125D01*
X121077033Y-82169090D01*
X121092955Y-82106718D01*
X121122302Y-82056716D01*
X121165408Y-82006283D01*
X121229384Y-81944907D01*
X121266195Y-81921125D01*
X120496250Y-81921125D01*
X120480375Y-81937000D01*
X120464500Y-81921125D01*
X120480375Y-81905250D01*
X120496250Y-81921125D01*
X121266195Y-81921125D01*
X121279312Y-81912651D01*
X121292022Y-81911215D01*
X121321648Y-81938665D01*
X121382308Y-82007222D01*
X121466247Y-82107719D01*
X121565707Y-82230989D01*
X121609522Y-82286431D01*
X121738065Y-82450073D01*
X121888919Y-82642127D01*
X122045174Y-82841067D01*
X122189921Y-83025365D01*
X122220164Y-83063873D01*
X122361832Y-83247239D01*
X122519754Y-83456479D01*
X122676310Y-83667974D01*
X122813878Y-83858106D01*
X122836065Y-83889373D01*
X122966003Y-84073114D01*
X123111655Y-84278946D01*
X123256318Y-84483273D01*
X123383291Y-84662498D01*
X123398088Y-84683375D01*
X123517581Y-84852824D01*
X123646011Y-85036405D01*
X123768346Y-85212553D01*
X123869556Y-85359698D01*
X123873855Y-85366000D01*
X123965175Y-85499873D01*
X124080333Y-85668626D01*
X124207347Y-85854704D01*
X124334235Y-86040554D01*
X124393951Y-86128000D01*
X124632367Y-86482684D01*
X124837694Y-86802024D01*
X125017261Y-87099647D01*
X125178401Y-87389181D01*
X125328442Y-87684257D01*
X125474716Y-87998503D01*
X125624554Y-88345547D01*
X125746677Y-88642973D01*
X125909625Y-89046572D01*
X126157222Y-89047786D01*
X126326748Y-89055927D01*
X126454873Y-89080776D01*
X126536248Y-89112500D01*
X126617260Y-89150345D01*
X126671073Y-89173067D01*
X126681194Y-89176000D01*
X126686736Y-89146944D01*
X126678503Y-89066680D01*
X126658282Y-88945561D01*
X126627864Y-88793942D01*
X126589038Y-88622177D01*
X126576534Y-88570373D01*
X126515668Y-88340561D01*
X126435531Y-88066948D01*
X126340764Y-87764559D01*
X126236005Y-87448421D01*
X126180272Y-87286875D01*
X126130100Y-87140948D01*
X126080270Y-86991902D01*
X126040704Y-86869461D01*
X126037205Y-86858250D01*
X126004666Y-86759486D01*
X125956233Y-86619939D01*
X125898467Y-86458221D01*
X125838372Y-86294145D01*
X125785550Y-86148515D01*
X125743360Y-86025663D01*
X125715556Y-85937030D01*
X125705892Y-85894059D01*
X125706439Y-85891977D01*
X125743693Y-85892138D01*
X125831989Y-85907783D01*
X125961510Y-85936282D01*
X126122437Y-85975001D01*
X126304953Y-86021310D01*
X126499239Y-86072576D01*
X126695478Y-86126168D01*
X126883851Y-86179452D01*
X127054540Y-86229797D01*
X127197728Y-86274572D01*
X127303595Y-86311144D01*
X127359149Y-86335034D01*
X127443104Y-86369682D01*
X127510104Y-86382000D01*
X127568340Y-86390036D01*
X127670858Y-86411659D01*
X127800845Y-86443133D01*
X127886205Y-86465512D01*
X128036664Y-86506006D01*
X128181279Y-86544731D01*
X128297848Y-86575750D01*
X128338500Y-86586468D01*
X128426448Y-86613621D01*
X128470067Y-86646282D01*
X128487279Y-86702516D01*
X128491189Y-86740407D01*
X128501918Y-86811332D01*
X128530111Y-86853264D01*
X128592791Y-86883150D01*
X128653807Y-86902282D01*
X128767470Y-86940535D01*
X128872971Y-86983182D01*
X128904354Y-86998205D01*
X128974654Y-87032198D01*
X129017346Y-87048503D01*
X129019549Y-87048750D01*
X129029960Y-87020349D01*
X129036203Y-86948499D01*
X129037000Y-86905875D01*
X129040250Y-86817743D01*
X129056390Y-86775987D01*
X129095004Y-86763570D01*
X129117377Y-86763000D01*
X129191391Y-86772829D01*
X129297788Y-86798177D01*
X129379315Y-86822612D01*
X129541441Y-86860362D01*
X129765338Y-86887367D01*
X129979322Y-86900843D01*
X130268461Y-86922586D01*
X130516482Y-86962286D01*
X130744206Y-87023921D01*
X130878500Y-87072589D01*
X131011852Y-87116160D01*
X131185195Y-87160261D01*
X131375268Y-87199800D01*
X131558813Y-87229686D01*
X131640500Y-87239381D01*
X131803730Y-87257751D01*
X131993887Y-87282330D01*
X132175338Y-87308455D01*
X132212000Y-87314177D01*
X132386327Y-87339172D01*
X132577536Y-87362352D01*
X132750050Y-87379487D01*
X132783500Y-87382140D01*
X132921291Y-87392989D01*
X133046076Y-87403925D01*
X133135519Y-87412964D01*
X133149932Y-87414719D01*
X133299372Y-87429777D01*
X133503874Y-87443758D01*
X133755004Y-87456414D01*
X134044332Y-87467498D01*
X134363423Y-87476761D01*
X134703845Y-87483956D01*
X135057165Y-87488833D01*
X135414951Y-87491145D01*
X135736250Y-87490816D01*
X136059328Y-87489589D01*
X136326074Y-87489513D01*
X136543651Y-87490820D01*
X136719222Y-87493744D01*
X136859949Y-87498516D01*
X136972995Y-87505371D01*
X137065522Y-87514540D01*
X137144692Y-87526257D01*
X137208197Y-87538688D01*
X137457768Y-87592518D01*
X137630210Y-87508150D01*
X137797723Y-87398768D01*
X137959892Y-87234814D01*
X137964616Y-87229162D01*
X138126581Y-87034542D01*
X138105996Y-86551141D01*
X138096967Y-86376657D01*
X138085891Y-86219939D01*
X138073926Y-86094208D01*
X138062224Y-86012684D01*
X138057281Y-85993753D01*
X138024758Y-85936640D01*
X137961906Y-85847265D01*
X137880016Y-85741320D01*
X137843138Y-85696228D01*
X137669165Y-85480444D01*
X137486661Y-85242202D01*
X137304334Y-84993796D01*
X137130890Y-84747522D01*
X136975037Y-84515675D01*
X136845481Y-84310549D01*
X136771696Y-84183255D01*
X136646745Y-83960149D01*
X136535450Y-83775023D01*
X136427415Y-83614198D01*
X136381814Y-83554727D01*
X131450000Y-83554727D01*
X131450000Y-83715000D01*
X131273159Y-83715000D01*
X131148637Y-83707002D01*
X131051132Y-83675911D01*
X130957875Y-83619750D01*
X130829047Y-83549423D01*
X130704662Y-83524831D01*
X130686482Y-83524500D01*
X130599069Y-83517007D01*
X130528561Y-83486465D01*
X130450194Y-83420774D01*
X130426530Y-83397500D01*
X130338034Y-83321974D01*
X130259184Y-83277382D01*
X130227536Y-83270500D01*
X130109315Y-83255032D01*
X129981465Y-83214040D01*
X129858970Y-83155645D01*
X129756813Y-83087964D01*
X129689976Y-83019118D01*
X129672000Y-82969463D01*
X129649010Y-82913926D01*
X129635620Y-82902513D01*
X129612809Y-82904265D01*
X129619031Y-82958867D01*
X129619519Y-82960829D01*
X129624383Y-83020924D01*
X129596206Y-83054700D01*
X129526650Y-83064780D01*
X129407377Y-83053786D01*
X129351071Y-83045240D01*
X129260819Y-83031990D01*
X129189630Y-83019938D01*
X129135260Y-83002061D01*
X129095463Y-82971336D01*
X129067994Y-82920740D01*
X129050606Y-82843249D01*
X129041055Y-82731840D01*
X129037096Y-82579489D01*
X129036482Y-82379175D01*
X129036969Y-82123873D01*
X129037000Y-82062882D01*
X129037608Y-81832846D01*
X129039323Y-81624958D01*
X129041986Y-81447257D01*
X129045436Y-81307781D01*
X129049511Y-81214568D01*
X129054053Y-81175657D01*
X129054737Y-81175000D01*
X129094531Y-81195226D01*
X129168518Y-81249394D01*
X129264827Y-81327735D01*
X129371590Y-81420481D01*
X129476936Y-81517863D01*
X129508056Y-81548062D01*
X129590819Y-81628087D01*
X129654577Y-81687118D01*
X129687367Y-81714133D01*
X129688983Y-81714750D01*
X129737326Y-81741854D01*
X129810571Y-81819216D01*
X129904026Y-81940914D01*
X130013001Y-82101024D01*
X130084750Y-82214469D01*
X130164625Y-82315143D01*
X130264741Y-82405801D01*
X130291125Y-82424136D01*
X130382740Y-82483990D01*
X130461326Y-82540075D01*
X130538257Y-82602137D01*
X130624906Y-82679924D01*
X130732647Y-82783183D01*
X130872852Y-82921663D01*
X130880416Y-82929187D01*
X130996612Y-83041976D01*
X131099393Y-83136527D01*
X131179348Y-83204562D01*
X131227066Y-83237804D01*
X131233481Y-83239753D01*
X131283678Y-83260052D01*
X131352109Y-83308543D01*
X131362688Y-83317605D01*
X131417336Y-83376791D01*
X131443199Y-83444699D01*
X131449988Y-83547701D01*
X131450000Y-83554727D01*
X136381814Y-83554727D01*
X136312242Y-83463994D01*
X136179532Y-83310733D01*
X136018888Y-83140736D01*
X135848610Y-82968875D01*
X135572810Y-82699062D01*
X135290852Y-82433738D01*
X134992534Y-82163755D01*
X134667653Y-81879961D01*
X134306010Y-81573209D01*
X134113954Y-81413125D01*
X133762689Y-81117077D01*
X133426702Y-80824750D01*
X133134209Y-80561625D01*
X128500943Y-80561625D01*
X128500868Y-80889458D01*
X128500507Y-81218528D01*
X128500226Y-81374876D01*
X128497250Y-82828877D01*
X128378188Y-82808056D01*
X128283535Y-82784672D01*
X128208878Y-82754898D01*
X128202392Y-82751055D01*
X128191149Y-82741138D01*
X128181498Y-82723756D01*
X128173320Y-82694354D01*
X128166498Y-82648379D01*
X128160911Y-82581276D01*
X128156443Y-82488492D01*
X128152975Y-82365473D01*
X128150388Y-82207663D01*
X128148565Y-82010511D01*
X128147387Y-81769460D01*
X128146735Y-81479958D01*
X128146491Y-81137450D01*
X128146538Y-80737383D01*
X128146591Y-80603500D01*
X128146386Y-80242457D01*
X128145483Y-79899755D01*
X128143942Y-79580734D01*
X128141823Y-79290735D01*
X128139184Y-79035098D01*
X128136086Y-78819164D01*
X128132587Y-78648274D01*
X128128748Y-78527769D01*
X128124627Y-78462989D01*
X128122673Y-78453402D01*
X128072563Y-78429808D01*
X128003848Y-78439816D01*
X127909875Y-78464954D01*
X127903263Y-80558164D01*
X127896651Y-82651375D01*
X127828064Y-82662013D01*
X127764085Y-82659459D01*
X127652449Y-82642648D01*
X127506645Y-82614449D01*
X127340163Y-82577733D01*
X127166492Y-82535368D01*
X126999123Y-82490225D01*
X126941890Y-82473510D01*
X126791417Y-82417047D01*
X126670167Y-82339817D01*
X126584147Y-82262393D01*
X126501051Y-82183490D01*
X126446924Y-82143768D01*
X126407287Y-82136098D01*
X126367659Y-82153354D01*
X126365423Y-82154740D01*
X126314986Y-82176196D01*
X126272441Y-82164263D01*
X126230106Y-82111175D01*
X126180301Y-82009168D01*
X126150035Y-81937000D01*
X126090822Y-81805664D01*
X126018285Y-81663072D01*
X125978327Y-81591751D01*
X125947934Y-81540125D01*
X120432750Y-81540125D01*
X120416875Y-81556000D01*
X120401000Y-81540125D01*
X120416875Y-81524250D01*
X120432750Y-81540125D01*
X125947934Y-81540125D01*
X125877875Y-81421127D01*
X125113351Y-81456223D01*
X124947926Y-81113507D01*
X124782500Y-80770792D01*
X124782500Y-79946052D01*
X124695711Y-79946052D01*
X124695487Y-80076909D01*
X124693266Y-80174812D01*
X124688462Y-80318568D01*
X124682791Y-80435686D01*
X124676983Y-80513636D01*
X124672043Y-80540000D01*
X124650056Y-80515688D01*
X124608287Y-80454599D01*
X124589490Y-80424812D01*
X124546125Y-80343788D01*
X124538901Y-80289018D01*
X124556226Y-80248895D01*
X124578110Y-80183259D01*
X124559203Y-80141485D01*
X124507651Y-80140640D01*
X124456857Y-80131281D01*
X124392528Y-80087147D01*
X124335555Y-80026820D01*
X124306831Y-79968881D01*
X124306250Y-79961520D01*
X124333521Y-79931019D01*
X124402065Y-79892043D01*
X124491980Y-79853139D01*
X124575008Y-79825625D01*
X119639000Y-79825625D01*
X119623125Y-79841500D01*
X119607250Y-79825625D01*
X119623125Y-79809750D01*
X119639000Y-79825625D01*
X124575008Y-79825625D01*
X124583364Y-79822856D01*
X124656314Y-79809742D01*
X124659762Y-79809687D01*
X124678700Y-79821723D01*
X124690400Y-79864083D01*
X124695711Y-79946052D01*
X124782500Y-79946052D01*
X124782500Y-79718090D01*
X124877750Y-79661824D01*
X124941500Y-79617726D01*
X124972444Y-79583673D01*
X124973000Y-79580654D01*
X124945384Y-79563161D01*
X124878854Y-79555751D01*
X124877750Y-79555750D01*
X124809678Y-79547207D01*
X124784775Y-79510892D01*
X124782500Y-79476375D01*
X124765940Y-79412535D01*
X124734875Y-79397000D01*
X124697205Y-79425156D01*
X124687250Y-79493035D01*
X124680963Y-79548707D01*
X124654976Y-79589675D01*
X124598597Y-79622002D01*
X124501137Y-79651751D01*
X124351907Y-79684984D01*
X124347004Y-79685998D01*
X124189488Y-79706835D01*
X124067033Y-79699119D01*
X123988791Y-79664080D01*
X123968466Y-79635082D01*
X123982501Y-79592096D01*
X124039017Y-79510596D01*
X124134218Y-79395553D01*
X124246003Y-79271570D01*
X124378859Y-79127502D01*
X124473597Y-79021307D01*
X124536042Y-78945022D01*
X124572021Y-78890681D01*
X124587358Y-78850319D01*
X124587882Y-78815973D01*
X124586199Y-78806504D01*
X124568549Y-78787019D01*
X124525097Y-78806084D01*
X124449125Y-78865650D01*
X124364322Y-78931474D01*
X124256455Y-79006468D01*
X124137938Y-79083119D01*
X124021183Y-79153915D01*
X123918600Y-79211344D01*
X123842603Y-79247894D01*
X123805603Y-79256053D01*
X123804947Y-79255530D01*
X123802197Y-79216197D01*
X123819849Y-79143871D01*
X123824830Y-79129467D01*
X123855449Y-79035829D01*
X123893172Y-78907436D01*
X123934045Y-78759443D01*
X123974116Y-78607005D01*
X124009431Y-78465276D01*
X124036037Y-78349413D01*
X124049982Y-78274571D01*
X124051120Y-78261937D01*
X124042769Y-78221210D01*
X124014561Y-78238639D01*
X123967782Y-78312503D01*
X123903714Y-78441083D01*
X123881993Y-78488561D01*
X123770440Y-78700156D01*
X123643252Y-78881155D01*
X123604988Y-78925123D01*
X123447923Y-79095375D01*
X123466519Y-78936625D01*
X123485143Y-78804685D01*
X123509993Y-78660557D01*
X123519779Y-78610991D01*
X123535892Y-78514627D01*
X123540172Y-78445747D01*
X123535584Y-78425250D01*
X123496237Y-78419915D01*
X123453160Y-78471897D01*
X123414916Y-78564004D01*
X123374833Y-78657847D01*
X123311273Y-78777534D01*
X123237113Y-78901400D01*
X123165225Y-79007776D01*
X123114962Y-79068824D01*
X123071719Y-79101635D01*
X123021691Y-79106861D01*
X122945455Y-79083672D01*
X122886515Y-79059025D01*
X122700515Y-78972798D01*
X122566668Y-78895809D01*
X122475996Y-78820121D01*
X122419518Y-78737797D01*
X122388256Y-78640901D01*
X122383480Y-78614424D01*
X122373776Y-78529859D01*
X122385307Y-78486903D01*
X122425243Y-78465242D01*
X122437402Y-78461641D01*
X122569226Y-78412873D01*
X122672290Y-78352599D01*
X122709803Y-78317500D01*
X122737418Y-78253882D01*
X122748463Y-78169119D01*
X122742021Y-78090853D01*
X122718750Y-78047625D01*
X122687878Y-78001195D01*
X122692918Y-77944507D01*
X122728375Y-77907527D01*
X122744966Y-77904750D01*
X122829227Y-77874801D01*
X122895172Y-77788503D01*
X122939620Y-77651175D01*
X122953783Y-77555500D01*
X122971434Y-77416181D01*
X122995136Y-77275083D01*
X123012216Y-77194867D01*
X123037656Y-77106642D01*
X123071293Y-77050641D01*
X123130411Y-77008103D01*
X123225698Y-76963175D01*
X123403756Y-76873500D01*
X123562254Y-76772523D01*
X123691821Y-76668063D01*
X123783090Y-76567943D01*
X123826689Y-76479982D01*
X123827809Y-76470367D01*
X123721306Y-76470367D01*
X123693017Y-76518150D01*
X123609271Y-76547849D01*
X123548665Y-76557786D01*
X123427415Y-76585185D01*
X123291525Y-76632101D01*
X123221735Y-76663184D01*
X123138011Y-76707198D01*
X123081993Y-76748626D01*
X123041288Y-76803618D01*
X123003504Y-76888320D01*
X122962639Y-77000794D01*
X122909233Y-77182329D01*
X122868244Y-77379145D01*
X122851514Y-77507503D01*
X122838596Y-77635901D01*
X122823988Y-77713944D01*
X122803486Y-77754730D01*
X122772887Y-77771353D01*
X122766375Y-77772719D01*
X122691661Y-77803043D01*
X122644691Y-77835946D01*
X122611397Y-77879646D01*
X122600246Y-77941401D01*
X122611029Y-78035509D01*
X122639954Y-78162199D01*
X122644716Y-78229759D01*
X122612207Y-78258971D01*
X122538225Y-78250103D01*
X122418566Y-78203424D01*
X122367898Y-78179555D01*
X122210104Y-78114006D01*
X122058463Y-78079552D01*
X121932938Y-78068387D01*
X121810903Y-78064425D01*
X121739979Y-78069340D01*
X121708170Y-78084970D01*
X121702750Y-78103614D01*
X121728280Y-78155032D01*
X121797610Y-78228954D01*
X121899855Y-78315613D01*
X122024131Y-78405238D01*
X122076598Y-78439122D01*
X122146803Y-78486802D01*
X122187022Y-78532430D01*
X122200448Y-78591495D01*
X122190279Y-78679484D01*
X122159709Y-78811885D01*
X122156319Y-78825500D01*
X122135487Y-78892376D01*
X122118312Y-78901920D01*
X122107166Y-78881062D01*
X122066070Y-78831976D01*
X122015273Y-78835410D01*
X121975022Y-78887889D01*
X121969850Y-78904631D01*
X121943541Y-78961433D01*
X121893063Y-78968893D01*
X121875002Y-78964942D01*
X121820902Y-78962196D01*
X121780554Y-78996313D01*
X121745502Y-79060435D01*
X121708764Y-79132384D01*
X121683791Y-79172049D01*
X121680167Y-79174750D01*
X121650884Y-79158232D01*
X121581164Y-79113877D01*
X121483129Y-79049485D01*
X121421098Y-79008062D01*
X121129372Y-78797261D01*
X120893727Y-78592637D01*
X120708037Y-78387617D01*
X120566174Y-78175629D01*
X120481508Y-78000000D01*
X120431672Y-77879588D01*
X120384998Y-77769059D01*
X120354254Y-77698375D01*
X120330899Y-77617447D01*
X120308674Y-77489285D01*
X120289418Y-77330151D01*
X120274969Y-77156308D01*
X120267165Y-76984018D01*
X120266319Y-76920500D01*
X120269091Y-76770876D01*
X120277222Y-76596989D01*
X120289410Y-76415013D01*
X120304358Y-76241123D01*
X120320766Y-76091495D01*
X120337334Y-75982302D01*
X120344100Y-75952125D01*
X120366777Y-75846894D01*
X120387863Y-75714972D01*
X120397557Y-75634625D01*
X120416875Y-75444125D01*
X120587166Y-75659334D01*
X120685805Y-75776393D01*
X120755098Y-75837773D01*
X120798185Y-75842358D01*
X120818206Y-75789031D01*
X120818302Y-75676673D01*
X120810058Y-75580025D01*
X120780823Y-75287487D01*
X120757567Y-75037787D01*
X120740603Y-74834974D01*
X120731054Y-74694974D01*
X119411919Y-74694974D01*
X119411409Y-74770891D01*
X119403116Y-74878617D01*
X119388542Y-75002768D01*
X119369191Y-75127960D01*
X119347614Y-75234432D01*
X119310962Y-75378301D01*
X119277848Y-75472490D01*
X119240467Y-75529797D01*
X119191014Y-75563020D01*
X119136116Y-75581231D01*
X118991462Y-75612675D01*
X118886908Y-75613502D01*
X118804904Y-75579718D01*
X118727900Y-75507326D01*
X118708252Y-75483812D01*
X118626314Y-75370375D01*
X118546859Y-75241004D01*
X118519784Y-75190125D01*
X118471275Y-75086938D01*
X118416002Y-74960564D01*
X118359060Y-74823872D01*
X118305548Y-74689733D01*
X118260562Y-74571017D01*
X118229199Y-74480594D01*
X118216557Y-74431336D01*
X118217308Y-74426358D01*
X118239327Y-74444641D01*
X118286304Y-74504269D01*
X118348860Y-74593170D01*
X118361190Y-74611557D01*
X118516164Y-74824391D01*
X118657870Y-74977826D01*
X118785591Y-75071526D01*
X118898611Y-75105154D01*
X118996213Y-75078374D01*
X119077683Y-74990851D01*
X119096774Y-74956855D01*
X119149046Y-74878935D01*
X119223421Y-74795686D01*
X119303447Y-74722711D01*
X119372676Y-74675612D01*
X119403142Y-74666250D01*
X119411919Y-74694974D01*
X120731054Y-74694974D01*
X120730243Y-74683095D01*
X120726799Y-74586199D01*
X120730530Y-74548387D01*
X120758507Y-74562070D01*
X120820325Y-74612282D01*
X120905482Y-74690098D01*
X120962934Y-74745855D01*
X121106737Y-74883567D01*
X121238156Y-74995625D01*
X121366820Y-75085754D01*
X121502357Y-75157677D01*
X121654396Y-75215117D01*
X121832566Y-75261799D01*
X122046495Y-75301445D01*
X122305812Y-75337779D01*
X122575875Y-75369598D01*
X122751824Y-75392251D01*
X122870522Y-75415372D01*
X122938196Y-75441082D01*
X122961074Y-75471506D01*
X122952907Y-75498171D01*
X122960730Y-75522095D01*
X122970877Y-75523500D01*
X122996148Y-75550659D01*
X123004500Y-75602875D01*
X123015369Y-75662543D01*
X123036250Y-75682250D01*
X123060948Y-75671465D01*
X123074381Y-75629160D01*
X123080792Y-75540402D01*
X123081369Y-75523500D01*
X123100053Y-75459887D01*
X123143635Y-75444125D01*
X123184665Y-75461292D01*
X123222001Y-75519925D01*
X123261904Y-75628869D01*
X123386974Y-75934142D01*
X123556956Y-76212306D01*
X123619039Y-76292155D01*
X123696020Y-76397402D01*
X123721306Y-76470367D01*
X123827809Y-76470367D01*
X123829070Y-76459542D01*
X123810150Y-76402515D01*
X123759970Y-76318186D01*
X123699690Y-76237767D01*
X123526572Y-75985041D01*
X123382004Y-75682652D01*
X123325022Y-75525147D01*
X123282747Y-75389689D01*
X123264934Y-75300567D01*
X123277732Y-75254301D01*
X123327293Y-75247408D01*
X123419769Y-75276409D01*
X123561309Y-75337824D01*
X123613704Y-75361793D01*
X123851764Y-75462939D01*
X124090220Y-75549325D01*
X124313364Y-75616002D01*
X124505485Y-75658018D01*
X124586644Y-75668372D01*
X124719868Y-75679682D01*
X124848194Y-75690715D01*
X124925375Y-75697459D01*
X125039685Y-75705120D01*
X125169919Y-75710504D01*
X125206721Y-75711354D01*
X125361067Y-75714000D01*
X125339728Y-75827750D01*
X125338820Y-75944012D01*
X125386406Y-76042131D01*
X125486652Y-76126174D01*
X125643723Y-76200207D01*
X125762067Y-76240029D01*
X125878833Y-76267912D01*
X125993475Y-76283788D01*
X126025171Y-76285156D01*
X126122359Y-76300585D01*
X126202231Y-76337613D01*
X126206538Y-76341062D01*
X126238589Y-76387641D01*
X126288790Y-76485032D01*
X126353157Y-76624530D01*
X126427703Y-76797430D01*
X126508443Y-76995027D01*
X126524325Y-77035075D01*
X126603587Y-77232388D01*
X126680460Y-77417318D01*
X126750178Y-77578882D01*
X126807974Y-77706101D01*
X126849082Y-77787993D01*
X126856735Y-77800960D01*
X126932735Y-77893246D01*
X127035474Y-77984523D01*
X127090153Y-78022498D01*
X127199982Y-78081739D01*
X127333231Y-78141693D01*
X127470951Y-78195118D01*
X127594188Y-78234776D01*
X127683992Y-78253427D01*
X127696160Y-78254000D01*
X127758571Y-78268465D01*
X127845072Y-78304485D01*
X127870543Y-78317500D01*
X127979591Y-78359488D01*
X128094212Y-78380457D01*
X128111165Y-78381000D01*
X128185187Y-78387243D01*
X128244565Y-78413851D01*
X128308681Y-78472641D01*
X128362548Y-78534267D01*
X128491785Y-78687535D01*
X128497493Y-79304205D01*
X128498647Y-79470199D01*
X128499583Y-79689314D01*
X128500286Y-79951176D01*
X128500744Y-80245405D01*
X128500943Y-80561625D01*
X133134209Y-80561625D01*
X133113524Y-80543017D01*
X132830683Y-80278756D01*
X132585711Y-80038842D01*
X132416387Y-79862969D01*
X132248954Y-79663671D01*
X132114416Y-79464253D01*
X132018273Y-79274796D01*
X131966030Y-79105382D01*
X131958000Y-79023202D01*
X131951924Y-78902737D01*
X131928418Y-78832641D01*
X131879569Y-78800500D01*
X131811729Y-78793750D01*
X131712289Y-78772618D01*
X131628909Y-78719083D01*
X131581469Y-78647934D01*
X131577000Y-78619125D01*
X131555577Y-78585688D01*
X131484932Y-78572202D01*
X131452646Y-78571500D01*
X131370650Y-78563191D01*
X131321045Y-78542534D01*
X131316287Y-78535485D01*
X131287444Y-78518759D01*
X131211465Y-78512604D01*
X131082085Y-78516762D01*
X130998002Y-78522434D01*
X130691721Y-78545397D01*
X130744547Y-78661636D01*
X130820376Y-78801791D01*
X130929348Y-78967055D01*
X131043667Y-79119250D01*
X131113243Y-79206625D01*
X131056741Y-79484375D01*
X131027044Y-79629989D01*
X130998341Y-79770114D01*
X130975748Y-79879784D01*
X130971321Y-79901120D01*
X130911313Y-80093963D01*
X130821164Y-80259214D01*
X130710064Y-80380753D01*
X130688923Y-80396485D01*
X130612072Y-80445368D01*
X130555347Y-80473674D01*
X130543351Y-80476500D01*
X130500061Y-80454091D01*
X130426932Y-80394119D01*
X130335179Y-80307464D01*
X130236018Y-80205009D01*
X130140661Y-80097633D01*
X130093890Y-80040408D01*
X130000452Y-79903499D01*
X129945855Y-79782846D01*
X129933458Y-79687867D01*
X129951641Y-79641762D01*
X129980786Y-79586400D01*
X130008323Y-79508125D01*
X129132250Y-79508125D01*
X129116375Y-79524000D01*
X129100500Y-79508125D01*
X129116375Y-79492250D01*
X129132250Y-79508125D01*
X130008323Y-79508125D01*
X130010382Y-79502273D01*
X130013228Y-79492142D01*
X130043381Y-79420903D01*
X130101657Y-79313742D01*
X130137884Y-79254125D01*
X128910000Y-79254125D01*
X128894125Y-79270000D01*
X128878250Y-79254125D01*
X128894125Y-79238250D01*
X128910000Y-79254125D01*
X130137884Y-79254125D01*
X130179108Y-79186287D01*
X130250496Y-79077816D01*
X130356161Y-78920825D01*
X130427573Y-78806909D01*
X130462069Y-78738870D01*
X130338750Y-78738870D01*
X130322871Y-78784033D01*
X130283468Y-78856530D01*
X130232900Y-78937053D01*
X130183522Y-79006293D01*
X130147691Y-79044941D01*
X130141128Y-79047693D01*
X130113035Y-79022316D01*
X130073256Y-78959682D01*
X130065261Y-78944562D01*
X130025365Y-78872235D01*
X129995924Y-78828380D01*
X129993008Y-78825500D01*
X129964819Y-78787926D01*
X129924599Y-78720684D01*
X129886331Y-78648964D01*
X129864001Y-78597957D01*
X129862500Y-78590413D01*
X129887828Y-78572337D01*
X129902188Y-78570794D01*
X129953753Y-78552139D01*
X130021250Y-78508668D01*
X130100625Y-78447249D01*
X130219688Y-78576887D01*
X130285540Y-78654023D01*
X130328779Y-78715092D01*
X130338750Y-78738870D01*
X130462069Y-78738870D01*
X130467725Y-78727716D01*
X130479615Y-78674896D01*
X130466237Y-78640097D01*
X130430587Y-78614968D01*
X130418582Y-78609234D01*
X130348951Y-78561970D01*
X130339077Y-78518000D01*
X130385485Y-78486463D01*
X130469147Y-78476250D01*
X130550715Y-78472440D01*
X130582402Y-78456426D01*
X130577603Y-78421328D01*
X130577348Y-78420687D01*
X130546015Y-78302389D01*
X130523646Y-78136911D01*
X130510457Y-77939969D01*
X130506665Y-77727277D01*
X130512487Y-77514552D01*
X130528140Y-77317508D01*
X130553842Y-77151860D01*
X130559484Y-77126875D01*
X130570779Y-77053377D01*
X130582848Y-76929550D01*
X130595225Y-76765847D01*
X130607441Y-76572724D01*
X130613665Y-76458823D01*
X130505642Y-76458823D01*
X130493792Y-76729195D01*
X130467497Y-77039149D01*
X130437692Y-77296340D01*
X130402005Y-77511494D01*
X130358065Y-77695338D01*
X130303497Y-77858598D01*
X130235931Y-78012001D01*
X130190883Y-78098792D01*
X130081823Y-78266776D01*
X129966468Y-78376546D01*
X129837868Y-78433381D01*
X129736012Y-78444500D01*
X129635982Y-78439346D01*
X129572226Y-78415958D01*
X129517831Y-78362443D01*
X129500657Y-78340499D01*
X129446587Y-78258090D01*
X129381521Y-78142607D01*
X129320460Y-78020939D01*
X129219587Y-77805380D01*
X129242220Y-77418502D01*
X129257805Y-77187740D01*
X129275913Y-77008486D01*
X129299291Y-76868749D01*
X129330685Y-76756539D01*
X129372843Y-76659863D01*
X129428513Y-76566731D01*
X129441897Y-76546909D01*
X129508422Y-76449063D01*
X129563593Y-76366463D01*
X129592625Y-76321499D01*
X129630289Y-76266271D01*
X129689715Y-76185179D01*
X129722019Y-76142625D01*
X129794555Y-76042971D01*
X129860895Y-75943345D01*
X129879677Y-75912437D01*
X129939128Y-75836888D01*
X130009337Y-75810025D01*
X130028096Y-75809250D01*
X130096313Y-75789269D01*
X130119792Y-75742448D01*
X130097019Y-75688467D01*
X130040238Y-75651683D01*
X129997429Y-75627217D01*
X129962217Y-75582946D01*
X129929123Y-75507317D01*
X129892668Y-75388775D01*
X129863451Y-75278881D01*
X129823929Y-75174981D01*
X129765208Y-75074980D01*
X129699660Y-74995833D01*
X129639657Y-74954495D01*
X129624911Y-74952000D01*
X129576777Y-74972220D01*
X129508673Y-75022465D01*
X129489825Y-75039312D01*
X129374107Y-75144332D01*
X129258542Y-75244292D01*
X129153896Y-75330415D01*
X129070936Y-75393922D01*
X129020426Y-75426036D01*
X129012804Y-75428250D01*
X128974881Y-75405655D01*
X128910162Y-75347081D01*
X128849855Y-75285375D01*
X127204738Y-75285375D01*
X127181585Y-75444125D01*
X127163106Y-75539455D01*
X127133105Y-75663102D01*
X127097084Y-75795441D01*
X127060543Y-75916849D01*
X127028985Y-76007701D01*
X127014699Y-76039437D01*
X126996842Y-76057776D01*
X126968790Y-76053144D01*
X126921701Y-76019513D01*
X126846732Y-75950860D01*
X126759792Y-75865729D01*
X126647994Y-75749389D01*
X126584136Y-75667859D01*
X126566225Y-75616717D01*
X126592270Y-75591542D01*
X126634220Y-75587000D01*
X126765248Y-75565903D01*
X126911330Y-75510748D01*
X127044016Y-75433732D01*
X127100303Y-75387133D01*
X127204738Y-75285375D01*
X128849855Y-75285375D01*
X128831257Y-75266346D01*
X128750775Y-75177263D01*
X128681325Y-75093651D01*
X128635517Y-75029325D01*
X128624250Y-75002503D01*
X128650357Y-74941627D01*
X128723929Y-74855584D01*
X128837849Y-74751649D01*
X128973538Y-74645477D01*
X129098288Y-74550614D01*
X129174119Y-74483772D01*
X129205879Y-74439184D01*
X129198412Y-74411081D01*
X129179312Y-74400552D01*
X129114835Y-74406194D01*
X129021853Y-74452820D01*
X128910573Y-74531081D01*
X128791200Y-74631625D01*
X128673941Y-74745103D01*
X128569003Y-74862162D01*
X128486593Y-74973454D01*
X128436918Y-75069628D01*
X128432114Y-75085075D01*
X128398588Y-75209582D01*
X128339366Y-75158375D01*
X127168744Y-75158375D01*
X126928122Y-75147929D01*
X126813641Y-75140265D01*
X126728701Y-75129447D01*
X126688738Y-75117569D01*
X126687500Y-75115261D01*
X126708131Y-75083722D01*
X126761973Y-75023220D01*
X126836952Y-74945580D01*
X126920992Y-74862630D01*
X127002019Y-74786197D01*
X127067959Y-74728107D01*
X127106735Y-74700187D01*
X127111699Y-74699777D01*
X127121126Y-74736122D01*
X127133460Y-74818375D01*
X127146123Y-74929179D01*
X127146814Y-74936125D01*
X127168744Y-75158375D01*
X128339366Y-75158375D01*
X128281232Y-75108109D01*
X128191618Y-75022947D01*
X128092722Y-74917844D01*
X128043063Y-74860255D01*
X127968492Y-74769866D01*
X127903783Y-74691368D01*
X127873613Y-74654724D01*
X127847693Y-74616271D01*
X127848461Y-74585105D01*
X127884147Y-74554269D01*
X127962980Y-74516806D01*
X128093192Y-74465759D01*
X128100375Y-74463037D01*
X128237616Y-74410355D01*
X128350620Y-74364654D01*
X128460596Y-74316754D01*
X128588750Y-74257478D01*
X128723551Y-74193335D01*
X128902496Y-74119566D01*
X129053483Y-74089414D01*
X129195294Y-74103513D01*
X129346713Y-74162496D01*
X129446699Y-74217736D01*
X129551598Y-74278714D01*
X129634784Y-74324572D01*
X129681952Y-74347501D01*
X129686741Y-74348749D01*
X129737961Y-74369053D01*
X129818705Y-74421737D01*
X129913416Y-74494458D01*
X130006539Y-74574874D01*
X130082516Y-74650644D01*
X130110969Y-74685325D01*
X130227743Y-74886985D01*
X130326676Y-75139873D01*
X130405852Y-75433744D01*
X130463350Y-75758356D01*
X130497253Y-76103464D01*
X130505642Y-76458823D01*
X130613665Y-76458823D01*
X130619031Y-76360636D01*
X130629526Y-76140037D01*
X130638462Y-75921383D01*
X130645369Y-75715129D01*
X130649782Y-75531729D01*
X130651233Y-75381638D01*
X130649257Y-75275312D01*
X130644357Y-75226435D01*
X130612621Y-75163193D01*
X130550195Y-75077792D01*
X130492301Y-75012036D01*
X130426908Y-74932121D01*
X130351147Y-74822309D01*
X130273773Y-74697666D01*
X130203540Y-74573256D01*
X130149202Y-74464144D01*
X130119514Y-74385395D01*
X130116500Y-74365369D01*
X130091012Y-74334616D01*
X130025450Y-74284820D01*
X129936174Y-74226054D01*
X129839539Y-74168394D01*
X129751904Y-74121916D01*
X129689626Y-74096693D01*
X129677133Y-74094749D01*
X129642296Y-74115785D01*
X129640250Y-74126036D01*
X129614496Y-74131124D01*
X129549620Y-74116286D01*
X129464202Y-74088105D01*
X129376822Y-74053164D01*
X129306061Y-74018047D01*
X129276713Y-73997229D01*
X129223303Y-73973799D01*
X129172009Y-73967750D01*
X129098277Y-73945221D01*
X129027067Y-73891785D01*
X128981613Y-73849738D01*
X128932641Y-73830092D01*
X128859116Y-73828452D01*
X128766645Y-73837357D01*
X128576625Y-73858894D01*
X128697332Y-73900452D01*
X128770469Y-73933335D01*
X128806811Y-73965103D01*
X128807606Y-73973307D01*
X128775446Y-73998583D01*
X128698011Y-74040111D01*
X128589086Y-74090806D01*
X128528150Y-74116949D01*
X128292188Y-74215783D01*
X128107150Y-74294729D01*
X127965295Y-74358198D01*
X127858880Y-74410601D01*
X127780162Y-74456348D01*
X127721399Y-74499850D01*
X127674848Y-74545518D01*
X127632768Y-74597763D01*
X127597025Y-74647390D01*
X127573814Y-74672676D01*
X127549058Y-74671943D01*
X127514181Y-74637638D01*
X127460604Y-74562208D01*
X127406618Y-74479712D01*
X127339548Y-74373042D01*
X127288406Y-74286008D01*
X127261308Y-74232654D01*
X127259000Y-74224293D01*
X127286793Y-74201382D01*
X127355484Y-74179322D01*
X127374034Y-74175486D01*
X127465710Y-74153189D01*
X127535928Y-74127577D01*
X127540722Y-74125052D01*
X127594661Y-74101700D01*
X127690220Y-74066249D01*
X127808449Y-74025671D01*
X127830500Y-74018417D01*
X127972685Y-73969185D01*
X128107057Y-73917755D01*
X128223668Y-73868619D01*
X128312570Y-73826269D01*
X128363815Y-73795196D01*
X128367453Y-73779893D01*
X128360571Y-73779078D01*
X128298889Y-73765268D01*
X128207346Y-73732290D01*
X128158347Y-73711231D01*
X128040987Y-73668467D01*
X127919599Y-73640013D01*
X127882276Y-73635494D01*
X127766677Y-73617772D01*
X127640401Y-73585617D01*
X127608250Y-73574974D01*
X127505122Y-73539864D01*
X127447915Y-73527178D01*
X127423255Y-73536628D01*
X127417763Y-73567927D01*
X127417750Y-73570875D01*
X127390814Y-73609523D01*
X127348959Y-73618500D01*
X127298328Y-73624033D01*
X127303792Y-73637057D01*
X127359260Y-73652208D01*
X127393311Y-73657560D01*
X127464835Y-73673683D01*
X127501217Y-73691382D01*
X127547858Y-73709226D01*
X127595793Y-73713750D01*
X127660910Y-73726278D01*
X127687626Y-73745500D01*
X127729845Y-73766971D01*
X127806785Y-73777126D01*
X127816499Y-73777250D01*
X127889219Y-73784099D01*
X127924985Y-73800904D01*
X127925750Y-73804078D01*
X127897535Y-73824250D01*
X127820793Y-73859098D01*
X127707387Y-73903657D01*
X127575030Y-73950957D01*
X127423119Y-74006188D01*
X127282545Y-74063059D01*
X127170793Y-74114170D01*
X127113245Y-74146379D01*
X127037377Y-74193348D01*
X126981913Y-74219689D01*
X126971841Y-74221749D01*
X126942139Y-74241945D01*
X126941500Y-74247121D01*
X126914698Y-74273204D01*
X126848334Y-74305805D01*
X126828989Y-74313178D01*
X126742823Y-74331761D01*
X126643665Y-74335778D01*
X126551297Y-74326898D01*
X126485505Y-74306793D01*
X126465250Y-74282459D01*
X126438634Y-74258922D01*
X126401750Y-74253500D01*
X126353665Y-74245569D01*
X126343956Y-74215767D01*
X126374036Y-74155082D01*
X126429565Y-74075701D01*
X126538060Y-73944871D01*
X126661671Y-73821380D01*
X126785266Y-73718608D01*
X126893716Y-73649936D01*
X126926843Y-73635895D01*
X126996531Y-73607535D01*
X127015282Y-73580449D01*
X126994417Y-73540992D01*
X126933062Y-73499773D01*
X126891456Y-73503391D01*
X126832440Y-73538516D01*
X126743669Y-73610503D01*
X126636877Y-73708141D01*
X126523797Y-73820218D01*
X126416163Y-73935525D01*
X126325707Y-74042851D01*
X126322375Y-74047125D01*
X126227869Y-74162870D01*
X126118824Y-74288038D01*
X126055550Y-74356687D01*
X125971426Y-74440078D01*
X125907110Y-74485600D01*
X125841969Y-74504340D01*
X125774880Y-74507500D01*
X125668235Y-74518169D01*
X125536694Y-74545703D01*
X125444362Y-74572646D01*
X125250976Y-74637793D01*
X125132836Y-74559611D01*
X125043329Y-74481303D01*
X124944431Y-74365755D01*
X124851852Y-74234058D01*
X124781304Y-74107300D01*
X124762879Y-74063000D01*
X124723355Y-73978005D01*
X124662016Y-73872223D01*
X124589175Y-73760612D01*
X124515148Y-73658132D01*
X124450252Y-73579743D01*
X124404800Y-73540405D01*
X124401681Y-73539182D01*
X124345562Y-73505259D01*
X124329289Y-73482353D01*
X124338589Y-73441107D01*
X124374287Y-73358568D01*
X124429518Y-73247533D01*
X124497416Y-73120801D01*
X124571116Y-72991167D01*
X124643750Y-72871430D01*
X124708454Y-72774387D01*
X124711063Y-72770767D01*
X124757257Y-72700408D01*
X124781228Y-72651113D01*
X124782184Y-72645223D01*
X124793189Y-72607486D01*
X124823638Y-72522167D01*
X124869319Y-72400612D01*
X124926020Y-72254170D01*
X124948244Y-72197737D01*
X125014631Y-72029226D01*
X125066474Y-71908695D01*
X125115165Y-71826163D01*
X125172093Y-71771648D01*
X125248651Y-71735167D01*
X125356230Y-71706740D01*
X125506220Y-71676385D01*
X125554105Y-71666837D01*
X125815571Y-71598832D01*
X126019833Y-71511799D01*
X126165102Y-71406534D01*
X126184716Y-71385859D01*
X126235897Y-71314006D01*
X126267956Y-71226034D01*
X126288306Y-71100163D01*
X126291170Y-71073077D01*
X126301821Y-70862212D01*
X126295472Y-70635231D01*
X126274115Y-70408628D01*
X126239745Y-70198899D01*
X126194354Y-70022536D01*
X126151418Y-69916502D01*
X126074597Y-69809157D01*
X125947470Y-69687151D01*
X125767599Y-69548574D01*
X125532546Y-69391516D01*
X125300370Y-69249642D01*
X125142827Y-69154936D01*
X125002795Y-69068069D01*
X124890223Y-68995426D01*
X124815064Y-68943393D01*
X124789076Y-68921548D01*
X124724735Y-68878217D01*
X124677951Y-68866380D01*
X124620329Y-68850311D01*
X124522411Y-68811567D01*
X124400231Y-68756786D01*
X124322125Y-68719069D01*
X124193438Y-68656448D01*
X124080210Y-68603606D01*
X123998308Y-68567835D01*
X123970935Y-68557640D01*
X123935529Y-68529562D01*
X123886317Y-68459900D01*
X123820674Y-68344092D01*
X123735972Y-68177578D01*
X123653510Y-68006451D01*
X123510417Y-67707341D01*
X123389089Y-67460883D01*
X123285999Y-67261481D01*
X123197620Y-67103541D01*
X123120426Y-66981468D01*
X123050888Y-66889668D01*
X122985480Y-66822546D01*
X122920675Y-66774508D01*
X122855859Y-66741195D01*
X122769634Y-66696224D01*
X122735239Y-66660017D01*
X122755511Y-66637862D01*
X122798125Y-66633500D01*
X122853302Y-66623624D01*
X122861625Y-66601750D01*
X122822426Y-66587982D01*
X122733000Y-66578003D01*
X122606501Y-66571708D01*
X122456084Y-66568994D01*
X122294901Y-66569754D01*
G36*
X127302758Y-86463349D02*
X127286120Y-86476363D01*
X127211375Y-86538637D01*
X127295291Y-86539693D01*
X127364114Y-86524722D01*
X127397092Y-86494141D01*
X127400572Y-86443312D01*
X127365142Y-86432410D01*
X127302758Y-86463349D01*
X127302758Y-86463349D01*
G37*
X127302758Y-86463349D02*
X127286120Y-86476363D01*
X127211375Y-86538637D01*
X127295291Y-86539693D01*
X127364114Y-86524722D01*
X127397092Y-86494141D01*
X127400572Y-86443312D01*
X127365142Y-86432410D01*
X127302758Y-86463349D01*
G36*
X124727981Y-73012808D02*
X124727288Y-73023187D01*
X124722729Y-73168529D01*
X124724402Y-73325752D01*
X124727288Y-73388312D01*
X124731584Y-73429981D01*
X124735145Y-73413502D01*
X124737637Y-73344227D01*
X124738723Y-73227505D01*
X124738744Y-73205750D01*
X124737903Y-73082225D01*
X124735605Y-73005327D01*
X124732186Y-72980404D01*
X124727981Y-73012808D01*
X124727981Y-73012808D01*
G37*
X124727981Y-73012808D02*
X124727288Y-73023187D01*
X124722729Y-73168529D01*
X124724402Y-73325752D01*
X124727288Y-73388312D01*
X124731584Y-73429981D01*
X124735145Y-73413502D01*
X124737637Y-73344227D01*
X124738723Y-73227505D01*
X124738744Y-73205750D01*
X124737903Y-73082225D01*
X124735605Y-73005327D01*
X124732186Y-72980404D01*
X124727981Y-73012808D01*
G36*
X124728355Y-67846370D02*
X124727081Y-67879687D01*
X124723402Y-68064318D01*
X124723065Y-68272752D01*
X124726069Y-68465378D01*
X124727081Y-68498812D01*
X124730118Y-68562190D01*
X124732805Y-68566177D01*
X124735003Y-68514884D01*
X124736575Y-68412419D01*
X124737382Y-68262892D01*
X124737461Y-68189250D01*
X124737004Y-68021686D01*
X124735728Y-67899508D01*
X124733769Y-67826822D01*
X124731265Y-67807740D01*
X124728355Y-67846370D01*
X124728355Y-67846370D01*
G37*
X124728355Y-67846370D02*
X124727081Y-67879687D01*
X124723402Y-68064318D01*
X124723065Y-68272752D01*
X124726069Y-68465378D01*
X124727081Y-68498812D01*
X124730118Y-68562190D01*
X124732805Y-68566177D01*
X124735003Y-68514884D01*
X124736575Y-68412419D01*
X124737382Y-68262892D01*
X124737461Y-68189250D01*
X124737004Y-68021686D01*
X124735728Y-67899508D01*
X124733769Y-67826822D01*
X124731265Y-67807740D01*
X124728355Y-67846370D01*
G36*
X117650069Y-68255832D02*
X117648498Y-68261291D01*
X117643850Y-68330453D01*
X117649675Y-68356541D01*
X117660098Y-68357597D01*
X117664354Y-68307893D01*
X117664311Y-68300375D01*
X117659733Y-68251132D01*
X117650069Y-68255832D01*
X117650069Y-68255832D01*
G37*
X117650069Y-68255832D02*
X117648498Y-68261291D01*
X117643850Y-68330453D01*
X117649675Y-68356541D01*
X117660098Y-68357597D01*
X117664354Y-68307893D01*
X117664311Y-68300375D01*
X117659733Y-68251132D01*
X117650069Y-68255832D01*
G36*
X120729775Y-76121070D02*
X120669720Y-76185000D01*
X120618632Y-76265370D01*
X120592376Y-76340759D01*
X120591500Y-76353485D01*
X120614920Y-76482323D01*
X120678683Y-76636403D01*
X120773040Y-76801936D01*
X120888246Y-76965134D01*
X121014553Y-77112209D01*
X121142215Y-77229372D01*
X121261485Y-77302834D01*
X121263041Y-77303484D01*
X121326422Y-77336528D01*
X121353488Y-77364113D01*
X121353500Y-77364516D01*
X121380261Y-77388253D01*
X121450509Y-77428089D01*
X121549197Y-77475513D01*
X121551938Y-77476740D01*
X121677819Y-77533487D01*
X121831922Y-77603672D01*
X121984909Y-77673922D01*
X122014193Y-77687451D01*
X122154736Y-77751310D01*
X122247816Y-77789511D01*
X122302965Y-77804392D01*
X122329715Y-77798289D01*
X122337599Y-77773540D01*
X122337750Y-77766795D01*
X122334631Y-77740549D01*
X122321176Y-77714723D01*
X122291242Y-77685787D01*
X122238684Y-77650211D01*
X122157357Y-77604464D01*
X122041118Y-77545016D01*
X121883821Y-77468337D01*
X121679322Y-77370897D01*
X121506958Y-77289464D01*
X121239321Y-77134575D01*
X121022753Y-76944966D01*
X120852487Y-76716164D01*
X120805336Y-76630683D01*
X120750302Y-76520289D01*
X120708776Y-76431960D01*
X120687621Y-76380478D01*
X120686273Y-76374255D01*
X120706975Y-76338921D01*
X120757071Y-76281699D01*
X120765806Y-76272831D01*
X120811905Y-76206261D01*
X120826032Y-76142515D01*
X120806302Y-76101163D01*
X120782933Y-76095000D01*
X120729775Y-76121070D01*
X120729775Y-76121070D01*
G37*
X120729775Y-76121070D02*
X120669720Y-76185000D01*
X120618632Y-76265370D01*
X120592376Y-76340759D01*
X120591500Y-76353485D01*
X120614920Y-76482323D01*
X120678683Y-76636403D01*
X120773040Y-76801936D01*
X120888246Y-76965134D01*
X121014553Y-77112209D01*
X121142215Y-77229372D01*
X121261485Y-77302834D01*
X121263041Y-77303484D01*
X121326422Y-77336528D01*
X121353488Y-77364113D01*
X121353500Y-77364516D01*
X121380261Y-77388253D01*
X121450509Y-77428089D01*
X121549197Y-77475513D01*
X121551938Y-77476740D01*
X121677819Y-77533487D01*
X121831922Y-77603672D01*
X121984909Y-77673922D01*
X122014193Y-77687451D01*
X122154736Y-77751310D01*
X122247816Y-77789511D01*
X122302965Y-77804392D01*
X122329715Y-77798289D01*
X122337599Y-77773540D01*
X122337750Y-77766795D01*
X122334631Y-77740549D01*
X122321176Y-77714723D01*
X122291242Y-77685787D01*
X122238684Y-77650211D01*
X122157357Y-77604464D01*
X122041118Y-77545016D01*
X121883821Y-77468337D01*
X121679322Y-77370897D01*
X121506958Y-77289464D01*
X121239321Y-77134575D01*
X121022753Y-76944966D01*
X120852487Y-76716164D01*
X120805336Y-76630683D01*
X120750302Y-76520289D01*
X120708776Y-76431960D01*
X120687621Y-76380478D01*
X120686273Y-76374255D01*
X120706975Y-76338921D01*
X120757071Y-76281699D01*
X120765806Y-76272831D01*
X120811905Y-76206261D01*
X120826032Y-76142515D01*
X120806302Y-76101163D01*
X120782933Y-76095000D01*
X120729775Y-76121070D01*
G36*
X123099750Y-75729875D02*
X123069212Y-75770466D01*
X123068000Y-75779373D01*
X123092218Y-75808394D01*
X123099750Y-75809250D01*
X123127615Y-75783406D01*
X123131500Y-75759751D01*
X123116108Y-75726888D01*
X123099750Y-75729875D01*
X123099750Y-75729875D01*
G37*
X123099750Y-75729875D02*
X123069212Y-75770466D01*
X123068000Y-75779373D01*
X123092218Y-75808394D01*
X123099750Y-75809250D01*
X123127615Y-75783406D01*
X123131500Y-75759751D01*
X123116108Y-75726888D01*
X123099750Y-75729875D01*
D14*
X136450600Y-32850000D02*
X136450600Y-44915000D01*
X136450600Y-44915000D02*
X126849400Y-44915000D01*
X126849400Y-44915000D02*
X126849400Y-32850000D01*
X99575000Y-55030000D02*
X93225000Y-55030000D01*
X93225000Y-55030000D02*
X93225000Y-57570000D01*
X93225000Y-57570000D02*
X99575000Y-57570000D01*
X99575000Y-57570000D02*
X99575000Y-55030000D01*
X91320000Y-56300000D02*
X93225000Y-56300000D01*
X101480000Y-56300000D02*
X99575000Y-56300000D01*
X105875000Y-57570000D02*
X112225000Y-57570000D01*
X112225000Y-57570000D02*
X112225000Y-55030000D01*
X112225000Y-55030000D02*
X105875000Y-55030000D01*
X105875000Y-55030000D02*
X105875000Y-57570000D01*
X114130000Y-56300000D02*
X112225000Y-56300000D01*
X103970000Y-56300000D02*
X105875000Y-56300000D01*
X55660000Y-34510000D02*
X73440000Y-34510000D01*
X73440000Y-34510000D02*
X73440000Y-64990000D01*
X73440000Y-64990000D02*
X55660000Y-64990000D01*
X55660000Y-64990000D02*
X55660000Y-34510000D01*
X70900000Y-34510000D02*
X70900000Y-37050000D01*
X70900000Y-37050000D02*
X73440000Y-37050000D01*
D15*
X134242381Y-103875714D02*
X133242381Y-103875714D01*
X133242381Y-104113809D01*
X133290000Y-104256667D01*
X133385238Y-104351905D01*
X133480476Y-104399524D01*
X133670952Y-104447143D01*
X133813810Y-104447143D01*
X134004286Y-104399524D01*
X134099524Y-104351905D01*
X134194762Y-104256667D01*
X134242381Y-104113809D01*
X134242381Y-103875714D01*
X133337619Y-104828095D02*
X133290000Y-104875714D01*
X133242381Y-104970952D01*
X133242381Y-105209048D01*
X133290000Y-105304286D01*
X133337619Y-105351905D01*
X133432857Y-105399524D01*
X133528095Y-105399524D01*
X133670952Y-105351905D01*
X134242381Y-104780476D01*
X134242381Y-105399524D01*
X133242381Y-106018571D02*
X133242381Y-106113810D01*
X133290000Y-106209048D01*
X133337619Y-106256667D01*
X133432857Y-106304286D01*
X133623333Y-106351905D01*
X133861429Y-106351905D01*
X134051905Y-106304286D01*
X134147143Y-106256667D01*
X134194762Y-106209048D01*
X134242381Y-106113810D01*
X134242381Y-106018571D01*
X134194762Y-105923333D01*
X134147143Y-105875714D01*
X134051905Y-105828095D01*
X133861429Y-105780476D01*
X133623333Y-105780476D01*
X133432857Y-105828095D01*
X133337619Y-105875714D01*
X133290000Y-105923333D01*
X133242381Y-106018571D01*
X77082381Y-103261905D02*
X76082381Y-103261905D01*
X76082381Y-103500000D01*
X76130000Y-103642858D01*
X76225238Y-103738096D01*
X76320476Y-103785715D01*
X76510952Y-103833334D01*
X76653810Y-103833334D01*
X76844286Y-103785715D01*
X76939524Y-103738096D01*
X77034762Y-103642858D01*
X77082381Y-103500000D01*
X77082381Y-103261905D01*
X76510952Y-104404762D02*
X76463333Y-104309524D01*
X76415714Y-104261905D01*
X76320476Y-104214286D01*
X76272857Y-104214286D01*
X76177619Y-104261905D01*
X76130000Y-104309524D01*
X76082381Y-104404762D01*
X76082381Y-104595239D01*
X76130000Y-104690477D01*
X76177619Y-104738096D01*
X76272857Y-104785715D01*
X76320476Y-104785715D01*
X76415714Y-104738096D01*
X76463333Y-104690477D01*
X76510952Y-104595239D01*
X76510952Y-104404762D01*
X76558571Y-104309524D01*
X76606190Y-104261905D01*
X76701429Y-104214286D01*
X76891905Y-104214286D01*
X76987143Y-104261905D01*
X77034762Y-104309524D01*
X77082381Y-104404762D01*
X77082381Y-104595239D01*
X77034762Y-104690477D01*
X76987143Y-104738096D01*
X76891905Y-104785715D01*
X76701429Y-104785715D01*
X76606190Y-104738096D01*
X76558571Y-104690477D01*
X76510952Y-104595239D01*
X96122381Y-102495714D02*
X95122381Y-102495714D01*
X95122381Y-102733809D01*
X95170000Y-102876667D01*
X95265238Y-102971905D01*
X95360476Y-103019524D01*
X95550952Y-103067143D01*
X95693810Y-103067143D01*
X95884286Y-103019524D01*
X95979524Y-102971905D01*
X96074762Y-102876667D01*
X96122381Y-102733809D01*
X96122381Y-102495714D01*
X96122381Y-104019524D02*
X96122381Y-103448095D01*
X96122381Y-103733809D02*
X95122381Y-103733809D01*
X95265238Y-103638571D01*
X95360476Y-103543333D01*
X95408095Y-103448095D01*
X95217619Y-104400476D02*
X95170000Y-104448095D01*
X95122381Y-104543333D01*
X95122381Y-104781429D01*
X95170000Y-104876667D01*
X95217619Y-104924286D01*
X95312857Y-104971905D01*
X95408095Y-104971905D01*
X95550952Y-104924286D01*
X96122381Y-104352857D01*
X96122381Y-104971905D01*
X115112381Y-102575714D02*
X114112381Y-102575714D01*
X114112381Y-102813809D01*
X114160000Y-102956667D01*
X114255238Y-103051905D01*
X114350476Y-103099524D01*
X114540952Y-103147143D01*
X114683810Y-103147143D01*
X114874286Y-103099524D01*
X114969524Y-103051905D01*
X115064762Y-102956667D01*
X115112381Y-102813809D01*
X115112381Y-102575714D01*
X115112381Y-104099524D02*
X115112381Y-103528095D01*
X115112381Y-103813809D02*
X114112381Y-103813809D01*
X114255238Y-103718571D01*
X114350476Y-103623333D01*
X114398095Y-103528095D01*
X114112381Y-104956667D02*
X114112381Y-104766190D01*
X114160000Y-104670952D01*
X114207619Y-104623333D01*
X114350476Y-104528095D01*
X114540952Y-104480476D01*
X114921905Y-104480476D01*
X115017143Y-104528095D01*
X115064762Y-104575714D01*
X115112381Y-104670952D01*
X115112381Y-104861429D01*
X115064762Y-104956667D01*
X115017143Y-105004286D01*
X114921905Y-105051905D01*
X114683810Y-105051905D01*
X114588571Y-105004286D01*
X114540952Y-104956667D01*
X114493333Y-104861429D01*
X114493333Y-104670952D01*
X114540952Y-104575714D01*
X114588571Y-104528095D01*
X114683810Y-104480476D01*
X121854286Y-97482381D02*
X121854286Y-96482381D01*
X121616191Y-96482381D01*
X121473333Y-96530000D01*
X121378095Y-96625238D01*
X121330476Y-96720476D01*
X121282857Y-96910952D01*
X121282857Y-97053810D01*
X121330476Y-97244286D01*
X121378095Y-97339524D01*
X121473333Y-97434762D01*
X121616191Y-97482381D01*
X121854286Y-97482381D01*
X120901905Y-96577619D02*
X120854286Y-96530000D01*
X120759048Y-96482381D01*
X120520952Y-96482381D01*
X120425714Y-96530000D01*
X120378095Y-96577619D01*
X120330476Y-96672857D01*
X120330476Y-96768095D01*
X120378095Y-96910952D01*
X120949524Y-97482381D01*
X120330476Y-97482381D01*
X119473333Y-96815714D02*
X119473333Y-97482381D01*
X119711429Y-96434762D02*
X119949524Y-97149048D01*
X119330476Y-97149048D01*
X142244286Y-78342381D02*
X142244286Y-77342381D01*
X142006191Y-77342381D01*
X141863333Y-77390000D01*
X141768095Y-77485238D01*
X141720476Y-77580476D01*
X141672857Y-77770952D01*
X141672857Y-77913810D01*
X141720476Y-78104286D01*
X141768095Y-78199524D01*
X141863333Y-78294762D01*
X142006191Y-78342381D01*
X142244286Y-78342381D01*
X141291905Y-77437619D02*
X141244286Y-77390000D01*
X141149048Y-77342381D01*
X140910952Y-77342381D01*
X140815714Y-77390000D01*
X140768095Y-77437619D01*
X140720476Y-77532857D01*
X140720476Y-77628095D01*
X140768095Y-77770952D01*
X141339524Y-78342381D01*
X140720476Y-78342381D01*
X140339524Y-77437619D02*
X140291905Y-77390000D01*
X140196667Y-77342381D01*
X139958571Y-77342381D01*
X139863333Y-77390000D01*
X139815714Y-77437619D01*
X139768095Y-77532857D01*
X139768095Y-77628095D01*
X139815714Y-77770952D01*
X140387143Y-78342381D01*
X139768095Y-78342381D01*
X143614286Y-97492381D02*
X143614286Y-96492381D01*
X143376191Y-96492381D01*
X143233333Y-96540000D01*
X143138095Y-96635238D01*
X143090476Y-96730476D01*
X143042857Y-96920952D01*
X143042857Y-97063810D01*
X143090476Y-97254286D01*
X143138095Y-97349524D01*
X143233333Y-97444762D01*
X143376191Y-97492381D01*
X143614286Y-97492381D01*
X142661905Y-96587619D02*
X142614286Y-96540000D01*
X142519048Y-96492381D01*
X142280952Y-96492381D01*
X142185714Y-96540000D01*
X142138095Y-96587619D01*
X142090476Y-96682857D01*
X142090476Y-96778095D01*
X142138095Y-96920952D01*
X142709524Y-97492381D01*
X142090476Y-97492381D01*
X141757143Y-96492381D02*
X141138095Y-96492381D01*
X141471429Y-96873333D01*
X141328571Y-96873333D01*
X141233333Y-96920952D01*
X141185714Y-96968571D01*
X141138095Y-97063810D01*
X141138095Y-97301905D01*
X141185714Y-97397143D01*
X141233333Y-97444762D01*
X141328571Y-97492381D01*
X141614286Y-97492381D01*
X141709524Y-97444762D01*
X141757143Y-97397143D01*
X115282381Y-83785714D02*
X114282381Y-83785714D01*
X114282381Y-84023809D01*
X114330000Y-84166667D01*
X114425238Y-84261905D01*
X114520476Y-84309524D01*
X114710952Y-84357143D01*
X114853810Y-84357143D01*
X115044286Y-84309524D01*
X115139524Y-84261905D01*
X115234762Y-84166667D01*
X115282381Y-84023809D01*
X115282381Y-83785714D01*
X115282381Y-85309524D02*
X115282381Y-84738095D01*
X115282381Y-85023809D02*
X114282381Y-85023809D01*
X114425238Y-84928571D01*
X114520476Y-84833333D01*
X114568095Y-84738095D01*
X114282381Y-86214286D02*
X114282381Y-85738095D01*
X114758571Y-85690476D01*
X114710952Y-85738095D01*
X114663333Y-85833333D01*
X114663333Y-86071429D01*
X114710952Y-86166667D01*
X114758571Y-86214286D01*
X114853810Y-86261905D01*
X115091905Y-86261905D01*
X115187143Y-86214286D01*
X115234762Y-86166667D01*
X115282381Y-86071429D01*
X115282381Y-85833333D01*
X115234762Y-85738095D01*
X115187143Y-85690476D01*
X96172381Y-83845714D02*
X95172381Y-83845714D01*
X95172381Y-84083809D01*
X95220000Y-84226667D01*
X95315238Y-84321905D01*
X95410476Y-84369524D01*
X95600952Y-84417143D01*
X95743810Y-84417143D01*
X95934286Y-84369524D01*
X96029524Y-84321905D01*
X96124762Y-84226667D01*
X96172381Y-84083809D01*
X96172381Y-83845714D01*
X96172381Y-85369524D02*
X96172381Y-84798095D01*
X96172381Y-85083809D02*
X95172381Y-85083809D01*
X95315238Y-84988571D01*
X95410476Y-84893333D01*
X95458095Y-84798095D01*
X96172381Y-86321905D02*
X96172381Y-85750476D01*
X96172381Y-86036190D02*
X95172381Y-86036190D01*
X95315238Y-85940952D01*
X95410476Y-85845714D01*
X95458095Y-85750476D01*
X77032381Y-83811905D02*
X76032381Y-83811905D01*
X76032381Y-84050000D01*
X76080000Y-84192858D01*
X76175238Y-84288096D01*
X76270476Y-84335715D01*
X76460952Y-84383334D01*
X76603810Y-84383334D01*
X76794286Y-84335715D01*
X76889524Y-84288096D01*
X76984762Y-84192858D01*
X77032381Y-84050000D01*
X77032381Y-83811905D01*
X76032381Y-84716667D02*
X76032381Y-85383334D01*
X77032381Y-84954762D01*
X45378095Y-73372381D02*
X45378095Y-72372381D01*
X45140000Y-72372381D01*
X44997142Y-72420000D01*
X44901904Y-72515238D01*
X44854285Y-72610476D01*
X44806666Y-72800952D01*
X44806666Y-72943810D01*
X44854285Y-73134286D01*
X44901904Y-73229524D01*
X44997142Y-73324762D01*
X45140000Y-73372381D01*
X45378095Y-73372381D01*
X44425714Y-72467619D02*
X44378095Y-72420000D01*
X44282857Y-72372381D01*
X44044761Y-72372381D01*
X43949523Y-72420000D01*
X43901904Y-72467619D01*
X43854285Y-72562857D01*
X43854285Y-72658095D01*
X43901904Y-72800952D01*
X44473333Y-73372381D01*
X43854285Y-73372381D01*
X57992381Y-104131905D02*
X56992381Y-104131905D01*
X56992381Y-104370000D01*
X57040000Y-104512858D01*
X57135238Y-104608096D01*
X57230476Y-104655715D01*
X57420952Y-104703334D01*
X57563810Y-104703334D01*
X57754286Y-104655715D01*
X57849524Y-104608096D01*
X57944762Y-104512858D01*
X57992381Y-104370000D01*
X57992381Y-104131905D01*
X57325714Y-105560477D02*
X57992381Y-105560477D01*
X56944762Y-105322381D02*
X57659048Y-105084286D01*
X57659048Y-105703334D01*
X65858095Y-78372381D02*
X65858095Y-77372381D01*
X65620000Y-77372381D01*
X65477142Y-77420000D01*
X65381904Y-77515238D01*
X65334285Y-77610476D01*
X65286666Y-77800952D01*
X65286666Y-77943810D01*
X65334285Y-78134286D01*
X65381904Y-78229524D01*
X65477142Y-78324762D01*
X65620000Y-78372381D01*
X65858095Y-78372381D01*
X64429523Y-77372381D02*
X64620000Y-77372381D01*
X64715238Y-77420000D01*
X64762857Y-77467619D01*
X64858095Y-77610476D01*
X64905714Y-77800952D01*
X64905714Y-78181905D01*
X64858095Y-78277143D01*
X64810476Y-78324762D01*
X64715238Y-78372381D01*
X64524761Y-78372381D01*
X64429523Y-78324762D01*
X64381904Y-78277143D01*
X64334285Y-78181905D01*
X64334285Y-77943810D01*
X64381904Y-77848571D01*
X64429523Y-77800952D01*
X64524761Y-77753333D01*
X64715238Y-77753333D01*
X64810476Y-77800952D01*
X64858095Y-77848571D01*
X64905714Y-77943810D01*
X96002381Y-64535714D02*
X95002381Y-64535714D01*
X95002381Y-64773809D01*
X95050000Y-64916667D01*
X95145238Y-65011905D01*
X95240476Y-65059524D01*
X95430952Y-65107143D01*
X95573810Y-65107143D01*
X95764286Y-65059524D01*
X95859524Y-65011905D01*
X95954762Y-64916667D01*
X96002381Y-64773809D01*
X96002381Y-64535714D01*
X96002381Y-66059524D02*
X96002381Y-65488095D01*
X96002381Y-65773809D02*
X95002381Y-65773809D01*
X95145238Y-65678571D01*
X95240476Y-65583333D01*
X95288095Y-65488095D01*
X95002381Y-66678571D02*
X95002381Y-66773810D01*
X95050000Y-66869048D01*
X95097619Y-66916667D01*
X95192857Y-66964286D01*
X95383333Y-67011905D01*
X95621429Y-67011905D01*
X95811905Y-66964286D01*
X95907143Y-66916667D01*
X95954762Y-66869048D01*
X96002381Y-66773810D01*
X96002381Y-66678571D01*
X95954762Y-66583333D01*
X95907143Y-66535714D01*
X95811905Y-66488095D01*
X95621429Y-66440476D01*
X95383333Y-66440476D01*
X95192857Y-66488095D01*
X95097619Y-66535714D01*
X95050000Y-66583333D01*
X95002381Y-66678571D01*
X115212381Y-64705714D02*
X114212381Y-64705714D01*
X114212381Y-64943809D01*
X114260000Y-65086667D01*
X114355238Y-65181905D01*
X114450476Y-65229524D01*
X114640952Y-65277143D01*
X114783810Y-65277143D01*
X114974286Y-65229524D01*
X115069524Y-65181905D01*
X115164762Y-65086667D01*
X115212381Y-64943809D01*
X115212381Y-64705714D01*
X115212381Y-66229524D02*
X115212381Y-65658095D01*
X115212381Y-65943809D02*
X114212381Y-65943809D01*
X114355238Y-65848571D01*
X114450476Y-65753333D01*
X114498095Y-65658095D01*
X114545714Y-67086667D02*
X115212381Y-67086667D01*
X114164762Y-66848571D02*
X114879048Y-66610476D01*
X114879048Y-67229524D01*
X134232381Y-64895714D02*
X133232381Y-64895714D01*
X133232381Y-65133809D01*
X133280000Y-65276667D01*
X133375238Y-65371905D01*
X133470476Y-65419524D01*
X133660952Y-65467143D01*
X133803810Y-65467143D01*
X133994286Y-65419524D01*
X134089524Y-65371905D01*
X134184762Y-65276667D01*
X134232381Y-65133809D01*
X134232381Y-64895714D01*
X134232381Y-66419524D02*
X134232381Y-65848095D01*
X134232381Y-66133809D02*
X133232381Y-66133809D01*
X133375238Y-66038571D01*
X133470476Y-65943333D01*
X133518095Y-65848095D01*
X133660952Y-66990952D02*
X133613333Y-66895714D01*
X133565714Y-66848095D01*
X133470476Y-66800476D01*
X133422857Y-66800476D01*
X133327619Y-66848095D01*
X133280000Y-66895714D01*
X133232381Y-66990952D01*
X133232381Y-67181429D01*
X133280000Y-67276667D01*
X133327619Y-67324286D01*
X133422857Y-67371905D01*
X133470476Y-67371905D01*
X133565714Y-67324286D01*
X133613333Y-67276667D01*
X133660952Y-67181429D01*
X133660952Y-66990952D01*
X133708571Y-66895714D01*
X133756190Y-66848095D01*
X133851429Y-66800476D01*
X134041905Y-66800476D01*
X134137143Y-66848095D01*
X134184762Y-66895714D01*
X134232381Y-66990952D01*
X134232381Y-67181429D01*
X134184762Y-67276667D01*
X134137143Y-67324286D01*
X134041905Y-67371905D01*
X133851429Y-67371905D01*
X133756190Y-67324286D01*
X133708571Y-67276667D01*
X133660952Y-67181429D01*
X142624286Y-59192381D02*
X142624286Y-58192381D01*
X142386191Y-58192381D01*
X142243333Y-58240000D01*
X142148095Y-58335238D01*
X142100476Y-58430476D01*
X142052857Y-58620952D01*
X142052857Y-58763810D01*
X142100476Y-58954286D01*
X142148095Y-59049524D01*
X142243333Y-59144762D01*
X142386191Y-59192381D01*
X142624286Y-59192381D01*
X141671905Y-58287619D02*
X141624286Y-58240000D01*
X141529048Y-58192381D01*
X141290952Y-58192381D01*
X141195714Y-58240000D01*
X141148095Y-58287619D01*
X141100476Y-58382857D01*
X141100476Y-58478095D01*
X141148095Y-58620952D01*
X141719524Y-59192381D01*
X141100476Y-59192381D01*
X140148095Y-59192381D02*
X140719524Y-59192381D01*
X140433810Y-59192381D02*
X140433810Y-58192381D01*
X140529048Y-58335238D01*
X140624286Y-58430476D01*
X140719524Y-58478095D01*
X122334286Y-54402381D02*
X122334286Y-53402381D01*
X122096191Y-53402381D01*
X121953333Y-53450000D01*
X121858095Y-53545238D01*
X121810476Y-53640476D01*
X121762857Y-53830952D01*
X121762857Y-53973810D01*
X121810476Y-54164286D01*
X121858095Y-54259524D01*
X121953333Y-54354762D01*
X122096191Y-54402381D01*
X122334286Y-54402381D01*
X120810476Y-54402381D02*
X121381905Y-54402381D01*
X121096191Y-54402381D02*
X121096191Y-53402381D01*
X121191429Y-53545238D01*
X121286667Y-53640476D01*
X121381905Y-53688095D01*
X120477143Y-53402381D02*
X119810476Y-53402381D01*
X120239048Y-54402381D01*
X115112381Y-45645714D02*
X114112381Y-45645714D01*
X114112381Y-45883809D01*
X114160000Y-46026667D01*
X114255238Y-46121905D01*
X114350476Y-46169524D01*
X114540952Y-46217143D01*
X114683810Y-46217143D01*
X114874286Y-46169524D01*
X114969524Y-46121905D01*
X115064762Y-46026667D01*
X115112381Y-45883809D01*
X115112381Y-45645714D01*
X115112381Y-47169524D02*
X115112381Y-46598095D01*
X115112381Y-46883809D02*
X114112381Y-46883809D01*
X114255238Y-46788571D01*
X114350476Y-46693333D01*
X114398095Y-46598095D01*
X114112381Y-47502857D02*
X114112381Y-48121905D01*
X114493333Y-47788571D01*
X114493333Y-47931429D01*
X114540952Y-48026667D01*
X114588571Y-48074286D01*
X114683810Y-48121905D01*
X114921905Y-48121905D01*
X115017143Y-48074286D01*
X115064762Y-48026667D01*
X115112381Y-47931429D01*
X115112381Y-47645714D01*
X115064762Y-47550476D01*
X115017143Y-47502857D01*
X96242381Y-46121905D02*
X95242381Y-46121905D01*
X95242381Y-46360000D01*
X95290000Y-46502858D01*
X95385238Y-46598096D01*
X95480476Y-46645715D01*
X95670952Y-46693334D01*
X95813810Y-46693334D01*
X96004286Y-46645715D01*
X96099524Y-46598096D01*
X96194762Y-46502858D01*
X96242381Y-46360000D01*
X96242381Y-46121905D01*
X96242381Y-47169524D02*
X96242381Y-47360000D01*
X96194762Y-47455239D01*
X96147143Y-47502858D01*
X96004286Y-47598096D01*
X95813810Y-47645715D01*
X95432857Y-47645715D01*
X95337619Y-47598096D01*
X95290000Y-47550477D01*
X95242381Y-47455239D01*
X95242381Y-47264762D01*
X95290000Y-47169524D01*
X95337619Y-47121905D01*
X95432857Y-47074286D01*
X95670952Y-47074286D01*
X95766190Y-47121905D01*
X95813810Y-47169524D01*
X95861429Y-47264762D01*
X95861429Y-47455239D01*
X95813810Y-47550477D01*
X95766190Y-47598096D01*
X95670952Y-47645715D01*
X83888095Y-54272381D02*
X83888095Y-53272381D01*
X83650000Y-53272381D01*
X83507142Y-53320000D01*
X83411904Y-53415238D01*
X83364285Y-53510476D01*
X83316666Y-53700952D01*
X83316666Y-53843810D01*
X83364285Y-54034286D01*
X83411904Y-54129524D01*
X83507142Y-54224762D01*
X83650000Y-54272381D01*
X83888095Y-54272381D01*
X82411904Y-53272381D02*
X82888095Y-53272381D01*
X82935714Y-53748571D01*
X82888095Y-53700952D01*
X82792857Y-53653333D01*
X82554761Y-53653333D01*
X82459523Y-53700952D01*
X82411904Y-53748571D01*
X82364285Y-53843810D01*
X82364285Y-54081905D01*
X82411904Y-54177143D01*
X82459523Y-54224762D01*
X82554761Y-54272381D01*
X82792857Y-54272381D01*
X82888095Y-54224762D01*
X82935714Y-54177143D01*
X46338095Y-54262381D02*
X46338095Y-53262381D01*
X46100000Y-53262381D01*
X45957142Y-53310000D01*
X45861904Y-53405238D01*
X45814285Y-53500476D01*
X45766666Y-53690952D01*
X45766666Y-53833810D01*
X45814285Y-54024286D01*
X45861904Y-54119524D01*
X45957142Y-54214762D01*
X46100000Y-54262381D01*
X46338095Y-54262381D01*
X44814285Y-54262381D02*
X45385714Y-54262381D01*
X45100000Y-54262381D02*
X45100000Y-53262381D01*
X45195238Y-53405238D01*
X45290476Y-53500476D01*
X45385714Y-53548095D01*
X57922381Y-82561905D02*
X56922381Y-82561905D01*
X56922381Y-82800000D01*
X56970000Y-82942858D01*
X57065238Y-83038096D01*
X57160476Y-83085715D01*
X57350952Y-83133334D01*
X57493810Y-83133334D01*
X57684286Y-83085715D01*
X57779524Y-83038096D01*
X57874762Y-82942858D01*
X57922381Y-82800000D01*
X57922381Y-82561905D01*
X56922381Y-83466667D02*
X56922381Y-84085715D01*
X57303333Y-83752381D01*
X57303333Y-83895239D01*
X57350952Y-83990477D01*
X57398571Y-84038096D01*
X57493810Y-84085715D01*
X57731905Y-84085715D01*
X57827143Y-84038096D01*
X57874762Y-83990477D01*
X57922381Y-83895239D01*
X57922381Y-83609524D01*
X57874762Y-83514286D01*
X57827143Y-83466667D01*
D16*
X135883333Y-37730429D02*
X134782666Y-37730429D01*
X135375333Y-38311000D01*
X135121333Y-38311000D01*
X134952000Y-38383571D01*
X134867333Y-38456143D01*
X134782666Y-38601286D01*
X134782666Y-38964143D01*
X134867333Y-39109286D01*
X134952000Y-39181857D01*
X135121333Y-39254429D01*
X135629333Y-39254429D01*
X135798666Y-39181857D01*
X135883333Y-39109286D01*
X134020667Y-39109286D02*
X133936000Y-39181857D01*
X134020667Y-39254429D01*
X134105333Y-39181857D01*
X134020667Y-39109286D01*
X134020667Y-39254429D01*
X132327333Y-37730429D02*
X133174000Y-37730429D01*
X133258666Y-38456143D01*
X133174000Y-38383571D01*
X133004666Y-38311000D01*
X132581333Y-38311000D01*
X132412000Y-38383571D01*
X132327333Y-38456143D01*
X132242666Y-38601286D01*
X132242666Y-38964143D01*
X132327333Y-39109286D01*
X132412000Y-39181857D01*
X132581333Y-39254429D01*
X133004666Y-39254429D01*
X133174000Y-39181857D01*
X133258666Y-39109286D01*
X131480667Y-39254429D02*
X131480667Y-38238429D01*
X131480667Y-38383571D02*
X131396000Y-38311000D01*
X131226667Y-38238429D01*
X130972667Y-38238429D01*
X130803333Y-38311000D01*
X130718667Y-38456143D01*
X130718667Y-39254429D01*
X130718667Y-38456143D02*
X130634000Y-38311000D01*
X130464667Y-38238429D01*
X130210667Y-38238429D01*
X130041333Y-38311000D01*
X129956667Y-38456143D01*
X129956667Y-39254429D01*
X129110000Y-39254429D02*
X129110000Y-38238429D01*
X129110000Y-38383571D02*
X129025333Y-38311000D01*
X128856000Y-38238429D01*
X128602000Y-38238429D01*
X128432666Y-38311000D01*
X128348000Y-38456143D01*
X128348000Y-39254429D01*
X128348000Y-38456143D02*
X128263333Y-38311000D01*
X128094000Y-38238429D01*
X127840000Y-38238429D01*
X127670666Y-38311000D01*
X127586000Y-38456143D01*
X127586000Y-39254429D01*
D17*
X96085524Y-56874524D02*
X96424190Y-56269762D01*
X96666095Y-56874524D02*
X96666095Y-55604524D01*
X96279048Y-55604524D01*
X96182286Y-55665000D01*
X96133905Y-55725476D01*
X96085524Y-55846429D01*
X96085524Y-56027857D01*
X96133905Y-56148810D01*
X96182286Y-56209286D01*
X96279048Y-56269762D01*
X96666095Y-56269762D01*
X108735524Y-56874524D02*
X109074190Y-56269762D01*
X109316095Y-56874524D02*
X109316095Y-55604524D01*
X108929048Y-55604524D01*
X108832286Y-55665000D01*
X108783905Y-55725476D01*
X108735524Y-55846429D01*
X108735524Y-56027857D01*
X108783905Y-56148810D01*
X108832286Y-56209286D01*
X108929048Y-56269762D01*
X109316095Y-56269762D01*
D16*
X124457714Y-69564857D02*
X124240000Y-69637429D01*
X123877143Y-69637429D01*
X123732000Y-69564857D01*
X123659429Y-69492286D01*
X123586857Y-69347143D01*
X123586857Y-69202000D01*
X123659429Y-69056857D01*
X123732000Y-68984286D01*
X123877143Y-68911714D01*
X124167429Y-68839143D01*
X124312571Y-68766571D01*
X124385143Y-68694000D01*
X124457714Y-68548857D01*
X124457714Y-68403714D01*
X124385143Y-68258571D01*
X124312571Y-68186000D01*
X124167429Y-68113429D01*
X123804571Y-68113429D01*
X123586857Y-68186000D01*
X123078857Y-68113429D02*
X122716000Y-69637429D01*
X122425714Y-68548857D01*
X122135428Y-69637429D01*
X121772571Y-68113429D01*
X120393714Y-69637429D02*
X121264571Y-69637429D01*
X120829143Y-69637429D02*
X120829143Y-68113429D01*
X120974286Y-68331143D01*
X121119428Y-68476286D01*
X121264571Y-68548857D01*
X119522857Y-68766571D02*
X119667999Y-68694000D01*
X119740571Y-68621429D01*
X119813142Y-68476286D01*
X119813142Y-68403714D01*
X119740571Y-68258571D01*
X119667999Y-68186000D01*
X119522857Y-68113429D01*
X119232571Y-68113429D01*
X119087428Y-68186000D01*
X119014857Y-68258571D01*
X118942285Y-68403714D01*
X118942285Y-68476286D01*
X119014857Y-68621429D01*
X119087428Y-68694000D01*
X119232571Y-68766571D01*
X119522857Y-68766571D01*
X119667999Y-68839143D01*
X119740571Y-68911714D01*
X119813142Y-69056857D01*
X119813142Y-69347143D01*
X119740571Y-69492286D01*
X119667999Y-69564857D01*
X119522857Y-69637429D01*
X119232571Y-69637429D01*
X119087428Y-69564857D01*
X119014857Y-69492286D01*
X118942285Y-69347143D01*
X118942285Y-69056857D01*
X119014857Y-68911714D01*
X119087428Y-68839143D01*
X119232571Y-68766571D01*
D18*
M02*
