M48
INCH,TZ
T1C0.006
T2C0.010
T3C0.016
T4C0.039
T5C0.039
T6C0.039
T7C0.043
T8C0.050
T9C0.059
T10C0.315
T11C0.039
T12C0.067
T13C0.157
%
G90
G05
T1
X047709Y-022949
X048236Y-022941
T2
X049465Y-019291
X049472Y-020083
X049472Y-020870
X054091Y-019331
X054098Y-020122
X054098Y-020909
T3
X034665Y-019252
T4
X035953Y-022165
X039953Y-022165
X040933Y-022165
X044933Y-022165
T5
X051575Y-018898
T6
X019705Y-029686
X020059Y-022186
X021653Y-034941
X021653Y-043406
X023504Y-029704
X029153Y-035413
X029172Y-043071
X034862Y-022186
X036633Y-028012
X036672Y-042953
X036712Y-020571
X036712Y-035591
X044153Y-042992
X044172Y-020571
X044192Y-028071
X044212Y-035591
X045374Y-037204
X045965Y-022164
X051672Y-034646
X051672Y-043504
X051692Y-028169
X053386Y-029664
X053937Y-037204
X054134Y-022146
T7
X022413Y-014087
X022413Y-015087
X022413Y-016087
X022413Y-017087
X022413Y-018087
X022413Y-019087
X022413Y-020087
X022413Y-021087
X022413Y-022087
X022413Y-023087
X022413Y-024087
X022413Y-025087
X028413Y-014087
X028413Y-015087
X028413Y-016087
X028413Y-017087
X028413Y-018087
X028413Y-019087
X028413Y-020087
X028413Y-021087
X028413Y-022087
X028413Y-023087
X028413Y-024087
X028413Y-025087
X050411Y-016043
X051201Y-017263
X052461Y-017263
X053251Y-016043
T8
X015705Y-029686
X016059Y-022186
X021653Y-030941
X021653Y-039406
X027504Y-029704
X029153Y-031413
X029172Y-039071
X030862Y-022186
X036633Y-024012
X036672Y-038953
X036712Y-016571
X036712Y-031591
X044153Y-038992
X044172Y-016571
X044192Y-024071
X044212Y-031591
X049213Y-022146
X049374Y-037204
X051672Y-030646
X051672Y-039504
X051673Y-024803
X057386Y-029664
X057504Y-022145
X057937Y-037204
T10
X020413Y-014685
X021654Y-037205
X051654Y-022224
X051713Y-037224
T11
X051831Y-014073
X051831Y-016043
T12
X015913Y-018445
X015913Y-033465
X015913Y-041004
X015933Y-025965
X019913Y-018445
X019913Y-033465
X019913Y-041004
X019933Y-025965
X023413Y-018445
X023413Y-025945
X023413Y-033445
X023413Y-040945
X027413Y-018445
X027413Y-025945
X027413Y-033445
X027413Y-040945
X030913Y-018445
X030913Y-025945
X030913Y-033445
X030913Y-040945
X034913Y-018445
X034913Y-025945
X034913Y-033445
X034913Y-040945
X038413Y-018445
X038413Y-025945
X038413Y-033445
X038413Y-040945
X042413Y-018445
X042413Y-025945
X042413Y-033445
X042413Y-040945
X045913Y-018445
X045913Y-025945
X045913Y-033445
X045913Y-040945
X049913Y-018445
X049913Y-025945
X049913Y-033445
X049913Y-040945
X053413Y-018445
X053413Y-025945
X053413Y-033445
X053413Y-040945
X057413Y-018445
X057413Y-025945
X057413Y-033445
X057413Y-040945
T13
X017913Y-018445
X017913Y-033465
X017913Y-041004
X017933Y-025965
X025413Y-018445
X025413Y-025945
X025413Y-033445
X025413Y-040945
X032913Y-018445
X032913Y-025945
X032913Y-033445
X032913Y-040945
X040413Y-018445
X040413Y-025945
X040413Y-033445
X040413Y-040945
X047913Y-018445
X047913Y-025945
X047913Y-033445
X047913Y-040945
X055413Y-018445
X055413Y-025945
X055413Y-033445
X055413Y-040945
T7
X050061Y-014073G85X049941Y-014073
G05
X053721Y-014073G85X053601Y-014073
G05
T9
X016732Y-016870G85X016413Y-017445
G05
X016732Y-031890G85X016413Y-032465
G05
X016732Y-039429G85X016413Y-040004
G05
X016752Y-024390G85X016433Y-024965
G05
X016929Y-016445G85X016945Y-016673
G05
X016929Y-031465G85X016945Y-031693
G05
X016929Y-039004G85X016945Y-039232
G05
X016949Y-023965G85X016964Y-024193
G05
X018913Y-016445G85X018898Y-016673
G05
X018913Y-031465G85X018898Y-031693
G05
X018913Y-039004G85X018898Y-039232
G05
X018933Y-023965G85X018917Y-024193
G05
X019169Y-016870G85X019488Y-017445
G05
X019169Y-031890G85X019488Y-032465
G05
X019169Y-039429G85X019488Y-040004
G05
X019189Y-024390G85X019508Y-024965
G05
X024232Y-016870G85X023913Y-017445
G05
X024232Y-024370G85X023913Y-024945
G05
X024232Y-031870G85X023913Y-032445
G05
X024232Y-039370G85X023913Y-039945
G05
X024429Y-016445G85X024445Y-016673
G05
X024429Y-023945G85X024445Y-024173
G05
X024429Y-031445G85X024445Y-031673
G05
X024429Y-038945G85X024445Y-039173
G05
X026413Y-016445G85X026398Y-016673
G05
X026413Y-023945G85X026398Y-024173
G05
X026413Y-031445G85X026398Y-031673
G05
X026413Y-038945G85X026398Y-039173
G05
X026669Y-016870G85X026988Y-017445
G05
X026669Y-024370G85X026988Y-024945
G05
X026669Y-031870G85X026988Y-032445
G05
X026669Y-039370G85X026988Y-039945
G05
X031732Y-016870G85X031413Y-017445
G05
X031732Y-024370G85X031413Y-024945
G05
X031732Y-031870G85X031413Y-032445
G05
X031732Y-039370G85X031413Y-039945
G05
X031929Y-016445G85X031945Y-016673
G05
X031929Y-023945G85X031945Y-024173
G05
X031929Y-031445G85X031945Y-031673
G05
X031929Y-038945G85X031945Y-039173
G05
X033913Y-016445G85X033898Y-016673
G05
X033913Y-023945G85X033898Y-024173
G05
X033913Y-031445G85X033898Y-031673
G05
X033913Y-038945G85X033898Y-039173
G05
X034169Y-016870G85X034488Y-017445
G05
X034169Y-024370G85X034488Y-024945
G05
X034169Y-031870G85X034488Y-032445
G05
X034169Y-039370G85X034488Y-039945
G05
X039232Y-016870G85X038913Y-017445
G05
X039232Y-024370G85X038913Y-024945
G05
X039232Y-031870G85X038913Y-032445
G05
X039232Y-039370G85X038913Y-039945
G05
X039429Y-016445G85X039445Y-016673
G05
X039429Y-023945G85X039445Y-024173
G05
X039429Y-031445G85X039445Y-031673
G05
X039429Y-038945G85X039445Y-039173
G05
X041413Y-016445G85X041398Y-016673
G05
X041413Y-023945G85X041398Y-024173
G05
X041413Y-031445G85X041398Y-031673
G05
X041413Y-038945G85X041398Y-039173
G05
X041669Y-016870G85X041988Y-017445
G05
X041669Y-024370G85X041988Y-024945
G05
X041669Y-031870G85X041988Y-032445
G05
X041669Y-039370G85X041988Y-039945
G05
X046732Y-016870G85X046413Y-017445
G05
X046732Y-024370G85X046413Y-024945
G05
X046732Y-031870G85X046413Y-032445
G05
X046732Y-039370G85X046413Y-039945
G05
X046929Y-016445G85X046945Y-016673
G05
X046929Y-023945G85X046945Y-024173
G05
X046929Y-031445G85X046945Y-031673
G05
X046929Y-038945G85X046945Y-039173
G05
X048913Y-016445G85X048898Y-016673
G05
X048913Y-023945G85X048898Y-024173
G05
X048913Y-031445G85X048898Y-031673
G05
X048913Y-038945G85X048898Y-039173
G05
X049169Y-016870G85X049488Y-017445
G05
X049169Y-024370G85X049488Y-024945
G05
X049169Y-031870G85X049488Y-032445
G05
X049169Y-039370G85X049488Y-039945
G05
X054232Y-016870G85X053913Y-017445
G05
X054232Y-024370G85X053913Y-024945
G05
X054232Y-031870G85X053913Y-032445
G05
X054232Y-039370G85X053913Y-039945
G05
X054429Y-016445G85X054445Y-016673
G05
X054429Y-023945G85X054445Y-024173
G05
X054429Y-031445G85X054445Y-031673
G05
X054429Y-038945G85X054445Y-039173
G05
X056413Y-016445G85X056398Y-016673
G05
X056413Y-023945G85X056398Y-024173
G05
X056413Y-031445G85X056398Y-031673
G05
X056413Y-038945G85X056398Y-039173
G05
X056669Y-016870G85X056988Y-017445
G05
X056669Y-024370G85X056988Y-024945
G05
X056669Y-031870G85X056988Y-032445
G05
X056669Y-039370G85X056988Y-039945
G05
T0
M30
