G04 #@! TF.FileFunction,Copper,L2,Bot,Signal*
%FSLAX46Y46*%
G04 Gerber Fmt 4.6, Leading zero omitted, Abs format (unit mm)*
G04 Created by KiCad (PCBNEW 4.0.2-stable) date 10/9/2016 9:16:27 PM*
%MOMM*%
G01*
G04 APERTURE LIST*
%ADD10C,0.100000*%
%ADD11C,1.998980*%
%ADD12R,1.998980X1.998980*%
%ADD13O,2.057400X1.752600*%
%ADD14C,1.752600*%
%ADD15C,1.651000*%
%ADD16C,2.500000*%
%ADD17C,3.987810*%
%ADD18C,1.701810*%
%ADD19R,1.752600X1.752600*%
%ADD20C,2.000000*%
%ADD21R,1.524000X1.524000*%
%ADD22C,1.524000*%
%ADD23R,0.500000X1.000000*%
%ADD24R,1.000000X1.000000*%
%ADD25C,1.000000*%
%ADD26C,0.500000*%
%ADD27C,8.000000*%
%ADD28C,0.600000*%
%ADD29C,0.250000*%
%ADD30C,0.254000*%
G04 APERTURE END LIST*
D10*
D11*
X131247460Y-100340000D03*
D12*
X131247460Y-110500000D03*
D11*
X74097460Y-99240000D03*
D12*
X74097460Y-109400000D03*
D11*
X93147460Y-98940000D03*
D12*
X93147460Y-109100000D03*
D11*
X112147460Y-99040000D03*
D12*
X112147460Y-109200000D03*
D11*
X125410000Y-94497460D03*
D12*
X115250000Y-94497460D03*
D11*
X145760000Y-75347460D03*
D12*
X135600000Y-75347460D03*
D11*
X147160000Y-94497460D03*
D12*
X137000000Y-94497460D03*
D11*
X112297460Y-80240000D03*
D12*
X112297460Y-90400000D03*
D11*
X93247460Y-80240000D03*
D12*
X93247460Y-90400000D03*
D11*
X74047460Y-79790000D03*
D12*
X74047460Y-89950000D03*
D11*
X39890000Y-75402540D03*
D12*
X50050000Y-75402540D03*
D11*
X54997460Y-100090000D03*
D12*
X54997460Y-110250000D03*
D11*
X69860000Y-75447460D03*
D12*
X59700000Y-75447460D03*
D11*
X93047460Y-60990000D03*
D12*
X93047460Y-71150000D03*
D11*
X112247460Y-61140000D03*
D12*
X112247460Y-71300000D03*
D11*
X131250000Y-63000000D03*
D12*
X131297460Y-71550000D03*
D11*
X146060000Y-56247460D03*
D12*
X137500000Y-56250000D03*
D11*
X125000000Y-56250000D03*
D12*
X116750000Y-56297460D03*
D11*
X112197460Y-42090000D03*
D12*
X112197460Y-52250000D03*
D11*
X93247460Y-42090000D03*
D12*
X93247460Y-52250000D03*
D11*
X78390000Y-56352540D03*
D12*
X88550000Y-56352540D03*
D11*
X40790000Y-56352540D03*
D12*
X50950000Y-56352540D03*
D11*
X54997460Y-78590000D03*
D12*
X54997460Y-88750000D03*
D11*
X131247460Y-77840000D03*
D12*
X131247460Y-88000000D03*
D13*
X136298200Y-35745600D03*
D14*
X128043200Y-40749400D03*
X133250200Y-43848200D03*
D13*
X127001800Y-35745600D03*
D14*
X130049800Y-43848200D03*
X135256800Y-40749400D03*
D15*
X101480000Y-56300000D03*
X91320000Y-56300000D03*
X103970000Y-56300000D03*
X114130000Y-56300000D03*
D16*
X43000276Y-41770672D02*
X43039724Y-42349328D01*
X48690184Y-42849693D02*
X49499816Y-44310307D01*
D17*
X45500000Y-46850000D03*
D18*
X40420000Y-46850000D03*
X50580000Y-46850000D03*
D16*
X42500453Y-42850046D02*
X41689547Y-44309954D01*
X48039724Y-41770672D02*
X48000276Y-42349328D01*
X43050276Y-60870672D02*
X43089724Y-61449328D01*
X48740184Y-61949693D02*
X49549816Y-63410307D01*
D17*
X45550000Y-65950000D03*
D18*
X40470000Y-65950000D03*
X50630000Y-65950000D03*
D16*
X42550453Y-61950046D02*
X41739547Y-63409954D01*
X48089724Y-60870672D02*
X48050276Y-61449328D01*
X43000276Y-79920672D02*
X43039724Y-80499328D01*
X48690184Y-80999693D02*
X49499816Y-82460307D01*
D17*
X45500000Y-85000000D03*
D18*
X40420000Y-85000000D03*
X50580000Y-85000000D03*
D16*
X42500453Y-81000046D02*
X41689547Y-82459954D01*
X48039724Y-79920672D02*
X48000276Y-80499328D01*
X43000276Y-99070672D02*
X43039724Y-99649328D01*
X48690184Y-100149693D02*
X49499816Y-101610307D01*
D17*
X45500000Y-104150000D03*
D18*
X40420000Y-104150000D03*
X50580000Y-104150000D03*
D16*
X42500453Y-100150046D02*
X41689547Y-101609954D01*
X48039724Y-99070672D02*
X48000276Y-99649328D01*
X62050276Y-41770672D02*
X62089724Y-42349328D01*
X67740184Y-42849693D02*
X68549816Y-44310307D01*
D17*
X64550000Y-46850000D03*
D18*
X59470000Y-46850000D03*
X69630000Y-46850000D03*
D16*
X61550453Y-42850046D02*
X60739547Y-44309954D01*
X67089724Y-41770672D02*
X67050276Y-42349328D01*
X62050276Y-60820672D02*
X62089724Y-61399328D01*
X67740184Y-61899693D02*
X68549816Y-63360307D01*
D17*
X64550000Y-65900000D03*
D18*
X59470000Y-65900000D03*
X69630000Y-65900000D03*
D16*
X61550453Y-61900046D02*
X60739547Y-63359954D01*
X67089724Y-60820672D02*
X67050276Y-61399328D01*
X62050276Y-79870672D02*
X62089724Y-80449328D01*
X67740184Y-80949693D02*
X68549816Y-82410307D01*
D17*
X64550000Y-84950000D03*
D18*
X59470000Y-84950000D03*
X69630000Y-84950000D03*
D16*
X61550453Y-80950046D02*
X60739547Y-82409954D01*
X67089724Y-79870672D02*
X67050276Y-80449328D01*
X62050276Y-98920672D02*
X62089724Y-99499328D01*
X67740184Y-99999693D02*
X68549816Y-101460307D01*
D17*
X64550000Y-104000000D03*
D18*
X59470000Y-104000000D03*
X69630000Y-104000000D03*
D16*
X61550453Y-100000046D02*
X60739547Y-101459954D01*
X67089724Y-98920672D02*
X67050276Y-99499328D01*
X81100276Y-41770672D02*
X81139724Y-42349328D01*
X86790184Y-42849693D02*
X87599816Y-44310307D01*
D17*
X83600000Y-46850000D03*
D18*
X78520000Y-46850000D03*
X88680000Y-46850000D03*
D16*
X80600453Y-42850046D02*
X79789547Y-44309954D01*
X86139724Y-41770672D02*
X86100276Y-42349328D01*
X81100276Y-60820672D02*
X81139724Y-61399328D01*
X86790184Y-61899693D02*
X87599816Y-63360307D01*
D17*
X83600000Y-65900000D03*
D18*
X78520000Y-65900000D03*
X88680000Y-65900000D03*
D16*
X80600453Y-61900046D02*
X79789547Y-63359954D01*
X86139724Y-60820672D02*
X86100276Y-61399328D01*
X81100276Y-79870672D02*
X81139724Y-80449328D01*
X86790184Y-80949693D02*
X87599816Y-82410307D01*
D17*
X83600000Y-84950000D03*
D18*
X78520000Y-84950000D03*
X88680000Y-84950000D03*
D16*
X80600453Y-80950046D02*
X79789547Y-82409954D01*
X86139724Y-79870672D02*
X86100276Y-80449328D01*
X81100276Y-98920672D02*
X81139724Y-99499328D01*
X86790184Y-99999693D02*
X87599816Y-101460307D01*
D17*
X83600000Y-104000000D03*
D18*
X78520000Y-104000000D03*
X88680000Y-104000000D03*
D16*
X80600453Y-100000046D02*
X79789547Y-101459954D01*
X86139724Y-98920672D02*
X86100276Y-99499328D01*
X100150276Y-41770672D02*
X100189724Y-42349328D01*
X105840184Y-42849693D02*
X106649816Y-44310307D01*
D17*
X102650000Y-46850000D03*
D18*
X97570000Y-46850000D03*
X107730000Y-46850000D03*
D16*
X99650453Y-42850046D02*
X98839547Y-44309954D01*
X105189724Y-41770672D02*
X105150276Y-42349328D01*
X100150276Y-60820672D02*
X100189724Y-61399328D01*
X105840184Y-61899693D02*
X106649816Y-63360307D01*
D17*
X102650000Y-65900000D03*
D18*
X97570000Y-65900000D03*
X107730000Y-65900000D03*
D16*
X99650453Y-61900046D02*
X98839547Y-63359954D01*
X105189724Y-60820672D02*
X105150276Y-61399328D01*
X100150276Y-79870672D02*
X100189724Y-80449328D01*
X105840184Y-80949693D02*
X106649816Y-82410307D01*
D17*
X102650000Y-84950000D03*
D18*
X97570000Y-84950000D03*
X107730000Y-84950000D03*
D16*
X99650453Y-80950046D02*
X98839547Y-82409954D01*
X105189724Y-79870672D02*
X105150276Y-80449328D01*
X100150276Y-98920672D02*
X100189724Y-99499328D01*
X105840184Y-99999693D02*
X106649816Y-101460307D01*
D17*
X102650000Y-104000000D03*
D18*
X97570000Y-104000000D03*
X107730000Y-104000000D03*
D16*
X99650453Y-100000046D02*
X98839547Y-101459954D01*
X105189724Y-98920672D02*
X105150276Y-99499328D01*
X119200276Y-41770672D02*
X119239724Y-42349328D01*
X124890184Y-42849693D02*
X125699816Y-44310307D01*
D17*
X121700000Y-46850000D03*
D18*
X116620000Y-46850000D03*
X126780000Y-46850000D03*
D16*
X118700453Y-42850046D02*
X117889547Y-44309954D01*
X124239724Y-41770672D02*
X124200276Y-42349328D01*
X119200276Y-60820672D02*
X119239724Y-61399328D01*
X124890184Y-61899693D02*
X125699816Y-63360307D01*
D17*
X121700000Y-65900000D03*
D18*
X116620000Y-65900000D03*
X126780000Y-65900000D03*
D16*
X118700453Y-61900046D02*
X117889547Y-63359954D01*
X124239724Y-60820672D02*
X124200276Y-61399328D01*
X119200276Y-79870672D02*
X119239724Y-80449328D01*
X124890184Y-80949693D02*
X125699816Y-82410307D01*
D17*
X121700000Y-84950000D03*
D18*
X116620000Y-84950000D03*
X126780000Y-84950000D03*
D16*
X118700453Y-80950046D02*
X117889547Y-82409954D01*
X124239724Y-79870672D02*
X124200276Y-80449328D01*
X119200276Y-98920672D02*
X119239724Y-99499328D01*
X124890184Y-99999693D02*
X125699816Y-101460307D01*
D17*
X121700000Y-104000000D03*
D18*
X116620000Y-104000000D03*
X126780000Y-104000000D03*
D16*
X118700453Y-100000046D02*
X117889547Y-101459954D01*
X124239724Y-98920672D02*
X124200276Y-99499328D01*
X138250276Y-41770672D02*
X138289724Y-42349328D01*
X143940184Y-42849693D02*
X144749816Y-44310307D01*
D17*
X140750000Y-46850000D03*
D18*
X135670000Y-46850000D03*
X145830000Y-46850000D03*
D16*
X137750453Y-42850046D02*
X136939547Y-44309954D01*
X143289724Y-41770672D02*
X143250276Y-42349328D01*
X138250276Y-60820672D02*
X138289724Y-61399328D01*
X143940184Y-61899693D02*
X144749816Y-63360307D01*
D17*
X140750000Y-65900000D03*
D18*
X135670000Y-65900000D03*
X145830000Y-65900000D03*
D16*
X137750453Y-61900046D02*
X136939547Y-63359954D01*
X143289724Y-60820672D02*
X143250276Y-61399328D01*
X138250276Y-79870672D02*
X138289724Y-80449328D01*
X143940184Y-80949693D02*
X144749816Y-82410307D01*
D17*
X140750000Y-84950000D03*
D18*
X135670000Y-84950000D03*
X145830000Y-84950000D03*
D16*
X137750453Y-80950046D02*
X136939547Y-82409954D01*
X143289724Y-79870672D02*
X143250276Y-80449328D01*
X138250276Y-98920672D02*
X138289724Y-99499328D01*
X143940184Y-99999693D02*
X144749816Y-101460307D01*
D17*
X140750000Y-104000000D03*
D18*
X135670000Y-104000000D03*
X145830000Y-104000000D03*
D16*
X137750453Y-100000046D02*
X136939547Y-101459954D01*
X143289724Y-98920672D02*
X143250276Y-99499328D01*
D19*
X72170000Y-35780000D03*
D14*
X72170000Y-38320000D03*
X72170000Y-40860000D03*
X72170000Y-43400000D03*
X72170000Y-45940000D03*
X72170000Y-48480000D03*
X72170000Y-51020000D03*
X72170000Y-53560000D03*
X72170000Y-56100000D03*
X72170000Y-58640000D03*
X72170000Y-61180000D03*
X72170000Y-63720000D03*
X56930000Y-63720000D03*
X56930000Y-61180000D03*
X56930000Y-58640000D03*
X56930000Y-56100000D03*
X56930000Y-53560000D03*
X56930000Y-51020000D03*
X56930000Y-48480000D03*
X56930000Y-40860000D03*
X56930000Y-38320000D03*
X56930000Y-35780000D03*
X56930000Y-45940000D03*
X56930000Y-43400000D03*
D20*
X131000000Y-48000000D03*
D21*
X137400000Y-53100000D03*
X137400000Y-51100000D03*
X137400000Y-49100000D03*
D22*
X137410000Y-51110000D03*
X137390000Y-49100000D03*
X137410000Y-53110000D03*
D21*
X125650000Y-53000000D03*
X125650000Y-51000000D03*
X125650000Y-49000000D03*
D22*
X125660000Y-51010000D03*
X125640000Y-49000000D03*
X125660000Y-53010000D03*
D10*
G36*
X120918750Y-58775400D02*
X121418750Y-58275400D01*
X121418850Y-58275400D01*
X121918850Y-58775400D01*
X120918750Y-58775400D01*
X120918750Y-58775400D01*
G37*
G36*
X122058800Y-58775324D02*
X121558876Y-58275400D01*
X122058800Y-57775476D01*
X122558724Y-58275400D01*
X122058800Y-58775324D01*
X122058800Y-58775324D01*
G37*
G36*
X121918850Y-57775400D02*
X121418850Y-58275400D01*
X121418750Y-58275400D01*
X120918750Y-57775400D01*
X121918850Y-57775400D01*
X121918850Y-57775400D01*
G37*
D23*
X121168800Y-58275400D03*
D24*
X122560000Y-58270000D03*
D25*
X122520000Y-58270000D03*
D26*
X121180000Y-58290000D03*
D27*
X55000000Y-94500000D03*
X131350000Y-94550000D03*
X131200000Y-56450000D03*
X51850000Y-37300000D03*
D28*
X88050000Y-48900000D03*
D29*
X136400000Y-59550000D02*
X130200000Y-59550000D01*
X130200000Y-59550000D02*
X130150000Y-59600000D01*
X136400000Y-59550000D02*
X136350000Y-59600000D01*
X49095000Y-43580000D02*
X48330000Y-43580000D01*
X48330000Y-43580000D02*
X44550000Y-39800000D01*
X44550000Y-39800000D02*
X41700000Y-39800000D01*
X41700000Y-39800000D02*
X38750000Y-42750000D01*
X38750000Y-42750000D02*
X38750000Y-54312540D01*
X38750000Y-54312540D02*
X40790000Y-56352540D01*
X112197460Y-52250000D02*
X112702540Y-52250000D01*
X112702540Y-52250000D02*
X116750000Y-56297460D01*
X50950000Y-56352540D02*
X56677460Y-56352540D01*
X56677460Y-56352540D02*
X56930000Y-56100000D01*
X49095000Y-81730000D02*
X51857460Y-81730000D01*
X51857460Y-81730000D02*
X54997460Y-78590000D01*
X57000000Y-66000000D02*
X55500000Y-64500000D01*
X54997460Y-82252540D02*
X57000000Y-80250000D01*
X57000000Y-80250000D02*
X57000000Y-66000000D01*
X54997460Y-88750000D02*
X54997460Y-82252540D01*
X55500000Y-63000000D02*
X56930000Y-61570000D01*
X55500000Y-64500000D02*
X55500000Y-63000000D01*
X56930000Y-61570000D02*
X56930000Y-61180000D01*
X56930000Y-61180000D02*
X56320000Y-61180000D01*
X49095000Y-100880000D02*
X54207460Y-100880000D01*
X54207460Y-100880000D02*
X54997460Y-100090000D01*
X48640000Y-98740000D02*
X48020000Y-99360000D01*
X48020000Y-99360000D02*
X49095000Y-100880000D01*
X57750000Y-64540000D02*
X56930000Y-63720000D01*
X54997460Y-102752540D02*
X59500000Y-98250000D01*
X59500000Y-98250000D02*
X59500000Y-89250000D01*
X54997460Y-110250000D02*
X54997460Y-102752540D01*
X115250000Y-94497460D02*
X115250000Y-106097460D01*
X115250000Y-106097460D02*
X112147460Y-109200000D01*
X57750000Y-66250000D02*
X57750000Y-64540000D01*
X57750000Y-87500000D02*
X57750000Y-66250000D01*
X59500000Y-89250000D02*
X57750000Y-87500000D01*
X57750000Y-66250000D02*
X57750000Y-66500000D01*
X68145000Y-43580000D02*
X69880000Y-43580000D01*
X76450000Y-54412540D02*
X78390000Y-56352540D01*
X76450000Y-47000000D02*
X76450000Y-54412540D01*
X74150000Y-44700000D02*
X76450000Y-47000000D01*
X71000000Y-44700000D02*
X74150000Y-44700000D01*
X69880000Y-43580000D02*
X71000000Y-44700000D01*
X68145000Y-62630000D02*
X68145000Y-73732460D01*
X68145000Y-73732460D02*
X69860000Y-75447460D01*
X68145000Y-81680000D02*
X72157460Y-81680000D01*
X72157460Y-81680000D02*
X74047460Y-79790000D01*
X68145000Y-100730000D02*
X72607460Y-100730000D01*
X72607460Y-100730000D02*
X74097460Y-99240000D01*
X93247460Y-42090000D02*
X88685000Y-42090000D01*
X88685000Y-42090000D02*
X87195000Y-43580000D01*
X93047460Y-60990000D02*
X86240000Y-60990000D01*
X86240000Y-60990000D02*
X86120000Y-61110000D01*
X86120000Y-61110000D02*
X87195000Y-62630000D01*
X87195000Y-81680000D02*
X91807460Y-81680000D01*
X91807460Y-81680000D02*
X93247460Y-80240000D01*
X87195000Y-100730000D02*
X91357460Y-100730000D01*
X91357460Y-100730000D02*
X93147460Y-98940000D01*
X106245000Y-43580000D02*
X110707460Y-43580000D01*
X110707460Y-43580000D02*
X112197460Y-42090000D01*
X112247460Y-61140000D02*
X107735000Y-61140000D01*
X107735000Y-61140000D02*
X106245000Y-62630000D01*
X106245000Y-81680000D02*
X110857460Y-81680000D01*
X110857460Y-81680000D02*
X112297460Y-80240000D01*
X106245000Y-100730000D02*
X111370000Y-100730000D01*
X111370000Y-100730000D02*
X112147460Y-99952540D01*
X112147460Y-99952540D02*
X112147460Y-99040000D01*
X124200000Y-53500000D02*
X124200000Y-55450000D01*
X124200000Y-55450000D02*
X125000000Y-56250000D01*
X125295000Y-43580000D02*
X125295000Y-46755000D01*
X124200000Y-47850000D02*
X124200000Y-53500000D01*
X124200000Y-53500000D02*
X124200000Y-53587460D01*
X125295000Y-46755000D02*
X124200000Y-47850000D01*
X125295000Y-62630000D02*
X130880000Y-62630000D01*
X130880000Y-62630000D02*
X131250000Y-63000000D01*
X125295000Y-81680000D02*
X125320000Y-81680000D01*
X125320000Y-81680000D02*
X129160000Y-77840000D01*
X129160000Y-77840000D02*
X131247460Y-77840000D01*
X144345000Y-43580000D02*
X144345000Y-54532460D01*
X144345000Y-54532460D02*
X146060000Y-56247460D01*
X144345000Y-62630000D02*
X144345000Y-73932460D01*
X144345000Y-73932460D02*
X145760000Y-75347460D01*
X145981270Y-94018730D02*
X146681270Y-94018730D01*
X146681270Y-94018730D02*
X147160000Y-94497460D01*
X144345000Y-81680000D02*
X144345000Y-92382460D01*
X144345000Y-92382460D02*
X145981270Y-94018730D01*
X145981270Y-94018730D02*
X146110000Y-94147460D01*
X125410000Y-94497460D02*
X125410000Y-96410000D01*
X144000000Y-106000000D02*
X144000000Y-101075000D01*
X143250000Y-106750000D02*
X144000000Y-106000000D01*
X135750000Y-106750000D02*
X143250000Y-106750000D01*
X125410000Y-96410000D02*
X135750000Y-106750000D01*
X144000000Y-101075000D02*
X144345000Y-100730000D01*
X136298200Y-35745600D02*
X136298200Y-36001800D01*
X136298200Y-36001800D02*
X133650000Y-38650000D01*
X133650000Y-38650000D02*
X133650000Y-42300000D01*
X133650000Y-42300000D02*
X134900000Y-43550000D01*
X134900000Y-43550000D02*
X134900000Y-45450000D01*
X134900000Y-45450000D02*
X134100000Y-46250000D01*
X134100000Y-46250000D02*
X134100000Y-49300000D01*
X134100000Y-49300000D02*
X135900000Y-51100000D01*
X135900000Y-51100000D02*
X137400000Y-51100000D01*
X103970000Y-56300000D02*
X103970000Y-53330000D01*
X127093800Y-39800000D02*
X128043200Y-40749400D01*
X117500000Y-39800000D02*
X127093800Y-39800000D01*
X103970000Y-53330000D02*
X117500000Y-39800000D01*
X121168800Y-58275400D02*
X121168800Y-59168800D01*
X131000000Y-50000000D02*
X131000000Y-48000000D01*
X126500000Y-54500000D02*
X131000000Y-50000000D01*
X126500000Y-57000000D02*
X126500000Y-54500000D01*
X125750000Y-57750000D02*
X126500000Y-57000000D01*
X124750000Y-57750000D02*
X125750000Y-57750000D01*
X123250000Y-59250000D02*
X124750000Y-57750000D01*
X121250000Y-59250000D02*
X123250000Y-59250000D01*
X121168800Y-59168800D02*
X121250000Y-59250000D01*
X130049800Y-43848200D02*
X130049800Y-47049800D01*
X130049800Y-47049800D02*
X131000000Y-48000000D01*
X130049800Y-43848200D02*
X133250200Y-43848200D01*
X125650000Y-51000000D02*
X126700000Y-51000000D01*
X129750000Y-38493800D02*
X127001800Y-35745600D01*
X129750000Y-41550000D02*
X129750000Y-38493800D01*
X128300000Y-43000000D02*
X129750000Y-41550000D01*
X128300000Y-49400000D02*
X128300000Y-43000000D01*
X126700000Y-51000000D02*
X128300000Y-49400000D01*
X88050000Y-48900000D02*
X91320000Y-52170000D01*
X91320000Y-52170000D02*
X91320000Y-56300000D01*
X43020000Y-65000000D02*
X43020000Y-63555000D01*
X43020000Y-63555000D02*
X42145000Y-62680000D01*
X42145000Y-62680000D02*
X42145000Y-62085000D01*
X42145000Y-62085000D02*
X43070000Y-61160000D01*
X42095000Y-43580000D02*
X42095000Y-54445000D01*
X43070000Y-55420000D02*
X43070000Y-61755000D01*
X42095000Y-54445000D02*
X43070000Y-55420000D01*
X43070000Y-61755000D02*
X43020000Y-61805000D01*
X43020000Y-61805000D02*
X43020000Y-65000000D01*
X43020000Y-65000000D02*
X43020000Y-99360000D01*
X72170000Y-53560000D02*
X65660000Y-53560000D01*
X65660000Y-53560000D02*
X62070000Y-49970000D01*
X62070000Y-61110000D02*
X62070000Y-49970000D01*
X62070000Y-49970000D02*
X62070000Y-42060000D01*
X62070000Y-80160000D02*
X62070000Y-61110000D01*
X62070000Y-99210000D02*
X62070000Y-80160000D01*
X72170000Y-56100000D02*
X74000000Y-56100000D01*
X79010000Y-61110000D02*
X81120000Y-61110000D01*
X74000000Y-56100000D02*
X79010000Y-61110000D01*
X81120000Y-42060000D02*
X81120000Y-61110000D01*
X81120000Y-61110000D02*
X81120000Y-80160000D01*
X81120000Y-80160000D02*
X81120000Y-99210000D01*
X100170000Y-80160000D02*
X100170000Y-61110000D01*
X100170000Y-61110000D02*
X99245000Y-60185000D01*
X99245000Y-60185000D02*
X99245000Y-43580000D01*
X100170000Y-99210000D02*
X100170000Y-80160000D01*
X119220000Y-42060000D02*
X119220000Y-61110000D01*
X119220000Y-61110000D02*
X119220000Y-80160000D01*
X119220000Y-80160000D02*
X119220000Y-99210000D01*
X138270000Y-80160000D02*
X138270000Y-89270000D01*
X139250000Y-90250000D02*
X139250000Y-98230000D01*
X138270000Y-89270000D02*
X139250000Y-90250000D01*
X139250000Y-98230000D02*
X138270000Y-99210000D01*
X138270000Y-80160000D02*
X138270000Y-61110000D01*
X138270000Y-61110000D02*
X140950000Y-58430000D01*
X137345000Y-46845000D02*
X137345000Y-43580000D01*
X140950000Y-50450000D02*
X137345000Y-46845000D01*
X140950000Y-58430000D02*
X140950000Y-50450000D01*
D30*
G36*
X79997954Y-39002046D02*
X80228295Y-39155954D01*
X80500000Y-39210001D01*
X80500005Y-39210000D01*
X117041319Y-39210000D01*
X116962598Y-39262599D01*
X113831686Y-42393511D01*
X113832234Y-41766306D01*
X113583922Y-41165345D01*
X113124533Y-40705154D01*
X112524007Y-40455794D01*
X111873766Y-40455226D01*
X111272805Y-40703538D01*
X110812614Y-41162927D01*
X110563254Y-41763453D01*
X110562686Y-42413694D01*
X110631769Y-42580889D01*
X110392658Y-42820000D01*
X107978948Y-42820000D01*
X107463007Y-41889219D01*
X107008197Y-41351975D01*
X106979167Y-41126922D01*
X106613091Y-40489008D01*
X106030762Y-40039743D01*
X105320834Y-39847524D01*
X104591387Y-39941614D01*
X103953472Y-40307691D01*
X103504207Y-40890020D01*
X103311988Y-41599948D01*
X103266742Y-42263630D01*
X103360833Y-42993077D01*
X103726909Y-43630992D01*
X104309238Y-44080257D01*
X104377287Y-44098682D01*
X105026993Y-45270781D01*
X105502211Y-45832131D01*
X106156076Y-46168892D01*
X106395640Y-46188798D01*
X106244353Y-46553138D01*
X106243837Y-47144268D01*
X106469576Y-47690598D01*
X106887203Y-48108955D01*
X107433138Y-48335647D01*
X107889153Y-48336045D01*
X103432599Y-52792599D01*
X103267852Y-53039161D01*
X103210000Y-53330000D01*
X103210000Y-55033762D01*
X103143774Y-55061126D01*
X102732570Y-55471613D01*
X102713414Y-55517747D01*
X102506215Y-55453390D01*
X101659605Y-56300000D01*
X102506215Y-57146610D01*
X102713009Y-57082379D01*
X102731126Y-57126226D01*
X103141613Y-57537430D01*
X103678214Y-57760246D01*
X104259237Y-57760753D01*
X104796226Y-57538874D01*
X105207430Y-57128387D01*
X105430246Y-56591786D01*
X105430695Y-56077131D01*
X112657660Y-56077131D01*
X112684447Y-56657535D01*
X112855024Y-57069344D01*
X113103785Y-57146610D01*
X113950395Y-56300000D01*
X113103785Y-55453390D01*
X112855024Y-55530656D01*
X112657660Y-56077131D01*
X105430695Y-56077131D01*
X105430753Y-56010763D01*
X105208874Y-55473774D01*
X104798387Y-55062570D01*
X104730000Y-55034173D01*
X104730000Y-53644802D01*
X107124292Y-51250510D01*
X110550530Y-51250510D01*
X110550530Y-53249490D01*
X110594808Y-53484807D01*
X110733880Y-53700931D01*
X110946080Y-53845921D01*
X111197970Y-53896930D01*
X113196950Y-53896930D01*
X113262360Y-53884622D01*
X114211904Y-54834166D01*
X113772465Y-54854447D01*
X113360656Y-55025024D01*
X113283390Y-55273785D01*
X114130000Y-56120395D01*
X114144143Y-56106253D01*
X114323748Y-56285858D01*
X114309605Y-56300000D01*
X114323748Y-56314143D01*
X114144143Y-56493748D01*
X114130000Y-56479605D01*
X113283390Y-57326215D01*
X113360656Y-57574976D01*
X113907131Y-57772340D01*
X114487535Y-57745553D01*
X114899344Y-57574976D01*
X114976609Y-57326217D01*
X115091399Y-57441007D01*
X115124035Y-57408371D01*
X115147348Y-57532267D01*
X115286420Y-57748391D01*
X115498620Y-57893381D01*
X115750510Y-57944390D01*
X117749490Y-57944390D01*
X117984807Y-57900112D01*
X118200931Y-57761040D01*
X118345921Y-57548840D01*
X118396930Y-57296950D01*
X118396930Y-55297970D01*
X118352652Y-55062653D01*
X118213580Y-54846529D01*
X118001380Y-54701539D01*
X117749490Y-54650530D01*
X116177872Y-54650530D01*
X113844390Y-52317048D01*
X113844390Y-51250510D01*
X113800112Y-51015193D01*
X113661040Y-50799069D01*
X113448840Y-50654079D01*
X113196950Y-50603070D01*
X111197970Y-50603070D01*
X110962653Y-50647348D01*
X110746529Y-50786420D01*
X110601539Y-50998620D01*
X110550530Y-51250510D01*
X107124292Y-51250510D01*
X117630276Y-40744527D01*
X117410833Y-41126923D01*
X117354649Y-41562496D01*
X117078467Y-41888158D01*
X116215812Y-43441234D01*
X115990976Y-44141516D01*
X116051242Y-44874533D01*
X116306742Y-45371683D01*
X115779402Y-45589576D01*
X115361045Y-46007203D01*
X115134353Y-46553138D01*
X115133837Y-47144268D01*
X115359576Y-47690598D01*
X115777203Y-48108955D01*
X116323138Y-48335647D01*
X116914268Y-48336163D01*
X117460598Y-48110424D01*
X117878955Y-47692797D01*
X118105647Y-47146862D01*
X118106163Y-46555732D01*
X117960658Y-46203582D01*
X118381667Y-46168968D01*
X118460000Y-46128710D01*
X118460000Y-59062461D01*
X118359238Y-59089743D01*
X117776909Y-59539008D01*
X117410833Y-60176923D01*
X117354649Y-60612496D01*
X117078467Y-60938158D01*
X116215812Y-62491234D01*
X115990976Y-63191516D01*
X116051242Y-63924533D01*
X116306742Y-64421683D01*
X115779402Y-64639576D01*
X115361045Y-65057203D01*
X115134353Y-65603138D01*
X115133837Y-66194268D01*
X115359576Y-66740598D01*
X115777203Y-67158955D01*
X116323138Y-67385647D01*
X116914268Y-67386163D01*
X117460598Y-67160424D01*
X117878955Y-66742797D01*
X118105647Y-66196862D01*
X118106163Y-65605732D01*
X117960658Y-65253582D01*
X118381667Y-65218968D01*
X118460000Y-65178710D01*
X118460000Y-78112461D01*
X118359238Y-78139743D01*
X117776909Y-78589008D01*
X117410833Y-79226923D01*
X117354649Y-79662496D01*
X117078467Y-79988158D01*
X116215812Y-81541234D01*
X115990976Y-82241516D01*
X116051242Y-82974533D01*
X116306742Y-83471683D01*
X115779402Y-83689576D01*
X115361045Y-84107203D01*
X115134353Y-84653138D01*
X115133837Y-85244268D01*
X115359576Y-85790598D01*
X115777203Y-86208955D01*
X116323138Y-86435647D01*
X116914268Y-86436163D01*
X117460598Y-86210424D01*
X117878955Y-85792797D01*
X118105647Y-85246862D01*
X118106163Y-84655732D01*
X117960658Y-84303582D01*
X118381667Y-84268968D01*
X118460000Y-84228710D01*
X118460000Y-97162461D01*
X118359238Y-97189743D01*
X117776909Y-97639008D01*
X117410833Y-98276923D01*
X117354649Y-98712496D01*
X117078467Y-99038158D01*
X116215812Y-100591234D01*
X116010000Y-101232263D01*
X116010000Y-96144390D01*
X116249490Y-96144390D01*
X116484807Y-96100112D01*
X116700931Y-95961040D01*
X116845921Y-95748840D01*
X116896930Y-95496950D01*
X116896930Y-93497970D01*
X116852652Y-93262653D01*
X116713580Y-93046529D01*
X116501380Y-92901539D01*
X116249490Y-92850530D01*
X114250510Y-92850530D01*
X114015193Y-92894808D01*
X113799069Y-93033880D01*
X113654079Y-93246080D01*
X113603070Y-93497970D01*
X113603070Y-95496950D01*
X113647348Y-95732267D01*
X113786420Y-95948391D01*
X113998620Y-96093381D01*
X114250510Y-96144390D01*
X114490000Y-96144390D01*
X114490000Y-105782658D01*
X112719588Y-107553070D01*
X111147970Y-107553070D01*
X110912653Y-107597348D01*
X110696529Y-107736420D01*
X110551539Y-107948620D01*
X110500530Y-108200510D01*
X110500530Y-110199490D01*
X110544808Y-110434807D01*
X110683880Y-110650931D01*
X110896080Y-110795921D01*
X111147970Y-110846930D01*
X113146950Y-110846930D01*
X113382267Y-110802652D01*
X113598391Y-110663580D01*
X113743381Y-110451380D01*
X113794390Y-110199490D01*
X113794390Y-108627872D01*
X115787401Y-106634861D01*
X115952148Y-106388299D01*
X116010000Y-106097460D01*
X116010000Y-105355621D01*
X116323138Y-105485647D01*
X116914268Y-105486163D01*
X117460598Y-105260424D01*
X117878955Y-104842797D01*
X118012731Y-104520627D01*
X119070640Y-104520627D01*
X119470024Y-105487209D01*
X120208901Y-106227377D01*
X121174784Y-106628447D01*
X122220627Y-106629360D01*
X123187209Y-106229976D01*
X123927377Y-105491099D01*
X124328447Y-104525216D01*
X124329360Y-103479373D01*
X123929976Y-102512791D01*
X123191099Y-101772623D01*
X122225216Y-101371553D01*
X121179373Y-101370640D01*
X120212791Y-101770024D01*
X119472623Y-102508901D01*
X119071553Y-103474784D01*
X119070640Y-104520627D01*
X118012731Y-104520627D01*
X118105647Y-104296862D01*
X118106163Y-103705732D01*
X117960658Y-103353582D01*
X118381667Y-103318968D01*
X119035825Y-102982777D01*
X119511532Y-102421842D01*
X120242862Y-101105197D01*
X120663091Y-100780992D01*
X121029167Y-100143078D01*
X121123258Y-99413631D01*
X121078012Y-98749948D01*
X120885793Y-98040020D01*
X120436528Y-97457691D01*
X119980000Y-97195706D01*
X119980000Y-86948076D01*
X120208901Y-87177377D01*
X121174784Y-87578447D01*
X122220627Y-87579360D01*
X123187209Y-87179976D01*
X123366988Y-87000510D01*
X129600530Y-87000510D01*
X129600530Y-88999490D01*
X129644808Y-89234807D01*
X129783880Y-89450931D01*
X129996080Y-89595921D01*
X130247970Y-89646930D01*
X132246950Y-89646930D01*
X132482267Y-89602652D01*
X132698391Y-89463580D01*
X132843381Y-89251380D01*
X132894390Y-88999490D01*
X132894390Y-87000510D01*
X132850112Y-86765193D01*
X132711040Y-86549069D01*
X132498840Y-86404079D01*
X132246950Y-86353070D01*
X130247970Y-86353070D01*
X130012653Y-86397348D01*
X129796529Y-86536420D01*
X129651539Y-86748620D01*
X129600530Y-87000510D01*
X123366988Y-87000510D01*
X123927377Y-86441099D01*
X124328447Y-85475216D01*
X124329360Y-84429373D01*
X123929976Y-83462791D01*
X123191099Y-82722623D01*
X122225216Y-82321553D01*
X121179373Y-82320640D01*
X120212791Y-82720024D01*
X119980000Y-82952409D01*
X119980000Y-82528439D01*
X120242862Y-82055197D01*
X120663091Y-81730992D01*
X121029167Y-81093078D01*
X121123258Y-80363631D01*
X121123258Y-80363630D01*
X122316742Y-80363630D01*
X122410833Y-81093077D01*
X122776909Y-81730992D01*
X123359238Y-82180257D01*
X123427287Y-82198682D01*
X124076993Y-83370781D01*
X124552211Y-83932131D01*
X125206076Y-84268892D01*
X125445640Y-84288798D01*
X125294353Y-84653138D01*
X125293837Y-85244268D01*
X125519576Y-85790598D01*
X125937203Y-86208955D01*
X126483138Y-86435647D01*
X127074268Y-86436163D01*
X127620598Y-86210424D01*
X128038955Y-85792797D01*
X128265647Y-85246862D01*
X128266163Y-84655732D01*
X128040424Y-84109402D01*
X127622797Y-83691045D01*
X127249453Y-83536019D01*
X127537629Y-82976489D01*
X127598534Y-82243525D01*
X127374309Y-81543047D01*
X127073831Y-81000971D01*
X129474802Y-78600000D01*
X129792964Y-78600000D01*
X129860998Y-78764655D01*
X130320387Y-79224846D01*
X130920913Y-79474206D01*
X131571154Y-79474774D01*
X132172115Y-79226462D01*
X132632306Y-78767073D01*
X132881666Y-78166547D01*
X132882234Y-77516306D01*
X132633922Y-76915345D01*
X132174533Y-76455154D01*
X131574007Y-76205794D01*
X130923766Y-76205226D01*
X130322805Y-76453538D01*
X129862614Y-76912927D01*
X129793239Y-77080000D01*
X129160000Y-77080000D01*
X128869161Y-77137852D01*
X128622599Y-77302599D01*
X126248467Y-79676731D01*
X126058197Y-79451975D01*
X126029167Y-79226922D01*
X125663091Y-78589008D01*
X125080762Y-78139743D01*
X124370834Y-77947524D01*
X123641387Y-78041614D01*
X123003472Y-78407691D01*
X122554207Y-78990020D01*
X122361988Y-79699948D01*
X122316742Y-80363630D01*
X121123258Y-80363630D01*
X121078012Y-79699948D01*
X120885793Y-78990020D01*
X120436528Y-78407691D01*
X119980000Y-78145706D01*
X119980000Y-74347970D01*
X133953070Y-74347970D01*
X133953070Y-76346950D01*
X133997348Y-76582267D01*
X134136420Y-76798391D01*
X134348620Y-76943381D01*
X134600510Y-76994390D01*
X136599490Y-76994390D01*
X136834807Y-76950112D01*
X137050931Y-76811040D01*
X137195921Y-76598840D01*
X137246930Y-76346950D01*
X137246930Y-74347970D01*
X137202652Y-74112653D01*
X137063580Y-73896529D01*
X136851380Y-73751539D01*
X136599490Y-73700530D01*
X134600510Y-73700530D01*
X134365193Y-73744808D01*
X134149069Y-73883880D01*
X134004079Y-74096080D01*
X133953070Y-74347970D01*
X119980000Y-74347970D01*
X119980000Y-70550510D01*
X129650530Y-70550510D01*
X129650530Y-72549490D01*
X129694808Y-72784807D01*
X129833880Y-73000931D01*
X130046080Y-73145921D01*
X130297970Y-73196930D01*
X132296950Y-73196930D01*
X132532267Y-73152652D01*
X132748391Y-73013580D01*
X132893381Y-72801380D01*
X132944390Y-72549490D01*
X132944390Y-70550510D01*
X132900112Y-70315193D01*
X132761040Y-70099069D01*
X132548840Y-69954079D01*
X132296950Y-69903070D01*
X130297970Y-69903070D01*
X130062653Y-69947348D01*
X129846529Y-70086420D01*
X129701539Y-70298620D01*
X129650530Y-70550510D01*
X119980000Y-70550510D01*
X119980000Y-67898076D01*
X120208901Y-68127377D01*
X121174784Y-68528447D01*
X122220627Y-68529360D01*
X123187209Y-68129976D01*
X123927377Y-67391099D01*
X124328447Y-66425216D01*
X124329360Y-65379373D01*
X123929976Y-64412791D01*
X123191099Y-63672623D01*
X122225216Y-63271553D01*
X121179373Y-63270640D01*
X120212791Y-63670024D01*
X119980000Y-63902409D01*
X119980000Y-63478439D01*
X120242862Y-63005197D01*
X120663091Y-62680992D01*
X121029167Y-62043078D01*
X121123258Y-61313631D01*
X121078012Y-60649948D01*
X120885793Y-59940020D01*
X120827044Y-59863870D01*
X120959161Y-59952148D01*
X121250000Y-60010000D01*
X122535259Y-60010000D01*
X122361988Y-60649948D01*
X122316742Y-61313630D01*
X122410833Y-62043077D01*
X122776909Y-62680992D01*
X123359238Y-63130257D01*
X123427287Y-63148682D01*
X124076993Y-64320781D01*
X124552211Y-64882131D01*
X125206076Y-65218892D01*
X125445640Y-65238798D01*
X125294353Y-65603138D01*
X125293837Y-66194268D01*
X125519576Y-66740598D01*
X125937203Y-67158955D01*
X126483138Y-67385647D01*
X127074268Y-67386163D01*
X127620598Y-67160424D01*
X128038955Y-66742797D01*
X128265647Y-66196862D01*
X128266163Y-65605732D01*
X128040424Y-65059402D01*
X127622797Y-64641045D01*
X127249453Y-64486019D01*
X127537629Y-63926489D01*
X127582208Y-63390000D01*
X129642623Y-63390000D01*
X129863538Y-63924655D01*
X130322927Y-64384846D01*
X130923453Y-64634206D01*
X131573694Y-64634774D01*
X132174655Y-64386462D01*
X132634846Y-63927073D01*
X132884206Y-63326547D01*
X132884774Y-62676306D01*
X132636462Y-62075345D01*
X132177073Y-61615154D01*
X131576547Y-61365794D01*
X130926306Y-61365226D01*
X130325345Y-61613538D01*
X130068435Y-61870000D01*
X127028948Y-61870000D01*
X126513007Y-60939219D01*
X126058197Y-60401975D01*
X126029167Y-60176922D01*
X125663091Y-59539008D01*
X125080762Y-59089743D01*
X124611984Y-58962818D01*
X125064802Y-58510000D01*
X125750000Y-58510000D01*
X126040839Y-58452148D01*
X126287401Y-58287401D01*
X126752108Y-57822694D01*
X127268347Y-59072087D01*
X128571055Y-60377071D01*
X130273997Y-61084194D01*
X132117914Y-61085803D01*
X133822087Y-60381653D01*
X133893865Y-60310000D01*
X136098635Y-60310000D01*
X136350000Y-60360000D01*
X136439515Y-60342194D01*
X136404649Y-60612496D01*
X136128467Y-60938158D01*
X135265812Y-62491234D01*
X135040976Y-63191516D01*
X135101242Y-63924533D01*
X135356742Y-64421683D01*
X134829402Y-64639576D01*
X134411045Y-65057203D01*
X134184353Y-65603138D01*
X134183837Y-66194268D01*
X134409576Y-66740598D01*
X134827203Y-67158955D01*
X135373138Y-67385647D01*
X135964268Y-67386163D01*
X136510598Y-67160424D01*
X136928955Y-66742797D01*
X137155647Y-66196862D01*
X137156163Y-65605732D01*
X137010658Y-65253582D01*
X137431667Y-65218968D01*
X137510000Y-65178710D01*
X137510000Y-78112461D01*
X137409238Y-78139743D01*
X136826909Y-78589008D01*
X136460833Y-79226923D01*
X136404649Y-79662496D01*
X136128467Y-79988158D01*
X135265812Y-81541234D01*
X135040976Y-82241516D01*
X135101242Y-82974533D01*
X135356742Y-83471683D01*
X134829402Y-83689576D01*
X134411045Y-84107203D01*
X134184353Y-84653138D01*
X134183837Y-85244268D01*
X134409576Y-85790598D01*
X134827203Y-86208955D01*
X135373138Y-86435647D01*
X135964268Y-86436163D01*
X136510598Y-86210424D01*
X136928955Y-85792797D01*
X137155647Y-85246862D01*
X137156163Y-84655732D01*
X137010658Y-84303582D01*
X137431667Y-84268968D01*
X137510000Y-84228710D01*
X137510000Y-89270000D01*
X137567852Y-89560839D01*
X137732599Y-89807401D01*
X138490000Y-90564802D01*
X138490000Y-93087587D01*
X138463580Y-93046529D01*
X138251380Y-92901539D01*
X137999490Y-92850530D01*
X136000510Y-92850530D01*
X135765193Y-92894808D01*
X135698815Y-92937521D01*
X135281653Y-91927913D01*
X133978945Y-90622929D01*
X132276003Y-89915806D01*
X130432086Y-89914197D01*
X128727913Y-90618347D01*
X127422929Y-91921055D01*
X126754512Y-93530782D01*
X126337073Y-93112614D01*
X125736547Y-92863254D01*
X125086306Y-92862686D01*
X124485345Y-93110998D01*
X124025154Y-93570387D01*
X123775794Y-94170913D01*
X123775226Y-94821154D01*
X124023538Y-95422115D01*
X124482927Y-95882306D01*
X124650000Y-95951681D01*
X124650000Y-96410000D01*
X124707852Y-96700839D01*
X124872599Y-96947401D01*
X125230340Y-97305142D01*
X125080762Y-97189743D01*
X124370834Y-96997524D01*
X123641387Y-97091614D01*
X123003472Y-97457691D01*
X122554207Y-98040020D01*
X122361988Y-98749948D01*
X122316742Y-99413630D01*
X122410833Y-100143077D01*
X122776909Y-100780992D01*
X123359238Y-101230257D01*
X123427287Y-101248682D01*
X124076993Y-102420781D01*
X124552211Y-102982131D01*
X125206076Y-103318892D01*
X125445640Y-103338798D01*
X125294353Y-103703138D01*
X125293837Y-104294268D01*
X125519576Y-104840598D01*
X125937203Y-105258955D01*
X126483138Y-105485647D01*
X127074268Y-105486163D01*
X127620598Y-105260424D01*
X128038955Y-104842797D01*
X128265647Y-104296862D01*
X128266163Y-103705732D01*
X128040424Y-103159402D01*
X127622797Y-102741045D01*
X127249453Y-102586019D01*
X127537629Y-102026489D01*
X127598534Y-101293525D01*
X127374309Y-100593047D01*
X126513007Y-99039219D01*
X126058197Y-98501975D01*
X126029167Y-98276922D01*
X125796256Y-97871058D01*
X135212599Y-107287401D01*
X135459160Y-107452148D01*
X135750000Y-107510000D01*
X143250000Y-107510000D01*
X143540839Y-107452148D01*
X143787401Y-107287401D01*
X144537401Y-106537401D01*
X144702148Y-106290840D01*
X144760000Y-106000000D01*
X144760000Y-105031355D01*
X144987203Y-105258955D01*
X145533138Y-105485647D01*
X146124268Y-105486163D01*
X146670598Y-105260424D01*
X147088955Y-104842797D01*
X147315647Y-104296862D01*
X147316163Y-103705732D01*
X147090424Y-103159402D01*
X146672797Y-102741045D01*
X146299453Y-102586019D01*
X146587629Y-102026489D01*
X146648534Y-101293525D01*
X146424309Y-100593047D01*
X145563007Y-99039219D01*
X145108197Y-98501975D01*
X145079167Y-98276922D01*
X144713091Y-97639008D01*
X144130762Y-97189743D01*
X143420834Y-96997524D01*
X142691387Y-97091614D01*
X142053472Y-97457691D01*
X141604207Y-98040020D01*
X141411988Y-98749948D01*
X141366742Y-99413630D01*
X141460833Y-100143077D01*
X141826909Y-100780992D01*
X142409238Y-101230257D01*
X142477287Y-101248682D01*
X143126993Y-102420781D01*
X143240000Y-102554270D01*
X143240000Y-103142096D01*
X142979976Y-102512791D01*
X142241099Y-101772623D01*
X141275216Y-101371553D01*
X140229373Y-101370640D01*
X139262791Y-101770024D01*
X138522623Y-102508901D01*
X138121553Y-103474784D01*
X138120640Y-104520627D01*
X138520024Y-105487209D01*
X139021938Y-105990000D01*
X136064802Y-105990000D01*
X135560613Y-105485811D01*
X135964268Y-105486163D01*
X136510598Y-105260424D01*
X136928955Y-104842797D01*
X137155647Y-104296862D01*
X137156163Y-103705732D01*
X137010658Y-103353582D01*
X137431667Y-103318968D01*
X138085825Y-102982777D01*
X138561532Y-102421842D01*
X139292862Y-101105197D01*
X139713091Y-100780992D01*
X140079167Y-100143078D01*
X140173258Y-99413631D01*
X140128012Y-98749948D01*
X140000357Y-98278477D01*
X140010000Y-98230000D01*
X140010000Y-90250000D01*
X140002756Y-90213580D01*
X139952148Y-89959160D01*
X139787401Y-89712599D01*
X139030000Y-88955198D01*
X139030000Y-86948076D01*
X139258901Y-87177377D01*
X140224784Y-87578447D01*
X141270627Y-87579360D01*
X142237209Y-87179976D01*
X142977377Y-86441099D01*
X143378447Y-85475216D01*
X143379360Y-84429373D01*
X142979976Y-83462791D01*
X142241099Y-82722623D01*
X141275216Y-82321553D01*
X140229373Y-82320640D01*
X139262791Y-82720024D01*
X139030000Y-82952409D01*
X139030000Y-82528439D01*
X139292862Y-82055197D01*
X139713091Y-81730992D01*
X140079167Y-81093078D01*
X140173258Y-80363631D01*
X140128012Y-79699948D01*
X139935793Y-78990020D01*
X139486528Y-78407691D01*
X139030000Y-78145706D01*
X139030000Y-67898076D01*
X139258901Y-68127377D01*
X140224784Y-68528447D01*
X141270627Y-68529360D01*
X142237209Y-68129976D01*
X142977377Y-67391099D01*
X143378447Y-66425216D01*
X143379360Y-65379373D01*
X142979976Y-64412791D01*
X142241099Y-63672623D01*
X141275216Y-63271553D01*
X140229373Y-63270640D01*
X139262791Y-63670024D01*
X139030000Y-63902409D01*
X139030000Y-63478439D01*
X139292862Y-63005197D01*
X139713091Y-62680992D01*
X140079167Y-62043078D01*
X140173258Y-61313631D01*
X140173258Y-61313630D01*
X141366742Y-61313630D01*
X141460833Y-62043077D01*
X141826909Y-62680992D01*
X142409238Y-63130257D01*
X142477287Y-63148682D01*
X143126993Y-64320781D01*
X143585000Y-64861801D01*
X143585000Y-73932460D01*
X143642852Y-74223299D01*
X143807599Y-74469861D01*
X144194115Y-74856377D01*
X144125794Y-75020913D01*
X144125226Y-75671154D01*
X144373538Y-76272115D01*
X144832927Y-76732306D01*
X145433453Y-76981666D01*
X146083694Y-76982234D01*
X146684655Y-76733922D01*
X147144846Y-76274533D01*
X147394206Y-75674007D01*
X147394774Y-75023766D01*
X147146462Y-74422805D01*
X146687073Y-73962614D01*
X146086547Y-73713254D01*
X145436306Y-73712686D01*
X145269111Y-73781769D01*
X145105000Y-73617658D01*
X145105000Y-67207869D01*
X145533138Y-67385647D01*
X146124268Y-67386163D01*
X146670598Y-67160424D01*
X147088955Y-66742797D01*
X147315647Y-66196862D01*
X147316163Y-65605732D01*
X147090424Y-65059402D01*
X146672797Y-64641045D01*
X146299453Y-64486019D01*
X146587629Y-63926489D01*
X146648534Y-63193525D01*
X146424309Y-62493047D01*
X145563007Y-60939219D01*
X145108197Y-60401975D01*
X145079167Y-60176922D01*
X144713091Y-59539008D01*
X144130762Y-59089743D01*
X143420834Y-58897524D01*
X142691387Y-58991614D01*
X142053472Y-59357691D01*
X141604207Y-59940020D01*
X141411988Y-60649948D01*
X141366742Y-61313630D01*
X140173258Y-61313630D01*
X140128012Y-60649948D01*
X140059157Y-60395645D01*
X141487401Y-58967401D01*
X141652148Y-58720840D01*
X141710000Y-58430000D01*
X141710000Y-50450000D01*
X141652148Y-50159161D01*
X141487401Y-49912599D01*
X141053973Y-49479171D01*
X141270627Y-49479360D01*
X142237209Y-49079976D01*
X142977377Y-48341099D01*
X143378447Y-47375216D01*
X143379360Y-46329373D01*
X142979976Y-45362791D01*
X142241099Y-44622623D01*
X141275216Y-44221553D01*
X140229373Y-44220640D01*
X139262791Y-44620024D01*
X138522623Y-45358901D01*
X138121553Y-46324784D01*
X138121359Y-46546557D01*
X138105000Y-46530198D01*
X138105000Y-45810167D01*
X138561532Y-45271842D01*
X139292862Y-43955197D01*
X139713091Y-43630992D01*
X140079167Y-42993078D01*
X140173258Y-42263631D01*
X140173258Y-42263630D01*
X141366742Y-42263630D01*
X141460833Y-42993077D01*
X141826909Y-43630992D01*
X142409238Y-44080257D01*
X142477287Y-44098682D01*
X143126993Y-45270781D01*
X143585000Y-45811801D01*
X143585000Y-54532460D01*
X143642852Y-54823299D01*
X143807599Y-55069861D01*
X144494115Y-55756377D01*
X144425794Y-55920913D01*
X144425226Y-56571154D01*
X144673538Y-57172115D01*
X145132927Y-57632306D01*
X145733453Y-57881666D01*
X146383694Y-57882234D01*
X146984655Y-57633922D01*
X147444846Y-57174533D01*
X147694206Y-56574007D01*
X147694774Y-55923766D01*
X147446462Y-55322805D01*
X146987073Y-54862614D01*
X146386547Y-54613254D01*
X145736306Y-54612686D01*
X145569111Y-54681769D01*
X145105000Y-54217658D01*
X145105000Y-48157869D01*
X145533138Y-48335647D01*
X146124268Y-48336163D01*
X146670598Y-48110424D01*
X147088955Y-47692797D01*
X147315647Y-47146862D01*
X147316163Y-46555732D01*
X147090424Y-46009402D01*
X146672797Y-45591045D01*
X146299453Y-45436019D01*
X146587629Y-44876489D01*
X146648534Y-44143525D01*
X146424309Y-43443047D01*
X145563007Y-41889219D01*
X145108197Y-41351975D01*
X145079167Y-41126922D01*
X144713091Y-40489008D01*
X144130762Y-40039743D01*
X143420834Y-39847524D01*
X142691387Y-39941614D01*
X142053472Y-40307691D01*
X141604207Y-40890020D01*
X141411988Y-41599948D01*
X141366742Y-42263630D01*
X140173258Y-42263630D01*
X140128012Y-41599948D01*
X139935793Y-40890020D01*
X139486528Y-40307691D01*
X138848613Y-39941615D01*
X138119166Y-39847524D01*
X137409238Y-40039743D01*
X136826909Y-40489008D01*
X136768239Y-40591245D01*
X136768362Y-40450103D01*
X136538765Y-39894436D01*
X136114000Y-39468929D01*
X135558735Y-39238363D01*
X134957503Y-39237838D01*
X134410000Y-39464062D01*
X134410000Y-38964802D01*
X136117902Y-37256900D01*
X136483194Y-37256900D01*
X137061543Y-37141859D01*
X137551844Y-36814250D01*
X137879453Y-36323949D01*
X137994494Y-35745600D01*
X137879453Y-35167251D01*
X137811580Y-35065672D01*
X142247954Y-39502046D01*
X142478295Y-39655954D01*
X142750000Y-39710000D01*
X148290000Y-39710000D01*
X148290000Y-93315895D01*
X148087073Y-93112614D01*
X147486547Y-92863254D01*
X146836306Y-92862686D01*
X146235345Y-93110998D01*
X146191805Y-93154463D01*
X145105000Y-92067658D01*
X145105000Y-86257869D01*
X145533138Y-86435647D01*
X146124268Y-86436163D01*
X146670598Y-86210424D01*
X147088955Y-85792797D01*
X147315647Y-85246862D01*
X147316163Y-84655732D01*
X147090424Y-84109402D01*
X146672797Y-83691045D01*
X146299453Y-83536019D01*
X146587629Y-82976489D01*
X146648534Y-82243525D01*
X146424309Y-81543047D01*
X145563007Y-79989219D01*
X145108197Y-79451975D01*
X145079167Y-79226922D01*
X144713091Y-78589008D01*
X144130762Y-78139743D01*
X143420834Y-77947524D01*
X142691387Y-78041614D01*
X142053472Y-78407691D01*
X141604207Y-78990020D01*
X141411988Y-79699948D01*
X141366742Y-80363630D01*
X141460833Y-81093077D01*
X141826909Y-81730992D01*
X142409238Y-82180257D01*
X142477287Y-82198682D01*
X143126993Y-83370781D01*
X143585000Y-83911801D01*
X143585000Y-92382460D01*
X143642852Y-92673299D01*
X143807599Y-92919861D01*
X145525386Y-94637648D01*
X145525226Y-94821154D01*
X145773538Y-95422115D01*
X146232927Y-95882306D01*
X146833453Y-96131666D01*
X147483694Y-96132234D01*
X148084655Y-95883922D01*
X148290000Y-95678935D01*
X148290000Y-111290000D01*
X132894390Y-111290000D01*
X132894390Y-109500510D01*
X132850112Y-109265193D01*
X132711040Y-109049069D01*
X132498840Y-108904079D01*
X132246950Y-108853070D01*
X130247970Y-108853070D01*
X130012653Y-108897348D01*
X129796529Y-109036420D01*
X129651539Y-109248620D01*
X129600530Y-109500510D01*
X129600530Y-111290000D01*
X56636187Y-111290000D01*
X56644390Y-111249490D01*
X56644390Y-109250510D01*
X56600112Y-109015193D01*
X56461040Y-108799069D01*
X56248840Y-108654079D01*
X55996950Y-108603070D01*
X55757460Y-108603070D01*
X55757460Y-108400510D01*
X72450530Y-108400510D01*
X72450530Y-110399490D01*
X72494808Y-110634807D01*
X72633880Y-110850931D01*
X72846080Y-110995921D01*
X73097970Y-111046930D01*
X75096950Y-111046930D01*
X75332267Y-111002652D01*
X75548391Y-110863580D01*
X75693381Y-110651380D01*
X75744390Y-110399490D01*
X75744390Y-108400510D01*
X75700112Y-108165193D01*
X75658490Y-108100510D01*
X91500530Y-108100510D01*
X91500530Y-110099490D01*
X91544808Y-110334807D01*
X91683880Y-110550931D01*
X91896080Y-110695921D01*
X92147970Y-110746930D01*
X94146950Y-110746930D01*
X94382267Y-110702652D01*
X94598391Y-110563580D01*
X94743381Y-110351380D01*
X94794390Y-110099490D01*
X94794390Y-108100510D01*
X94750112Y-107865193D01*
X94611040Y-107649069D01*
X94398840Y-107504079D01*
X94146950Y-107453070D01*
X92147970Y-107453070D01*
X91912653Y-107497348D01*
X91696529Y-107636420D01*
X91551539Y-107848620D01*
X91500530Y-108100510D01*
X75658490Y-108100510D01*
X75561040Y-107949069D01*
X75348840Y-107804079D01*
X75096950Y-107753070D01*
X73097970Y-107753070D01*
X72862653Y-107797348D01*
X72646529Y-107936420D01*
X72501539Y-108148620D01*
X72450530Y-108400510D01*
X55757460Y-108400510D01*
X55757460Y-103067342D01*
X60037401Y-98787401D01*
X60202148Y-98540839D01*
X60260000Y-98250000D01*
X60260000Y-89250000D01*
X60202148Y-88959161D01*
X60037401Y-88712599D01*
X58510000Y-87185198D01*
X58510000Y-86091547D01*
X58627203Y-86208955D01*
X59173138Y-86435647D01*
X59764268Y-86436163D01*
X60310598Y-86210424D01*
X60728955Y-85792797D01*
X60955647Y-85246862D01*
X60956163Y-84655732D01*
X60810658Y-84303582D01*
X61231667Y-84268968D01*
X61310000Y-84228710D01*
X61310000Y-97162461D01*
X61209238Y-97189743D01*
X60626909Y-97639008D01*
X60260833Y-98276923D01*
X60204649Y-98712496D01*
X59928467Y-99038158D01*
X59065812Y-100591234D01*
X58840976Y-101291516D01*
X58901242Y-102024533D01*
X59156742Y-102521683D01*
X58629402Y-102739576D01*
X58211045Y-103157203D01*
X57984353Y-103703138D01*
X57983837Y-104294268D01*
X58209576Y-104840598D01*
X58627203Y-105258955D01*
X59173138Y-105485647D01*
X59764268Y-105486163D01*
X60310598Y-105260424D01*
X60728955Y-104842797D01*
X60862731Y-104520627D01*
X61920640Y-104520627D01*
X62320024Y-105487209D01*
X63058901Y-106227377D01*
X64024784Y-106628447D01*
X65070627Y-106629360D01*
X66037209Y-106229976D01*
X66777377Y-105491099D01*
X67178447Y-104525216D01*
X67179360Y-103479373D01*
X66779976Y-102512791D01*
X66041099Y-101772623D01*
X65075216Y-101371553D01*
X64029373Y-101370640D01*
X63062791Y-101770024D01*
X62322623Y-102508901D01*
X61921553Y-103474784D01*
X61920640Y-104520627D01*
X60862731Y-104520627D01*
X60955647Y-104296862D01*
X60956163Y-103705732D01*
X60810658Y-103353582D01*
X61231667Y-103318968D01*
X61885825Y-102982777D01*
X62361532Y-102421842D01*
X63092862Y-101105197D01*
X63513091Y-100780992D01*
X63879167Y-100143078D01*
X63973258Y-99413631D01*
X63973258Y-99413630D01*
X65166742Y-99413630D01*
X65260833Y-100143077D01*
X65626909Y-100780992D01*
X66209238Y-101230257D01*
X66277287Y-101248682D01*
X66926993Y-102420781D01*
X67402211Y-102982131D01*
X68056076Y-103318892D01*
X68295640Y-103338798D01*
X68144353Y-103703138D01*
X68143837Y-104294268D01*
X68369576Y-104840598D01*
X68787203Y-105258955D01*
X69333138Y-105485647D01*
X69924268Y-105486163D01*
X70470598Y-105260424D01*
X70888955Y-104842797D01*
X71115647Y-104296862D01*
X71116163Y-103705732D01*
X70890424Y-103159402D01*
X70472797Y-102741045D01*
X70099453Y-102586019D01*
X70387629Y-102026489D01*
X70432208Y-101490000D01*
X72607460Y-101490000D01*
X72898299Y-101432148D01*
X73144861Y-101267401D01*
X73606377Y-100805885D01*
X73770913Y-100874206D01*
X74421154Y-100874774D01*
X75022115Y-100626462D01*
X75482306Y-100167073D01*
X75731666Y-99566547D01*
X75732234Y-98916306D01*
X75483922Y-98315345D01*
X75024533Y-97855154D01*
X74424007Y-97605794D01*
X73773766Y-97605226D01*
X73172805Y-97853538D01*
X72712614Y-98312927D01*
X72463254Y-98913453D01*
X72462686Y-99563694D01*
X72531769Y-99730889D01*
X72292658Y-99970000D01*
X69878948Y-99970000D01*
X69363007Y-99039219D01*
X68908197Y-98501975D01*
X68879167Y-98276922D01*
X68513091Y-97639008D01*
X67930762Y-97189743D01*
X67220834Y-96997524D01*
X66491387Y-97091614D01*
X65853472Y-97457691D01*
X65404207Y-98040020D01*
X65211988Y-98749948D01*
X65166742Y-99413630D01*
X63973258Y-99413630D01*
X63928012Y-98749948D01*
X63735793Y-98040020D01*
X63286528Y-97457691D01*
X62830000Y-97195706D01*
X62830000Y-88950510D01*
X72400530Y-88950510D01*
X72400530Y-90949490D01*
X72444808Y-91184807D01*
X72583880Y-91400931D01*
X72796080Y-91545921D01*
X73047970Y-91596930D01*
X75046950Y-91596930D01*
X75282267Y-91552652D01*
X75498391Y-91413580D01*
X75643381Y-91201380D01*
X75694390Y-90949490D01*
X75694390Y-88950510D01*
X75650112Y-88715193D01*
X75511040Y-88499069D01*
X75298840Y-88354079D01*
X75046950Y-88303070D01*
X73047970Y-88303070D01*
X72812653Y-88347348D01*
X72596529Y-88486420D01*
X72451539Y-88698620D01*
X72400530Y-88950510D01*
X62830000Y-88950510D01*
X62830000Y-86948076D01*
X63058901Y-87177377D01*
X64024784Y-87578447D01*
X65070627Y-87579360D01*
X66037209Y-87179976D01*
X66777377Y-86441099D01*
X67178447Y-85475216D01*
X67179360Y-84429373D01*
X66779976Y-83462791D01*
X66041099Y-82722623D01*
X65075216Y-82321553D01*
X64029373Y-82320640D01*
X63062791Y-82720024D01*
X62830000Y-82952409D01*
X62830000Y-82528439D01*
X63092862Y-82055197D01*
X63513091Y-81730992D01*
X63879167Y-81093078D01*
X63973258Y-80363631D01*
X63973258Y-80363630D01*
X65166742Y-80363630D01*
X65260833Y-81093077D01*
X65626909Y-81730992D01*
X66209238Y-82180257D01*
X66277287Y-82198682D01*
X66926993Y-83370781D01*
X67402211Y-83932131D01*
X68056076Y-84268892D01*
X68295640Y-84288798D01*
X68144353Y-84653138D01*
X68143837Y-85244268D01*
X68369576Y-85790598D01*
X68787203Y-86208955D01*
X69333138Y-86435647D01*
X69924268Y-86436163D01*
X70470598Y-86210424D01*
X70888955Y-85792797D01*
X71115647Y-85246862D01*
X71116163Y-84655732D01*
X70890424Y-84109402D01*
X70472797Y-83691045D01*
X70099453Y-83536019D01*
X70387629Y-82976489D01*
X70432208Y-82440000D01*
X72157460Y-82440000D01*
X72448299Y-82382148D01*
X72694861Y-82217401D01*
X73556377Y-81355885D01*
X73720913Y-81424206D01*
X74371154Y-81424774D01*
X74972115Y-81176462D01*
X75432306Y-80717073D01*
X75681666Y-80116547D01*
X75682234Y-79466306D01*
X75433922Y-78865345D01*
X74974533Y-78405154D01*
X74374007Y-78155794D01*
X73723766Y-78155226D01*
X73122805Y-78403538D01*
X72662614Y-78862927D01*
X72413254Y-79463453D01*
X72412686Y-80113694D01*
X72481769Y-80280889D01*
X71842658Y-80920000D01*
X69878948Y-80920000D01*
X69363007Y-79989219D01*
X68908197Y-79451975D01*
X68879167Y-79226922D01*
X68513091Y-78589008D01*
X67930762Y-78139743D01*
X67220834Y-77947524D01*
X66491387Y-78041614D01*
X65853472Y-78407691D01*
X65404207Y-78990020D01*
X65211988Y-79699948D01*
X65166742Y-80363630D01*
X63973258Y-80363630D01*
X63928012Y-79699948D01*
X63735793Y-78990020D01*
X63286528Y-78407691D01*
X62830000Y-78145706D01*
X62830000Y-67898076D01*
X63058901Y-68127377D01*
X64024784Y-68528447D01*
X65070627Y-68529360D01*
X66037209Y-68129976D01*
X66777377Y-67391099D01*
X67178447Y-66425216D01*
X67179360Y-65379373D01*
X66779976Y-64412791D01*
X66041099Y-63672623D01*
X65075216Y-63271553D01*
X64029373Y-63270640D01*
X63062791Y-63670024D01*
X62830000Y-63902409D01*
X62830000Y-63478439D01*
X63092862Y-63005197D01*
X63513091Y-62680992D01*
X63879167Y-62043078D01*
X63973258Y-61313631D01*
X63973258Y-61313630D01*
X65166742Y-61313630D01*
X65260833Y-62043077D01*
X65626909Y-62680992D01*
X66209238Y-63130257D01*
X66277287Y-63148682D01*
X66926993Y-64320781D01*
X67385000Y-64861801D01*
X67385000Y-73732460D01*
X67442852Y-74023299D01*
X67607599Y-74269861D01*
X68294115Y-74956377D01*
X68225794Y-75120913D01*
X68225226Y-75771154D01*
X68473538Y-76372115D01*
X68932927Y-76832306D01*
X69533453Y-77081666D01*
X70183694Y-77082234D01*
X70784655Y-76833922D01*
X71244846Y-76374533D01*
X71494206Y-75774007D01*
X71494774Y-75123766D01*
X71246462Y-74522805D01*
X70787073Y-74062614D01*
X70186547Y-73813254D01*
X69536306Y-73812686D01*
X69369111Y-73881769D01*
X68905000Y-73417658D01*
X68905000Y-67207869D01*
X69333138Y-67385647D01*
X69924268Y-67386163D01*
X70470598Y-67160424D01*
X70888955Y-66742797D01*
X71115647Y-66196862D01*
X71116163Y-65605732D01*
X70890424Y-65059402D01*
X70472797Y-64641045D01*
X70099453Y-64486019D01*
X70387629Y-63926489D01*
X70448534Y-63193525D01*
X70224309Y-62493047D01*
X69363007Y-60939219D01*
X68908197Y-60401975D01*
X68879167Y-60176922D01*
X68513091Y-59539008D01*
X67930762Y-59089743D01*
X67220834Y-58897524D01*
X66491387Y-58991614D01*
X65853472Y-59357691D01*
X65404207Y-59940020D01*
X65211988Y-60649948D01*
X65166742Y-61313630D01*
X63973258Y-61313630D01*
X63928012Y-60649948D01*
X63735793Y-59940020D01*
X63286528Y-59357691D01*
X62830000Y-59095706D01*
X62830000Y-51804802D01*
X65122599Y-54097401D01*
X65369161Y-54262148D01*
X65660000Y-54320000D01*
X70848797Y-54320000D01*
X70888035Y-54414964D01*
X71302698Y-54830351D01*
X70889529Y-55242800D01*
X70658963Y-55798065D01*
X70658438Y-56399297D01*
X70888035Y-56954964D01*
X71302698Y-57370351D01*
X70889529Y-57782800D01*
X70658963Y-58338065D01*
X70658438Y-58939297D01*
X70888035Y-59494964D01*
X71302698Y-59910351D01*
X70889529Y-60322800D01*
X70658963Y-60878065D01*
X70658438Y-61479297D01*
X70888035Y-62034964D01*
X71302698Y-62450351D01*
X70889529Y-62862800D01*
X70658963Y-63418065D01*
X70658438Y-64019297D01*
X70888035Y-64574964D01*
X71312800Y-65000471D01*
X71868065Y-65231037D01*
X72469297Y-65231562D01*
X73024964Y-65001965D01*
X73450471Y-64577200D01*
X73681037Y-64021935D01*
X73681562Y-63420703D01*
X73451965Y-62865036D01*
X73037302Y-62449649D01*
X73450471Y-62037200D01*
X73681037Y-61481935D01*
X73681562Y-60880703D01*
X73451965Y-60325036D01*
X73037302Y-59909649D01*
X73450471Y-59497200D01*
X73681037Y-58941935D01*
X73681562Y-58340703D01*
X73451965Y-57785036D01*
X73037302Y-57369649D01*
X73450471Y-56957200D01*
X73490832Y-56860000D01*
X73685198Y-56860000D01*
X78472599Y-61647401D01*
X78554224Y-61701941D01*
X78115812Y-62491234D01*
X77890976Y-63191516D01*
X77951242Y-63924533D01*
X78206742Y-64421683D01*
X77679402Y-64639576D01*
X77261045Y-65057203D01*
X77034353Y-65603138D01*
X77033837Y-66194268D01*
X77259576Y-66740598D01*
X77677203Y-67158955D01*
X78223138Y-67385647D01*
X78814268Y-67386163D01*
X79360598Y-67160424D01*
X79778955Y-66742797D01*
X80005647Y-66196862D01*
X80006163Y-65605732D01*
X79860658Y-65253582D01*
X80281667Y-65218968D01*
X80360000Y-65178710D01*
X80360000Y-78112461D01*
X80259238Y-78139743D01*
X79676909Y-78589008D01*
X79310833Y-79226923D01*
X79254649Y-79662496D01*
X78978467Y-79988158D01*
X78115812Y-81541234D01*
X77890976Y-82241516D01*
X77951242Y-82974533D01*
X78206742Y-83471683D01*
X77679402Y-83689576D01*
X77261045Y-84107203D01*
X77034353Y-84653138D01*
X77033837Y-85244268D01*
X77259576Y-85790598D01*
X77677203Y-86208955D01*
X78223138Y-86435647D01*
X78814268Y-86436163D01*
X79360598Y-86210424D01*
X79778955Y-85792797D01*
X80005647Y-85246862D01*
X80006163Y-84655732D01*
X79860658Y-84303582D01*
X80281667Y-84268968D01*
X80360000Y-84228710D01*
X80360000Y-97162461D01*
X80259238Y-97189743D01*
X79676909Y-97639008D01*
X79310833Y-98276923D01*
X79254649Y-98712496D01*
X78978467Y-99038158D01*
X78115812Y-100591234D01*
X77890976Y-101291516D01*
X77951242Y-102024533D01*
X78206742Y-102521683D01*
X77679402Y-102739576D01*
X77261045Y-103157203D01*
X77034353Y-103703138D01*
X77033837Y-104294268D01*
X77259576Y-104840598D01*
X77677203Y-105258955D01*
X78223138Y-105485647D01*
X78814268Y-105486163D01*
X79360598Y-105260424D01*
X79778955Y-104842797D01*
X79912731Y-104520627D01*
X80970640Y-104520627D01*
X81370024Y-105487209D01*
X82108901Y-106227377D01*
X83074784Y-106628447D01*
X84120627Y-106629360D01*
X85087209Y-106229976D01*
X85827377Y-105491099D01*
X86228447Y-104525216D01*
X86229360Y-103479373D01*
X85829976Y-102512791D01*
X85091099Y-101772623D01*
X84125216Y-101371553D01*
X83079373Y-101370640D01*
X82112791Y-101770024D01*
X81372623Y-102508901D01*
X80971553Y-103474784D01*
X80970640Y-104520627D01*
X79912731Y-104520627D01*
X80005647Y-104296862D01*
X80006163Y-103705732D01*
X79860658Y-103353582D01*
X80281667Y-103318968D01*
X80935825Y-102982777D01*
X81411532Y-102421842D01*
X82142862Y-101105197D01*
X82563091Y-100780992D01*
X82929167Y-100143078D01*
X83023258Y-99413631D01*
X83023258Y-99413630D01*
X84216742Y-99413630D01*
X84310833Y-100143077D01*
X84676909Y-100780992D01*
X85259238Y-101230257D01*
X85327287Y-101248682D01*
X85976993Y-102420781D01*
X86452211Y-102982131D01*
X87106076Y-103318892D01*
X87345640Y-103338798D01*
X87194353Y-103703138D01*
X87193837Y-104294268D01*
X87419576Y-104840598D01*
X87837203Y-105258955D01*
X88383138Y-105485647D01*
X88974268Y-105486163D01*
X89520598Y-105260424D01*
X89938955Y-104842797D01*
X90165647Y-104296862D01*
X90166163Y-103705732D01*
X89940424Y-103159402D01*
X89522797Y-102741045D01*
X89149453Y-102586019D01*
X89437629Y-102026489D01*
X89482208Y-101490000D01*
X91357460Y-101490000D01*
X91648299Y-101432148D01*
X91894861Y-101267401D01*
X92656377Y-100505885D01*
X92820913Y-100574206D01*
X93471154Y-100574774D01*
X94072115Y-100326462D01*
X94532306Y-99867073D01*
X94781666Y-99266547D01*
X94782234Y-98616306D01*
X94533922Y-98015345D01*
X94074533Y-97555154D01*
X93474007Y-97305794D01*
X92823766Y-97305226D01*
X92222805Y-97553538D01*
X91762614Y-98012927D01*
X91513254Y-98613453D01*
X91512686Y-99263694D01*
X91581769Y-99430889D01*
X91042658Y-99970000D01*
X88928948Y-99970000D01*
X88413007Y-99039219D01*
X87958197Y-98501975D01*
X87929167Y-98276922D01*
X87563091Y-97639008D01*
X86980762Y-97189743D01*
X86270834Y-96997524D01*
X85541387Y-97091614D01*
X84903472Y-97457691D01*
X84454207Y-98040020D01*
X84261988Y-98749948D01*
X84216742Y-99413630D01*
X83023258Y-99413630D01*
X82978012Y-98749948D01*
X82785793Y-98040020D01*
X82336528Y-97457691D01*
X81880000Y-97195706D01*
X81880000Y-89400510D01*
X91600530Y-89400510D01*
X91600530Y-91399490D01*
X91644808Y-91634807D01*
X91783880Y-91850931D01*
X91996080Y-91995921D01*
X92247970Y-92046930D01*
X94246950Y-92046930D01*
X94482267Y-92002652D01*
X94698391Y-91863580D01*
X94843381Y-91651380D01*
X94894390Y-91399490D01*
X94894390Y-89400510D01*
X94850112Y-89165193D01*
X94711040Y-88949069D01*
X94498840Y-88804079D01*
X94246950Y-88753070D01*
X92247970Y-88753070D01*
X92012653Y-88797348D01*
X91796529Y-88936420D01*
X91651539Y-89148620D01*
X91600530Y-89400510D01*
X81880000Y-89400510D01*
X81880000Y-86948076D01*
X82108901Y-87177377D01*
X83074784Y-87578447D01*
X84120627Y-87579360D01*
X85087209Y-87179976D01*
X85827377Y-86441099D01*
X86228447Y-85475216D01*
X86229360Y-84429373D01*
X85829976Y-83462791D01*
X85091099Y-82722623D01*
X84125216Y-82321553D01*
X83079373Y-82320640D01*
X82112791Y-82720024D01*
X81880000Y-82952409D01*
X81880000Y-82528439D01*
X82142862Y-82055197D01*
X82563091Y-81730992D01*
X82929167Y-81093078D01*
X83023258Y-80363631D01*
X83023258Y-80363630D01*
X84216742Y-80363630D01*
X84310833Y-81093077D01*
X84676909Y-81730992D01*
X85259238Y-82180257D01*
X85327287Y-82198682D01*
X85976993Y-83370781D01*
X86452211Y-83932131D01*
X87106076Y-84268892D01*
X87345640Y-84288798D01*
X87194353Y-84653138D01*
X87193837Y-85244268D01*
X87419576Y-85790598D01*
X87837203Y-86208955D01*
X88383138Y-86435647D01*
X88974268Y-86436163D01*
X89520598Y-86210424D01*
X89938955Y-85792797D01*
X90165647Y-85246862D01*
X90166163Y-84655732D01*
X89940424Y-84109402D01*
X89522797Y-83691045D01*
X89149453Y-83536019D01*
X89437629Y-82976489D01*
X89482208Y-82440000D01*
X91807460Y-82440000D01*
X92098299Y-82382148D01*
X92344861Y-82217401D01*
X92756377Y-81805885D01*
X92920913Y-81874206D01*
X93571154Y-81874774D01*
X94172115Y-81626462D01*
X94632306Y-81167073D01*
X94881666Y-80566547D01*
X94882234Y-79916306D01*
X94633922Y-79315345D01*
X94174533Y-78855154D01*
X93574007Y-78605794D01*
X92923766Y-78605226D01*
X92322805Y-78853538D01*
X91862614Y-79312927D01*
X91613254Y-79913453D01*
X91612686Y-80563694D01*
X91681769Y-80730889D01*
X91492658Y-80920000D01*
X88928948Y-80920000D01*
X88413007Y-79989219D01*
X87958197Y-79451975D01*
X87929167Y-79226922D01*
X87563091Y-78589008D01*
X86980762Y-78139743D01*
X86270834Y-77947524D01*
X85541387Y-78041614D01*
X84903472Y-78407691D01*
X84454207Y-78990020D01*
X84261988Y-79699948D01*
X84216742Y-80363630D01*
X83023258Y-80363630D01*
X82978012Y-79699948D01*
X82785793Y-78990020D01*
X82336528Y-78407691D01*
X81880000Y-78145706D01*
X81880000Y-70150510D01*
X91400530Y-70150510D01*
X91400530Y-72149490D01*
X91444808Y-72384807D01*
X91583880Y-72600931D01*
X91796080Y-72745921D01*
X92047970Y-72796930D01*
X94046950Y-72796930D01*
X94282267Y-72752652D01*
X94498391Y-72613580D01*
X94643381Y-72401380D01*
X94694390Y-72149490D01*
X94694390Y-70150510D01*
X94650112Y-69915193D01*
X94511040Y-69699069D01*
X94298840Y-69554079D01*
X94046950Y-69503070D01*
X92047970Y-69503070D01*
X91812653Y-69547348D01*
X91596529Y-69686420D01*
X91451539Y-69898620D01*
X91400530Y-70150510D01*
X81880000Y-70150510D01*
X81880000Y-67898076D01*
X82108901Y-68127377D01*
X83074784Y-68528447D01*
X84120627Y-68529360D01*
X85087209Y-68129976D01*
X85827377Y-67391099D01*
X86228447Y-66425216D01*
X86229360Y-65379373D01*
X85829976Y-64412791D01*
X85091099Y-63672623D01*
X84125216Y-63271553D01*
X83079373Y-63270640D01*
X82112791Y-63670024D01*
X81880000Y-63902409D01*
X81880000Y-63478439D01*
X82142862Y-63005197D01*
X82563091Y-62680992D01*
X82929167Y-62043078D01*
X83023258Y-61313631D01*
X83023258Y-61313630D01*
X84216742Y-61313630D01*
X84310833Y-62043077D01*
X84676909Y-62680992D01*
X85259238Y-63130257D01*
X85327287Y-63148682D01*
X85976993Y-64320781D01*
X86452211Y-64882131D01*
X87106076Y-65218892D01*
X87345640Y-65238798D01*
X87194353Y-65603138D01*
X87193837Y-66194268D01*
X87419576Y-66740598D01*
X87837203Y-67158955D01*
X88383138Y-67385647D01*
X88974268Y-67386163D01*
X89520598Y-67160424D01*
X89938955Y-66742797D01*
X90165647Y-66196862D01*
X90166163Y-65605732D01*
X89940424Y-65059402D01*
X89522797Y-64641045D01*
X89149453Y-64486019D01*
X89437629Y-63926489D01*
X89498534Y-63193525D01*
X89274309Y-62493047D01*
X88862431Y-61750000D01*
X91592964Y-61750000D01*
X91660998Y-61914655D01*
X92120387Y-62374846D01*
X92720913Y-62624206D01*
X93371154Y-62624774D01*
X93972115Y-62376462D01*
X94432306Y-61917073D01*
X94681666Y-61316547D01*
X94682234Y-60666306D01*
X94433922Y-60065345D01*
X93974533Y-59605154D01*
X93374007Y-59355794D01*
X92723766Y-59355226D01*
X92122805Y-59603538D01*
X91662614Y-60062927D01*
X91593239Y-60230000D01*
X87936014Y-60230000D01*
X87929167Y-60176922D01*
X87563091Y-59539008D01*
X86980762Y-59089743D01*
X86270834Y-58897524D01*
X85541387Y-58991614D01*
X84903472Y-59357691D01*
X84454207Y-59940020D01*
X84261988Y-60649948D01*
X84216742Y-61313630D01*
X83023258Y-61313630D01*
X82978012Y-60649948D01*
X82785793Y-59940020D01*
X82336528Y-59357691D01*
X81880000Y-59095706D01*
X81880000Y-48848076D01*
X82108901Y-49077377D01*
X83074784Y-49478447D01*
X84120627Y-49479360D01*
X85087209Y-49079976D01*
X85827377Y-48341099D01*
X86228447Y-47375216D01*
X86229360Y-46329373D01*
X85829976Y-45362791D01*
X85091099Y-44622623D01*
X84125216Y-44221553D01*
X83079373Y-44220640D01*
X82112791Y-44620024D01*
X81880000Y-44852409D01*
X81880000Y-44428439D01*
X82142862Y-43955197D01*
X82563091Y-43630992D01*
X82929167Y-42993078D01*
X83023258Y-42263631D01*
X83023258Y-42263630D01*
X84216742Y-42263630D01*
X84310833Y-42993077D01*
X84676909Y-43630992D01*
X85259238Y-44080257D01*
X85327287Y-44098682D01*
X85976993Y-45270781D01*
X86452211Y-45832131D01*
X87106076Y-46168892D01*
X87345640Y-46188798D01*
X87194353Y-46553138D01*
X87193837Y-47144268D01*
X87419576Y-47690598D01*
X87743418Y-48015006D01*
X87521057Y-48106883D01*
X87257808Y-48369673D01*
X87115162Y-48713201D01*
X87114838Y-49085167D01*
X87256883Y-49428943D01*
X87519673Y-49692192D01*
X87863201Y-49834838D01*
X87910077Y-49834879D01*
X90560000Y-52484802D01*
X90560000Y-55033762D01*
X90493774Y-55061126D01*
X90196930Y-55357452D01*
X90196930Y-55353050D01*
X90152652Y-55117733D01*
X90013580Y-54901609D01*
X89801380Y-54756619D01*
X89549490Y-54705610D01*
X87550510Y-54705610D01*
X87315193Y-54749888D01*
X87099069Y-54888960D01*
X86954079Y-55101160D01*
X86903070Y-55353050D01*
X86903070Y-57352030D01*
X86947348Y-57587347D01*
X87086420Y-57803471D01*
X87298620Y-57948461D01*
X87550510Y-57999470D01*
X89549490Y-57999470D01*
X89784807Y-57955192D01*
X90000931Y-57816120D01*
X90145921Y-57603920D01*
X90196930Y-57352030D01*
X90196930Y-57242232D01*
X90491613Y-57537430D01*
X91028214Y-57760246D01*
X91609237Y-57760753D01*
X92146226Y-57538874D01*
X92557430Y-57128387D01*
X92780246Y-56591786D01*
X92780753Y-56010763D01*
X92558874Y-55473774D01*
X92148387Y-55062570D01*
X92080000Y-55034173D01*
X92080000Y-53862915D01*
X92247970Y-53896930D01*
X94246950Y-53896930D01*
X94482267Y-53852652D01*
X94698391Y-53713580D01*
X94843381Y-53501380D01*
X94894390Y-53249490D01*
X94894390Y-51250510D01*
X94850112Y-51015193D01*
X94711040Y-50799069D01*
X94498840Y-50654079D01*
X94246950Y-50603070D01*
X92247970Y-50603070D01*
X92012653Y-50647348D01*
X91796529Y-50786420D01*
X91651539Y-50998620D01*
X91600530Y-51250510D01*
X91600530Y-51375728D01*
X88985122Y-48760320D01*
X88985162Y-48714833D01*
X88843117Y-48371057D01*
X88808139Y-48336018D01*
X88974268Y-48336163D01*
X89520598Y-48110424D01*
X89938955Y-47692797D01*
X90165647Y-47146862D01*
X90165649Y-47144268D01*
X96083837Y-47144268D01*
X96309576Y-47690598D01*
X96727203Y-48108955D01*
X97273138Y-48335647D01*
X97864268Y-48336163D01*
X98410598Y-48110424D01*
X98485000Y-48036152D01*
X98485000Y-59960553D01*
X98360833Y-60176923D01*
X98304649Y-60612496D01*
X98028467Y-60938158D01*
X97165812Y-62491234D01*
X96940976Y-63191516D01*
X97001242Y-63924533D01*
X97256742Y-64421683D01*
X96729402Y-64639576D01*
X96311045Y-65057203D01*
X96084353Y-65603138D01*
X96083837Y-66194268D01*
X96309576Y-66740598D01*
X96727203Y-67158955D01*
X97273138Y-67385647D01*
X97864268Y-67386163D01*
X98410598Y-67160424D01*
X98828955Y-66742797D01*
X99055647Y-66196862D01*
X99056163Y-65605732D01*
X98910658Y-65253582D01*
X99331667Y-65218968D01*
X99410000Y-65178710D01*
X99410000Y-78112461D01*
X99309238Y-78139743D01*
X98726909Y-78589008D01*
X98360833Y-79226923D01*
X98304649Y-79662496D01*
X98028467Y-79988158D01*
X97165812Y-81541234D01*
X96940976Y-82241516D01*
X97001242Y-82974533D01*
X97256742Y-83471683D01*
X96729402Y-83689576D01*
X96311045Y-84107203D01*
X96084353Y-84653138D01*
X96083837Y-85244268D01*
X96309576Y-85790598D01*
X96727203Y-86208955D01*
X97273138Y-86435647D01*
X97864268Y-86436163D01*
X98410598Y-86210424D01*
X98828955Y-85792797D01*
X99055647Y-85246862D01*
X99056163Y-84655732D01*
X98910658Y-84303582D01*
X99331667Y-84268968D01*
X99410000Y-84228710D01*
X99410000Y-97162461D01*
X99309238Y-97189743D01*
X98726909Y-97639008D01*
X98360833Y-98276923D01*
X98304649Y-98712496D01*
X98028467Y-99038158D01*
X97165812Y-100591234D01*
X96940976Y-101291516D01*
X97001242Y-102024533D01*
X97256742Y-102521683D01*
X96729402Y-102739576D01*
X96311045Y-103157203D01*
X96084353Y-103703138D01*
X96083837Y-104294268D01*
X96309576Y-104840598D01*
X96727203Y-105258955D01*
X97273138Y-105485647D01*
X97864268Y-105486163D01*
X98410598Y-105260424D01*
X98828955Y-104842797D01*
X98962731Y-104520627D01*
X100020640Y-104520627D01*
X100420024Y-105487209D01*
X101158901Y-106227377D01*
X102124784Y-106628447D01*
X103170627Y-106629360D01*
X104137209Y-106229976D01*
X104877377Y-105491099D01*
X105278447Y-104525216D01*
X105279360Y-103479373D01*
X104879976Y-102512791D01*
X104141099Y-101772623D01*
X103175216Y-101371553D01*
X102129373Y-101370640D01*
X101162791Y-101770024D01*
X100422623Y-102508901D01*
X100021553Y-103474784D01*
X100020640Y-104520627D01*
X98962731Y-104520627D01*
X99055647Y-104296862D01*
X99056163Y-103705732D01*
X98910658Y-103353582D01*
X99331667Y-103318968D01*
X99985825Y-102982777D01*
X100461532Y-102421842D01*
X101192862Y-101105197D01*
X101613091Y-100780992D01*
X101979167Y-100143078D01*
X102073258Y-99413631D01*
X102073258Y-99413630D01*
X103266742Y-99413630D01*
X103360833Y-100143077D01*
X103726909Y-100780992D01*
X104309238Y-101230257D01*
X104377287Y-101248682D01*
X105026993Y-102420781D01*
X105502211Y-102982131D01*
X106156076Y-103318892D01*
X106395640Y-103338798D01*
X106244353Y-103703138D01*
X106243837Y-104294268D01*
X106469576Y-104840598D01*
X106887203Y-105258955D01*
X107433138Y-105485647D01*
X108024268Y-105486163D01*
X108570598Y-105260424D01*
X108988955Y-104842797D01*
X109215647Y-104296862D01*
X109216163Y-103705732D01*
X108990424Y-103159402D01*
X108572797Y-102741045D01*
X108199453Y-102586019D01*
X108487629Y-102026489D01*
X108532208Y-101490000D01*
X111370000Y-101490000D01*
X111660839Y-101432148D01*
X111907401Y-101267401D01*
X112520359Y-100654443D01*
X113072115Y-100426462D01*
X113532306Y-99967073D01*
X113781666Y-99366547D01*
X113782234Y-98716306D01*
X113533922Y-98115345D01*
X113074533Y-97655154D01*
X112474007Y-97405794D01*
X111823766Y-97405226D01*
X111222805Y-97653538D01*
X110762614Y-98112927D01*
X110513254Y-98713453D01*
X110512686Y-99363694D01*
X110760998Y-99964655D01*
X110766334Y-99970000D01*
X107978948Y-99970000D01*
X107463007Y-99039219D01*
X107008197Y-98501975D01*
X106979167Y-98276922D01*
X106613091Y-97639008D01*
X106030762Y-97189743D01*
X105320834Y-96997524D01*
X104591387Y-97091614D01*
X103953472Y-97457691D01*
X103504207Y-98040020D01*
X103311988Y-98749948D01*
X103266742Y-99413630D01*
X102073258Y-99413630D01*
X102028012Y-98749948D01*
X101835793Y-98040020D01*
X101386528Y-97457691D01*
X100930000Y-97195706D01*
X100930000Y-89400510D01*
X110650530Y-89400510D01*
X110650530Y-91399490D01*
X110694808Y-91634807D01*
X110833880Y-91850931D01*
X111046080Y-91995921D01*
X111297970Y-92046930D01*
X113296950Y-92046930D01*
X113532267Y-92002652D01*
X113748391Y-91863580D01*
X113893381Y-91651380D01*
X113944390Y-91399490D01*
X113944390Y-89400510D01*
X113900112Y-89165193D01*
X113761040Y-88949069D01*
X113548840Y-88804079D01*
X113296950Y-88753070D01*
X111297970Y-88753070D01*
X111062653Y-88797348D01*
X110846529Y-88936420D01*
X110701539Y-89148620D01*
X110650530Y-89400510D01*
X100930000Y-89400510D01*
X100930000Y-86948076D01*
X101158901Y-87177377D01*
X102124784Y-87578447D01*
X103170627Y-87579360D01*
X104137209Y-87179976D01*
X104877377Y-86441099D01*
X105278447Y-85475216D01*
X105279360Y-84429373D01*
X104879976Y-83462791D01*
X104141099Y-82722623D01*
X103175216Y-82321553D01*
X102129373Y-82320640D01*
X101162791Y-82720024D01*
X100930000Y-82952409D01*
X100930000Y-82528439D01*
X101192862Y-82055197D01*
X101613091Y-81730992D01*
X101979167Y-81093078D01*
X102073258Y-80363631D01*
X102073258Y-80363630D01*
X103266742Y-80363630D01*
X103360833Y-81093077D01*
X103726909Y-81730992D01*
X104309238Y-82180257D01*
X104377287Y-82198682D01*
X105026993Y-83370781D01*
X105502211Y-83932131D01*
X106156076Y-84268892D01*
X106395640Y-84288798D01*
X106244353Y-84653138D01*
X106243837Y-85244268D01*
X106469576Y-85790598D01*
X106887203Y-86208955D01*
X107433138Y-86435647D01*
X108024268Y-86436163D01*
X108570598Y-86210424D01*
X108988955Y-85792797D01*
X109215647Y-85246862D01*
X109216163Y-84655732D01*
X108990424Y-84109402D01*
X108572797Y-83691045D01*
X108199453Y-83536019D01*
X108487629Y-82976489D01*
X108532208Y-82440000D01*
X110857460Y-82440000D01*
X111148299Y-82382148D01*
X111394861Y-82217401D01*
X111806377Y-81805885D01*
X111970913Y-81874206D01*
X112621154Y-81874774D01*
X113222115Y-81626462D01*
X113682306Y-81167073D01*
X113931666Y-80566547D01*
X113932234Y-79916306D01*
X113683922Y-79315345D01*
X113224533Y-78855154D01*
X112624007Y-78605794D01*
X111973766Y-78605226D01*
X111372805Y-78853538D01*
X110912614Y-79312927D01*
X110663254Y-79913453D01*
X110662686Y-80563694D01*
X110731769Y-80730889D01*
X110542658Y-80920000D01*
X107978948Y-80920000D01*
X107463007Y-79989219D01*
X107008197Y-79451975D01*
X106979167Y-79226922D01*
X106613091Y-78589008D01*
X106030762Y-78139743D01*
X105320834Y-77947524D01*
X104591387Y-78041614D01*
X103953472Y-78407691D01*
X103504207Y-78990020D01*
X103311988Y-79699948D01*
X103266742Y-80363630D01*
X102073258Y-80363630D01*
X102028012Y-79699948D01*
X101835793Y-78990020D01*
X101386528Y-78407691D01*
X100930000Y-78145706D01*
X100930000Y-70300510D01*
X110600530Y-70300510D01*
X110600530Y-72299490D01*
X110644808Y-72534807D01*
X110783880Y-72750931D01*
X110996080Y-72895921D01*
X111247970Y-72946930D01*
X113246950Y-72946930D01*
X113482267Y-72902652D01*
X113698391Y-72763580D01*
X113843381Y-72551380D01*
X113894390Y-72299490D01*
X113894390Y-70300510D01*
X113850112Y-70065193D01*
X113711040Y-69849069D01*
X113498840Y-69704079D01*
X113246950Y-69653070D01*
X111247970Y-69653070D01*
X111012653Y-69697348D01*
X110796529Y-69836420D01*
X110651539Y-70048620D01*
X110600530Y-70300510D01*
X100930000Y-70300510D01*
X100930000Y-67898076D01*
X101158901Y-68127377D01*
X102124784Y-68528447D01*
X103170627Y-68529360D01*
X104137209Y-68129976D01*
X104877377Y-67391099D01*
X105278447Y-66425216D01*
X105279360Y-65379373D01*
X104879976Y-64412791D01*
X104141099Y-63672623D01*
X103175216Y-63271553D01*
X102129373Y-63270640D01*
X101162791Y-63670024D01*
X100930000Y-63902409D01*
X100930000Y-63478439D01*
X101192862Y-63005197D01*
X101613091Y-62680992D01*
X101979167Y-62043078D01*
X102073258Y-61313631D01*
X102073258Y-61313630D01*
X103266742Y-61313630D01*
X103360833Y-62043077D01*
X103726909Y-62680992D01*
X104309238Y-63130257D01*
X104377287Y-63148682D01*
X105026993Y-64320781D01*
X105502211Y-64882131D01*
X106156076Y-65218892D01*
X106395640Y-65238798D01*
X106244353Y-65603138D01*
X106243837Y-66194268D01*
X106469576Y-66740598D01*
X106887203Y-67158955D01*
X107433138Y-67385647D01*
X108024268Y-67386163D01*
X108570598Y-67160424D01*
X108988955Y-66742797D01*
X109215647Y-66196862D01*
X109216163Y-65605732D01*
X108990424Y-65059402D01*
X108572797Y-64641045D01*
X108199453Y-64486019D01*
X108487629Y-63926489D01*
X108548534Y-63193525D01*
X108324309Y-62493047D01*
X108014915Y-61934887D01*
X108049802Y-61900000D01*
X110792964Y-61900000D01*
X110860998Y-62064655D01*
X111320387Y-62524846D01*
X111920913Y-62774206D01*
X112571154Y-62774774D01*
X113172115Y-62526462D01*
X113632306Y-62067073D01*
X113881666Y-61466547D01*
X113882234Y-60816306D01*
X113633922Y-60215345D01*
X113174533Y-59755154D01*
X112574007Y-59505794D01*
X111923766Y-59505226D01*
X111322805Y-59753538D01*
X110862614Y-60212927D01*
X110793239Y-60380000D01*
X107735000Y-60380000D01*
X107444160Y-60437852D01*
X107197599Y-60602599D01*
X107187005Y-60613193D01*
X107008197Y-60401975D01*
X106979167Y-60176922D01*
X106613091Y-59539008D01*
X106030762Y-59089743D01*
X105320834Y-58897524D01*
X104591387Y-58991614D01*
X103953472Y-59357691D01*
X103504207Y-59940020D01*
X103311988Y-60649948D01*
X103266742Y-61313630D01*
X102073258Y-61313630D01*
X102028012Y-60649948D01*
X101835793Y-59940020D01*
X101386528Y-59357691D01*
X100748613Y-58991615D01*
X100019166Y-58897524D01*
X100005000Y-58901360D01*
X100005000Y-57326215D01*
X100633390Y-57326215D01*
X100710656Y-57574976D01*
X101257131Y-57772340D01*
X101837535Y-57745553D01*
X102249344Y-57574976D01*
X102326610Y-57326215D01*
X101480000Y-56479605D01*
X100633390Y-57326215D01*
X100005000Y-57326215D01*
X100005000Y-56077131D01*
X100007660Y-56077131D01*
X100034447Y-56657535D01*
X100205024Y-57069344D01*
X100453785Y-57146610D01*
X101300395Y-56300000D01*
X100453785Y-55453390D01*
X100205024Y-55530656D01*
X100007660Y-56077131D01*
X100005000Y-56077131D01*
X100005000Y-55273785D01*
X100633390Y-55273785D01*
X101480000Y-56120395D01*
X102326610Y-55273785D01*
X102249344Y-55025024D01*
X101702869Y-54827660D01*
X101122465Y-54854447D01*
X100710656Y-55025024D01*
X100633390Y-55273785D01*
X100005000Y-55273785D01*
X100005000Y-47370627D01*
X100020640Y-47370627D01*
X100420024Y-48337209D01*
X101158901Y-49077377D01*
X102124784Y-49478447D01*
X103170627Y-49479360D01*
X104137209Y-49079976D01*
X104877377Y-48341099D01*
X105278447Y-47375216D01*
X105279360Y-46329373D01*
X104879976Y-45362791D01*
X104141099Y-44622623D01*
X103175216Y-44221553D01*
X102129373Y-44220640D01*
X101162791Y-44620024D01*
X100422623Y-45358901D01*
X100021553Y-46324784D01*
X100020640Y-47370627D01*
X100005000Y-47370627D01*
X100005000Y-45810167D01*
X100461532Y-45271842D01*
X101192862Y-43955197D01*
X101613091Y-43630992D01*
X101979167Y-42993078D01*
X102073258Y-42263631D01*
X102028012Y-41599948D01*
X101835793Y-40890020D01*
X101386528Y-40307691D01*
X100748613Y-39941615D01*
X100019166Y-39847524D01*
X99309238Y-40039743D01*
X98726909Y-40489008D01*
X98360833Y-41126923D01*
X98304649Y-41562496D01*
X98028467Y-41888158D01*
X97165812Y-43441234D01*
X96940976Y-44141516D01*
X97001242Y-44874533D01*
X97256742Y-45371683D01*
X96729402Y-45589576D01*
X96311045Y-46007203D01*
X96084353Y-46553138D01*
X96083837Y-47144268D01*
X90165649Y-47144268D01*
X90166163Y-46555732D01*
X89940424Y-46009402D01*
X89522797Y-45591045D01*
X89149453Y-45436019D01*
X89437629Y-44876489D01*
X89498534Y-44143525D01*
X89274309Y-43443047D01*
X88964915Y-42884887D01*
X88999802Y-42850000D01*
X91792964Y-42850000D01*
X91860998Y-43014655D01*
X92320387Y-43474846D01*
X92920913Y-43724206D01*
X93571154Y-43724774D01*
X94172115Y-43476462D01*
X94632306Y-43017073D01*
X94881666Y-42416547D01*
X94882234Y-41766306D01*
X94633922Y-41165345D01*
X94174533Y-40705154D01*
X93574007Y-40455794D01*
X92923766Y-40455226D01*
X92322805Y-40703538D01*
X91862614Y-41162927D01*
X91793239Y-41330000D01*
X88685000Y-41330000D01*
X88394160Y-41387852D01*
X88147599Y-41552599D01*
X88137005Y-41563193D01*
X87958197Y-41351975D01*
X87929167Y-41126922D01*
X87563091Y-40489008D01*
X86980762Y-40039743D01*
X86270834Y-39847524D01*
X85541387Y-39941614D01*
X84903472Y-40307691D01*
X84454207Y-40890020D01*
X84261988Y-41599948D01*
X84216742Y-42263630D01*
X83023258Y-42263630D01*
X82978012Y-41599948D01*
X82785793Y-40890020D01*
X82336528Y-40307691D01*
X81698613Y-39941615D01*
X80969166Y-39847524D01*
X80259238Y-40039743D01*
X79676909Y-40489008D01*
X79310833Y-41126923D01*
X79254649Y-41562496D01*
X78978467Y-41888158D01*
X78115812Y-43441234D01*
X77890976Y-44141516D01*
X77951242Y-44874533D01*
X78206742Y-45371683D01*
X77679402Y-45589576D01*
X77261045Y-46007203D01*
X77039544Y-46540637D01*
X76987401Y-46462599D01*
X74687401Y-44162599D01*
X74440839Y-43997852D01*
X74150000Y-43940000D01*
X73581737Y-43940000D01*
X73692882Y-43635003D01*
X73666891Y-43034332D01*
X73487027Y-42600104D01*
X73233001Y-42516604D01*
X72349605Y-43400000D01*
X72363748Y-43414143D01*
X72184143Y-43593748D01*
X72170000Y-43579605D01*
X72155858Y-43593748D01*
X71976253Y-43414143D01*
X71990395Y-43400000D01*
X71106999Y-42516604D01*
X70852973Y-42600104D01*
X70647118Y-43164997D01*
X70651972Y-43277170D01*
X70417401Y-43042599D01*
X70170839Y-42877852D01*
X69880000Y-42820000D01*
X69878948Y-42820000D01*
X69363007Y-41889219D01*
X68908197Y-41351975D01*
X68879167Y-41126922D01*
X68513091Y-40489008D01*
X67930762Y-40039743D01*
X67220834Y-39847524D01*
X66491387Y-39941614D01*
X65853472Y-40307691D01*
X65404207Y-40890020D01*
X65211988Y-41599948D01*
X65166742Y-42263630D01*
X65260833Y-42993077D01*
X65626909Y-43630992D01*
X66209238Y-44080257D01*
X66277287Y-44098682D01*
X66926993Y-45270781D01*
X67402211Y-45832131D01*
X68056076Y-46168892D01*
X68295640Y-46188798D01*
X68144353Y-46553138D01*
X68143837Y-47144268D01*
X68369576Y-47690598D01*
X68787203Y-48108955D01*
X69333138Y-48335647D01*
X69924268Y-48336163D01*
X70470598Y-48110424D01*
X70840293Y-47741374D01*
X70658963Y-48178065D01*
X70658438Y-48779297D01*
X70888035Y-49334964D01*
X71302698Y-49750351D01*
X70889529Y-50162800D01*
X70658963Y-50718065D01*
X70658438Y-51319297D01*
X70888035Y-51874964D01*
X71302698Y-52290351D01*
X70889529Y-52702800D01*
X70849168Y-52800000D01*
X65974802Y-52800000D01*
X62830000Y-49655198D01*
X62830000Y-48848076D01*
X63058901Y-49077377D01*
X64024784Y-49478447D01*
X65070627Y-49479360D01*
X66037209Y-49079976D01*
X66777377Y-48341099D01*
X67178447Y-47375216D01*
X67179360Y-46329373D01*
X66779976Y-45362791D01*
X66041099Y-44622623D01*
X65075216Y-44221553D01*
X64029373Y-44220640D01*
X63062791Y-44620024D01*
X62830000Y-44852409D01*
X62830000Y-44428439D01*
X63092862Y-43955197D01*
X63513091Y-43630992D01*
X63879167Y-42993078D01*
X63973258Y-42263631D01*
X63928012Y-41599948D01*
X63735793Y-40890020D01*
X63286528Y-40307691D01*
X62648613Y-39941615D01*
X61919166Y-39847524D01*
X61209238Y-40039743D01*
X60626909Y-40489008D01*
X60260833Y-41126923D01*
X60204649Y-41562496D01*
X59928467Y-41888158D01*
X59065812Y-43441234D01*
X58840976Y-44141516D01*
X58901242Y-44874533D01*
X59156742Y-45371683D01*
X58629402Y-45589576D01*
X58441443Y-45777207D01*
X58441562Y-45640703D01*
X58211965Y-45085036D01*
X57797302Y-44669649D01*
X58210471Y-44257200D01*
X58441037Y-43701935D01*
X58441562Y-43100703D01*
X58211965Y-42545036D01*
X57797302Y-42129649D01*
X58210471Y-41717200D01*
X58441037Y-41161935D01*
X58441562Y-40560703D01*
X58211965Y-40005036D01*
X57797302Y-39589649D01*
X58210471Y-39177200D01*
X58441037Y-38621935D01*
X58441562Y-38020703D01*
X58211965Y-37465036D01*
X57797302Y-37049649D01*
X58210471Y-36637200D01*
X58441037Y-36081935D01*
X58441562Y-35480703D01*
X58211965Y-34925036D01*
X58190667Y-34903700D01*
X70646260Y-34903700D01*
X70646260Y-36656300D01*
X70690538Y-36891617D01*
X70829610Y-37107741D01*
X71041810Y-37252731D01*
X71090157Y-37262522D01*
X70889529Y-37462800D01*
X70658963Y-38018065D01*
X70658438Y-38619297D01*
X70888035Y-39174964D01*
X71302698Y-39590351D01*
X70889529Y-40002800D01*
X70658963Y-40558065D01*
X70658438Y-41159297D01*
X70888035Y-41714964D01*
X71312800Y-42140471D01*
X71346592Y-42154503D01*
X71286604Y-42336999D01*
X72170000Y-43220395D01*
X73053396Y-42336999D01*
X72993553Y-42154944D01*
X73024964Y-42141965D01*
X73450471Y-41717200D01*
X73681037Y-41161935D01*
X73681562Y-40560703D01*
X73451965Y-40005036D01*
X73037302Y-39589649D01*
X73450471Y-39177200D01*
X73681037Y-38621935D01*
X73681562Y-38020703D01*
X73451965Y-37465036D01*
X73252263Y-37264985D01*
X73281617Y-37259462D01*
X73497741Y-37120390D01*
X73642731Y-36908190D01*
X73693740Y-36656300D01*
X73693740Y-34903700D01*
X73649462Y-34668383D01*
X73510390Y-34452259D01*
X73298190Y-34307269D01*
X73046300Y-34256260D01*
X71293700Y-34256260D01*
X71058383Y-34300538D01*
X70842259Y-34439610D01*
X70697269Y-34651810D01*
X70646260Y-34903700D01*
X58190667Y-34903700D01*
X57787200Y-34499529D01*
X57231935Y-34268963D01*
X56630703Y-34268438D01*
X56075036Y-34498035D01*
X55814707Y-34757910D01*
X55781653Y-34677913D01*
X54815428Y-33710000D01*
X74705908Y-33710000D01*
X79997954Y-39002046D01*
X79997954Y-39002046D01*
G37*
X79997954Y-39002046D02*
X80228295Y-39155954D01*
X80500000Y-39210001D01*
X80500005Y-39210000D01*
X117041319Y-39210000D01*
X116962598Y-39262599D01*
X113831686Y-42393511D01*
X113832234Y-41766306D01*
X113583922Y-41165345D01*
X113124533Y-40705154D01*
X112524007Y-40455794D01*
X111873766Y-40455226D01*
X111272805Y-40703538D01*
X110812614Y-41162927D01*
X110563254Y-41763453D01*
X110562686Y-42413694D01*
X110631769Y-42580889D01*
X110392658Y-42820000D01*
X107978948Y-42820000D01*
X107463007Y-41889219D01*
X107008197Y-41351975D01*
X106979167Y-41126922D01*
X106613091Y-40489008D01*
X106030762Y-40039743D01*
X105320834Y-39847524D01*
X104591387Y-39941614D01*
X103953472Y-40307691D01*
X103504207Y-40890020D01*
X103311988Y-41599948D01*
X103266742Y-42263630D01*
X103360833Y-42993077D01*
X103726909Y-43630992D01*
X104309238Y-44080257D01*
X104377287Y-44098682D01*
X105026993Y-45270781D01*
X105502211Y-45832131D01*
X106156076Y-46168892D01*
X106395640Y-46188798D01*
X106244353Y-46553138D01*
X106243837Y-47144268D01*
X106469576Y-47690598D01*
X106887203Y-48108955D01*
X107433138Y-48335647D01*
X107889153Y-48336045D01*
X103432599Y-52792599D01*
X103267852Y-53039161D01*
X103210000Y-53330000D01*
X103210000Y-55033762D01*
X103143774Y-55061126D01*
X102732570Y-55471613D01*
X102713414Y-55517747D01*
X102506215Y-55453390D01*
X101659605Y-56300000D01*
X102506215Y-57146610D01*
X102713009Y-57082379D01*
X102731126Y-57126226D01*
X103141613Y-57537430D01*
X103678214Y-57760246D01*
X104259237Y-57760753D01*
X104796226Y-57538874D01*
X105207430Y-57128387D01*
X105430246Y-56591786D01*
X105430695Y-56077131D01*
X112657660Y-56077131D01*
X112684447Y-56657535D01*
X112855024Y-57069344D01*
X113103785Y-57146610D01*
X113950395Y-56300000D01*
X113103785Y-55453390D01*
X112855024Y-55530656D01*
X112657660Y-56077131D01*
X105430695Y-56077131D01*
X105430753Y-56010763D01*
X105208874Y-55473774D01*
X104798387Y-55062570D01*
X104730000Y-55034173D01*
X104730000Y-53644802D01*
X107124292Y-51250510D01*
X110550530Y-51250510D01*
X110550530Y-53249490D01*
X110594808Y-53484807D01*
X110733880Y-53700931D01*
X110946080Y-53845921D01*
X111197970Y-53896930D01*
X113196950Y-53896930D01*
X113262360Y-53884622D01*
X114211904Y-54834166D01*
X113772465Y-54854447D01*
X113360656Y-55025024D01*
X113283390Y-55273785D01*
X114130000Y-56120395D01*
X114144143Y-56106253D01*
X114323748Y-56285858D01*
X114309605Y-56300000D01*
X114323748Y-56314143D01*
X114144143Y-56493748D01*
X114130000Y-56479605D01*
X113283390Y-57326215D01*
X113360656Y-57574976D01*
X113907131Y-57772340D01*
X114487535Y-57745553D01*
X114899344Y-57574976D01*
X114976609Y-57326217D01*
X115091399Y-57441007D01*
X115124035Y-57408371D01*
X115147348Y-57532267D01*
X115286420Y-57748391D01*
X115498620Y-57893381D01*
X115750510Y-57944390D01*
X117749490Y-57944390D01*
X117984807Y-57900112D01*
X118200931Y-57761040D01*
X118345921Y-57548840D01*
X118396930Y-57296950D01*
X118396930Y-55297970D01*
X118352652Y-55062653D01*
X118213580Y-54846529D01*
X118001380Y-54701539D01*
X117749490Y-54650530D01*
X116177872Y-54650530D01*
X113844390Y-52317048D01*
X113844390Y-51250510D01*
X113800112Y-51015193D01*
X113661040Y-50799069D01*
X113448840Y-50654079D01*
X113196950Y-50603070D01*
X111197970Y-50603070D01*
X110962653Y-50647348D01*
X110746529Y-50786420D01*
X110601539Y-50998620D01*
X110550530Y-51250510D01*
X107124292Y-51250510D01*
X117630276Y-40744527D01*
X117410833Y-41126923D01*
X117354649Y-41562496D01*
X117078467Y-41888158D01*
X116215812Y-43441234D01*
X115990976Y-44141516D01*
X116051242Y-44874533D01*
X116306742Y-45371683D01*
X115779402Y-45589576D01*
X115361045Y-46007203D01*
X115134353Y-46553138D01*
X115133837Y-47144268D01*
X115359576Y-47690598D01*
X115777203Y-48108955D01*
X116323138Y-48335647D01*
X116914268Y-48336163D01*
X117460598Y-48110424D01*
X117878955Y-47692797D01*
X118105647Y-47146862D01*
X118106163Y-46555732D01*
X117960658Y-46203582D01*
X118381667Y-46168968D01*
X118460000Y-46128710D01*
X118460000Y-59062461D01*
X118359238Y-59089743D01*
X117776909Y-59539008D01*
X117410833Y-60176923D01*
X117354649Y-60612496D01*
X117078467Y-60938158D01*
X116215812Y-62491234D01*
X115990976Y-63191516D01*
X116051242Y-63924533D01*
X116306742Y-64421683D01*
X115779402Y-64639576D01*
X115361045Y-65057203D01*
X115134353Y-65603138D01*
X115133837Y-66194268D01*
X115359576Y-66740598D01*
X115777203Y-67158955D01*
X116323138Y-67385647D01*
X116914268Y-67386163D01*
X117460598Y-67160424D01*
X117878955Y-66742797D01*
X118105647Y-66196862D01*
X118106163Y-65605732D01*
X117960658Y-65253582D01*
X118381667Y-65218968D01*
X118460000Y-65178710D01*
X118460000Y-78112461D01*
X118359238Y-78139743D01*
X117776909Y-78589008D01*
X117410833Y-79226923D01*
X117354649Y-79662496D01*
X117078467Y-79988158D01*
X116215812Y-81541234D01*
X115990976Y-82241516D01*
X116051242Y-82974533D01*
X116306742Y-83471683D01*
X115779402Y-83689576D01*
X115361045Y-84107203D01*
X115134353Y-84653138D01*
X115133837Y-85244268D01*
X115359576Y-85790598D01*
X115777203Y-86208955D01*
X116323138Y-86435647D01*
X116914268Y-86436163D01*
X117460598Y-86210424D01*
X117878955Y-85792797D01*
X118105647Y-85246862D01*
X118106163Y-84655732D01*
X117960658Y-84303582D01*
X118381667Y-84268968D01*
X118460000Y-84228710D01*
X118460000Y-97162461D01*
X118359238Y-97189743D01*
X117776909Y-97639008D01*
X117410833Y-98276923D01*
X117354649Y-98712496D01*
X117078467Y-99038158D01*
X116215812Y-100591234D01*
X116010000Y-101232263D01*
X116010000Y-96144390D01*
X116249490Y-96144390D01*
X116484807Y-96100112D01*
X116700931Y-95961040D01*
X116845921Y-95748840D01*
X116896930Y-95496950D01*
X116896930Y-93497970D01*
X116852652Y-93262653D01*
X116713580Y-93046529D01*
X116501380Y-92901539D01*
X116249490Y-92850530D01*
X114250510Y-92850530D01*
X114015193Y-92894808D01*
X113799069Y-93033880D01*
X113654079Y-93246080D01*
X113603070Y-93497970D01*
X113603070Y-95496950D01*
X113647348Y-95732267D01*
X113786420Y-95948391D01*
X113998620Y-96093381D01*
X114250510Y-96144390D01*
X114490000Y-96144390D01*
X114490000Y-105782658D01*
X112719588Y-107553070D01*
X111147970Y-107553070D01*
X110912653Y-107597348D01*
X110696529Y-107736420D01*
X110551539Y-107948620D01*
X110500530Y-108200510D01*
X110500530Y-110199490D01*
X110544808Y-110434807D01*
X110683880Y-110650931D01*
X110896080Y-110795921D01*
X111147970Y-110846930D01*
X113146950Y-110846930D01*
X113382267Y-110802652D01*
X113598391Y-110663580D01*
X113743381Y-110451380D01*
X113794390Y-110199490D01*
X113794390Y-108627872D01*
X115787401Y-106634861D01*
X115952148Y-106388299D01*
X116010000Y-106097460D01*
X116010000Y-105355621D01*
X116323138Y-105485647D01*
X116914268Y-105486163D01*
X117460598Y-105260424D01*
X117878955Y-104842797D01*
X118012731Y-104520627D01*
X119070640Y-104520627D01*
X119470024Y-105487209D01*
X120208901Y-106227377D01*
X121174784Y-106628447D01*
X122220627Y-106629360D01*
X123187209Y-106229976D01*
X123927377Y-105491099D01*
X124328447Y-104525216D01*
X124329360Y-103479373D01*
X123929976Y-102512791D01*
X123191099Y-101772623D01*
X122225216Y-101371553D01*
X121179373Y-101370640D01*
X120212791Y-101770024D01*
X119472623Y-102508901D01*
X119071553Y-103474784D01*
X119070640Y-104520627D01*
X118012731Y-104520627D01*
X118105647Y-104296862D01*
X118106163Y-103705732D01*
X117960658Y-103353582D01*
X118381667Y-103318968D01*
X119035825Y-102982777D01*
X119511532Y-102421842D01*
X120242862Y-101105197D01*
X120663091Y-100780992D01*
X121029167Y-100143078D01*
X121123258Y-99413631D01*
X121078012Y-98749948D01*
X120885793Y-98040020D01*
X120436528Y-97457691D01*
X119980000Y-97195706D01*
X119980000Y-86948076D01*
X120208901Y-87177377D01*
X121174784Y-87578447D01*
X122220627Y-87579360D01*
X123187209Y-87179976D01*
X123366988Y-87000510D01*
X129600530Y-87000510D01*
X129600530Y-88999490D01*
X129644808Y-89234807D01*
X129783880Y-89450931D01*
X129996080Y-89595921D01*
X130247970Y-89646930D01*
X132246950Y-89646930D01*
X132482267Y-89602652D01*
X132698391Y-89463580D01*
X132843381Y-89251380D01*
X132894390Y-88999490D01*
X132894390Y-87000510D01*
X132850112Y-86765193D01*
X132711040Y-86549069D01*
X132498840Y-86404079D01*
X132246950Y-86353070D01*
X130247970Y-86353070D01*
X130012653Y-86397348D01*
X129796529Y-86536420D01*
X129651539Y-86748620D01*
X129600530Y-87000510D01*
X123366988Y-87000510D01*
X123927377Y-86441099D01*
X124328447Y-85475216D01*
X124329360Y-84429373D01*
X123929976Y-83462791D01*
X123191099Y-82722623D01*
X122225216Y-82321553D01*
X121179373Y-82320640D01*
X120212791Y-82720024D01*
X119980000Y-82952409D01*
X119980000Y-82528439D01*
X120242862Y-82055197D01*
X120663091Y-81730992D01*
X121029167Y-81093078D01*
X121123258Y-80363631D01*
X121123258Y-80363630D01*
X122316742Y-80363630D01*
X122410833Y-81093077D01*
X122776909Y-81730992D01*
X123359238Y-82180257D01*
X123427287Y-82198682D01*
X124076993Y-83370781D01*
X124552211Y-83932131D01*
X125206076Y-84268892D01*
X125445640Y-84288798D01*
X125294353Y-84653138D01*
X125293837Y-85244268D01*
X125519576Y-85790598D01*
X125937203Y-86208955D01*
X126483138Y-86435647D01*
X127074268Y-86436163D01*
X127620598Y-86210424D01*
X128038955Y-85792797D01*
X128265647Y-85246862D01*
X128266163Y-84655732D01*
X128040424Y-84109402D01*
X127622797Y-83691045D01*
X127249453Y-83536019D01*
X127537629Y-82976489D01*
X127598534Y-82243525D01*
X127374309Y-81543047D01*
X127073831Y-81000971D01*
X129474802Y-78600000D01*
X129792964Y-78600000D01*
X129860998Y-78764655D01*
X130320387Y-79224846D01*
X130920913Y-79474206D01*
X131571154Y-79474774D01*
X132172115Y-79226462D01*
X132632306Y-78767073D01*
X132881666Y-78166547D01*
X132882234Y-77516306D01*
X132633922Y-76915345D01*
X132174533Y-76455154D01*
X131574007Y-76205794D01*
X130923766Y-76205226D01*
X130322805Y-76453538D01*
X129862614Y-76912927D01*
X129793239Y-77080000D01*
X129160000Y-77080000D01*
X128869161Y-77137852D01*
X128622599Y-77302599D01*
X126248467Y-79676731D01*
X126058197Y-79451975D01*
X126029167Y-79226922D01*
X125663091Y-78589008D01*
X125080762Y-78139743D01*
X124370834Y-77947524D01*
X123641387Y-78041614D01*
X123003472Y-78407691D01*
X122554207Y-78990020D01*
X122361988Y-79699948D01*
X122316742Y-80363630D01*
X121123258Y-80363630D01*
X121078012Y-79699948D01*
X120885793Y-78990020D01*
X120436528Y-78407691D01*
X119980000Y-78145706D01*
X119980000Y-74347970D01*
X133953070Y-74347970D01*
X133953070Y-76346950D01*
X133997348Y-76582267D01*
X134136420Y-76798391D01*
X134348620Y-76943381D01*
X134600510Y-76994390D01*
X136599490Y-76994390D01*
X136834807Y-76950112D01*
X137050931Y-76811040D01*
X137195921Y-76598840D01*
X137246930Y-76346950D01*
X137246930Y-74347970D01*
X137202652Y-74112653D01*
X137063580Y-73896529D01*
X136851380Y-73751539D01*
X136599490Y-73700530D01*
X134600510Y-73700530D01*
X134365193Y-73744808D01*
X134149069Y-73883880D01*
X134004079Y-74096080D01*
X133953070Y-74347970D01*
X119980000Y-74347970D01*
X119980000Y-70550510D01*
X129650530Y-70550510D01*
X129650530Y-72549490D01*
X129694808Y-72784807D01*
X129833880Y-73000931D01*
X130046080Y-73145921D01*
X130297970Y-73196930D01*
X132296950Y-73196930D01*
X132532267Y-73152652D01*
X132748391Y-73013580D01*
X132893381Y-72801380D01*
X132944390Y-72549490D01*
X132944390Y-70550510D01*
X132900112Y-70315193D01*
X132761040Y-70099069D01*
X132548840Y-69954079D01*
X132296950Y-69903070D01*
X130297970Y-69903070D01*
X130062653Y-69947348D01*
X129846529Y-70086420D01*
X129701539Y-70298620D01*
X129650530Y-70550510D01*
X119980000Y-70550510D01*
X119980000Y-67898076D01*
X120208901Y-68127377D01*
X121174784Y-68528447D01*
X122220627Y-68529360D01*
X123187209Y-68129976D01*
X123927377Y-67391099D01*
X124328447Y-66425216D01*
X124329360Y-65379373D01*
X123929976Y-64412791D01*
X123191099Y-63672623D01*
X122225216Y-63271553D01*
X121179373Y-63270640D01*
X120212791Y-63670024D01*
X119980000Y-63902409D01*
X119980000Y-63478439D01*
X120242862Y-63005197D01*
X120663091Y-62680992D01*
X121029167Y-62043078D01*
X121123258Y-61313631D01*
X121078012Y-60649948D01*
X120885793Y-59940020D01*
X120827044Y-59863870D01*
X120959161Y-59952148D01*
X121250000Y-60010000D01*
X122535259Y-60010000D01*
X122361988Y-60649948D01*
X122316742Y-61313630D01*
X122410833Y-62043077D01*
X122776909Y-62680992D01*
X123359238Y-63130257D01*
X123427287Y-63148682D01*
X124076993Y-64320781D01*
X124552211Y-64882131D01*
X125206076Y-65218892D01*
X125445640Y-65238798D01*
X125294353Y-65603138D01*
X125293837Y-66194268D01*
X125519576Y-66740598D01*
X125937203Y-67158955D01*
X126483138Y-67385647D01*
X127074268Y-67386163D01*
X127620598Y-67160424D01*
X128038955Y-66742797D01*
X128265647Y-66196862D01*
X128266163Y-65605732D01*
X128040424Y-65059402D01*
X127622797Y-64641045D01*
X127249453Y-64486019D01*
X127537629Y-63926489D01*
X127582208Y-63390000D01*
X129642623Y-63390000D01*
X129863538Y-63924655D01*
X130322927Y-64384846D01*
X130923453Y-64634206D01*
X131573694Y-64634774D01*
X132174655Y-64386462D01*
X132634846Y-63927073D01*
X132884206Y-63326547D01*
X132884774Y-62676306D01*
X132636462Y-62075345D01*
X132177073Y-61615154D01*
X131576547Y-61365794D01*
X130926306Y-61365226D01*
X130325345Y-61613538D01*
X130068435Y-61870000D01*
X127028948Y-61870000D01*
X126513007Y-60939219D01*
X126058197Y-60401975D01*
X126029167Y-60176922D01*
X125663091Y-59539008D01*
X125080762Y-59089743D01*
X124611984Y-58962818D01*
X125064802Y-58510000D01*
X125750000Y-58510000D01*
X126040839Y-58452148D01*
X126287401Y-58287401D01*
X126752108Y-57822694D01*
X127268347Y-59072087D01*
X128571055Y-60377071D01*
X130273997Y-61084194D01*
X132117914Y-61085803D01*
X133822087Y-60381653D01*
X133893865Y-60310000D01*
X136098635Y-60310000D01*
X136350000Y-60360000D01*
X136439515Y-60342194D01*
X136404649Y-60612496D01*
X136128467Y-60938158D01*
X135265812Y-62491234D01*
X135040976Y-63191516D01*
X135101242Y-63924533D01*
X135356742Y-64421683D01*
X134829402Y-64639576D01*
X134411045Y-65057203D01*
X134184353Y-65603138D01*
X134183837Y-66194268D01*
X134409576Y-66740598D01*
X134827203Y-67158955D01*
X135373138Y-67385647D01*
X135964268Y-67386163D01*
X136510598Y-67160424D01*
X136928955Y-66742797D01*
X137155647Y-66196862D01*
X137156163Y-65605732D01*
X137010658Y-65253582D01*
X137431667Y-65218968D01*
X137510000Y-65178710D01*
X137510000Y-78112461D01*
X137409238Y-78139743D01*
X136826909Y-78589008D01*
X136460833Y-79226923D01*
X136404649Y-79662496D01*
X136128467Y-79988158D01*
X135265812Y-81541234D01*
X135040976Y-82241516D01*
X135101242Y-82974533D01*
X135356742Y-83471683D01*
X134829402Y-83689576D01*
X134411045Y-84107203D01*
X134184353Y-84653138D01*
X134183837Y-85244268D01*
X134409576Y-85790598D01*
X134827203Y-86208955D01*
X135373138Y-86435647D01*
X135964268Y-86436163D01*
X136510598Y-86210424D01*
X136928955Y-85792797D01*
X137155647Y-85246862D01*
X137156163Y-84655732D01*
X137010658Y-84303582D01*
X137431667Y-84268968D01*
X137510000Y-84228710D01*
X137510000Y-89270000D01*
X137567852Y-89560839D01*
X137732599Y-89807401D01*
X138490000Y-90564802D01*
X138490000Y-93087587D01*
X138463580Y-93046529D01*
X138251380Y-92901539D01*
X137999490Y-92850530D01*
X136000510Y-92850530D01*
X135765193Y-92894808D01*
X135698815Y-92937521D01*
X135281653Y-91927913D01*
X133978945Y-90622929D01*
X132276003Y-89915806D01*
X130432086Y-89914197D01*
X128727913Y-90618347D01*
X127422929Y-91921055D01*
X126754512Y-93530782D01*
X126337073Y-93112614D01*
X125736547Y-92863254D01*
X125086306Y-92862686D01*
X124485345Y-93110998D01*
X124025154Y-93570387D01*
X123775794Y-94170913D01*
X123775226Y-94821154D01*
X124023538Y-95422115D01*
X124482927Y-95882306D01*
X124650000Y-95951681D01*
X124650000Y-96410000D01*
X124707852Y-96700839D01*
X124872599Y-96947401D01*
X125230340Y-97305142D01*
X125080762Y-97189743D01*
X124370834Y-96997524D01*
X123641387Y-97091614D01*
X123003472Y-97457691D01*
X122554207Y-98040020D01*
X122361988Y-98749948D01*
X122316742Y-99413630D01*
X122410833Y-100143077D01*
X122776909Y-100780992D01*
X123359238Y-101230257D01*
X123427287Y-101248682D01*
X124076993Y-102420781D01*
X124552211Y-102982131D01*
X125206076Y-103318892D01*
X125445640Y-103338798D01*
X125294353Y-103703138D01*
X125293837Y-104294268D01*
X125519576Y-104840598D01*
X125937203Y-105258955D01*
X126483138Y-105485647D01*
X127074268Y-105486163D01*
X127620598Y-105260424D01*
X128038955Y-104842797D01*
X128265647Y-104296862D01*
X128266163Y-103705732D01*
X128040424Y-103159402D01*
X127622797Y-102741045D01*
X127249453Y-102586019D01*
X127537629Y-102026489D01*
X127598534Y-101293525D01*
X127374309Y-100593047D01*
X126513007Y-99039219D01*
X126058197Y-98501975D01*
X126029167Y-98276922D01*
X125796256Y-97871058D01*
X135212599Y-107287401D01*
X135459160Y-107452148D01*
X135750000Y-107510000D01*
X143250000Y-107510000D01*
X143540839Y-107452148D01*
X143787401Y-107287401D01*
X144537401Y-106537401D01*
X144702148Y-106290840D01*
X144760000Y-106000000D01*
X144760000Y-105031355D01*
X144987203Y-105258955D01*
X145533138Y-105485647D01*
X146124268Y-105486163D01*
X146670598Y-105260424D01*
X147088955Y-104842797D01*
X147315647Y-104296862D01*
X147316163Y-103705732D01*
X147090424Y-103159402D01*
X146672797Y-102741045D01*
X146299453Y-102586019D01*
X146587629Y-102026489D01*
X146648534Y-101293525D01*
X146424309Y-100593047D01*
X145563007Y-99039219D01*
X145108197Y-98501975D01*
X145079167Y-98276922D01*
X144713091Y-97639008D01*
X144130762Y-97189743D01*
X143420834Y-96997524D01*
X142691387Y-97091614D01*
X142053472Y-97457691D01*
X141604207Y-98040020D01*
X141411988Y-98749948D01*
X141366742Y-99413630D01*
X141460833Y-100143077D01*
X141826909Y-100780992D01*
X142409238Y-101230257D01*
X142477287Y-101248682D01*
X143126993Y-102420781D01*
X143240000Y-102554270D01*
X143240000Y-103142096D01*
X142979976Y-102512791D01*
X142241099Y-101772623D01*
X141275216Y-101371553D01*
X140229373Y-101370640D01*
X139262791Y-101770024D01*
X138522623Y-102508901D01*
X138121553Y-103474784D01*
X138120640Y-104520627D01*
X138520024Y-105487209D01*
X139021938Y-105990000D01*
X136064802Y-105990000D01*
X135560613Y-105485811D01*
X135964268Y-105486163D01*
X136510598Y-105260424D01*
X136928955Y-104842797D01*
X137155647Y-104296862D01*
X137156163Y-103705732D01*
X137010658Y-103353582D01*
X137431667Y-103318968D01*
X138085825Y-102982777D01*
X138561532Y-102421842D01*
X139292862Y-101105197D01*
X139713091Y-100780992D01*
X140079167Y-100143078D01*
X140173258Y-99413631D01*
X140128012Y-98749948D01*
X140000357Y-98278477D01*
X140010000Y-98230000D01*
X140010000Y-90250000D01*
X140002756Y-90213580D01*
X139952148Y-89959160D01*
X139787401Y-89712599D01*
X139030000Y-88955198D01*
X139030000Y-86948076D01*
X139258901Y-87177377D01*
X140224784Y-87578447D01*
X141270627Y-87579360D01*
X142237209Y-87179976D01*
X142977377Y-86441099D01*
X143378447Y-85475216D01*
X143379360Y-84429373D01*
X142979976Y-83462791D01*
X142241099Y-82722623D01*
X141275216Y-82321553D01*
X140229373Y-82320640D01*
X139262791Y-82720024D01*
X139030000Y-82952409D01*
X139030000Y-82528439D01*
X139292862Y-82055197D01*
X139713091Y-81730992D01*
X140079167Y-81093078D01*
X140173258Y-80363631D01*
X140128012Y-79699948D01*
X139935793Y-78990020D01*
X139486528Y-78407691D01*
X139030000Y-78145706D01*
X139030000Y-67898076D01*
X139258901Y-68127377D01*
X140224784Y-68528447D01*
X141270627Y-68529360D01*
X142237209Y-68129976D01*
X142977377Y-67391099D01*
X143378447Y-66425216D01*
X143379360Y-65379373D01*
X142979976Y-64412791D01*
X142241099Y-63672623D01*
X141275216Y-63271553D01*
X140229373Y-63270640D01*
X139262791Y-63670024D01*
X139030000Y-63902409D01*
X139030000Y-63478439D01*
X139292862Y-63005197D01*
X139713091Y-62680992D01*
X140079167Y-62043078D01*
X140173258Y-61313631D01*
X140173258Y-61313630D01*
X141366742Y-61313630D01*
X141460833Y-62043077D01*
X141826909Y-62680992D01*
X142409238Y-63130257D01*
X142477287Y-63148682D01*
X143126993Y-64320781D01*
X143585000Y-64861801D01*
X143585000Y-73932460D01*
X143642852Y-74223299D01*
X143807599Y-74469861D01*
X144194115Y-74856377D01*
X144125794Y-75020913D01*
X144125226Y-75671154D01*
X144373538Y-76272115D01*
X144832927Y-76732306D01*
X145433453Y-76981666D01*
X146083694Y-76982234D01*
X146684655Y-76733922D01*
X147144846Y-76274533D01*
X147394206Y-75674007D01*
X147394774Y-75023766D01*
X147146462Y-74422805D01*
X146687073Y-73962614D01*
X146086547Y-73713254D01*
X145436306Y-73712686D01*
X145269111Y-73781769D01*
X145105000Y-73617658D01*
X145105000Y-67207869D01*
X145533138Y-67385647D01*
X146124268Y-67386163D01*
X146670598Y-67160424D01*
X147088955Y-66742797D01*
X147315647Y-66196862D01*
X147316163Y-65605732D01*
X147090424Y-65059402D01*
X146672797Y-64641045D01*
X146299453Y-64486019D01*
X146587629Y-63926489D01*
X146648534Y-63193525D01*
X146424309Y-62493047D01*
X145563007Y-60939219D01*
X145108197Y-60401975D01*
X145079167Y-60176922D01*
X144713091Y-59539008D01*
X144130762Y-59089743D01*
X143420834Y-58897524D01*
X142691387Y-58991614D01*
X142053472Y-59357691D01*
X141604207Y-59940020D01*
X141411988Y-60649948D01*
X141366742Y-61313630D01*
X140173258Y-61313630D01*
X140128012Y-60649948D01*
X140059157Y-60395645D01*
X141487401Y-58967401D01*
X141652148Y-58720840D01*
X141710000Y-58430000D01*
X141710000Y-50450000D01*
X141652148Y-50159161D01*
X141487401Y-49912599D01*
X141053973Y-49479171D01*
X141270627Y-49479360D01*
X142237209Y-49079976D01*
X142977377Y-48341099D01*
X143378447Y-47375216D01*
X143379360Y-46329373D01*
X142979976Y-45362791D01*
X142241099Y-44622623D01*
X141275216Y-44221553D01*
X140229373Y-44220640D01*
X139262791Y-44620024D01*
X138522623Y-45358901D01*
X138121553Y-46324784D01*
X138121359Y-46546557D01*
X138105000Y-46530198D01*
X138105000Y-45810167D01*
X138561532Y-45271842D01*
X139292862Y-43955197D01*
X139713091Y-43630992D01*
X140079167Y-42993078D01*
X140173258Y-42263631D01*
X140173258Y-42263630D01*
X141366742Y-42263630D01*
X141460833Y-42993077D01*
X141826909Y-43630992D01*
X142409238Y-44080257D01*
X142477287Y-44098682D01*
X143126993Y-45270781D01*
X143585000Y-45811801D01*
X143585000Y-54532460D01*
X143642852Y-54823299D01*
X143807599Y-55069861D01*
X144494115Y-55756377D01*
X144425794Y-55920913D01*
X144425226Y-56571154D01*
X144673538Y-57172115D01*
X145132927Y-57632306D01*
X145733453Y-57881666D01*
X146383694Y-57882234D01*
X146984655Y-57633922D01*
X147444846Y-57174533D01*
X147694206Y-56574007D01*
X147694774Y-55923766D01*
X147446462Y-55322805D01*
X146987073Y-54862614D01*
X146386547Y-54613254D01*
X145736306Y-54612686D01*
X145569111Y-54681769D01*
X145105000Y-54217658D01*
X145105000Y-48157869D01*
X145533138Y-48335647D01*
X146124268Y-48336163D01*
X146670598Y-48110424D01*
X147088955Y-47692797D01*
X147315647Y-47146862D01*
X147316163Y-46555732D01*
X147090424Y-46009402D01*
X146672797Y-45591045D01*
X146299453Y-45436019D01*
X146587629Y-44876489D01*
X146648534Y-44143525D01*
X146424309Y-43443047D01*
X145563007Y-41889219D01*
X145108197Y-41351975D01*
X145079167Y-41126922D01*
X144713091Y-40489008D01*
X144130762Y-40039743D01*
X143420834Y-39847524D01*
X142691387Y-39941614D01*
X142053472Y-40307691D01*
X141604207Y-40890020D01*
X141411988Y-41599948D01*
X141366742Y-42263630D01*
X140173258Y-42263630D01*
X140128012Y-41599948D01*
X139935793Y-40890020D01*
X139486528Y-40307691D01*
X138848613Y-39941615D01*
X138119166Y-39847524D01*
X137409238Y-40039743D01*
X136826909Y-40489008D01*
X136768239Y-40591245D01*
X136768362Y-40450103D01*
X136538765Y-39894436D01*
X136114000Y-39468929D01*
X135558735Y-39238363D01*
X134957503Y-39237838D01*
X134410000Y-39464062D01*
X134410000Y-38964802D01*
X136117902Y-37256900D01*
X136483194Y-37256900D01*
X137061543Y-37141859D01*
X137551844Y-36814250D01*
X137879453Y-36323949D01*
X137994494Y-35745600D01*
X137879453Y-35167251D01*
X137811580Y-35065672D01*
X142247954Y-39502046D01*
X142478295Y-39655954D01*
X142750000Y-39710000D01*
X148290000Y-39710000D01*
X148290000Y-93315895D01*
X148087073Y-93112614D01*
X147486547Y-92863254D01*
X146836306Y-92862686D01*
X146235345Y-93110998D01*
X146191805Y-93154463D01*
X145105000Y-92067658D01*
X145105000Y-86257869D01*
X145533138Y-86435647D01*
X146124268Y-86436163D01*
X146670598Y-86210424D01*
X147088955Y-85792797D01*
X147315647Y-85246862D01*
X147316163Y-84655732D01*
X147090424Y-84109402D01*
X146672797Y-83691045D01*
X146299453Y-83536019D01*
X146587629Y-82976489D01*
X146648534Y-82243525D01*
X146424309Y-81543047D01*
X145563007Y-79989219D01*
X145108197Y-79451975D01*
X145079167Y-79226922D01*
X144713091Y-78589008D01*
X144130762Y-78139743D01*
X143420834Y-77947524D01*
X142691387Y-78041614D01*
X142053472Y-78407691D01*
X141604207Y-78990020D01*
X141411988Y-79699948D01*
X141366742Y-80363630D01*
X141460833Y-81093077D01*
X141826909Y-81730992D01*
X142409238Y-82180257D01*
X142477287Y-82198682D01*
X143126993Y-83370781D01*
X143585000Y-83911801D01*
X143585000Y-92382460D01*
X143642852Y-92673299D01*
X143807599Y-92919861D01*
X145525386Y-94637648D01*
X145525226Y-94821154D01*
X145773538Y-95422115D01*
X146232927Y-95882306D01*
X146833453Y-96131666D01*
X147483694Y-96132234D01*
X148084655Y-95883922D01*
X148290000Y-95678935D01*
X148290000Y-111290000D01*
X132894390Y-111290000D01*
X132894390Y-109500510D01*
X132850112Y-109265193D01*
X132711040Y-109049069D01*
X132498840Y-108904079D01*
X132246950Y-108853070D01*
X130247970Y-108853070D01*
X130012653Y-108897348D01*
X129796529Y-109036420D01*
X129651539Y-109248620D01*
X129600530Y-109500510D01*
X129600530Y-111290000D01*
X56636187Y-111290000D01*
X56644390Y-111249490D01*
X56644390Y-109250510D01*
X56600112Y-109015193D01*
X56461040Y-108799069D01*
X56248840Y-108654079D01*
X55996950Y-108603070D01*
X55757460Y-108603070D01*
X55757460Y-108400510D01*
X72450530Y-108400510D01*
X72450530Y-110399490D01*
X72494808Y-110634807D01*
X72633880Y-110850931D01*
X72846080Y-110995921D01*
X73097970Y-111046930D01*
X75096950Y-111046930D01*
X75332267Y-111002652D01*
X75548391Y-110863580D01*
X75693381Y-110651380D01*
X75744390Y-110399490D01*
X75744390Y-108400510D01*
X75700112Y-108165193D01*
X75658490Y-108100510D01*
X91500530Y-108100510D01*
X91500530Y-110099490D01*
X91544808Y-110334807D01*
X91683880Y-110550931D01*
X91896080Y-110695921D01*
X92147970Y-110746930D01*
X94146950Y-110746930D01*
X94382267Y-110702652D01*
X94598391Y-110563580D01*
X94743381Y-110351380D01*
X94794390Y-110099490D01*
X94794390Y-108100510D01*
X94750112Y-107865193D01*
X94611040Y-107649069D01*
X94398840Y-107504079D01*
X94146950Y-107453070D01*
X92147970Y-107453070D01*
X91912653Y-107497348D01*
X91696529Y-107636420D01*
X91551539Y-107848620D01*
X91500530Y-108100510D01*
X75658490Y-108100510D01*
X75561040Y-107949069D01*
X75348840Y-107804079D01*
X75096950Y-107753070D01*
X73097970Y-107753070D01*
X72862653Y-107797348D01*
X72646529Y-107936420D01*
X72501539Y-108148620D01*
X72450530Y-108400510D01*
X55757460Y-108400510D01*
X55757460Y-103067342D01*
X60037401Y-98787401D01*
X60202148Y-98540839D01*
X60260000Y-98250000D01*
X60260000Y-89250000D01*
X60202148Y-88959161D01*
X60037401Y-88712599D01*
X58510000Y-87185198D01*
X58510000Y-86091547D01*
X58627203Y-86208955D01*
X59173138Y-86435647D01*
X59764268Y-86436163D01*
X60310598Y-86210424D01*
X60728955Y-85792797D01*
X60955647Y-85246862D01*
X60956163Y-84655732D01*
X60810658Y-84303582D01*
X61231667Y-84268968D01*
X61310000Y-84228710D01*
X61310000Y-97162461D01*
X61209238Y-97189743D01*
X60626909Y-97639008D01*
X60260833Y-98276923D01*
X60204649Y-98712496D01*
X59928467Y-99038158D01*
X59065812Y-100591234D01*
X58840976Y-101291516D01*
X58901242Y-102024533D01*
X59156742Y-102521683D01*
X58629402Y-102739576D01*
X58211045Y-103157203D01*
X57984353Y-103703138D01*
X57983837Y-104294268D01*
X58209576Y-104840598D01*
X58627203Y-105258955D01*
X59173138Y-105485647D01*
X59764268Y-105486163D01*
X60310598Y-105260424D01*
X60728955Y-104842797D01*
X60862731Y-104520627D01*
X61920640Y-104520627D01*
X62320024Y-105487209D01*
X63058901Y-106227377D01*
X64024784Y-106628447D01*
X65070627Y-106629360D01*
X66037209Y-106229976D01*
X66777377Y-105491099D01*
X67178447Y-104525216D01*
X67179360Y-103479373D01*
X66779976Y-102512791D01*
X66041099Y-101772623D01*
X65075216Y-101371553D01*
X64029373Y-101370640D01*
X63062791Y-101770024D01*
X62322623Y-102508901D01*
X61921553Y-103474784D01*
X61920640Y-104520627D01*
X60862731Y-104520627D01*
X60955647Y-104296862D01*
X60956163Y-103705732D01*
X60810658Y-103353582D01*
X61231667Y-103318968D01*
X61885825Y-102982777D01*
X62361532Y-102421842D01*
X63092862Y-101105197D01*
X63513091Y-100780992D01*
X63879167Y-100143078D01*
X63973258Y-99413631D01*
X63973258Y-99413630D01*
X65166742Y-99413630D01*
X65260833Y-100143077D01*
X65626909Y-100780992D01*
X66209238Y-101230257D01*
X66277287Y-101248682D01*
X66926993Y-102420781D01*
X67402211Y-102982131D01*
X68056076Y-103318892D01*
X68295640Y-103338798D01*
X68144353Y-103703138D01*
X68143837Y-104294268D01*
X68369576Y-104840598D01*
X68787203Y-105258955D01*
X69333138Y-105485647D01*
X69924268Y-105486163D01*
X70470598Y-105260424D01*
X70888955Y-104842797D01*
X71115647Y-104296862D01*
X71116163Y-103705732D01*
X70890424Y-103159402D01*
X70472797Y-102741045D01*
X70099453Y-102586019D01*
X70387629Y-102026489D01*
X70432208Y-101490000D01*
X72607460Y-101490000D01*
X72898299Y-101432148D01*
X73144861Y-101267401D01*
X73606377Y-100805885D01*
X73770913Y-100874206D01*
X74421154Y-100874774D01*
X75022115Y-100626462D01*
X75482306Y-100167073D01*
X75731666Y-99566547D01*
X75732234Y-98916306D01*
X75483922Y-98315345D01*
X75024533Y-97855154D01*
X74424007Y-97605794D01*
X73773766Y-97605226D01*
X73172805Y-97853538D01*
X72712614Y-98312927D01*
X72463254Y-98913453D01*
X72462686Y-99563694D01*
X72531769Y-99730889D01*
X72292658Y-99970000D01*
X69878948Y-99970000D01*
X69363007Y-99039219D01*
X68908197Y-98501975D01*
X68879167Y-98276922D01*
X68513091Y-97639008D01*
X67930762Y-97189743D01*
X67220834Y-96997524D01*
X66491387Y-97091614D01*
X65853472Y-97457691D01*
X65404207Y-98040020D01*
X65211988Y-98749948D01*
X65166742Y-99413630D01*
X63973258Y-99413630D01*
X63928012Y-98749948D01*
X63735793Y-98040020D01*
X63286528Y-97457691D01*
X62830000Y-97195706D01*
X62830000Y-88950510D01*
X72400530Y-88950510D01*
X72400530Y-90949490D01*
X72444808Y-91184807D01*
X72583880Y-91400931D01*
X72796080Y-91545921D01*
X73047970Y-91596930D01*
X75046950Y-91596930D01*
X75282267Y-91552652D01*
X75498391Y-91413580D01*
X75643381Y-91201380D01*
X75694390Y-90949490D01*
X75694390Y-88950510D01*
X75650112Y-88715193D01*
X75511040Y-88499069D01*
X75298840Y-88354079D01*
X75046950Y-88303070D01*
X73047970Y-88303070D01*
X72812653Y-88347348D01*
X72596529Y-88486420D01*
X72451539Y-88698620D01*
X72400530Y-88950510D01*
X62830000Y-88950510D01*
X62830000Y-86948076D01*
X63058901Y-87177377D01*
X64024784Y-87578447D01*
X65070627Y-87579360D01*
X66037209Y-87179976D01*
X66777377Y-86441099D01*
X67178447Y-85475216D01*
X67179360Y-84429373D01*
X66779976Y-83462791D01*
X66041099Y-82722623D01*
X65075216Y-82321553D01*
X64029373Y-82320640D01*
X63062791Y-82720024D01*
X62830000Y-82952409D01*
X62830000Y-82528439D01*
X63092862Y-82055197D01*
X63513091Y-81730992D01*
X63879167Y-81093078D01*
X63973258Y-80363631D01*
X63973258Y-80363630D01*
X65166742Y-80363630D01*
X65260833Y-81093077D01*
X65626909Y-81730992D01*
X66209238Y-82180257D01*
X66277287Y-82198682D01*
X66926993Y-83370781D01*
X67402211Y-83932131D01*
X68056076Y-84268892D01*
X68295640Y-84288798D01*
X68144353Y-84653138D01*
X68143837Y-85244268D01*
X68369576Y-85790598D01*
X68787203Y-86208955D01*
X69333138Y-86435647D01*
X69924268Y-86436163D01*
X70470598Y-86210424D01*
X70888955Y-85792797D01*
X71115647Y-85246862D01*
X71116163Y-84655732D01*
X70890424Y-84109402D01*
X70472797Y-83691045D01*
X70099453Y-83536019D01*
X70387629Y-82976489D01*
X70432208Y-82440000D01*
X72157460Y-82440000D01*
X72448299Y-82382148D01*
X72694861Y-82217401D01*
X73556377Y-81355885D01*
X73720913Y-81424206D01*
X74371154Y-81424774D01*
X74972115Y-81176462D01*
X75432306Y-80717073D01*
X75681666Y-80116547D01*
X75682234Y-79466306D01*
X75433922Y-78865345D01*
X74974533Y-78405154D01*
X74374007Y-78155794D01*
X73723766Y-78155226D01*
X73122805Y-78403538D01*
X72662614Y-78862927D01*
X72413254Y-79463453D01*
X72412686Y-80113694D01*
X72481769Y-80280889D01*
X71842658Y-80920000D01*
X69878948Y-80920000D01*
X69363007Y-79989219D01*
X68908197Y-79451975D01*
X68879167Y-79226922D01*
X68513091Y-78589008D01*
X67930762Y-78139743D01*
X67220834Y-77947524D01*
X66491387Y-78041614D01*
X65853472Y-78407691D01*
X65404207Y-78990020D01*
X65211988Y-79699948D01*
X65166742Y-80363630D01*
X63973258Y-80363630D01*
X63928012Y-79699948D01*
X63735793Y-78990020D01*
X63286528Y-78407691D01*
X62830000Y-78145706D01*
X62830000Y-67898076D01*
X63058901Y-68127377D01*
X64024784Y-68528447D01*
X65070627Y-68529360D01*
X66037209Y-68129976D01*
X66777377Y-67391099D01*
X67178447Y-66425216D01*
X67179360Y-65379373D01*
X66779976Y-64412791D01*
X66041099Y-63672623D01*
X65075216Y-63271553D01*
X64029373Y-63270640D01*
X63062791Y-63670024D01*
X62830000Y-63902409D01*
X62830000Y-63478439D01*
X63092862Y-63005197D01*
X63513091Y-62680992D01*
X63879167Y-62043078D01*
X63973258Y-61313631D01*
X63973258Y-61313630D01*
X65166742Y-61313630D01*
X65260833Y-62043077D01*
X65626909Y-62680992D01*
X66209238Y-63130257D01*
X66277287Y-63148682D01*
X66926993Y-64320781D01*
X67385000Y-64861801D01*
X67385000Y-73732460D01*
X67442852Y-74023299D01*
X67607599Y-74269861D01*
X68294115Y-74956377D01*
X68225794Y-75120913D01*
X68225226Y-75771154D01*
X68473538Y-76372115D01*
X68932927Y-76832306D01*
X69533453Y-77081666D01*
X70183694Y-77082234D01*
X70784655Y-76833922D01*
X71244846Y-76374533D01*
X71494206Y-75774007D01*
X71494774Y-75123766D01*
X71246462Y-74522805D01*
X70787073Y-74062614D01*
X70186547Y-73813254D01*
X69536306Y-73812686D01*
X69369111Y-73881769D01*
X68905000Y-73417658D01*
X68905000Y-67207869D01*
X69333138Y-67385647D01*
X69924268Y-67386163D01*
X70470598Y-67160424D01*
X70888955Y-66742797D01*
X71115647Y-66196862D01*
X71116163Y-65605732D01*
X70890424Y-65059402D01*
X70472797Y-64641045D01*
X70099453Y-64486019D01*
X70387629Y-63926489D01*
X70448534Y-63193525D01*
X70224309Y-62493047D01*
X69363007Y-60939219D01*
X68908197Y-60401975D01*
X68879167Y-60176922D01*
X68513091Y-59539008D01*
X67930762Y-59089743D01*
X67220834Y-58897524D01*
X66491387Y-58991614D01*
X65853472Y-59357691D01*
X65404207Y-59940020D01*
X65211988Y-60649948D01*
X65166742Y-61313630D01*
X63973258Y-61313630D01*
X63928012Y-60649948D01*
X63735793Y-59940020D01*
X63286528Y-59357691D01*
X62830000Y-59095706D01*
X62830000Y-51804802D01*
X65122599Y-54097401D01*
X65369161Y-54262148D01*
X65660000Y-54320000D01*
X70848797Y-54320000D01*
X70888035Y-54414964D01*
X71302698Y-54830351D01*
X70889529Y-55242800D01*
X70658963Y-55798065D01*
X70658438Y-56399297D01*
X70888035Y-56954964D01*
X71302698Y-57370351D01*
X70889529Y-57782800D01*
X70658963Y-58338065D01*
X70658438Y-58939297D01*
X70888035Y-59494964D01*
X71302698Y-59910351D01*
X70889529Y-60322800D01*
X70658963Y-60878065D01*
X70658438Y-61479297D01*
X70888035Y-62034964D01*
X71302698Y-62450351D01*
X70889529Y-62862800D01*
X70658963Y-63418065D01*
X70658438Y-64019297D01*
X70888035Y-64574964D01*
X71312800Y-65000471D01*
X71868065Y-65231037D01*
X72469297Y-65231562D01*
X73024964Y-65001965D01*
X73450471Y-64577200D01*
X73681037Y-64021935D01*
X73681562Y-63420703D01*
X73451965Y-62865036D01*
X73037302Y-62449649D01*
X73450471Y-62037200D01*
X73681037Y-61481935D01*
X73681562Y-60880703D01*
X73451965Y-60325036D01*
X73037302Y-59909649D01*
X73450471Y-59497200D01*
X73681037Y-58941935D01*
X73681562Y-58340703D01*
X73451965Y-57785036D01*
X73037302Y-57369649D01*
X73450471Y-56957200D01*
X73490832Y-56860000D01*
X73685198Y-56860000D01*
X78472599Y-61647401D01*
X78554224Y-61701941D01*
X78115812Y-62491234D01*
X77890976Y-63191516D01*
X77951242Y-63924533D01*
X78206742Y-64421683D01*
X77679402Y-64639576D01*
X77261045Y-65057203D01*
X77034353Y-65603138D01*
X77033837Y-66194268D01*
X77259576Y-66740598D01*
X77677203Y-67158955D01*
X78223138Y-67385647D01*
X78814268Y-67386163D01*
X79360598Y-67160424D01*
X79778955Y-66742797D01*
X80005647Y-66196862D01*
X80006163Y-65605732D01*
X79860658Y-65253582D01*
X80281667Y-65218968D01*
X80360000Y-65178710D01*
X80360000Y-78112461D01*
X80259238Y-78139743D01*
X79676909Y-78589008D01*
X79310833Y-79226923D01*
X79254649Y-79662496D01*
X78978467Y-79988158D01*
X78115812Y-81541234D01*
X77890976Y-82241516D01*
X77951242Y-82974533D01*
X78206742Y-83471683D01*
X77679402Y-83689576D01*
X77261045Y-84107203D01*
X77034353Y-84653138D01*
X77033837Y-85244268D01*
X77259576Y-85790598D01*
X77677203Y-86208955D01*
X78223138Y-86435647D01*
X78814268Y-86436163D01*
X79360598Y-86210424D01*
X79778955Y-85792797D01*
X80005647Y-85246862D01*
X80006163Y-84655732D01*
X79860658Y-84303582D01*
X80281667Y-84268968D01*
X80360000Y-84228710D01*
X80360000Y-97162461D01*
X80259238Y-97189743D01*
X79676909Y-97639008D01*
X79310833Y-98276923D01*
X79254649Y-98712496D01*
X78978467Y-99038158D01*
X78115812Y-100591234D01*
X77890976Y-101291516D01*
X77951242Y-102024533D01*
X78206742Y-102521683D01*
X77679402Y-102739576D01*
X77261045Y-103157203D01*
X77034353Y-103703138D01*
X77033837Y-104294268D01*
X77259576Y-104840598D01*
X77677203Y-105258955D01*
X78223138Y-105485647D01*
X78814268Y-105486163D01*
X79360598Y-105260424D01*
X79778955Y-104842797D01*
X79912731Y-104520627D01*
X80970640Y-104520627D01*
X81370024Y-105487209D01*
X82108901Y-106227377D01*
X83074784Y-106628447D01*
X84120627Y-106629360D01*
X85087209Y-106229976D01*
X85827377Y-105491099D01*
X86228447Y-104525216D01*
X86229360Y-103479373D01*
X85829976Y-102512791D01*
X85091099Y-101772623D01*
X84125216Y-101371553D01*
X83079373Y-101370640D01*
X82112791Y-101770024D01*
X81372623Y-102508901D01*
X80971553Y-103474784D01*
X80970640Y-104520627D01*
X79912731Y-104520627D01*
X80005647Y-104296862D01*
X80006163Y-103705732D01*
X79860658Y-103353582D01*
X80281667Y-103318968D01*
X80935825Y-102982777D01*
X81411532Y-102421842D01*
X82142862Y-101105197D01*
X82563091Y-100780992D01*
X82929167Y-100143078D01*
X83023258Y-99413631D01*
X83023258Y-99413630D01*
X84216742Y-99413630D01*
X84310833Y-100143077D01*
X84676909Y-100780992D01*
X85259238Y-101230257D01*
X85327287Y-101248682D01*
X85976993Y-102420781D01*
X86452211Y-102982131D01*
X87106076Y-103318892D01*
X87345640Y-103338798D01*
X87194353Y-103703138D01*
X87193837Y-104294268D01*
X87419576Y-104840598D01*
X87837203Y-105258955D01*
X88383138Y-105485647D01*
X88974268Y-105486163D01*
X89520598Y-105260424D01*
X89938955Y-104842797D01*
X90165647Y-104296862D01*
X90166163Y-103705732D01*
X89940424Y-103159402D01*
X89522797Y-102741045D01*
X89149453Y-102586019D01*
X89437629Y-102026489D01*
X89482208Y-101490000D01*
X91357460Y-101490000D01*
X91648299Y-101432148D01*
X91894861Y-101267401D01*
X92656377Y-100505885D01*
X92820913Y-100574206D01*
X93471154Y-100574774D01*
X94072115Y-100326462D01*
X94532306Y-99867073D01*
X94781666Y-99266547D01*
X94782234Y-98616306D01*
X94533922Y-98015345D01*
X94074533Y-97555154D01*
X93474007Y-97305794D01*
X92823766Y-97305226D01*
X92222805Y-97553538D01*
X91762614Y-98012927D01*
X91513254Y-98613453D01*
X91512686Y-99263694D01*
X91581769Y-99430889D01*
X91042658Y-99970000D01*
X88928948Y-99970000D01*
X88413007Y-99039219D01*
X87958197Y-98501975D01*
X87929167Y-98276922D01*
X87563091Y-97639008D01*
X86980762Y-97189743D01*
X86270834Y-96997524D01*
X85541387Y-97091614D01*
X84903472Y-97457691D01*
X84454207Y-98040020D01*
X84261988Y-98749948D01*
X84216742Y-99413630D01*
X83023258Y-99413630D01*
X82978012Y-98749948D01*
X82785793Y-98040020D01*
X82336528Y-97457691D01*
X81880000Y-97195706D01*
X81880000Y-89400510D01*
X91600530Y-89400510D01*
X91600530Y-91399490D01*
X91644808Y-91634807D01*
X91783880Y-91850931D01*
X91996080Y-91995921D01*
X92247970Y-92046930D01*
X94246950Y-92046930D01*
X94482267Y-92002652D01*
X94698391Y-91863580D01*
X94843381Y-91651380D01*
X94894390Y-91399490D01*
X94894390Y-89400510D01*
X94850112Y-89165193D01*
X94711040Y-88949069D01*
X94498840Y-88804079D01*
X94246950Y-88753070D01*
X92247970Y-88753070D01*
X92012653Y-88797348D01*
X91796529Y-88936420D01*
X91651539Y-89148620D01*
X91600530Y-89400510D01*
X81880000Y-89400510D01*
X81880000Y-86948076D01*
X82108901Y-87177377D01*
X83074784Y-87578447D01*
X84120627Y-87579360D01*
X85087209Y-87179976D01*
X85827377Y-86441099D01*
X86228447Y-85475216D01*
X86229360Y-84429373D01*
X85829976Y-83462791D01*
X85091099Y-82722623D01*
X84125216Y-82321553D01*
X83079373Y-82320640D01*
X82112791Y-82720024D01*
X81880000Y-82952409D01*
X81880000Y-82528439D01*
X82142862Y-82055197D01*
X82563091Y-81730992D01*
X82929167Y-81093078D01*
X83023258Y-80363631D01*
X83023258Y-80363630D01*
X84216742Y-80363630D01*
X84310833Y-81093077D01*
X84676909Y-81730992D01*
X85259238Y-82180257D01*
X85327287Y-82198682D01*
X85976993Y-83370781D01*
X86452211Y-83932131D01*
X87106076Y-84268892D01*
X87345640Y-84288798D01*
X87194353Y-84653138D01*
X87193837Y-85244268D01*
X87419576Y-85790598D01*
X87837203Y-86208955D01*
X88383138Y-86435647D01*
X88974268Y-86436163D01*
X89520598Y-86210424D01*
X89938955Y-85792797D01*
X90165647Y-85246862D01*
X90166163Y-84655732D01*
X89940424Y-84109402D01*
X89522797Y-83691045D01*
X89149453Y-83536019D01*
X89437629Y-82976489D01*
X89482208Y-82440000D01*
X91807460Y-82440000D01*
X92098299Y-82382148D01*
X92344861Y-82217401D01*
X92756377Y-81805885D01*
X92920913Y-81874206D01*
X93571154Y-81874774D01*
X94172115Y-81626462D01*
X94632306Y-81167073D01*
X94881666Y-80566547D01*
X94882234Y-79916306D01*
X94633922Y-79315345D01*
X94174533Y-78855154D01*
X93574007Y-78605794D01*
X92923766Y-78605226D01*
X92322805Y-78853538D01*
X91862614Y-79312927D01*
X91613254Y-79913453D01*
X91612686Y-80563694D01*
X91681769Y-80730889D01*
X91492658Y-80920000D01*
X88928948Y-80920000D01*
X88413007Y-79989219D01*
X87958197Y-79451975D01*
X87929167Y-79226922D01*
X87563091Y-78589008D01*
X86980762Y-78139743D01*
X86270834Y-77947524D01*
X85541387Y-78041614D01*
X84903472Y-78407691D01*
X84454207Y-78990020D01*
X84261988Y-79699948D01*
X84216742Y-80363630D01*
X83023258Y-80363630D01*
X82978012Y-79699948D01*
X82785793Y-78990020D01*
X82336528Y-78407691D01*
X81880000Y-78145706D01*
X81880000Y-70150510D01*
X91400530Y-70150510D01*
X91400530Y-72149490D01*
X91444808Y-72384807D01*
X91583880Y-72600931D01*
X91796080Y-72745921D01*
X92047970Y-72796930D01*
X94046950Y-72796930D01*
X94282267Y-72752652D01*
X94498391Y-72613580D01*
X94643381Y-72401380D01*
X94694390Y-72149490D01*
X94694390Y-70150510D01*
X94650112Y-69915193D01*
X94511040Y-69699069D01*
X94298840Y-69554079D01*
X94046950Y-69503070D01*
X92047970Y-69503070D01*
X91812653Y-69547348D01*
X91596529Y-69686420D01*
X91451539Y-69898620D01*
X91400530Y-70150510D01*
X81880000Y-70150510D01*
X81880000Y-67898076D01*
X82108901Y-68127377D01*
X83074784Y-68528447D01*
X84120627Y-68529360D01*
X85087209Y-68129976D01*
X85827377Y-67391099D01*
X86228447Y-66425216D01*
X86229360Y-65379373D01*
X85829976Y-64412791D01*
X85091099Y-63672623D01*
X84125216Y-63271553D01*
X83079373Y-63270640D01*
X82112791Y-63670024D01*
X81880000Y-63902409D01*
X81880000Y-63478439D01*
X82142862Y-63005197D01*
X82563091Y-62680992D01*
X82929167Y-62043078D01*
X83023258Y-61313631D01*
X83023258Y-61313630D01*
X84216742Y-61313630D01*
X84310833Y-62043077D01*
X84676909Y-62680992D01*
X85259238Y-63130257D01*
X85327287Y-63148682D01*
X85976993Y-64320781D01*
X86452211Y-64882131D01*
X87106076Y-65218892D01*
X87345640Y-65238798D01*
X87194353Y-65603138D01*
X87193837Y-66194268D01*
X87419576Y-66740598D01*
X87837203Y-67158955D01*
X88383138Y-67385647D01*
X88974268Y-67386163D01*
X89520598Y-67160424D01*
X89938955Y-66742797D01*
X90165647Y-66196862D01*
X90166163Y-65605732D01*
X89940424Y-65059402D01*
X89522797Y-64641045D01*
X89149453Y-64486019D01*
X89437629Y-63926489D01*
X89498534Y-63193525D01*
X89274309Y-62493047D01*
X88862431Y-61750000D01*
X91592964Y-61750000D01*
X91660998Y-61914655D01*
X92120387Y-62374846D01*
X92720913Y-62624206D01*
X93371154Y-62624774D01*
X93972115Y-62376462D01*
X94432306Y-61917073D01*
X94681666Y-61316547D01*
X94682234Y-60666306D01*
X94433922Y-60065345D01*
X93974533Y-59605154D01*
X93374007Y-59355794D01*
X92723766Y-59355226D01*
X92122805Y-59603538D01*
X91662614Y-60062927D01*
X91593239Y-60230000D01*
X87936014Y-60230000D01*
X87929167Y-60176922D01*
X87563091Y-59539008D01*
X86980762Y-59089743D01*
X86270834Y-58897524D01*
X85541387Y-58991614D01*
X84903472Y-59357691D01*
X84454207Y-59940020D01*
X84261988Y-60649948D01*
X84216742Y-61313630D01*
X83023258Y-61313630D01*
X82978012Y-60649948D01*
X82785793Y-59940020D01*
X82336528Y-59357691D01*
X81880000Y-59095706D01*
X81880000Y-48848076D01*
X82108901Y-49077377D01*
X83074784Y-49478447D01*
X84120627Y-49479360D01*
X85087209Y-49079976D01*
X85827377Y-48341099D01*
X86228447Y-47375216D01*
X86229360Y-46329373D01*
X85829976Y-45362791D01*
X85091099Y-44622623D01*
X84125216Y-44221553D01*
X83079373Y-44220640D01*
X82112791Y-44620024D01*
X81880000Y-44852409D01*
X81880000Y-44428439D01*
X82142862Y-43955197D01*
X82563091Y-43630992D01*
X82929167Y-42993078D01*
X83023258Y-42263631D01*
X83023258Y-42263630D01*
X84216742Y-42263630D01*
X84310833Y-42993077D01*
X84676909Y-43630992D01*
X85259238Y-44080257D01*
X85327287Y-44098682D01*
X85976993Y-45270781D01*
X86452211Y-45832131D01*
X87106076Y-46168892D01*
X87345640Y-46188798D01*
X87194353Y-46553138D01*
X87193837Y-47144268D01*
X87419576Y-47690598D01*
X87743418Y-48015006D01*
X87521057Y-48106883D01*
X87257808Y-48369673D01*
X87115162Y-48713201D01*
X87114838Y-49085167D01*
X87256883Y-49428943D01*
X87519673Y-49692192D01*
X87863201Y-49834838D01*
X87910077Y-49834879D01*
X90560000Y-52484802D01*
X90560000Y-55033762D01*
X90493774Y-55061126D01*
X90196930Y-55357452D01*
X90196930Y-55353050D01*
X90152652Y-55117733D01*
X90013580Y-54901609D01*
X89801380Y-54756619D01*
X89549490Y-54705610D01*
X87550510Y-54705610D01*
X87315193Y-54749888D01*
X87099069Y-54888960D01*
X86954079Y-55101160D01*
X86903070Y-55353050D01*
X86903070Y-57352030D01*
X86947348Y-57587347D01*
X87086420Y-57803471D01*
X87298620Y-57948461D01*
X87550510Y-57999470D01*
X89549490Y-57999470D01*
X89784807Y-57955192D01*
X90000931Y-57816120D01*
X90145921Y-57603920D01*
X90196930Y-57352030D01*
X90196930Y-57242232D01*
X90491613Y-57537430D01*
X91028214Y-57760246D01*
X91609237Y-57760753D01*
X92146226Y-57538874D01*
X92557430Y-57128387D01*
X92780246Y-56591786D01*
X92780753Y-56010763D01*
X92558874Y-55473774D01*
X92148387Y-55062570D01*
X92080000Y-55034173D01*
X92080000Y-53862915D01*
X92247970Y-53896930D01*
X94246950Y-53896930D01*
X94482267Y-53852652D01*
X94698391Y-53713580D01*
X94843381Y-53501380D01*
X94894390Y-53249490D01*
X94894390Y-51250510D01*
X94850112Y-51015193D01*
X94711040Y-50799069D01*
X94498840Y-50654079D01*
X94246950Y-50603070D01*
X92247970Y-50603070D01*
X92012653Y-50647348D01*
X91796529Y-50786420D01*
X91651539Y-50998620D01*
X91600530Y-51250510D01*
X91600530Y-51375728D01*
X88985122Y-48760320D01*
X88985162Y-48714833D01*
X88843117Y-48371057D01*
X88808139Y-48336018D01*
X88974268Y-48336163D01*
X89520598Y-48110424D01*
X89938955Y-47692797D01*
X90165647Y-47146862D01*
X90165649Y-47144268D01*
X96083837Y-47144268D01*
X96309576Y-47690598D01*
X96727203Y-48108955D01*
X97273138Y-48335647D01*
X97864268Y-48336163D01*
X98410598Y-48110424D01*
X98485000Y-48036152D01*
X98485000Y-59960553D01*
X98360833Y-60176923D01*
X98304649Y-60612496D01*
X98028467Y-60938158D01*
X97165812Y-62491234D01*
X96940976Y-63191516D01*
X97001242Y-63924533D01*
X97256742Y-64421683D01*
X96729402Y-64639576D01*
X96311045Y-65057203D01*
X96084353Y-65603138D01*
X96083837Y-66194268D01*
X96309576Y-66740598D01*
X96727203Y-67158955D01*
X97273138Y-67385647D01*
X97864268Y-67386163D01*
X98410598Y-67160424D01*
X98828955Y-66742797D01*
X99055647Y-66196862D01*
X99056163Y-65605732D01*
X98910658Y-65253582D01*
X99331667Y-65218968D01*
X99410000Y-65178710D01*
X99410000Y-78112461D01*
X99309238Y-78139743D01*
X98726909Y-78589008D01*
X98360833Y-79226923D01*
X98304649Y-79662496D01*
X98028467Y-79988158D01*
X97165812Y-81541234D01*
X96940976Y-82241516D01*
X97001242Y-82974533D01*
X97256742Y-83471683D01*
X96729402Y-83689576D01*
X96311045Y-84107203D01*
X96084353Y-84653138D01*
X96083837Y-85244268D01*
X96309576Y-85790598D01*
X96727203Y-86208955D01*
X97273138Y-86435647D01*
X97864268Y-86436163D01*
X98410598Y-86210424D01*
X98828955Y-85792797D01*
X99055647Y-85246862D01*
X99056163Y-84655732D01*
X98910658Y-84303582D01*
X99331667Y-84268968D01*
X99410000Y-84228710D01*
X99410000Y-97162461D01*
X99309238Y-97189743D01*
X98726909Y-97639008D01*
X98360833Y-98276923D01*
X98304649Y-98712496D01*
X98028467Y-99038158D01*
X97165812Y-100591234D01*
X96940976Y-101291516D01*
X97001242Y-102024533D01*
X97256742Y-102521683D01*
X96729402Y-102739576D01*
X96311045Y-103157203D01*
X96084353Y-103703138D01*
X96083837Y-104294268D01*
X96309576Y-104840598D01*
X96727203Y-105258955D01*
X97273138Y-105485647D01*
X97864268Y-105486163D01*
X98410598Y-105260424D01*
X98828955Y-104842797D01*
X98962731Y-104520627D01*
X100020640Y-104520627D01*
X100420024Y-105487209D01*
X101158901Y-106227377D01*
X102124784Y-106628447D01*
X103170627Y-106629360D01*
X104137209Y-106229976D01*
X104877377Y-105491099D01*
X105278447Y-104525216D01*
X105279360Y-103479373D01*
X104879976Y-102512791D01*
X104141099Y-101772623D01*
X103175216Y-101371553D01*
X102129373Y-101370640D01*
X101162791Y-101770024D01*
X100422623Y-102508901D01*
X100021553Y-103474784D01*
X100020640Y-104520627D01*
X98962731Y-104520627D01*
X99055647Y-104296862D01*
X99056163Y-103705732D01*
X98910658Y-103353582D01*
X99331667Y-103318968D01*
X99985825Y-102982777D01*
X100461532Y-102421842D01*
X101192862Y-101105197D01*
X101613091Y-100780992D01*
X101979167Y-100143078D01*
X102073258Y-99413631D01*
X102073258Y-99413630D01*
X103266742Y-99413630D01*
X103360833Y-100143077D01*
X103726909Y-100780992D01*
X104309238Y-101230257D01*
X104377287Y-101248682D01*
X105026993Y-102420781D01*
X105502211Y-102982131D01*
X106156076Y-103318892D01*
X106395640Y-103338798D01*
X106244353Y-103703138D01*
X106243837Y-104294268D01*
X106469576Y-104840598D01*
X106887203Y-105258955D01*
X107433138Y-105485647D01*
X108024268Y-105486163D01*
X108570598Y-105260424D01*
X108988955Y-104842797D01*
X109215647Y-104296862D01*
X109216163Y-103705732D01*
X108990424Y-103159402D01*
X108572797Y-102741045D01*
X108199453Y-102586019D01*
X108487629Y-102026489D01*
X108532208Y-101490000D01*
X111370000Y-101490000D01*
X111660839Y-101432148D01*
X111907401Y-101267401D01*
X112520359Y-100654443D01*
X113072115Y-100426462D01*
X113532306Y-99967073D01*
X113781666Y-99366547D01*
X113782234Y-98716306D01*
X113533922Y-98115345D01*
X113074533Y-97655154D01*
X112474007Y-97405794D01*
X111823766Y-97405226D01*
X111222805Y-97653538D01*
X110762614Y-98112927D01*
X110513254Y-98713453D01*
X110512686Y-99363694D01*
X110760998Y-99964655D01*
X110766334Y-99970000D01*
X107978948Y-99970000D01*
X107463007Y-99039219D01*
X107008197Y-98501975D01*
X106979167Y-98276922D01*
X106613091Y-97639008D01*
X106030762Y-97189743D01*
X105320834Y-96997524D01*
X104591387Y-97091614D01*
X103953472Y-97457691D01*
X103504207Y-98040020D01*
X103311988Y-98749948D01*
X103266742Y-99413630D01*
X102073258Y-99413630D01*
X102028012Y-98749948D01*
X101835793Y-98040020D01*
X101386528Y-97457691D01*
X100930000Y-97195706D01*
X100930000Y-89400510D01*
X110650530Y-89400510D01*
X110650530Y-91399490D01*
X110694808Y-91634807D01*
X110833880Y-91850931D01*
X111046080Y-91995921D01*
X111297970Y-92046930D01*
X113296950Y-92046930D01*
X113532267Y-92002652D01*
X113748391Y-91863580D01*
X113893381Y-91651380D01*
X113944390Y-91399490D01*
X113944390Y-89400510D01*
X113900112Y-89165193D01*
X113761040Y-88949069D01*
X113548840Y-88804079D01*
X113296950Y-88753070D01*
X111297970Y-88753070D01*
X111062653Y-88797348D01*
X110846529Y-88936420D01*
X110701539Y-89148620D01*
X110650530Y-89400510D01*
X100930000Y-89400510D01*
X100930000Y-86948076D01*
X101158901Y-87177377D01*
X102124784Y-87578447D01*
X103170627Y-87579360D01*
X104137209Y-87179976D01*
X104877377Y-86441099D01*
X105278447Y-85475216D01*
X105279360Y-84429373D01*
X104879976Y-83462791D01*
X104141099Y-82722623D01*
X103175216Y-82321553D01*
X102129373Y-82320640D01*
X101162791Y-82720024D01*
X100930000Y-82952409D01*
X100930000Y-82528439D01*
X101192862Y-82055197D01*
X101613091Y-81730992D01*
X101979167Y-81093078D01*
X102073258Y-80363631D01*
X102073258Y-80363630D01*
X103266742Y-80363630D01*
X103360833Y-81093077D01*
X103726909Y-81730992D01*
X104309238Y-82180257D01*
X104377287Y-82198682D01*
X105026993Y-83370781D01*
X105502211Y-83932131D01*
X106156076Y-84268892D01*
X106395640Y-84288798D01*
X106244353Y-84653138D01*
X106243837Y-85244268D01*
X106469576Y-85790598D01*
X106887203Y-86208955D01*
X107433138Y-86435647D01*
X108024268Y-86436163D01*
X108570598Y-86210424D01*
X108988955Y-85792797D01*
X109215647Y-85246862D01*
X109216163Y-84655732D01*
X108990424Y-84109402D01*
X108572797Y-83691045D01*
X108199453Y-83536019D01*
X108487629Y-82976489D01*
X108532208Y-82440000D01*
X110857460Y-82440000D01*
X111148299Y-82382148D01*
X111394861Y-82217401D01*
X111806377Y-81805885D01*
X111970913Y-81874206D01*
X112621154Y-81874774D01*
X113222115Y-81626462D01*
X113682306Y-81167073D01*
X113931666Y-80566547D01*
X113932234Y-79916306D01*
X113683922Y-79315345D01*
X113224533Y-78855154D01*
X112624007Y-78605794D01*
X111973766Y-78605226D01*
X111372805Y-78853538D01*
X110912614Y-79312927D01*
X110663254Y-79913453D01*
X110662686Y-80563694D01*
X110731769Y-80730889D01*
X110542658Y-80920000D01*
X107978948Y-80920000D01*
X107463007Y-79989219D01*
X107008197Y-79451975D01*
X106979167Y-79226922D01*
X106613091Y-78589008D01*
X106030762Y-78139743D01*
X105320834Y-77947524D01*
X104591387Y-78041614D01*
X103953472Y-78407691D01*
X103504207Y-78990020D01*
X103311988Y-79699948D01*
X103266742Y-80363630D01*
X102073258Y-80363630D01*
X102028012Y-79699948D01*
X101835793Y-78990020D01*
X101386528Y-78407691D01*
X100930000Y-78145706D01*
X100930000Y-70300510D01*
X110600530Y-70300510D01*
X110600530Y-72299490D01*
X110644808Y-72534807D01*
X110783880Y-72750931D01*
X110996080Y-72895921D01*
X111247970Y-72946930D01*
X113246950Y-72946930D01*
X113482267Y-72902652D01*
X113698391Y-72763580D01*
X113843381Y-72551380D01*
X113894390Y-72299490D01*
X113894390Y-70300510D01*
X113850112Y-70065193D01*
X113711040Y-69849069D01*
X113498840Y-69704079D01*
X113246950Y-69653070D01*
X111247970Y-69653070D01*
X111012653Y-69697348D01*
X110796529Y-69836420D01*
X110651539Y-70048620D01*
X110600530Y-70300510D01*
X100930000Y-70300510D01*
X100930000Y-67898076D01*
X101158901Y-68127377D01*
X102124784Y-68528447D01*
X103170627Y-68529360D01*
X104137209Y-68129976D01*
X104877377Y-67391099D01*
X105278447Y-66425216D01*
X105279360Y-65379373D01*
X104879976Y-64412791D01*
X104141099Y-63672623D01*
X103175216Y-63271553D01*
X102129373Y-63270640D01*
X101162791Y-63670024D01*
X100930000Y-63902409D01*
X100930000Y-63478439D01*
X101192862Y-63005197D01*
X101613091Y-62680992D01*
X101979167Y-62043078D01*
X102073258Y-61313631D01*
X102073258Y-61313630D01*
X103266742Y-61313630D01*
X103360833Y-62043077D01*
X103726909Y-62680992D01*
X104309238Y-63130257D01*
X104377287Y-63148682D01*
X105026993Y-64320781D01*
X105502211Y-64882131D01*
X106156076Y-65218892D01*
X106395640Y-65238798D01*
X106244353Y-65603138D01*
X106243837Y-66194268D01*
X106469576Y-66740598D01*
X106887203Y-67158955D01*
X107433138Y-67385647D01*
X108024268Y-67386163D01*
X108570598Y-67160424D01*
X108988955Y-66742797D01*
X109215647Y-66196862D01*
X109216163Y-65605732D01*
X108990424Y-65059402D01*
X108572797Y-64641045D01*
X108199453Y-64486019D01*
X108487629Y-63926489D01*
X108548534Y-63193525D01*
X108324309Y-62493047D01*
X108014915Y-61934887D01*
X108049802Y-61900000D01*
X110792964Y-61900000D01*
X110860998Y-62064655D01*
X111320387Y-62524846D01*
X111920913Y-62774206D01*
X112571154Y-62774774D01*
X113172115Y-62526462D01*
X113632306Y-62067073D01*
X113881666Y-61466547D01*
X113882234Y-60816306D01*
X113633922Y-60215345D01*
X113174533Y-59755154D01*
X112574007Y-59505794D01*
X111923766Y-59505226D01*
X111322805Y-59753538D01*
X110862614Y-60212927D01*
X110793239Y-60380000D01*
X107735000Y-60380000D01*
X107444160Y-60437852D01*
X107197599Y-60602599D01*
X107187005Y-60613193D01*
X107008197Y-60401975D01*
X106979167Y-60176922D01*
X106613091Y-59539008D01*
X106030762Y-59089743D01*
X105320834Y-58897524D01*
X104591387Y-58991614D01*
X103953472Y-59357691D01*
X103504207Y-59940020D01*
X103311988Y-60649948D01*
X103266742Y-61313630D01*
X102073258Y-61313630D01*
X102028012Y-60649948D01*
X101835793Y-59940020D01*
X101386528Y-59357691D01*
X100748613Y-58991615D01*
X100019166Y-58897524D01*
X100005000Y-58901360D01*
X100005000Y-57326215D01*
X100633390Y-57326215D01*
X100710656Y-57574976D01*
X101257131Y-57772340D01*
X101837535Y-57745553D01*
X102249344Y-57574976D01*
X102326610Y-57326215D01*
X101480000Y-56479605D01*
X100633390Y-57326215D01*
X100005000Y-57326215D01*
X100005000Y-56077131D01*
X100007660Y-56077131D01*
X100034447Y-56657535D01*
X100205024Y-57069344D01*
X100453785Y-57146610D01*
X101300395Y-56300000D01*
X100453785Y-55453390D01*
X100205024Y-55530656D01*
X100007660Y-56077131D01*
X100005000Y-56077131D01*
X100005000Y-55273785D01*
X100633390Y-55273785D01*
X101480000Y-56120395D01*
X102326610Y-55273785D01*
X102249344Y-55025024D01*
X101702869Y-54827660D01*
X101122465Y-54854447D01*
X100710656Y-55025024D01*
X100633390Y-55273785D01*
X100005000Y-55273785D01*
X100005000Y-47370627D01*
X100020640Y-47370627D01*
X100420024Y-48337209D01*
X101158901Y-49077377D01*
X102124784Y-49478447D01*
X103170627Y-49479360D01*
X104137209Y-49079976D01*
X104877377Y-48341099D01*
X105278447Y-47375216D01*
X105279360Y-46329373D01*
X104879976Y-45362791D01*
X104141099Y-44622623D01*
X103175216Y-44221553D01*
X102129373Y-44220640D01*
X101162791Y-44620024D01*
X100422623Y-45358901D01*
X100021553Y-46324784D01*
X100020640Y-47370627D01*
X100005000Y-47370627D01*
X100005000Y-45810167D01*
X100461532Y-45271842D01*
X101192862Y-43955197D01*
X101613091Y-43630992D01*
X101979167Y-42993078D01*
X102073258Y-42263631D01*
X102028012Y-41599948D01*
X101835793Y-40890020D01*
X101386528Y-40307691D01*
X100748613Y-39941615D01*
X100019166Y-39847524D01*
X99309238Y-40039743D01*
X98726909Y-40489008D01*
X98360833Y-41126923D01*
X98304649Y-41562496D01*
X98028467Y-41888158D01*
X97165812Y-43441234D01*
X96940976Y-44141516D01*
X97001242Y-44874533D01*
X97256742Y-45371683D01*
X96729402Y-45589576D01*
X96311045Y-46007203D01*
X96084353Y-46553138D01*
X96083837Y-47144268D01*
X90165649Y-47144268D01*
X90166163Y-46555732D01*
X89940424Y-46009402D01*
X89522797Y-45591045D01*
X89149453Y-45436019D01*
X89437629Y-44876489D01*
X89498534Y-44143525D01*
X89274309Y-43443047D01*
X88964915Y-42884887D01*
X88999802Y-42850000D01*
X91792964Y-42850000D01*
X91860998Y-43014655D01*
X92320387Y-43474846D01*
X92920913Y-43724206D01*
X93571154Y-43724774D01*
X94172115Y-43476462D01*
X94632306Y-43017073D01*
X94881666Y-42416547D01*
X94882234Y-41766306D01*
X94633922Y-41165345D01*
X94174533Y-40705154D01*
X93574007Y-40455794D01*
X92923766Y-40455226D01*
X92322805Y-40703538D01*
X91862614Y-41162927D01*
X91793239Y-41330000D01*
X88685000Y-41330000D01*
X88394160Y-41387852D01*
X88147599Y-41552599D01*
X88137005Y-41563193D01*
X87958197Y-41351975D01*
X87929167Y-41126922D01*
X87563091Y-40489008D01*
X86980762Y-40039743D01*
X86270834Y-39847524D01*
X85541387Y-39941614D01*
X84903472Y-40307691D01*
X84454207Y-40890020D01*
X84261988Y-41599948D01*
X84216742Y-42263630D01*
X83023258Y-42263630D01*
X82978012Y-41599948D01*
X82785793Y-40890020D01*
X82336528Y-40307691D01*
X81698613Y-39941615D01*
X80969166Y-39847524D01*
X80259238Y-40039743D01*
X79676909Y-40489008D01*
X79310833Y-41126923D01*
X79254649Y-41562496D01*
X78978467Y-41888158D01*
X78115812Y-43441234D01*
X77890976Y-44141516D01*
X77951242Y-44874533D01*
X78206742Y-45371683D01*
X77679402Y-45589576D01*
X77261045Y-46007203D01*
X77039544Y-46540637D01*
X76987401Y-46462599D01*
X74687401Y-44162599D01*
X74440839Y-43997852D01*
X74150000Y-43940000D01*
X73581737Y-43940000D01*
X73692882Y-43635003D01*
X73666891Y-43034332D01*
X73487027Y-42600104D01*
X73233001Y-42516604D01*
X72349605Y-43400000D01*
X72363748Y-43414143D01*
X72184143Y-43593748D01*
X72170000Y-43579605D01*
X72155858Y-43593748D01*
X71976253Y-43414143D01*
X71990395Y-43400000D01*
X71106999Y-42516604D01*
X70852973Y-42600104D01*
X70647118Y-43164997D01*
X70651972Y-43277170D01*
X70417401Y-43042599D01*
X70170839Y-42877852D01*
X69880000Y-42820000D01*
X69878948Y-42820000D01*
X69363007Y-41889219D01*
X68908197Y-41351975D01*
X68879167Y-41126922D01*
X68513091Y-40489008D01*
X67930762Y-40039743D01*
X67220834Y-39847524D01*
X66491387Y-39941614D01*
X65853472Y-40307691D01*
X65404207Y-40890020D01*
X65211988Y-41599948D01*
X65166742Y-42263630D01*
X65260833Y-42993077D01*
X65626909Y-43630992D01*
X66209238Y-44080257D01*
X66277287Y-44098682D01*
X66926993Y-45270781D01*
X67402211Y-45832131D01*
X68056076Y-46168892D01*
X68295640Y-46188798D01*
X68144353Y-46553138D01*
X68143837Y-47144268D01*
X68369576Y-47690598D01*
X68787203Y-48108955D01*
X69333138Y-48335647D01*
X69924268Y-48336163D01*
X70470598Y-48110424D01*
X70840293Y-47741374D01*
X70658963Y-48178065D01*
X70658438Y-48779297D01*
X70888035Y-49334964D01*
X71302698Y-49750351D01*
X70889529Y-50162800D01*
X70658963Y-50718065D01*
X70658438Y-51319297D01*
X70888035Y-51874964D01*
X71302698Y-52290351D01*
X70889529Y-52702800D01*
X70849168Y-52800000D01*
X65974802Y-52800000D01*
X62830000Y-49655198D01*
X62830000Y-48848076D01*
X63058901Y-49077377D01*
X64024784Y-49478447D01*
X65070627Y-49479360D01*
X66037209Y-49079976D01*
X66777377Y-48341099D01*
X67178447Y-47375216D01*
X67179360Y-46329373D01*
X66779976Y-45362791D01*
X66041099Y-44622623D01*
X65075216Y-44221553D01*
X64029373Y-44220640D01*
X63062791Y-44620024D01*
X62830000Y-44852409D01*
X62830000Y-44428439D01*
X63092862Y-43955197D01*
X63513091Y-43630992D01*
X63879167Y-42993078D01*
X63973258Y-42263631D01*
X63928012Y-41599948D01*
X63735793Y-40890020D01*
X63286528Y-40307691D01*
X62648613Y-39941615D01*
X61919166Y-39847524D01*
X61209238Y-40039743D01*
X60626909Y-40489008D01*
X60260833Y-41126923D01*
X60204649Y-41562496D01*
X59928467Y-41888158D01*
X59065812Y-43441234D01*
X58840976Y-44141516D01*
X58901242Y-44874533D01*
X59156742Y-45371683D01*
X58629402Y-45589576D01*
X58441443Y-45777207D01*
X58441562Y-45640703D01*
X58211965Y-45085036D01*
X57797302Y-44669649D01*
X58210471Y-44257200D01*
X58441037Y-43701935D01*
X58441562Y-43100703D01*
X58211965Y-42545036D01*
X57797302Y-42129649D01*
X58210471Y-41717200D01*
X58441037Y-41161935D01*
X58441562Y-40560703D01*
X58211965Y-40005036D01*
X57797302Y-39589649D01*
X58210471Y-39177200D01*
X58441037Y-38621935D01*
X58441562Y-38020703D01*
X58211965Y-37465036D01*
X57797302Y-37049649D01*
X58210471Y-36637200D01*
X58441037Y-36081935D01*
X58441562Y-35480703D01*
X58211965Y-34925036D01*
X58190667Y-34903700D01*
X70646260Y-34903700D01*
X70646260Y-36656300D01*
X70690538Y-36891617D01*
X70829610Y-37107741D01*
X71041810Y-37252731D01*
X71090157Y-37262522D01*
X70889529Y-37462800D01*
X70658963Y-38018065D01*
X70658438Y-38619297D01*
X70888035Y-39174964D01*
X71302698Y-39590351D01*
X70889529Y-40002800D01*
X70658963Y-40558065D01*
X70658438Y-41159297D01*
X70888035Y-41714964D01*
X71312800Y-42140471D01*
X71346592Y-42154503D01*
X71286604Y-42336999D01*
X72170000Y-43220395D01*
X73053396Y-42336999D01*
X72993553Y-42154944D01*
X73024964Y-42141965D01*
X73450471Y-41717200D01*
X73681037Y-41161935D01*
X73681562Y-40560703D01*
X73451965Y-40005036D01*
X73037302Y-39589649D01*
X73450471Y-39177200D01*
X73681037Y-38621935D01*
X73681562Y-38020703D01*
X73451965Y-37465036D01*
X73252263Y-37264985D01*
X73281617Y-37259462D01*
X73497741Y-37120390D01*
X73642731Y-36908190D01*
X73693740Y-36656300D01*
X73693740Y-34903700D01*
X73649462Y-34668383D01*
X73510390Y-34452259D01*
X73298190Y-34307269D01*
X73046300Y-34256260D01*
X71293700Y-34256260D01*
X71058383Y-34300538D01*
X70842259Y-34439610D01*
X70697269Y-34651810D01*
X70646260Y-34903700D01*
X58190667Y-34903700D01*
X57787200Y-34499529D01*
X57231935Y-34268963D01*
X56630703Y-34268438D01*
X56075036Y-34498035D01*
X55814707Y-34757910D01*
X55781653Y-34677913D01*
X54815428Y-33710000D01*
X74705908Y-33710000D01*
X79997954Y-39002046D01*
G36*
X137547000Y-49049110D02*
X137547000Y-49150890D01*
X137450890Y-49247000D01*
X137329110Y-49247000D01*
X137253000Y-49170890D01*
X137253000Y-49029110D01*
X137329110Y-48953000D01*
X137450890Y-48953000D01*
X137547000Y-49049110D01*
X137547000Y-49049110D01*
G37*
X137547000Y-49049110D02*
X137547000Y-49150890D01*
X137450890Y-49247000D01*
X137329110Y-49247000D01*
X137253000Y-49170890D01*
X137253000Y-49029110D01*
X137329110Y-48953000D01*
X137450890Y-48953000D01*
X137547000Y-49049110D01*
G36*
X125797000Y-48949110D02*
X125797000Y-49050890D01*
X125700890Y-49147000D01*
X125579110Y-49147000D01*
X125503000Y-49070890D01*
X125503000Y-48929110D01*
X125579110Y-48853000D01*
X125700890Y-48853000D01*
X125797000Y-48949110D01*
X125797000Y-48949110D01*
G37*
X125797000Y-48949110D02*
X125797000Y-49050890D01*
X125700890Y-49147000D01*
X125579110Y-49147000D01*
X125503000Y-49070890D01*
X125503000Y-48929110D01*
X125579110Y-48853000D01*
X125700890Y-48853000D01*
X125797000Y-48949110D01*
M02*
